<svg id="svg" version="1.1" width="3425" height="4961" xmlns="http://www.w3.org/2000/svg"><path d="M2880.299 645.470 C 2878.538 646.236,2874.488 648.648,2871.299 650.830 C 2868.109 653.011,2863.000 656.403,2859.945 658.366 C 2853.168 662.721,2844.273 672.000,2833.000 686.476 C 2828.325 692.479,2819.998 702.140,2814.497 707.945 C 2808.995 713.750,2799.023 724.575,2792.337 732.000 C 2785.651 739.425,2776.341 749.289,2771.648 753.920 C 2764.507 760.968,2762.873 762.139,2761.625 761.104 C 2760.805 760.423,2754.151 750.559,2746.838 739.183 C 2739.526 727.807,2728.681 712.425,2722.740 705.000 C 2715.058 695.400,2711.616 690.247,2710.828 687.165 C 2710.089 684.275,2708.955 682.481,2707.427 681.785 C 2706.167 681.211,2704.556 679.336,2703.849 677.620 C 2701.638 672.260,2695.152 666.000,2691.807 666.000 C 2690.191 666.000,2687.945 665.506,2686.816 664.901 C 2685.255 664.066,2683.295 664.210,2678.632 665.503 C 2667.086 668.704,2661.786 675.207,2659.947 688.423 C 2658.709 697.328,2659.225 701.623,2662.720 711.500 C 2665.977 720.707,2670.797 729.269,2676.391 735.790 C 2678.887 738.700,2685.077 747.025,2690.147 754.290 C 2695.217 761.556,2700.631 768.975,2702.177 770.778 C 2703.723 772.581,2705.951 775.956,2707.129 778.278 C 2708.306 780.600,2711.214 785.066,2713.590 788.203 C 2715.967 791.339,2718.902 795.839,2720.114 798.203 C 2722.207 802.288,2722.259 802.968,2721.164 812.000 C 2718.755 831.877,2723.950 864.390,2732.654 883.892 C 2739.560 899.369,2749.397 937.735,2754.474 969.000 C 2758.945 996.530,2760.041 1005.225,2760.961 1020.463 L 2761.865 1035.427 2767.445 1046.463 C 2770.513 1052.533,2773.019 1058.317,2773.012 1059.316 C 2772.991 1062.475,2774.875 1064.804,2778.392 1065.964 C 2785.597 1068.342,2790.421 1064.484,2791.551 1055.438 C 2792.018 1051.700,2793.194 1048.652,2795.280 1045.773 C 2796.955 1043.460,2798.885 1039.709,2799.568 1037.439 C 2800.252 1035.168,2801.808 1030.993,2803.026 1028.162 C 2804.974 1023.632,2805.105 1022.473,2804.111 1018.526 C 2803.489 1016.058,2802.730 1009.867,2802.423 1004.769 C 2801.932 996.616,2800.194 982.463,2797.048 961.000 C 2796.524 957.425,2795.592 950.000,2794.976 944.500 C 2794.361 939.000,2792.289 926.468,2790.372 916.652 C 2788.455 906.836,2785.817 892.886,2784.510 885.652 C 2783.203 878.418,2781.462 868.854,2780.640 864.397 C 2779.818 859.940,2778.612 850.771,2777.961 844.020 L 2776.778 831.747 2780.889 827.989 C 2783.150 825.922,2785.000 823.704,2785.000 823.061 C 2785.000 822.417,2785.948 819.809,2787.107 817.265 C 2789.237 812.590,2789.290 809.046,2787.402 797.701 C 2786.796 794.057,2787.030 793.647,2793.135 787.643 C 2796.636 784.201,2802.271 778.485,2805.657 774.942 C 2812.371 767.918,2823.495 757.743,2833.271 749.684 C 2836.697 746.860,2843.848 740.488,2849.162 735.525 C 2854.477 730.561,2861.452 724.942,2864.662 723.037 C 2874.053 717.467,2884.395 708.435,2890.244 700.696 C 2899.560 688.369,2904.890 680.461,2906.961 675.896 C 2910.851 667.324,2908.848 657.489,2901.736 650.236 C 2895.809 644.190,2887.494 642.342,2880.299 645.470 M734.000 665.511 C 728.318 667.614,726.305 669.152,718.000 677.740 C 712.775 683.143,702.056 692.499,694.180 698.532 C 686.304 704.564,677.979 710.943,675.680 712.707 C 673.381 714.470,668.273 717.515,664.328 719.473 C 650.471 726.350,643.430 737.785,644.229 752.117 C 644.659 759.833,646.333 763.887,652.033 771.019 C 653.233 772.521,654.839 777.477,656.008 783.289 C 659.070 798.510,661.343 801.362,668.523 798.992 C 672.759 797.594,673.554 796.227,675.018 787.819 C 676.931 776.831,678.749 774.736,701.078 757.775 C 706.346 753.774,716.470 746.450,723.575 741.500 C 731.800 735.769,740.746 728.322,748.200 721.000 C 759.105 710.289,760.232 708.814,764.620 699.500 C 768.408 691.460,769.315 688.503,769.246 684.411 C 769.119 676.780,767.081 672.988,760.775 668.645 C 751.775 662.447,744.558 661.602,734.000 665.511 M1804.892 669.354 C 1801.808 670.623,1797.983 672.558,1796.392 673.654 C 1794.802 674.750,1788.100 677.578,1781.500 679.938 C 1774.900 682.298,1766.218 685.732,1762.206 687.570 C 1749.026 693.606,1730.344 697.760,1706.500 699.955 C 1700.450 700.512,1690.799 701.952,1685.053 703.156 L 1674.606 705.344 1670.033 700.238 C 1666.813 696.644,1664.134 694.719,1660.980 693.734 C 1654.370 691.672,1647.515 691.617,1644.485 693.602 C 1642.924 694.624,1638.431 695.603,1632.991 696.105 C 1622.497 697.073,1618.066 699.035,1612.337 705.250 C 1606.886 711.164,1605.583 715.460,1606.376 724.910 C 1607.029 732.691,1613.542 759.555,1616.945 768.500 C 1619.147 774.290,1620.151 778.648,1623.397 796.500 C 1624.697 803.650,1626.924 813.775,1628.346 819.000 C 1629.768 824.225,1631.330 831.096,1631.817 834.268 L 1632.703 840.036 1626.373 844.553 C 1619.348 849.566,1614.893 855.984,1614.815 861.204 C 1614.740 866.221,1615.559 871.307,1616.823 873.670 C 1618.619 877.025,1626.852 883.809,1629.957 884.491 C 1632.186 884.980,1633.791 886.836,1637.584 893.305 C 1640.226 897.812,1643.949 903.878,1645.858 906.784 C 1649.056 911.654,1649.467 913.185,1651.089 926.284 C 1652.957 941.360,1655.603 957.095,1659.030 973.500 C 1660.812 982.031,1661.021 985.418,1660.449 996.560 C 1659.643 1012.279,1660.569 1017.476,1666.141 1028.500 C 1668.365 1032.900,1671.524 1039.146,1673.161 1042.381 C 1674.888 1045.793,1676.965 1052.510,1678.107 1058.381 C 1681.039 1073.448,1681.907 1076.061,1685.013 1079.167 C 1687.776 1081.930,1692.232 1082.901,1694.500 1081.235 C 1698.679 1078.164,1700.087 1070.823,1699.052 1057.500 C 1698.171 1046.164,1699.427 1039.793,1703.232 1036.300 C 1705.965 1033.790,1717.317 1028.000,1719.505 1028.000 C 1720.364 1028.000,1723.237 1026.900,1725.890 1025.556 C 1734.697 1021.093,1757.154 1014.237,1768.500 1012.546 C 1785.762 1009.975,1796.001 1007.984,1802.500 1005.934 C 1805.800 1004.894,1810.300 1003.628,1812.500 1003.122 C 1814.700 1002.616,1821.675 1000.796,1828.000 999.078 C 1834.325 997.361,1843.775 994.815,1849.000 993.422 C 1854.225 992.028,1859.497 990.238,1860.715 989.444 C 1861.933 988.650,1863.655 988.000,1864.542 988.000 C 1867.259 988.000,1872.003 982.337,1874.562 976.040 L 1876.993 970.057 1874.862 964.360 C 1871.804 956.188,1866.166 950.416,1859.936 949.080 C 1854.826 947.984,1845.630 949.172,1844.450 951.081 C 1843.344 952.871,1837.114 951.963,1831.884 949.250 C 1824.389 945.362,1816.903 945.727,1809.108 950.362 C 1804.081 953.351,1801.997 953.880,1789.000 955.461 C 1772.356 957.486,1753.218 960.492,1744.500 962.451 C 1741.200 963.192,1736.025 964.105,1733.000 964.479 C 1729.975 964.853,1723.545 966.065,1718.712 967.172 C 1713.878 968.279,1709.317 968.952,1708.575 968.667 C 1707.528 968.265,1707.076 963.065,1706.546 945.325 C 1705.902 923.753,1703.374 900.411,1699.769 882.732 C 1698.691 877.447,1698.756 876.802,1700.546 875.043 C 1701.692 873.916,1707.378 871.863,1714.297 870.077 L 1726.093 867.032 1733.913 871.016 C 1742.779 875.534,1743.685 875.660,1750.255 873.306 C 1754.200 871.892,1755.574 871.806,1758.326 872.801 C 1762.344 874.254,1766.495 874.340,1768.957 873.023 C 1769.962 872.485,1772.130 869.660,1773.776 866.743 C 1775.422 863.827,1779.256 859.316,1782.296 856.719 C 1788.237 851.643,1792.000 845.260,1792.000 840.257 C 1792.000 837.940,1792.823 836.501,1795.223 834.622 L 1798.447 832.100 1796.236 827.550 C 1795.016 825.037,1793.327 823.000,1792.465 823.000 C 1791.606 823.000,1790.334 821.647,1789.639 819.993 C 1788.163 816.483,1782.076 811.776,1776.816 810.078 C 1772.923 808.821,1761.760 810.132,1759.347 812.130 C 1757.342 813.789,1751.966 814.979,1735.000 817.520 C 1725.925 818.878,1717.365 820.231,1715.978 820.524 L 1713.456 821.059 1713.747 806.779 C 1714.273 780.968,1714.571 780.059,1724.598 773.722 C 1727.402 771.950,1732.486 768.619,1735.896 766.319 C 1739.306 764.019,1745.150 760.971,1748.881 759.545 C 1752.612 758.120,1758.732 754.939,1762.481 752.477 C 1766.229 750.014,1769.870 748.000,1770.571 748.000 C 1772.343 748.000,1773.885 753.223,1775.000 763.000 C 1776.140 772.996,1777.557 777.744,1780.297 780.750 C 1783.069 783.790,1788.324 783.767,1791.390 780.701 C 1793.725 778.366,1794.081 776.758,1796.022 759.784 C 1797.525 746.642,1798.531 744.280,1805.922 736.547 C 1809.627 732.671,1813.714 727.925,1815.004 726.000 C 1816.294 724.075,1820.800 718.675,1825.017 714.000 C 1829.233 709.325,1833.225 704.479,1833.887 703.231 C 1834.549 701.982,1835.256 695.991,1835.458 689.916 C 1835.824 678.882,1835.822 678.866,1832.868 675.502 C 1828.766 670.831,1820.705 666.994,1815.054 667.024 C 1812.549 667.037,1807.977 668.086,1804.892 669.354 M2187.500 687.487 C 2182.831 689.121,2175.623 696.714,2173.757 701.965 C 2171.770 707.555,2172.077 746.788,2174.215 760.500 C 2179.072 791.646,2179.380 796.657,2179.441 845.500 C 2179.476 873.468,2179.009 898.979,2178.287 908.500 C 2177.620 917.300,2176.809 937.325,2176.485 953.000 C 2176.160 968.675,2175.437 985.058,2174.878 989.407 C 2174.319 993.755,2174.153 998.480,2174.508 999.907 C 2175.304 1003.096,2181.944 1011.961,2188.059 1017.999 C 2190.567 1020.474,2193.815 1025.029,2195.278 1028.121 C 2197.243 1032.275,2198.833 1034.167,2201.369 1035.371 C 2203.257 1036.267,2205.292 1037.000,2205.891 1037.000 C 2206.489 1037.000,2209.452 1034.760,2212.475 1032.023 C 2215.498 1029.285,2219.215 1026.784,2220.736 1026.464 C 2222.256 1026.144,2226.200 1024.995,2229.500 1023.910 C 2232.800 1022.826,2243.375 1019.968,2253.000 1017.560 L 2270.500 1013.182 2299.873 1012.499 L 2329.245 1011.817 2334.165 1016.658 C 2340.451 1022.845,2341.713 1027.222,2342.475 1045.500 C 2343.440 1068.644,2345.007 1072.419,2353.389 1071.799 C 2359.651 1071.336,2361.609 1067.660,2362.460 1054.764 C 2362.832 1049.119,2363.773 1040.675,2364.550 1036.000 C 2365.928 1027.708,2366.567 1026.167,2376.250 1007.776 C 2384.045 992.970,2379.072 973.669,2365.706 966.850 C 2362.285 965.105,2360.325 964.840,2353.563 965.209 C 2348.346 965.493,2344.265 966.305,2342.000 967.510 C 2339.062 969.072,2335.046 969.496,2317.000 970.147 C 2305.175 970.574,2292.800 971.370,2289.500 971.915 C 2273.697 974.524,2234.754 974.997,2223.500 972.716 L 2217.500 971.500 2217.627 954.000 C 2217.696 944.375,2218.478 927.275,2219.364 916.000 C 2224.415 851.747,2224.300 802.594,2218.973 748.000 C 2218.410 742.225,2217.556 729.583,2217.075 719.908 C 2216.350 705.317,2215.853 701.632,2214.160 698.313 C 2211.921 693.924,2206.171 688.396,2202.324 686.933 C 2198.830 685.605,2192.168 685.854,2187.500 687.487 M2433.637 687.465 C 2428.900 689.154,2424.667 693.066,2421.183 698.976 C 2418.617 703.330,2418.535 703.985,2418.187 722.976 C 2417.990 733.714,2418.286 745.875,2418.845 750.000 C 2425.556 799.546,2425.258 795.241,2425.383 844.500 C 2425.456 873.202,2425.023 896.893,2424.233 907.500 C 2423.535 916.850,2422.755 932.150,2422.498 941.500 C 2422.242 950.850,2421.602 967.648,2421.078 978.829 C 2420.553 990.011,2420.392 999.911,2420.720 1000.829 C 2421.798 1003.849,2428.266 1012.409,2433.239 1017.399 C 2435.924 1020.093,2439.467 1024.963,2441.112 1028.221 C 2443.376 1032.707,2444.927 1034.489,2447.503 1035.566 C 2451.817 1037.368,2454.281 1036.451,2459.418 1031.130 C 2462.531 1027.905,2464.481 1026.838,2468.918 1025.933 C 2471.988 1025.307,2476.525 1023.963,2479.000 1022.945 C 2481.475 1021.928,2490.925 1019.306,2500.000 1017.117 L 2516.500 1013.138 2546.077 1012.490 L 2575.654 1011.841 2580.741 1017.407 C 2586.761 1023.994,2588.000 1028.279,2588.000 1042.508 C 2588.000 1055.196,2589.757 1066.422,2592.237 1069.574 C 2593.925 1071.720,2594.907 1072.055,2598.761 1071.800 C 2605.326 1071.366,2606.998 1068.688,2608.092 1056.860 C 2610.575 1030.025,2611.853 1025.054,2619.223 1013.574 C 2630.242 996.410,2627.684 977.098,2613.173 967.895 C 2607.130 964.062,2598.156 963.888,2587.668 967.400 C 2581.425 969.491,2577.984 969.873,2561.000 970.368 C 2550.275 970.680,2538.125 971.383,2534.000 971.929 C 2505.653 975.686,2468.659 975.015,2463.134 970.643 C 2461.520 969.366,2461.958 957.443,2465.015 919.500 C 2470.734 848.509,2470.366 802.432,2463.529 733.500 C 2462.711 725.250,2462.032 714.770,2462.021 710.210 C 2462.005 704.008,2461.511 700.962,2460.059 698.115 C 2457.907 693.898,2452.108 688.372,2448.324 686.933 C 2444.844 685.610,2438.161 685.852,2433.637 687.465 M853.994 701.876 C 846.216 704.423,842.612 707.699,838.071 716.352 C 834.516 723.125,834.213 727.509,836.593 737.688 C 839.020 748.066,837.403 788.216,833.520 814.000 C 832.733 819.225,831.141 830.250,829.983 838.500 C 828.825 846.750,827.228 857.775,826.436 863.000 C 825.643 868.225,824.084 880.825,822.971 891.000 C 820.590 912.770,816.624 937.999,814.251 946.481 C 813.019 950.880,812.560 956.537,812.545 967.500 L 812.524 982.500 817.362 992.500 C 824.435 1007.124,825.699 1011.420,827.987 1028.636 C 829.124 1037.193,830.669 1045.667,831.421 1047.466 C 835.284 1056.711,845.782 1055.678,847.882 1045.847 C 848.275 1044.006,848.716 1034.400,848.862 1024.500 C 849.008 1014.600,849.537 1004.925,850.038 1003.000 C 850.540 1001.075,853.227 996.350,856.009 992.500 C 861.994 984.220,864.472 976.869,863.537 970.170 C 861.539 955.851,861.859 938.158,864.482 917.854 C 865.929 906.659,867.322 896.600,867.578 895.500 C 867.834 894.400,869.373 879.775,870.998 863.000 C 874.784 823.929,875.886 814.714,876.893 813.707 C 877.343 813.257,878.287 814.278,878.990 815.976 C 879.693 817.674,881.524 820.643,883.059 822.574 C 885.766 825.980,897.542 859.457,901.501 875.000 C 904.328 886.098,920.894 932.837,924.666 940.358 C 933.293 957.556,944.672 970.000,951.772 970.000 C 955.479 970.000,964.647 965.406,969.076 961.330 C 973.065 957.659,981.991 937.518,982.018 932.129 C 982.064 922.768,986.901 898.403,995.920 862.090 C 1003.912 829.916,1003.887 830.000,1005.468 830.000 C 1007.401 830.000,1016.215 853.006,1019.950 867.801 C 1021.609 874.374,1024.551 889.820,1026.486 902.126 C 1028.421 914.432,1031.101 930.575,1032.441 938.000 C 1034.613 950.040,1043.087 1001.184,1044.619 1011.500 C 1045.678 1018.626,1048.977 1024.674,1054.877 1030.301 C 1065.289 1040.233,1069.223 1040.834,1076.451 1033.596 C 1081.507 1028.533,1083.944 1023.515,1085.622 1014.706 C 1086.781 1008.624,1086.702 1006.709,1084.875 996.700 C 1081.842 980.080,1077.629 953.913,1075.989 941.500 C 1075.023 934.195,1071.348 910.399,1067.880 889.000 C 1065.688 875.471,1058.739 846.541,1053.828 830.500 C 1044.509 800.064,1032.935 777.990,1015.658 757.704 C 1009.101 750.004,1006.392 748.696,997.988 749.171 C 990.101 749.616,984.442 752.748,980.660 758.760 C 977.682 763.493,977.087 765.496,971.966 788.000 C 969.650 798.175,965.056 816.850,961.758 829.500 C 958.459 842.150,954.408 857.788,952.756 864.250 C 951.103 870.712,949.372 876.000,948.908 876.000 C 948.444 876.000,945.988 869.362,943.451 861.250 C 937.289 841.555,932.573 827.485,928.299 816.051 C 925.503 808.571,924.999 806.231,925.879 804.821 C 926.789 803.366,926.566 802.761,924.657 801.511 C 922.121 799.849,918.408 789.331,918.864 785.100 C 919.016 783.691,917.858 780.937,916.061 778.436 C 914.378 776.091,913.000 773.915,913.000 773.600 C 913.000 772.134,898.458 741.716,894.785 735.500 C 892.510 731.650,887.915 724.888,884.574 720.473 C 881.233 716.057,877.375 710.772,876.000 708.727 C 874.625 706.682,872.007 704.296,870.182 703.425 C 866.256 701.552,857.534 700.717,853.994 701.876 M1335.153 705.127 C 1328.944 706.272,1325.140 708.815,1320.315 715.044 C 1313.891 723.339,1313.073 727.867,1314.086 749.500 C 1314.550 759.400,1316.284 777.625,1317.938 790.000 C 1319.593 802.375,1321.449 819.700,1322.062 828.500 C 1322.675 837.300,1323.803 848.325,1324.567 853.000 C 1325.332 857.675,1326.223 864.875,1326.549 869.000 C 1327.257 877.973,1328.985 888.060,1333.488 909.500 C 1337.439 928.309,1337.694 930.633,1339.472 964.000 C 1341.024 993.141,1341.835 997.194,1348.976 1011.500 C 1351.721 1017.000,1354.618 1024.129,1355.413 1027.343 C 1356.973 1033.649,1358.877 1036.368,1363.350 1038.681 C 1365.685 1039.888,1366.742 1039.935,1369.150 1038.938 C 1373.854 1036.990,1375.000 1033.509,1375.000 1021.175 C 1375.000 1005.746,1375.413 1004.235,1379.965 1003.009 C 1383.750 1001.990,1385.862 1000.205,1387.859 996.339 C 1389.401 993.353,1389.563 963.483,1388.120 948.000 C 1386.665 932.377,1386.644 931.902,1387.039 924.000 C 1387.218 920.425,1386.607 912.775,1385.681 907.000 C 1384.754 901.225,1383.718 894.700,1383.378 892.500 L 1382.760 888.500 1392.130 897.558 C 1397.283 902.540,1406.000 910.622,1411.500 915.518 C 1417.000 920.414,1423.075 925.945,1425.000 927.808 C 1426.925 929.671,1430.114 932.024,1432.087 933.035 C 1435.950 935.016,1448.026 947.379,1456.628 958.161 C 1459.553 961.826,1466.795 970.097,1472.723 976.540 C 1478.650 982.983,1486.438 992.585,1490.028 997.877 C 1493.618 1003.170,1498.568 1010.114,1501.028 1013.309 C 1503.488 1016.504,1506.400 1020.470,1507.500 1022.123 C 1508.600 1023.775,1511.050 1027.236,1512.945 1029.813 C 1518.871 1037.874,1519.632 1041.522,1522.481 1075.500 C 1523.311 1085.400,1524.252 1102.725,1524.573 1114.000 C 1525.386 1142.628,1529.396 1178.038,1532.852 1187.114 C 1534.120 1190.446,1540.810 1196.000,1543.554 1196.000 C 1544.707 1196.000,1546.742 1194.838,1548.076 1193.419 L 1550.500 1190.837 1550.500 1096.669 L 1550.500 1002.500 1553.342 996.712 C 1554.906 993.528,1557.537 989.928,1559.190 988.712 C 1563.999 985.173,1567.165 978.808,1567.752 971.503 C 1568.491 962.297,1565.811 956.217,1557.359 947.927 C 1553.755 944.392,1541.636 931.528,1530.426 919.341 C 1519.217 907.153,1508.841 896.233,1507.368 895.075 C 1505.895 893.916,1503.747 891.707,1502.595 890.166 C 1498.392 884.544,1471.806 859.832,1453.140 844.195 C 1450.313 841.827,1448.011 839.577,1448.025 839.195 C 1448.039 838.813,1451.298 836.475,1455.267 834.000 C 1474.543 821.983,1481.721 808.628,1483.486 781.500 C 1484.024 773.239,1483.789 770.172,1482.139 763.864 C 1477.134 744.740,1466.606 731.879,1448.833 723.174 C 1423.376 710.707,1411.543 708.079,1376.000 706.996 C 1361.975 706.569,1349.600 705.973,1348.500 705.672 C 1344.416 704.554,1339.376 704.348,1335.153 705.127 M2009.885 714.742 C 2003.707 717.086,2000.520 718.591,1991.000 723.665 C 1985.018 726.854,1979.495 733.058,1975.569 741.000 C 1973.195 745.802,1972.540 748.189,1973.061 750.137 C 1973.449 751.588,1974.079 757.663,1974.460 763.637 C 1975.269 776.306,1974.448 780.916,1969.328 792.449 C 1967.363 796.877,1963.392 807.250,1960.504 815.500 C 1953.119 836.601,1943.066 861.615,1933.979 881.500 C 1928.068 894.433,1924.371 904.601,1918.526 924.000 C 1914.299 938.025,1910.599 951.985,1910.303 955.022 C 1909.595 962.271,1911.403 970.608,1915.230 977.737 C 1920.227 987.048,1921.082 992.874,1921.872 1023.000 C 1922.700 1054.559,1923.273 1057.153,1929.815 1058.960 C 1934.369 1060.217,1937.525 1058.381,1939.682 1053.220 C 1940.620 1050.973,1942.273 1037.982,1944.030 1019.048 C 1946.233 995.291,1947.457 986.388,1949.534 979.000 C 1952.304 969.143,1953.602 965.954,1955.294 964.852 C 1956.417 964.120,1958.744 958.241,1959.985 953.000 C 1960.441 951.075,1961.306 947.928,1961.907 946.007 C 1962.508 944.085,1963.037 941.160,1963.082 939.507 L 1963.163 936.500 1964.669 940.000 C 1967.095 945.635,1969.861 948.000,1974.028 948.000 C 1980.462 948.000,1983.388 943.851,1985.437 931.821 C 1986.462 925.806,1988.646 924.026,1996.943 922.445 C 2001.341 921.607,2008.649 919.009,2014.926 916.053 C 2023.427 912.049,2027.264 910.843,2034.500 909.899 C 2045.535 908.459,2058.326 909.801,2060.980 912.676 C 2062.428 914.245,2071.000 932.809,2071.000 934.375 C 2071.000 934.681,2073.963 941.359,2077.585 949.215 C 2086.671 968.928,2094.620 987.012,2095.511 990.000 C 2095.921 991.375,2098.850 997.675,2102.019 1004.000 C 2105.188 1010.325,2108.082 1016.501,2108.450 1017.724 C 2109.376 1020.805,2113.728 1024.000,2117.000 1024.000 C 2120.964 1024.000,2124.804 1020.500,2127.480 1014.449 C 2128.769 1011.534,2131.776 1006.304,2134.162 1002.825 L 2138.500 996.500 2138.500 987.000 L 2138.500 977.500 2128.340 956.500 C 2122.753 944.950,2115.846 929.889,2112.992 923.032 L 2107.804 910.564 2111.152 907.667 C 2119.633 900.329,2120.779 898.933,2121.863 894.632 C 2124.245 885.169,2119.149 873.656,2111.064 870.234 C 2109.104 869.404,2103.917 868.450,2099.538 868.113 L 2091.575 867.500 2086.495 853.919 C 2081.681 841.049,2068.242 813.168,2060.024 799.000 C 2057.950 795.425,2052.374 784.870,2047.633 775.545 L 2039.012 758.590 2040.453 749.545 C 2041.703 741.706,2041.706 739.246,2040.476 731.095 C 2038.892 720.599,2037.496 718.341,2030.584 715.106 C 2024.045 712.046,2017.304 711.927,2009.885 714.742 M537.360 733.081 C 530.413 735.753,523.670 743.006,521.575 750.058 C 519.625 756.625,519.610 766.992,521.536 777.500 C 522.342 781.900,523.886 790.675,524.967 797.000 C 529.589 824.051,538.409 858.230,544.966 874.500 C 546.517 878.350,548.501 885.100,549.374 889.500 C 551.097 898.185,559.410 948.377,560.471 956.500 C 560.829 959.250,561.995 965.936,563.062 971.358 C 564.128 976.780,565.004 983.755,565.010 986.858 C 565.022 993.947,568.045 1000.703,575.223 1009.683 C 583.828 1020.449,584.487 1021.000,588.763 1021.000 C 593.290 1021.000,594.858 1019.905,598.071 1014.500 C 599.380 1012.300,602.098 1008.700,604.114 1006.500 C 610.694 999.316,611.574 989.636,607.577 968.384 C 606.245 961.298,603.972 947.850,602.526 938.500 C 601.080 929.150,598.083 910.925,595.865 898.000 C 589.902 863.254,586.114 833.776,585.006 813.500 C 583.328 782.802,581.320 769.813,576.580 759.000 C 574.772 754.875,572.510 749.350,571.553 746.722 C 569.172 740.183,564.620 735.719,557.712 733.151 C 550.600 730.507,544.110 730.485,537.360 733.081 M1411.543 757.486 C 1424.620 760.803,1433.411 764.983,1435.892 769.064 C 1438.340 773.088,1439.430 782.174,1438.147 787.859 C 1436.772 793.955,1433.134 796.772,1415.451 805.437 C 1400.929 812.553,1400.151 812.810,1393.245 812.767 C 1387.481 812.731,1385.040 813.235,1380.695 815.361 C 1377.728 816.812,1374.803 818.000,1374.196 818.000 C 1372.835 818.000,1372.310 814.943,1370.932 799.000 C 1370.338 792.125,1369.435 784.301,1368.926 781.614 C 1367.583 774.527,1367.789 767.308,1369.425 764.145 C 1371.311 760.499,1374.864 759.009,1381.797 758.958 C 1385.465 758.931,1388.749 758.232,1391.000 757.000 C 1395.691 754.432,1399.896 754.531,1411.543 757.486 M1694.554 815.276 C 1696.540 823.888,1695.924 826.100,1692.107 824.057 C 1689.791 822.818,1689.449 819.236,1690.673 809.036 C 1691.424 802.782,1691.818 803.416,1694.554 815.276 M2019.961 837.189 C 2021.082 838.392,2022.000 839.708,2022.000 840.112 C 2022.000 840.516,2023.171 842.238,2024.602 843.938 C 2027.841 847.789,2036.190 863.143,2035.448 863.885 C 2035.147 864.186,2028.735 864.750,2021.200 865.138 C 2013.665 865.526,2004.350 866.320,2000.500 866.902 C 1996.650 867.484,1993.171 867.969,1992.770 867.980 C 1991.940 868.003,1992.433 862.233,1993.338 861.329 C 1993.663 861.004,1995.475 861.472,1997.365 862.369 C 2002.109 864.620,2003.726 864.430,2006.892 861.250 C 2009.071 859.063,2010.084 856.365,2011.847 848.065 C 2014.700 834.630,2015.979 832.915,2019.961 837.189 " stroke="none" fill="black" fill-rule="evenodd"></path></svg>