<svg id="svg" version="1.1" width="3508" height="1325" xmlns="http://www.w3.org/2000/svg"><path d="M470.000 75.050 C 433.490 77.695,399.418 89.202,373.000 107.808 C 362.738 115.035,347.206 131.250,339.715 142.556 C 320.203 172.005,311.699 205.364,311.816 252.000 C 311.955 307.549,325.473 347.444,354.434 377.779 C 388.149 413.095,437.442 429.504,504.421 427.707 C 563.044 426.135,603.575 411.343,635.090 380.019 C 659.313 355.943,672.253 328.789,678.703 288.500 C 681.242 272.642,681.228 229.015,678.680 213.500 C 672.110 173.507,659.179 146.039,636.058 122.961 C 624.666 111.590,617.551 106.159,603.512 98.115 C 570.735 79.336,523.494 71.175,470.000 75.050 M2570.979 75.047 C 2565.193 75.464,2554.022 76.989,2546.155 78.437 C 2493.313 88.158,2453.759 115.155,2432.659 155.902 C 2418.696 182.865,2412.689 211.430,2412.660 251.000 C 2412.626 296.905,2421.032 329.538,2440.738 360.000 C 2447.901 371.073,2466.597 389.749,2478.103 397.324 C 2511.852 419.545,2552.053 429.139,2605.421 427.707 C 2643.091 426.697,2669.056 421.169,2695.729 408.480 C 2736.251 389.203,2763.260 355.810,2774.977 310.500 C 2780.222 290.216,2781.435 279.042,2781.435 251.000 C 2781.435 222.958,2780.222 211.784,2774.977 191.500 C 2758.935 129.467,2714.481 90.418,2645.813 78.040 C 2625.186 74.321,2596.809 73.187,2570.979 75.047 M740.000 251.000 L 740.000 422.000 790.500 422.000 L 841.000 422.000 841.000 339.417 C 841.000 291.867,841.376 256.975,841.886 257.167 C 842.373 257.350,874.666 294.400,913.648 339.500 L 984.524 421.500 1032.762 421.760 L 1081.000 422.019 1081.000 251.010 L 1081.000 80.000 1030.506 80.000 L 980.011 80.000 979.756 163.863 L 979.500 247.725 908.000 163.864 L 836.500 80.003 788.250 80.001 L 740.000 80.000 740.000 251.000 M1155.000 251.000 L 1155.000 422.000 1297.500 422.000 L 1440.000 422.000 1440.000 378.500 L 1440.000 335.000 1352.500 335.000 L 1265.000 335.000 1265.000 207.500 L 1265.000 80.000 1210.000 80.000 L 1155.000 80.000 1155.000 251.000 M1454.164 80.832 C 1454.349 81.298,1484.763 128.276,1521.750 185.228 L 1589.000 288.778 1589.000 355.389 L 1589.000 422.000 1644.000 422.000 L 1699.000 422.000 1699.018 355.750 L 1699.036 289.500 1765.610 185.500 C 1802.226 128.300,1832.394 81.162,1832.651 80.750 C 1832.908 80.337,1806.136 80.000,1773.158 80.000 L 1713.199 80.000 1680.349 136.979 C 1662.282 168.318,1647.050 193.954,1646.500 193.948 C 1645.950 193.941,1630.788 168.413,1612.806 137.218 L 1580.112 80.500 1516.970 80.243 C 1482.242 80.101,1453.979 80.366,1454.164 80.832 M2007.000 80.523 C 2007.000 80.810,2037.375 127.845,2074.500 185.044 L 2142.000 289.043 2142.000 355.522 L 2142.000 422.000 2197.000 422.000 L 2252.000 422.000 2252.000 355.697 L 2252.000 289.394 2315.624 189.947 C 2350.618 135.251,2380.764 88.134,2382.617 85.242 L 2385.985 79.984 2325.876 80.242 L 2265.766 80.500 2233.133 136.928 C 2215.185 167.963,2200.050 193.498,2199.500 193.673 C 2198.950 193.848,2183.692 168.343,2165.593 136.995 L 2132.686 80.000 2069.843 80.000 C 2035.279 80.000,2007.000 80.235,2007.000 80.523 M2841.281 192.250 C 2841.668 301.263,2841.740 304.818,2843.781 315.512 C 2849.349 344.692,2859.926 365.872,2877.910 383.856 C 2901.828 407.773,2934.770 421.542,2980.199 426.613 C 2998.119 428.614,3036.992 428.032,3053.000 425.524 C 3095.045 418.936,3122.733 406.472,3145.055 384.084 C 3161.892 367.197,3171.139 350.397,3177.517 325.104 C 3181.746 308.335,3182.000 300.567,3182.000 187.788 L 3182.000 80.000 3127.000 80.000 L 3072.000 80.000 3072.000 186.042 C 3072.000 304.556,3072.202 300.803,3065.034 315.500 C 3058.179 329.556,3047.681 338.519,3032.500 343.278 C 3026.756 345.079,3023.078 345.475,3012.000 345.486 C 2996.576 345.502,2990.739 344.343,2980.521 339.233 C 2971.343 334.645,2963.281 326.399,2958.600 316.811 C 2951.092 301.435,2951.580 309.927,2951.239 188.750 L 2950.933 80.000 2895.908 80.000 L 2840.883 80.000 2841.281 192.250 M518.500 158.508 C 541.290 164.698,558.418 182.236,564.937 206.057 C 567.810 216.556,568.964 229.540,568.974 251.500 C 568.989 282.248,566.615 296.171,558.752 311.443 C 553.642 321.370,542.413 333.042,533.465 337.728 C 522.059 343.701,513.430 345.479,496.000 345.450 C 482.950 345.428,479.241 345.066,472.535 343.156 C 448.474 336.305,433.420 319.611,426.405 292.000 C 424.180 283.242,423.208 232.760,425.009 219.500 C 429.861 183.791,449.914 161.868,482.500 156.649 C 488.690 155.658,512.539 156.889,518.500 158.508 M2619.500 158.534 C 2644.896 165.539,2661.720 184.783,2667.554 213.500 C 2669.560 223.373,2670.494 259.708,2669.134 275.000 C 2667.711 291.016,2665.875 298.287,2660.332 309.858 C 2656.691 317.461,2654.411 320.657,2648.175 326.901 C 2639.498 335.590,2632.386 339.762,2620.465 343.156 C 2613.759 345.066,2610.050 345.428,2597.000 345.450 C 2583.768 345.472,2580.334 345.140,2573.535 343.182 C 2561.975 339.853,2554.463 335.517,2546.418 327.530 C 2535.472 316.663,2529.329 303.920,2526.398 286.000 C 2524.383 273.681,2524.480 227.244,2526.545 215.402 C 2529.671 197.476,2535.188 186.015,2546.000 174.988 C 2555.370 165.432,2566.740 159.641,2581.238 157.044 C 2588.990 155.656,2612.365 156.566,2619.500 158.534 M468.500 463.652 C 412.490 470.222,379.912 483.959,350.436 513.436 C 323.776 540.095,309.811 570.998,303.861 616.500 C 301.713 632.934,302.238 671.554,304.841 688.500 C 311.269 730.355,324.977 759.285,350.370 784.587 C 385.069 819.163,430.872 835.015,496.000 834.989 C 539.909 834.972,571.211 828.593,601.500 813.491 C 641.829 793.382,668.926 760.695,681.491 717.000 C 687.925 694.623,690.127 677.295,690.133 649.000 C 690.140 613.809,685.427 587.089,674.851 562.362 C 665.941 541.530,655.863 526.901,639.696 511.329 C 611.681 484.346,575.221 469.066,526.789 464.013 C 517.898 463.086,475.564 462.823,468.500 463.652 M2562.000 464.430 C 2512.823 470.503,2479.028 485.548,2450.972 513.858 C 2437.131 527.825,2430.640 536.848,2422.453 553.500 C 2408.973 580.916,2403.522 608.414,2403.522 649.000 C 2403.522 690.039,2408.924 716.928,2422.910 745.500 C 2447.395 795.519,2495.719 826.068,2562.082 833.482 C 2579.844 835.466,2614.559 835.450,2632.000 833.449 C 2677.367 828.245,2713.499 812.758,2740.369 787.000 C 2762.748 765.549,2776.431 741.365,2784.503 709.000 C 2789.584 688.627,2790.500 679.466,2790.500 649.000 C 2790.500 626.186,2790.138 618.306,2788.686 609.500 C 2782.083 569.449,2768.644 540.355,2745.622 516.262 C 2719.207 488.619,2686.283 472.775,2640.000 465.432 C 2625.970 463.206,2577.003 462.577,2562.000 464.430 M731.462 469.250 C 731.201 469.938,731.102 551.275,731.243 650.000 L 731.500 829.500 791.000 829.500 L 850.500 829.500 851.000 754.740 L 851.500 679.980 916.419 754.998 L 981.338 830.017 1035.919 829.758 L 1090.500 829.500 1090.500 649.000 L 1090.500 468.500 1030.756 468.242 L 971.012 467.984 970.756 544.392 L 970.500 620.800 907.768 547.150 C 873.266 506.642,843.885 472.262,842.478 470.750 L 839.919 468.000 785.928 468.000 C 743.656 468.000,731.834 468.271,731.462 469.250 M1146.000 649.003 L 1146.000 830.006 1297.750 829.753 L 1449.500 829.500 1449.759 776.250 L 1450.018 723.000 1362.009 723.000 L 1274.000 723.000 1274.000 595.500 L 1274.000 468.000 1210.000 468.000 L 1146.000 468.000 1146.000 649.003 M1437.357 469.487 C 1437.673 470.312,1469.898 520.314,1508.966 580.602 L 1580.000 690.217 1580.000 760.116 L 1580.000 830.015 1644.250 829.757 L 1708.500 829.500 1708.757 759.387 L 1709.013 689.274 1779.347 579.387 C 1818.031 518.949,1849.390 469.159,1849.034 468.743 C 1848.678 468.327,1816.763 468.102,1778.112 468.243 L 1707.838 468.500 1677.669 520.855 C 1661.076 549.650,1647.066 573.218,1646.535 573.228 C 1646.005 573.239,1631.993 549.679,1615.399 520.874 L 1585.227 468.500 1511.004 468.244 C 1445.367 468.017,1436.848 468.161,1437.357 469.487 M1990.000 468.909 C 1990.000 469.409,2022.175 519.469,2061.500 580.154 L 2133.000 690.489 2133.000 760.245 L 2133.000 830.000 2197.000 830.000 L 2261.000 830.000 2261.011 760.250 L 2261.022 690.500 2331.511 580.284 C 2370.280 519.666,2402.000 469.600,2402.000 469.028 C 2402.000 468.314,2379.797 468.067,2331.334 468.243 L 2260.667 468.500 2230.584 520.706 C 2214.038 549.420,2200.050 573.006,2199.500 573.119 C 2198.950 573.233,2184.838 549.627,2168.140 520.663 L 2137.780 468.000 2063.890 468.000 C 2020.217 468.000,1990.000 468.372,1990.000 468.909 M2832.283 587.243 C 2832.676 717.520,2832.376 710.586,2838.568 732.500 C 2849.019 769.485,2874.420 798.693,2911.045 815.841 C 2928.654 824.085,2944.937 828.738,2970.000 832.688 C 2986.468 835.283,3037.320 835.278,3054.000 832.679 C 3099.774 825.547,3130.085 811.397,3154.772 785.633 C 3171.868 767.793,3181.453 748.755,3188.177 719.288 L 3190.410 709.500 3190.739 588.750 L 3191.069 468.000 3127.034 468.000 L 3063.000 468.000 3062.965 577.250 C 3062.926 698.505,3063.024 696.497,3056.527 709.642 C 3052.139 718.522,3046.038 724.950,3038.351 728.797 C 3029.683 733.134,3022.939 734.463,3010.000 734.385 C 3000.353 734.326,2997.338 733.905,2991.289 731.771 C 2977.980 727.076,2969.769 718.782,2964.173 704.379 L 2961.500 697.500 2961.000 583.000 L 2960.500 468.500 2896.212 468.243 L 2831.923 467.985 2832.283 587.243 M527.500 483.084 C 539.415 484.252,550.259 486.284,562.500 489.642 C 616.126 504.354,651.610 539.569,664.953 591.318 C 669.900 610.502,671.388 623.846,671.388 649.000 C 671.388 674.179,669.900 687.496,664.934 706.756 C 651.627 758.364,616.936 793.040,563.257 808.389 C 525.332 819.233,466.668 819.233,428.743 808.389 C 386.846 796.409,356.002 772.104,338.684 737.424 C 330.802 721.641,324.495 698.265,322.055 675.789 C 320.699 663.306,320.699 634.694,322.055 622.211 C 324.495 599.735,330.802 576.359,338.684 560.576 C 353.579 530.746,379.414 507.892,412.783 495.023 C 443.311 483.251,484.974 478.915,527.500 483.084 M2614.318 482.038 C 2653.002 484.382,2683.326 493.107,2707.407 508.822 C 2743.707 532.511,2763.540 565.981,2770.621 615.500 C 2772.973 631.952,2772.973 666.048,2770.621 682.500 C 2765.126 720.930,2752.397 748.676,2730.022 771.000 C 2712.239 788.742,2691.379 800.579,2664.085 808.417 C 2626.758 819.137,2568.039 819.204,2530.266 808.572 C 2504.241 801.246,2483.588 790.003,2466.575 773.900 C 2444.786 753.274,2431.162 726.012,2424.898 690.500 C 2422.213 675.278,2421.175 639.585,2422.930 622.823 C 2426.271 590.916,2434.591 566.022,2449.268 544.015 C 2459.356 528.890,2480.518 510.771,2498.851 501.565 C 2521.931 489.974,2551.555 483.016,2583.500 481.684 C 2587.350 481.523,2592.075 481.308,2594.000 481.206 C 2595.925 481.103,2605.068 481.478,2614.318 482.038 M910.213 578.933 C 953.271 629.495,988.837 670.895,989.250 670.933 C 989.663 670.970,990.000 629.600,990.000 579.000 L 990.000 487.000 1031.000 487.000 L 1072.000 487.000 1072.000 649.000 L 1072.000 811.000 1030.750 810.982 L 989.500 810.964 912.167 721.535 C 869.634 672.350,834.196 631.578,833.417 630.931 C 832.196 629.918,832.000 642.295,832.000 720.378 L 832.000 811.000 791.000 811.000 L 750.000 811.000 750.000 649.000 L 750.000 487.000 790.963 487.000 L 831.927 487.000 910.213 578.933 M1255.000 614.500 L 1255.000 742.000 1343.000 742.000 L 1431.000 742.000 1431.000 776.500 L 1431.000 811.000 1297.500 811.000 L 1164.000 811.000 1164.000 649.000 L 1164.000 487.000 1209.500 487.000 L 1255.000 487.000 1255.000 614.500 M1607.120 543.774 L 1639.740 600.500 1646.510 600.500 L 1653.279 600.500 1685.421 544.769 C 1703.099 514.116,1718.025 488.575,1718.591 488.009 C 1719.274 487.326,1735.763 487.068,1767.733 487.240 L 1815.846 487.500 1752.923 585.922 L 1690.000 684.345 1690.000 747.672 L 1690.000 811.000 1644.500 811.000 L 1599.000 811.000 1599.000 748.039 L 1599.000 685.077 1536.853 589.289 C 1502.672 536.605,1473.828 492.038,1472.754 490.250 L 1470.802 487.000 1522.651 487.024 L 1574.500 487.049 1607.120 543.774 M2160.009 544.000 L 2192.566 600.500 2199.356 600.500 L 2206.147 600.500 2238.823 543.757 L 2271.500 487.015 2319.857 487.007 C 2362.530 487.001,2368.146 487.177,2367.636 488.507 C 2367.318 489.336,2339.145 533.688,2305.029 587.068 L 2243.000 684.121 2243.000 747.561 L 2243.000 811.000 2197.000 811.000 L 2151.000 811.000 2151.000 747.394 L 2151.000 683.788 2087.500 585.874 C 2052.575 532.022,2024.000 487.741,2024.000 487.472 C 2024.000 487.202,2047.277 487.099,2075.726 487.241 L 2127.452 487.500 2160.009 544.000 M2942.035 588.750 C 2942.072 696.802,2942.119 698.000,2946.876 711.432 C 2951.175 723.572,2960.575 735.869,2970.689 742.582 C 2973.837 744.671,2980.257 747.722,2984.956 749.362 C 2992.549 752.012,2995.114 752.390,3008.000 752.763 C 3025.011 753.256,3032.993 751.924,3044.157 746.731 C 3062.156 738.358,3074.277 722.509,3079.655 700.316 C 3081.121 694.266,3081.352 681.901,3081.716 590.250 L 3082.126 487.000 3127.563 487.000 L 3173.000 487.000 3173.000 585.355 C 3173.000 644.882,3172.587 688.791,3171.955 696.581 C 3168.058 744.576,3148.017 776.453,3108.872 796.924 C 3086.758 808.488,3063.209 814.125,3028.500 816.161 C 2941.546 821.262,2880.097 792.198,2859.685 736.315 C 2851.029 712.618,2851.000 712.129,2851.000 591.928 L 2851.000 487.000 2896.500 487.000 L 2942.000 487.000 2942.035 588.750 M479.477 545.988 C 463.485 548.339,449.741 555.208,438.353 566.543 C 431.429 573.434,429.444 576.216,425.132 585.076 C 416.542 602.725,415.764 607.364,415.259 643.939 C 414.681 685.788,416.163 695.683,425.821 714.500 C 431.501 725.565,443.035 737.783,453.000 743.287 C 472.304 753.949,504.425 756.178,527.189 748.436 C 548.403 741.220,565.257 723.383,572.952 700.000 C 576.813 688.270,577.989 676.321,577.974 649.000 C 577.955 613.942,576.328 603.764,567.963 586.383 C 557.244 564.109,537.300 549.637,512.356 546.031 C 504.581 544.907,486.988 544.884,479.477 545.988 M2579.803 546.011 C 2552.945 550.271,2531.320 568.058,2522.134 593.443 C 2516.423 609.227,2515.606 616.259,2515.626 649.500 C 2515.643 676.480,2515.863 680.520,2517.818 689.636 C 2521.892 708.634,2528.984 722.026,2540.950 733.314 C 2556.622 748.098,2574.964 753.888,2602.395 752.710 C 2625.681 751.709,2640.026 745.972,2654.111 732.026 C 2673.272 713.053,2678.983 694.223,2678.994 649.974 C 2679.003 615.234,2676.958 602.684,2668.485 585.485 C 2659.284 566.806,2643.583 553.888,2622.893 547.973 C 2614.461 545.562,2589.734 544.436,2579.803 546.011 M515.907 565.527 C 537.260 570.603,552.267 587.672,557.483 612.815 C 559.631 623.172,559.640 673.407,557.495 684.713 C 552.716 709.905,538.975 725.877,516.733 732.090 C 505.693 735.174,487.320 735.179,475.647 732.100 C 451.515 725.736,437.456 707.144,433.946 676.953 C 432.081 660.914,433.228 619.729,435.823 609.500 C 438.530 598.833,441.171 592.916,446.653 585.234 C 457.540 569.976,475.917 562.431,499.500 563.536 C 505.000 563.793,512.383 564.690,515.907 565.527 M2610.000 564.405 C 2621.169 566.241,2628.622 569.147,2635.898 574.504 C 2647.084 582.739,2654.679 595.776,2658.147 612.695 C 2659.967 621.578,2660.117 625.368,2659.741 653.000 C 2659.361 680.948,2659.140 684.126,2657.095 690.984 C 2652.283 707.122,2642.071 720.958,2630.311 727.272 C 2612.442 736.867,2581.499 736.830,2563.543 727.193 C 2551.339 720.642,2541.583 706.893,2536.797 689.500 C 2534.739 682.017,2534.596 679.400,2534.596 649.000 C 2534.596 612.376,2535.230 607.971,2542.617 593.275 C 2554.278 570.075,2579.293 559.357,2610.000 564.405 M469.500 876.140 C 409.469 881.331,364.027 903.830,335.480 942.495 C 318.640 965.304,308.271 993.658,303.846 1029.000 C 302.155 1042.502,302.148 1080.416,303.834 1094.000 C 313.968 1175.654,360.498 1226.688,439.153 1242.418 C 459.838 1246.555,470.883 1247.504,497.500 1247.432 C 530.508 1247.343,551.082 1244.440,576.500 1236.287 C 642.017 1215.272,681.042 1164.888,689.032 1091.000 C 690.486 1077.546,690.483 1045.547,689.025 1031.997 C 682.042 967.082,652.010 921.465,599.500 896.012 C 581.474 887.275,567.186 882.839,544.860 879.048 C 522.182 875.197,493.290 874.082,469.500 876.140 M2570.743 876.014 C 2528.206 879.841,2493.746 891.773,2466.798 912.006 C 2437.210 934.222,2418.406 964.197,2409.015 1004.117 C 2402.012 1033.888,2401.191 1076.498,2407.000 1108.760 C 2419.309 1177.114,2461.584 1222.752,2528.500 1239.923 C 2575.400 1251.958,2637.780 1250.076,2680.383 1235.341 C 2745.058 1212.972,2782.444 1163.154,2790.088 1089.158 C 2791.777 1072.803,2790.683 1032.814,2788.155 1018.500 C 2779.030 966.835,2757.348 931.762,2718.812 906.326 C 2696.159 891.374,2669.505 882.126,2635.631 877.464 C 2622.320 875.633,2584.400 874.785,2570.743 876.014 M731.000 1061.500 L 731.000 1242.000 790.994 1242.000 L 850.987 1242.000 851.244 1167.134 L 851.500 1092.268 916.000 1167.064 L 980.500 1241.860 1035.750 1241.930 L 1091.000 1242.000 1091.000 1061.500 L 1091.000 881.000 1031.006 881.000 L 971.012 881.000 970.756 957.041 L 970.500 1033.083 905.647 957.041 L 840.794 881.000 785.897 881.000 L 731.000 881.000 731.000 1061.500 M1146.000 1061.500 L 1146.000 1242.000 1298.000 1242.000 L 1450.000 1242.000 1450.000 1189.000 L 1450.000 1136.000 1362.000 1136.000 L 1274.000 1136.000 1274.000 1008.500 L 1274.000 881.000 1210.000 881.000 L 1146.000 881.000 1146.000 1061.500 M1437.000 881.525 C 1437.000 881.813,1469.175 931.647,1508.500 992.265 L 1580.000 1102.481 1580.000 1172.241 L 1580.000 1242.000 1644.500 1242.000 L 1709.000 1242.000 1709.000 1171.879 L 1709.000 1101.758 1778.148 993.629 C 1816.179 934.158,1847.957 884.484,1848.767 883.243 L 1850.239 880.987 1778.897 881.243 L 1707.555 881.500 1677.751 933.000 C 1661.359 961.325,1647.602 985.066,1647.180 985.758 C 1646.693 986.554,1635.241 967.589,1615.956 934.053 L 1585.500 881.091 1511.250 881.045 C 1470.412 881.020,1437.000 881.236,1437.000 881.525 M2061.070 991.858 L 2133.000 1102.729 2133.000 1172.365 L 2133.000 1242.000 2197.000 1242.000 L 2261.000 1242.000 2261.000 1172.540 L 2261.000 1103.081 2328.635 997.290 C 2365.835 939.106,2397.779 889.138,2399.623 886.250 L 2402.975 881.000 2331.738 881.025 L 2260.500 881.050 2230.021 933.962 C 2213.257 963.064,2199.338 986.672,2199.090 986.424 C 2198.842 986.175,2185.072 962.466,2168.490 933.736 L 2138.342 881.500 2063.741 881.244 L 1989.139 880.987 2061.070 991.858 M2832.241 999.750 C 2832.550 1117.919,2832.562 1118.555,2834.780 1129.706 C 2844.520 1178.683,2871.714 1211.919,2918.053 1231.478 C 2951.152 1245.449,3003.195 1251.234,3048.000 1245.923 C 3129.759 1236.231,3179.525 1192.988,3189.472 1122.994 C 3190.724 1114.185,3190.966 1093.910,3190.982 996.750 L 3191.000 881.000 3127.033 881.000 L 3063.065 881.000 3062.745 993.750 C 3062.456 1095.190,3062.258 1107.039,3060.771 1111.869 C 3053.190 1136.498,3035.310 1148.172,3007.500 1146.651 C 2991.953 1145.801,2982.987 1142.243,2974.538 1133.574 C 2971.767 1130.731,2968.265 1125.872,2966.756 1122.777 C 2960.857 1110.680,2961.031 1114.622,2961.015 992.750 L 2961.000 881.000 2896.465 881.000 L 2831.930 881.000 2832.241 999.750 M535.000 896.463 C 566.911 901.508,588.650 909.274,608.561 922.740 C 643.633 946.461,662.193 978.131,669.660 1027.000 C 672.113 1043.051,672.113 1079.949,669.660 1096.000 C 663.257 1137.902,647.956 1168.396,622.684 1189.621 C 600.178 1208.522,577.471 1218.764,544.500 1224.885 C 514.373 1230.478,477.456 1230.482,447.500 1224.895 C 414.319 1218.706,391.176 1208.267,369.614 1189.764 C 344.657 1168.348,329.982 1139.562,323.273 1098.863 C 320.821 1083.989,320.855 1037.730,323.329 1023.500 C 327.648 998.655,333.951 980.459,344.285 963.000 C 352.172 949.675,369.736 931.554,383.500 922.540 C 405.761 907.962,432.057 899.221,465.000 895.448 C 480.686 893.652,520.907 894.235,535.000 896.463 M2623.576 895.079 C 2650.998 897.788,2670.864 903.006,2691.613 912.949 C 2708.175 920.886,2717.620 927.501,2730.139 939.934 C 2759.122 968.716,2772.289 1006.470,2772.362 1061.000 C 2772.436 1116.050,2759.257 1154.149,2730.139 1183.066 C 2698.735 1214.253,2656.012 1229.000,2597.068 1229.000 C 2493.060 1229.000,2432.987 1180.940,2423.058 1089.789 C 2421.696 1077.292,2421.696 1045.708,2423.058 1033.211 C 2429.381 975.161,2455.839 934.535,2501.370 912.963 C 2528.521 900.099,2556.703 894.405,2594.576 894.131 C 2604.518 894.059,2617.568 894.486,2623.576 895.079 M910.519 991.500 C 953.379 1041.825,988.796 1083.000,989.223 1083.000 C 989.650 1083.000,990.000 1041.825,990.000 991.500 L 990.000 900.000 1031.000 900.000 L 1072.000 900.000 1072.000 1061.500 L 1072.000 1223.000 1030.598 1223.000 L 989.196 1223.000 910.848 1132.337 L 832.500 1041.673 832.245 1132.337 L 831.989 1223.000 790.995 1223.000 L 750.000 1223.000 750.000 1061.500 L 750.000 900.000 791.296 900.000 L 832.592 900.000 910.519 991.500 M1255.000 1027.000 L 1255.000 1154.000 1343.000 1154.000 L 1431.000 1154.000 1431.000 1188.500 L 1431.000 1223.000 1297.500 1223.000 L 1164.000 1223.000 1164.000 1061.500 L 1164.000 900.000 1209.500 900.000 L 1255.000 900.000 1255.000 1027.000 M1606.481 955.250 C 1623.976 985.638,1638.970 1011.288,1639.800 1012.250 C 1641.591 1014.325,1650.886 1014.714,1652.807 1012.793 C 1653.471 1012.129,1668.501 986.479,1686.209 955.793 L 1718.403 900.000 1767.250 900.000 L 1816.096 900.000 1813.211 904.250 C 1811.625 906.587,1783.253 950.883,1750.163 1002.685 L 1690.000 1096.871 1690.000 1159.935 L 1690.000 1223.000 1644.500 1223.000 L 1599.000 1223.000 1598.993 1160.250 L 1598.986 1097.500 1536.415 1001.000 C 1502.000 947.925,1473.193 903.487,1472.399 902.250 L 1470.954 900.000 1522.813 900.000 L 1574.672 900.000 1606.481 955.250 M2160.386 957.006 L 2193.273 1014.000 2199.068 1014.000 C 2204.260 1014.000,2205.063 1013.713,2206.778 1011.250 C 2207.831 1009.737,2222.762 984.087,2239.959 954.250 L 2271.226 900.000 2319.613 900.000 C 2346.226 900.000,2368.000 900.238,2368.000 900.529 C 2368.000 900.819,2339.881 945.032,2305.514 998.779 L 2243.028 1096.500 2243.014 1159.750 L 2243.000 1223.000 2197.000 1223.000 L 2151.000 1223.000 2151.000 1159.644 L 2151.000 1096.289 2088.191 999.394 C 2053.647 946.102,2025.045 901.938,2024.632 901.250 C 2024.036 900.256,2034.509 900.001,2075.691 900.006 L 2127.500 900.012 2160.386 957.006 M2942.240 1005.250 L 2942.541 1110.500 2944.839 1117.984 C 2948.595 1130.217,2953.568 1138.657,2961.956 1147.034 C 2975.346 1160.406,2988.248 1165.219,3011.000 1165.330 C 3020.895 1165.379,3026.369 1164.917,3031.500 1163.602 C 3050.563 1158.717,3065.083 1147.025,3073.338 1129.911 C 3081.703 1112.571,3081.292 1118.805,3081.731 1002.750 L 3082.119 900.000 3127.559 900.000 L 3173.000 900.000 3172.984 998.750 C 3172.968 1096.696,3172.512 1113.562,3169.464 1128.735 C 3156.254 1194.494,3101.406 1228.978,3009.994 1228.997 C 2955.399 1229.008,2911.442 1214.494,2884.445 1187.542 C 2866.996 1170.121,2856.680 1148.497,2852.550 1120.683 C 2851.226 1111.765,2851.000 1094.916,2851.000 1005.122 L 2851.000 900.000 2896.469 900.000 L 2941.939 900.000 2942.240 1005.250 M481.000 958.019 C 461.400 960.758,444.138 970.160,433.661 983.802 C 424.499 995.732,419.246 1007.916,416.517 1023.564 C 414.357 1035.947,414.380 1086.921,416.551 1099.329 C 421.259 1126.248,435.741 1147.280,456.554 1157.429 C 468.758 1163.380,479.016 1165.414,496.500 1165.350 C 509.349 1165.302,512.899 1164.922,521.254 1162.704 C 551.907 1154.563,571.224 1131.232,576.591 1095.866 C 577.845 1087.608,578.076 1079.502,577.728 1056.000 C 577.315 1028.046,577.153 1025.979,574.653 1016.552 C 568.481 993.281,554.832 975.002,536.848 965.924 C 526.245 960.571,514.914 957.947,500.500 957.507 C 493.350 957.289,484.575 957.519,481.000 958.019 M2581.925 957.908 C 2555.662 961.633,2536.067 975.931,2524.923 999.500 C 2517.791 1014.585,2515.024 1031.804,2515.039 1061.000 C 2515.054 1091.570,2517.976 1109.292,2525.510 1124.500 C 2535.760 1145.192,2549.946 1156.914,2571.746 1162.704 C 2585.234 1166.286,2607.058 1166.514,2620.295 1163.211 C 2643.470 1157.428,2659.213 1144.416,2669.548 1122.500 C 2677.258 1106.152,2678.938 1095.237,2678.938 1061.500 C 2678.938 1027.763,2677.258 1016.848,2669.548 1000.500 C 2659.534 979.266,2645.146 966.766,2623.541 960.530 C 2616.458 958.485,2611.745 957.857,2601.041 957.531 C 2593.593 957.304,2584.991 957.474,2581.925 957.908 M512.662 977.487 C 534.048 981.544,548.834 995.561,555.911 1018.487 C 558.263 1026.109,558.403 1027.978,558.769 1056.749 C 559.183 1089.232,558.570 1096.685,554.527 1108.311 C 545.170 1135.215,523.824 1148.319,492.023 1146.679 C 485.685 1146.353,478.084 1145.418,475.131 1144.602 C 451.980 1138.205,437.614 1119.260,434.104 1090.500 C 433.500 1085.550,433.006 1072.500,433.006 1061.500 C 433.006 1050.500,433.500 1037.450,434.104 1032.500 C 437.789 1002.303,453.838 982.447,478.500 977.572 C 487.919 975.710,503.095 975.672,512.662 977.487 M2613.662 977.487 C 2638.117 982.126,2654.506 1000.764,2658.960 1029.000 C 2660.499 1038.760,2660.221 1086.895,2658.572 1096.000 C 2652.301 1130.636,2629.135 1148.546,2593.023 1146.677 C 2586.685 1146.349,2578.800 1145.353,2575.500 1144.463 C 2560.996 1140.553,2549.046 1130.263,2542.092 1115.695 C 2535.699 1102.301,2534.706 1096.126,2534.225 1066.782 C 2533.644 1031.313,2535.244 1020.226,2543.157 1004.881 C 2550.574 990.500,2563.593 980.716,2579.500 977.572 C 2588.919 975.710,2604.095 975.672,2613.662 977.487 " stroke="none" fill="black" fill-rule="evenodd"/></svg>