<svg id="svg" version="1.1" width="3508" height="1325" xmlns="http://www.w3.org/2000/svg"><path d="M235.561 75.121 C 219.466 76.354,198.522 80.503,183.622 85.407 C 130.298 102.961,95.590 139.980,82.637 193.115 C 77.791 212.992,76.595 224.518,76.576 251.500 C 76.554 283.803,79.321 304.576,86.700 327.500 C 108.199 394.289,161.506 427.995,245.644 427.999 C 294.120 428.002,331.400 416.676,364.743 391.816 C 367.077 390.076,369.141 388.843,369.330 389.076 C 369.519 389.309,372.012 396.813,374.871 405.750 L 380.069 422.000 408.535 422.000 L 437.000 422.000 437.000 326.500 L 437.000 231.000 345.500 231.000 L 254.000 231.000 254.000 266.000 L 254.000 301.000 293.114 301.000 L 332.227 301.000 331.566 305.750 C 329.785 318.539,319.591 330.757,304.695 337.956 C 293.944 343.152,286.090 344.971,271.500 345.642 C 229.403 347.580,202.423 330.416,191.895 295.000 C 189.840 288.085,189.633 284.993,189.250 255.369 C 188.903 228.550,189.105 221.792,190.473 214.494 C 196.054 184.710,213.343 165.852,241.500 158.835 C 253.433 155.861,278.872 155.608,289.000 158.363 C 301.176 161.676,311.802 167.591,319.595 175.395 C 327.229 183.040,330.268 189.003,331.583 198.915 L 332.258 204.000 384.758 204.000 L 437.258 204.000 436.548 194.750 C 434.199 164.129,422.900 140.284,400.960 119.645 C 364.832 85.658,305.709 69.743,235.561 75.121 M510.000 251.000 L 510.000 422.000 565.000 422.000 L 620.000 422.000 620.000 251.000 L 620.000 80.000 565.000 80.000 L 510.000 80.000 510.000 251.000 M699.000 250.960 L 699.000 422.000 754.000 422.000 L 809.000 422.000 809.000 359.479 L 809.000 296.959 829.217 297.229 L 849.434 297.500 879.577 359.500 L 909.720 421.500 971.360 421.758 C 1005.262 421.899,1033.000 421.844,1033.000 421.634 C 1033.000 421.425,1016.346 389.947,995.991 351.685 C 975.636 313.422,958.720 281.434,958.400 280.601 C 957.965 279.466,960.488 277.767,968.435 273.845 C 988.041 264.170,1002.312 250.413,1011.846 232.000 C 1020.214 215.839,1023.094 203.793,1023.085 185.000 C 1023.075 165.372,1019.537 150.711,1010.666 133.534 C 997.060 107.188,971.330 89.402,936.530 82.288 C 929.425 80.835,915.284 80.604,813.750 80.283 L 699.000 79.921 699.000 250.960 M1086.000 251.000 L 1086.000 422.000 1228.500 422.000 L 1371.000 422.000 1371.000 378.500 L 1371.000 335.000 1283.500 335.000 L 1196.000 335.000 1196.000 207.500 L 1196.000 80.000 1141.000 80.000 L 1086.000 80.000 1086.000 251.000 M1418.000 251.000 L 1418.000 422.000 1473.000 422.000 L 1528.000 422.000 1528.000 360.500 L 1528.000 299.000 1599.500 299.000 L 1671.000 299.000 1671.000 260.000 L 1671.000 221.000 1599.500 221.000 L 1528.000 221.000 1528.000 191.500 L 1528.000 162.000 1611.000 162.000 L 1694.000 162.000 1694.000 121.000 L 1694.000 80.000 1556.000 80.000 L 1418.000 80.000 1418.000 251.000 M1750.000 251.000 L 1750.000 422.000 1804.492 422.000 L 1858.985 422.000 1859.242 359.750 L 1859.500 297.500 1879.947 297.500 L 1900.393 297.500 1930.512 359.500 L 1960.631 421.500 2022.401 421.758 C 2056.375 421.899,2084.021 421.645,2083.836 421.191 C 2083.651 420.738,2066.738 388.858,2046.250 350.347 C 2025.763 311.835,2009.015 279.915,2009.034 279.413 C 2009.053 278.911,2012.534 276.925,2016.769 275.000 C 2044.155 262.553,2063.172 240.300,2071.035 211.500 C 2073.798 201.380,2074.859 178.130,2073.038 167.586 C 2064.486 118.052,2029.826 86.774,1977.211 81.108 C 1970.334 80.367,1930.955 80.000,1858.461 80.000 L 1750.000 80.000 1750.000 251.000 M2142.000 251.000 L 2142.000 422.000 2197.000 422.000 L 2252.000 422.000 2252.000 251.000 L 2252.000 80.000 2197.000 80.000 L 2142.000 80.000 2142.000 251.000 M2330.000 251.000 L 2330.000 422.000 2480.000 422.000 L 2630.000 422.000 2630.000 381.000 L 2630.000 340.000 2535.000 340.000 L 2440.000 340.000 2440.000 314.000 L 2440.000 288.000 2519.500 288.000 L 2599.000 288.000 2599.000 248.500 L 2599.000 209.000 2519.500 209.000 L 2440.000 209.000 2440.000 185.500 L 2440.000 162.000 2533.000 162.000 L 2626.000 162.000 2626.000 121.000 L 2626.000 80.000 2478.000 80.000 L 2330.000 80.000 2330.000 251.000 M2689.000 251.000 L 2689.000 422.000 2739.994 422.000 L 2790.988 422.000 2791.244 339.551 L 2791.500 257.102 2862.562 339.301 L 2933.623 421.500 2981.812 421.760 L 3030.000 422.019 3030.000 251.010 L 3030.000 80.000 2979.506 80.000 L 2929.011 80.000 2928.756 163.799 L 2928.500 247.599 2857.037 163.799 L 2785.575 80.000 2737.287 80.000 L 2689.000 80.000 2689.000 251.000 M3104.000 250.986 L 3104.000 422.108 3193.750 421.731 C 3289.922 421.327,3288.340 421.404,3313.477 415.955 C 3328.232 412.757,3340.046 408.662,3353.540 402.067 C 3397.783 380.445,3422.355 342.265,3430.170 283.000 C 3432.263 267.121,3431.720 229.147,3429.161 212.500 C 3418.553 143.491,3382.822 103.363,3317.500 87.096 C 3313.100 86.000,3303.200 84.102,3295.500 82.877 C 3281.953 80.723,3278.631 80.638,3192.750 80.258 L 3104.000 79.865 3104.000 250.986 M891.048 159.926 C 897.543 162.394,902.204 165.974,905.828 171.280 C 909.831 177.139,911.143 181.794,911.117 190.033 C 911.080 201.943,905.260 211.770,894.819 217.554 L 889.500 220.500 849.250 220.793 L 809.000 221.085 809.000 189.543 L 809.000 158.000 847.489 158.000 C 883.067 158.000,886.362 158.146,891.048 159.926 M1942.045 159.925 C 1948.980 162.560,1954.985 167.737,1958.529 174.136 C 1961.268 179.081,1961.500 180.281,1961.500 189.500 C 1961.500 198.043,1961.162 200.133,1959.181 203.845 C 1955.613 210.531,1949.090 216.448,1942.619 218.869 C 1937.167 220.910,1935.272 221.000,1897.962 221.000 L 1859.000 221.000 1859.000 189.500 L 1859.000 158.000 1897.989 158.000 C 1934.051 158.000,1937.359 158.145,1942.045 159.925 M3267.000 163.405 C 3293.266 167.723,3308.951 181.873,3316.303 207.882 C 3318.323 215.031,3318.456 217.684,3318.456 251.000 C 3318.456 284.539,3318.334 286.931,3316.257 294.296 C 3309.634 317.780,3296.336 331.250,3273.500 337.607 C 3268.833 338.906,3261.558 339.381,3240.750 339.745 L 3214.000 340.213 3214.000 251.106 L 3214.000 162.000 3236.250 162.004 C 3250.561 162.006,3261.533 162.506,3267.000 163.405 M234.000 463.681 C 193.765 467.824,162.130 478.276,135.806 496.123 C 123.310 504.594,105.187 522.773,97.100 534.947 C 77.218 564.876,68.475 596.171,67.302 641.602 C 65.099 726.946,91.376 783.865,147.000 814.240 C 187.664 836.446,258.230 841.972,311.000 827.083 C 326.821 822.619,343.265 815.400,356.500 807.107 L 364.500 802.094 369.000 815.797 L 373.500 829.500 409.750 829.762 L 446.000 830.025 446.000 725.012 L 446.000 620.000 345.500 620.000 L 245.000 620.000 245.000 664.000 L 245.000 708.000 283.064 708.000 L 321.128 708.000 318.814 712.130 C 314.036 720.657,302.133 728.458,288.314 732.119 C 282.173 733.746,277.395 734.197,266.000 734.225 C 249.848 734.265,240.995 732.526,229.154 726.985 C 220.130 722.762,210.382 712.770,205.755 703.000 C 198.933 688.594,198.500 685.370,198.500 649.000 C 198.500 620.600,198.733 615.617,200.346 609.500 C 206.516 586.101,220.462 572.006,243.500 565.887 C 253.936 563.114,275.014 562.865,285.472 565.391 C 296.226 567.987,306.611 573.450,313.051 579.897 C 319.602 586.455,321.780 591.734,322.686 603.250 L 323.296 611.000 384.648 611.000 L 446.000 611.000 446.000 600.878 C 446.000 573.342,437.970 548.038,422.872 528.000 C 396.563 493.082,352.647 471.087,296.006 464.462 C 284.654 463.134,244.252 462.625,234.000 463.681 M501.000 649.000 L 501.000 830.000 565.000 830.000 L 629.000 830.000 629.000 649.000 L 629.000 468.000 565.000 468.000 L 501.000 468.000 501.000 649.000 M689.489 469.181 C 689.213 469.906,689.102 551.275,689.243 650.000 L 689.500 829.500 753.500 829.500 L 817.500 829.500 817.758 767.250 L 818.015 705.000 830.838 705.000 L 843.661 705.000 872.929 765.250 C 889.027 798.388,902.838 826.513,903.622 827.750 L 905.046 830.000 976.356 830.000 C 1015.577 830.000,1047.907 829.760,1048.200 829.466 C 1048.494 829.173,1031.244 796.029,1009.867 755.814 C 988.490 715.598,971.000 682.321,971.000 681.864 C 971.000 681.407,973.362 679.843,976.250 678.387 C 1001.056 665.884,1020.374 641.938,1028.454 613.679 C 1040.184 572.655,1026.966 524.860,996.683 498.796 C 979.160 483.715,961.284 475.393,936.500 470.778 C 925.905 468.806,921.167 468.714,807.745 468.296 C 710.862 467.939,689.901 468.095,689.489 469.181 M1076.465 469.243 C 1076.202 469.934,1076.102 551.275,1076.243 650.000 L 1076.500 829.500 1228.500 829.500 L 1380.500 829.500 1380.500 776.500 L 1380.500 723.500 1292.754 723.245 L 1205.008 722.989 1204.754 595.745 L 1204.500 468.500 1140.721 468.243 C 1090.229 468.039,1076.843 468.247,1076.465 469.243 M1408.463 469.247 C 1408.201 469.936,1408.102 551.275,1408.243 650.000 L 1408.500 829.500 1472.500 829.500 L 1536.500 829.500 1536.758 768.250 L 1537.015 707.000 1608.508 707.000 L 1680.000 707.000 1680.000 658.000 L 1680.000 609.000 1608.500 609.000 L 1537.000 609.000 1537.000 589.000 L 1537.000 569.000 1620.509 569.000 L 1704.018 569.000 1703.759 518.750 L 1703.500 468.500 1556.220 468.247 C 1438.922 468.045,1408.843 468.249,1408.463 469.247 M1740.462 469.250 C 1740.201 469.938,1740.102 551.275,1740.243 650.000 L 1740.500 829.500 1804.500 829.500 L 1868.500 829.500 1868.758 767.250 L 1869.015 705.000 1881.806 705.000 L 1894.597 705.000 1924.493 766.495 C 1940.936 800.317,1954.842 828.442,1955.395 828.995 C 1956.050 829.650,1981.281 830.000,2027.817 830.000 C 2097.167 830.000,2099.219 829.946,2098.743 828.124 C 2098.473 827.092,2081.095 793.986,2060.126 754.554 C 2039.157 715.122,2022.000 682.449,2022.000 681.947 C 2022.000 681.444,2024.362 679.839,2027.250 678.378 C 2087.878 647.715,2102.599 562.410,2056.692 507.767 C 2042.859 491.301,2017.319 476.966,1992.934 471.979 C 1976.005 468.517,1958.986 468.056,1847.219 468.027 C 1763.093 468.006,1740.838 468.261,1740.462 469.250 M2132.465 469.243 C 2132.202 469.934,2132.102 551.275,2132.243 650.000 L 2132.500 829.500 2196.500 829.500 L 2260.500 829.500 2260.500 649.000 L 2260.500 468.500 2196.721 468.243 C 2146.229 468.039,2132.843 468.247,2132.465 469.243 M2321.000 648.997 L 2321.000 830.000 2480.000 830.000 L 2639.000 830.000 2639.000 779.505 L 2639.000 729.010 2544.250 728.755 L 2449.500 728.500 2449.500 712.000 L 2449.500 695.500 2529.250 695.244 L 2609.000 694.988 2609.000 646.494 L 2609.000 598.000 2528.973 598.000 L 2448.945 598.000 2449.223 583.750 L 2449.500 569.500 2542.759 569.245 L 2636.018 568.990 2635.759 518.745 L 2635.500 468.500 2478.250 468.247 L 2321.000 467.994 2321.000 648.997 M2680.462 469.250 C 2680.201 469.938,2680.102 551.275,2680.243 650.000 L 2680.500 829.500 2740.000 829.500 L 2799.500 829.500 2800.000 754.697 L 2800.500 679.894 2865.475 754.955 L 2930.450 830.017 2984.975 829.758 L 3039.500 829.500 3039.500 649.000 L 3039.500 468.500 2979.756 468.242 L 2920.012 467.984 2919.756 544.347 L 2919.500 620.709 2856.500 546.734 C 2821.850 506.048,2792.509 471.689,2791.298 470.380 L 2789.095 468.000 2735.016 468.000 C 2692.673 468.000,2680.834 468.271,2680.462 469.250 M3095.000 648.959 L 3095.000 830.132 3185.750 829.746 C 3284.175 829.327,3289.190 829.080,3314.683 823.415 C 3337.399 818.367,3359.060 809.465,3375.926 798.246 C 3386.258 791.373,3402.688 775.294,3409.898 765.000 C 3424.620 743.980,3433.886 719.362,3438.503 689.000 C 3440.736 674.318,3441.553 640.624,3440.079 624.000 C 3432.925 543.301,3393.034 493.968,3320.500 476.119 C 3292.401 469.205,3286.035 468.836,3185.250 468.282 L 3095.000 467.786 3095.000 648.959 M282.500 482.028 C 348.960 486.868,397.644 513.220,417.400 555.048 C 422.209 565.229,425.330 575.788,426.477 585.750 L 427.196 592.000 383.709 592.000 L 340.223 592.000 339.587 588.611 C 337.536 577.680,326.614 564.344,313.322 556.542 C 299.637 548.508,285.423 545.056,265.881 545.020 C 239.732 544.971,219.153 552.160,204.000 566.638 C 189.743 580.260,182.351 596.907,179.861 621.000 C 178.396 635.182,179.374 679.120,181.367 688.652 C 188.054 720.631,207.645 741.819,237.776 749.659 C 249.802 752.788,271.376 753.906,284.028 752.056 C 307.441 748.633,328.314 735.260,336.687 718.318 C 340.083 711.447,340.388 710.088,340.806 699.949 L 341.257 689.000 302.628 689.000 L 264.000 689.000 264.000 664.000 L 264.000 639.000 346.000 639.000 L 428.000 639.000 428.000 725.000 L 428.000 811.000 407.564 811.000 L 387.127 811.000 380.668 791.437 C 377.115 780.678,373.953 771.619,373.640 771.307 C 373.328 770.995,370.469 772.970,367.286 775.697 C 347.324 792.803,328.557 802.772,303.000 809.846 C 275.403 817.485,235.796 818.763,203.166 813.067 C 157.373 805.073,125.251 783.529,106.153 748.000 C 94.322 725.991,87.842 698.866,86.049 663.840 C 82.964 603.610,96.792 558.116,127.487 527.500 C 155.894 499.167,196.303 484.051,250.000 481.673 C 264.955 481.011,269.169 481.057,282.500 482.028 M610.753 649.250 L 611.006 811.000 565.003 811.000 L 519.000 811.000 519.000 648.990 L 519.000 486.980 564.750 487.240 L 610.500 487.500 610.753 649.250 M937.432 489.869 C 968.343 496.861,990.580 512.872,1002.889 537.000 C 1017.564 565.765,1017.772 598.865,1003.447 625.849 C 993.067 645.401,979.016 657.755,957.075 666.619 C 952.359 668.524,947.526 670.487,946.336 670.981 C 944.084 671.915,946.120 675.898,1012.142 799.759 L 1018.144 811.018 966.912 810.759 L 915.680 810.500 885.544 748.500 L 855.409 686.500 827.204 686.234 L 799.000 685.969 799.000 748.484 L 799.000 811.000 753.500 811.000 L 708.000 811.000 708.000 648.951 L 708.000 486.902 817.750 487.262 C 927.263 487.621,927.521 487.627,937.432 489.869 M1186.000 614.500 L 1186.000 742.000 1274.000 742.000 L 1362.000 742.000 1362.000 776.500 L 1362.000 811.000 1228.500 811.000 L 1095.000 811.000 1095.000 649.000 L 1095.000 487.000 1140.500 487.000 L 1186.000 487.000 1186.000 614.500 M1685.000 519.000 L 1685.000 551.000 1601.500 551.000 L 1518.000 551.000 1518.000 589.500 L 1518.000 628.000 1590.000 628.000 L 1662.000 628.000 1662.000 658.000 L 1662.000 688.000 1590.000 688.000 L 1518.000 688.000 1518.000 749.500 L 1518.000 811.000 1472.500 811.000 L 1427.000 811.000 1427.000 649.000 L 1427.000 487.000 1556.000 487.000 L 1685.000 487.000 1685.000 519.000 M1988.432 489.873 C 2025.321 498.202,2049.933 519.660,2060.295 552.524 C 2065.654 569.522,2066.337 590.077,2062.089 606.500 C 2057.765 623.218,2045.540 642.761,2033.794 651.733 C 2023.034 659.952,2018.249 662.480,1997.234 671.048 L 1994.967 671.972 1997.887 677.236 C 1999.493 680.131,2014.176 707.700,2030.516 738.500 C 2046.856 769.300,2062.239 798.217,2064.699 802.759 L 2069.172 811.018 2017.892 810.759 L 1966.613 810.500 1936.480 748.500 L 1906.348 686.500 1878.174 686.234 L 1850.000 685.969 1850.000 748.484 L 1850.000 811.000 1804.500 811.000 L 1759.000 811.000 1759.000 648.947 L 1759.000 486.895 1868.750 487.263 C 1978.181 487.629,1978.529 487.637,1988.432 489.873 M2242.000 649.000 L 2242.000 811.000 2196.500 811.000 L 2151.000 811.000 2151.000 649.000 L 2151.000 487.000 2196.500 487.000 L 2242.000 487.000 2242.000 649.000 M2617.000 519.000 L 2617.000 551.000 2524.000 551.000 L 2431.000 551.000 2431.000 584.000 L 2431.000 617.000 2510.500 617.000 L 2590.000 617.000 2590.000 646.500 L 2590.000 676.000 2510.500 676.000 L 2431.000 676.000 2431.000 712.000 L 2431.000 748.000 2525.500 748.000 L 2620.000 748.000 2620.000 779.500 L 2620.000 811.000 2480.000 811.000 L 2340.000 811.000 2340.000 649.000 L 2340.000 487.000 2478.500 487.000 L 2617.000 487.000 2617.000 519.000 M2858.005 577.251 C 2900.109 626.615,2935.558 668.002,2936.779 669.224 L 2939.000 671.444 2939.000 579.222 L 2939.000 487.000 2980.000 487.000 L 3021.000 487.000 3021.000 649.000 L 3021.000 811.000 2979.750 810.964 L 2938.500 810.928 2860.500 720.537 C 2817.600 670.822,2782.162 630.114,2781.750 630.073 C 2781.338 630.033,2781.000 670.725,2781.000 720.500 L 2781.000 811.000 2740.000 811.000 L 2699.000 811.000 2699.000 648.989 L 2699.000 486.978 2740.225 487.239 L 2781.451 487.500 2858.005 577.251 M3286.500 488.932 C 3329.254 494.498,3358.022 506.422,3380.140 527.744 C 3408.733 555.308,3422.073 593.850,3422.073 648.896 C 3422.073 695.303,3413.074 728.849,3393.474 755.500 C 3374.103 781.841,3346.119 798.000,3306.041 805.989 C 3284.042 810.374,3269.240 811.000,3187.563 811.000 L 3113.000 811.000 3113.000 648.920 L 3113.000 486.839 3195.250 487.300 C 3249.695 487.605,3280.542 488.157,3286.500 488.932 M799.239 587.750 L 799.500 628.500 843.000 628.497 C 881.540 628.494,887.115 628.295,891.892 626.758 C 899.578 624.285,905.166 620.747,910.041 615.266 C 929.706 593.156,920.853 557.941,893.349 548.867 C 888.167 547.157,883.950 547.000,843.334 547.000 L 798.978 547.000 799.239 587.750 M1850.239 587.750 L 1850.500 628.500 1888.500 628.777 C 1929.089 629.073,1938.137 628.493,1947.328 625.008 C 1954.859 622.152,1964.024 613.374,1967.577 605.614 C 1978.019 582.804,1967.217 556.411,1944.349 548.867 C 1939.167 547.157,1934.950 547.000,1894.334 547.000 L 1849.978 547.000 1850.239 587.750 M3205.000 649.416 L 3205.000 748.000 3225.250 747.971 C 3274.376 747.900,3290.133 743.872,3307.112 727.044 C 3313.360 720.851,3315.539 717.798,3319.273 710.000 C 3327.006 693.852,3329.004 681.415,3328.992 649.526 C 3328.979 616.783,3327.000 604.267,3319.262 588.000 C 3311.200 571.051,3297.447 559.950,3277.000 553.889 C 3270.091 551.841,3266.959 551.633,3237.250 551.249 L 3205.000 550.832 3205.000 649.416 M890.956 568.000 C 893.406 569.375,896.781 572.451,898.456 574.835 C 901.212 578.761,901.500 579.902,901.500 586.909 C 901.500 593.751,901.152 595.219,898.495 599.574 C 896.237 603.277,894.143 605.183,890.066 607.250 L 884.641 610.000 851.321 610.000 L 818.000 610.000 818.000 587.440 L 818.000 564.880 852.250 565.190 L 886.500 565.500 890.956 568.000 M1941.692 567.741 C 1956.969 575.907,1956.633 599.102,1941.120 607.206 L 1935.772 610.000 1902.386 610.000 L 1869.000 610.000 1869.000 587.440 L 1869.000 564.880 1903.250 565.190 C 1936.511 565.491,1937.621 565.565,1941.692 567.741 M3270.500 571.444 C 3278.757 573.691,3287.886 578.083,3292.229 581.896 C 3300.618 589.262,3307.018 603.183,3309.056 618.499 C 3310.775 631.411,3309.756 680.504,3307.595 688.912 C 3304.047 702.719,3297.001 713.473,3287.554 719.500 C 3276.381 726.628,3264.078 729.000,3238.276 729.000 L 3223.000 729.000 3223.000 648.866 L 3223.000 568.733 3243.750 569.272 C 3258.366 569.651,3266.274 570.293,3270.500 571.444 M242.000 875.599 C 201.234 879.175,173.738 886.550,148.794 900.597 C 104.184 925.720,78.178 965.363,69.479 1021.500 C 67.207 1036.168,66.374 1073.012,67.937 1089.730 C 72.527 1138.823,87.658 1175.735,113.968 1202.024 C 137.717 1225.752,168.244 1239.547,210.500 1245.645 C 228.727 1248.275,264.974 1248.044,283.557 1245.179 C 311.778 1240.827,333.450 1233.210,355.812 1219.782 C 360.384 1217.037,364.264 1214.950,364.435 1215.145 C 364.606 1215.340,366.702 1221.463,369.094 1228.750 L 373.442 1242.000 409.721 1242.000 L 446.000 1242.000 446.000 1137.000 L 446.000 1032.000 345.500 1032.000 L 245.000 1032.000 245.000 1076.500 L 245.000 1121.000 283.035 1121.000 L 321.070 1121.000 319.923 1123.144 C 317.671 1127.353,310.547 1134.170,305.012 1137.413 C 287.467 1147.697,259.313 1149.854,237.634 1142.577 C 216.254 1135.400,203.715 1119.733,199.417 1094.827 C 198.128 1087.359,197.903 1080.106,198.246 1057.043 C 198.620 1031.817,198.918 1027.594,200.807 1020.700 C 206.919 998.391,220.594 984.547,242.500 978.492 C 251.631 975.968,273.626 975.370,283.519 977.377 C 292.718 979.243,305.591 985.224,311.708 990.473 C 318.058 995.922,321.834 1004.479,322.640 1015.250 L 323.295 1024.000 384.791 1024.000 L 446.287 1024.000 445.689 1008.750 C 444.372 975.181,434.604 951.419,412.556 928.151 C 386.885 901.059,349.729 884.199,300.954 877.510 C 290.034 876.012,251.521 874.764,242.000 875.599 M501.000 1061.500 L 501.000 1242.000 565.000 1242.000 L 629.000 1242.000 629.000 1061.500 L 629.000 881.000 565.000 881.000 L 501.000 881.000 501.000 1061.500 M689.000 1061.465 L 689.000 1242.000 753.500 1242.000 L 818.000 1242.000 818.000 1179.500 L 818.000 1117.000 830.757 1117.000 L 843.513 1117.000 873.896 1179.500 L 904.279 1242.000 976.730 1242.000 L 1049.181 1242.000 1045.233 1234.750 C 1031.644 1209.790,971.000 1095.050,971.000 1094.299 C 971.000 1093.796,972.688 1092.639,974.750 1091.727 C 981.973 1088.534,994.563 1079.511,1001.526 1072.537 C 1033.012 1041.004,1041.676 991.073,1023.127 948.048 C 1010.888 919.659,987.690 898.832,956.890 888.580 C 934.878 881.252,942.051 881.607,808.750 881.251 L 689.000 880.931 689.000 1061.465 M1076.000 1061.500 L 1076.000 1242.000 1228.500 1242.000 L 1381.000 1242.000 1381.000 1189.000 L 1381.000 1136.000 1293.000 1136.000 L 1205.000 1136.000 1205.000 1008.500 L 1205.000 881.000 1140.500 881.000 L 1076.000 881.000 1076.000 1061.500 M1408.000 1061.500 L 1408.000 1242.000 1472.500 1242.000 L 1537.000 1242.000 1537.000 1180.500 L 1537.000 1119.000 1608.500 1119.000 L 1680.000 1119.000 1680.000 1070.500 L 1680.000 1022.000 1608.500 1022.000 L 1537.000 1022.000 1537.000 1002.006 L 1537.000 982.011 1620.250 981.756 L 1703.500 981.500 1703.759 931.250 L 1704.018 881.000 1556.009 881.000 L 1408.000 881.000 1408.000 1061.500 M1740.000 1061.465 L 1740.000 1242.000 1804.500 1242.000 L 1869.000 1242.000 1869.000 1179.500 L 1869.000 1117.000 1881.750 1117.006 L 1894.500 1117.011 1924.401 1178.756 C 1940.847 1212.715,1954.597 1240.840,1954.958 1241.257 C 1955.318 1241.673,1988.042 1241.898,2027.678 1241.757 L 2099.742 1241.500 2080.048 1204.500 C 2069.217 1184.150,2051.562 1150.968,2040.815 1130.763 L 2021.275 1094.025 2028.588 1090.081 C 2056.127 1075.227,2074.250 1050.525,2081.673 1017.725 C 2084.128 1006.878,2083.936 983.264,2081.293 971.000 C 2076.603 949.240,2067.863 932.293,2053.592 917.285 C 2036.697 899.517,2016.329 888.917,1988.374 883.341 C 1980.240 881.719,1969.510 881.544,1859.750 881.251 L 1740.000 880.931 1740.000 1061.465 M2132.000 1061.500 L 2132.000 1242.000 2196.500 1242.000 L 2261.000 1242.000 2261.000 1061.500 L 2261.000 881.000 2196.500 881.000 L 2132.000 881.000 2132.000 1061.500 M2321.000 1061.500 L 2321.000 1242.000 2480.000 1242.000 L 2639.000 1242.000 2639.000 1191.500 L 2639.000 1141.000 2544.000 1141.000 L 2449.000 1141.000 2449.000 1124.506 L 2449.000 1108.012 2528.750 1107.756 L 2608.500 1107.500 2608.760 1058.750 L 2609.019 1010.000 2529.010 1010.000 L 2449.000 1010.000 2449.000 996.005 L 2449.000 982.010 2542.250 981.755 L 2635.500 981.500 2635.759 931.250 L 2636.018 881.000 2478.509 881.000 L 2321.000 881.000 2321.000 1061.500 M2680.000 1061.500 L 2680.000 1242.000 2739.994 1242.000 L 2799.987 1242.000 2800.244 1167.084 L 2800.500 1092.168 2865.044 1166.834 L 2929.587 1241.500 2984.794 1241.758 L 3040.000 1242.017 3040.000 1061.508 L 3040.000 881.000 2980.006 881.000 L 2920.012 881.000 2919.756 956.989 L 2919.500 1032.978 2854.694 956.989 L 2789.889 881.000 2734.944 881.000 L 2680.000 881.000 2680.000 1061.500 M3095.000 1061.489 L 3095.000 1242.122 3187.750 1241.717 C 3288.364 1241.278,3289.864 1241.204,3315.883 1235.385 C 3337.804 1230.483,3359.212 1221.658,3375.479 1210.818 C 3385.857 1203.902,3402.021 1188.302,3409.335 1178.144 C 3424.641 1156.886,3434.625 1129.734,3439.174 1097.000 C 3440.937 1084.313,3440.937 1038.687,3439.174 1026.000 C 3430.673 964.827,3404.320 924.791,3357.500 901.923 C 3343.357 895.015,3331.542 890.942,3315.893 887.579 C 3287.632 881.506,3291.539 881.701,3189.250 881.261 L 3095.000 880.856 3095.000 1061.489 M301.990 896.465 C 370.721 906.513,415.866 941.527,425.488 992.250 C 426.320 996.634,427.000 1001.296,427.000 1002.610 L 427.000 1005.000 383.611 1005.000 L 340.223 1005.000 339.531 1001.312 C 339.150 999.283,337.490 994.951,335.841 991.685 C 328.607 977.354,311.949 965.407,291.500 959.885 C 281.571 957.204,255.765 956.655,244.500 958.886 C 210.272 965.663,188.684 987.079,181.383 1021.500 C 179.395 1030.873,178.396 1074.884,179.851 1089.000 C 183.495 1124.343,198.918 1147.134,227.161 1158.909 C 233.573 1161.583,249.168 1164.847,259.214 1165.620 C 268.130 1166.305,284.272 1164.823,293.766 1162.448 C 296.920 1161.659,304.060 1158.738,309.634 1155.957 C 331.332 1145.132,341.000 1130.902,341.000 1109.790 L 341.000 1102.000 302.500 1102.000 L 264.000 1102.000 264.000 1076.500 L 264.000 1051.000 346.000 1051.000 L 428.000 1051.000 428.000 1137.020 L 428.000 1223.041 407.324 1222.770 L 386.648 1222.500 380.435 1203.194 C 377.018 1192.576,374.017 1183.683,373.766 1183.432 C 373.515 1183.181,369.752 1185.943,365.405 1189.570 C 332.648 1216.898,295.493 1229.000,244.355 1229.000 C 169.063 1229.000,119.860 1200.093,98.451 1143.281 C 83.939 1104.771,81.392 1045.329,92.434 1002.849 C 102.654 963.529,126.462 933.291,161.264 915.428 C 182.814 904.367,201.771 898.972,231.500 895.438 C 246.556 893.648,286.723 894.234,301.990 896.465 M611.000 1061.500 L 611.000 1223.000 565.000 1223.000 L 519.000 1223.000 519.000 1061.500 L 519.000 900.000 565.000 900.000 L 611.000 900.000 611.000 1061.500 M933.165 901.470 C 950.156 904.433,962.772 909.575,976.741 919.231 C 1019.856 949.037,1026.879 1017.986,990.734 1056.625 C 980.856 1067.185,967.138 1075.769,950.263 1081.950 C 946.833 1083.206,944.194 1084.519,944.398 1084.867 C 944.603 1085.215,959.939 1114.075,978.479 1149.000 C 997.019 1183.925,1013.502 1214.867,1015.108 1217.759 L 1018.027 1223.018 966.797 1222.759 L 915.567 1222.500 885.375 1160.500 L 855.183 1098.500 827.342 1098.500 L 799.500 1098.500 799.242 1160.750 L 798.985 1223.000 753.492 1223.000 L 708.000 1223.000 708.000 1061.500 L 708.000 900.000 816.369 900.000 C 907.210 900.000,926.101 900.238,933.165 901.470 M1186.000 1027.000 L 1186.000 1154.000 1274.000 1154.000 L 1362.000 1154.000 1362.000 1188.500 L 1362.000 1223.000 1228.500 1223.000 L 1095.000 1223.000 1095.000 1061.500 L 1095.000 900.000 1140.500 900.000 L 1186.000 900.000 1186.000 1027.000 M1685.000 931.500 L 1685.000 963.000 1601.488 963.000 L 1517.977 963.000 1518.238 1001.750 L 1518.500 1040.500 1590.250 1040.757 L 1662.000 1041.013 1662.000 1070.507 L 1662.000 1100.000 1590.000 1100.000 L 1518.000 1100.000 1518.000 1161.500 L 1518.000 1223.000 1472.500 1223.000 L 1427.000 1223.000 1427.000 1061.500 L 1427.000 900.000 1556.000 900.000 L 1685.000 900.000 1685.000 931.500 M1993.500 903.259 C 2031.737 913.748,2055.883 939.041,2063.075 976.138 C 2069.963 1011.672,2057.477 1046.433,2030.556 1066.676 C 2023.942 1071.649,2011.081 1078.352,2001.229 1081.962 L 1994.959 1084.259 1999.330 1092.380 C 2012.558 1116.950,2066.984 1219.765,2067.548 1221.250 C 2068.177 1222.903,2065.388 1222.998,2017.357 1222.963 L 1966.500 1222.926 1936.305 1160.713 L 1906.110 1098.500 1878.305 1098.500 L 1850.500 1098.500 1850.242 1160.750 L 1849.985 1223.000 1804.492 1223.000 L 1759.000 1223.000 1759.000 1061.471 L 1759.000 899.942 1871.250 900.229 L 1983.500 900.515 1993.500 903.259 M2242.000 1061.500 L 2242.000 1223.000 2196.500 1223.000 L 2151.000 1223.000 2151.000 1061.500 L 2151.000 900.000 2196.500 900.000 L 2242.000 900.000 2242.000 1061.500 M2617.000 931.500 L 2617.000 963.000 2524.000 963.000 L 2431.000 963.000 2431.000 996.000 L 2431.000 1029.000 2510.500 1029.000 L 2590.000 1029.000 2590.000 1059.000 L 2590.000 1089.000 2510.500 1089.000 L 2431.000 1089.000 2431.000 1124.500 L 2431.000 1160.000 2525.500 1160.000 L 2620.000 1160.000 2620.000 1191.500 L 2620.000 1223.000 2480.000 1223.000 L 2340.000 1223.000 2340.000 1061.500 L 2340.000 900.000 2478.500 900.000 L 2617.000 900.000 2617.000 931.500 M2860.076 992.071 L 2938.500 1084.141 2938.755 992.071 L 2939.010 900.000 2980.005 900.000 L 3021.000 900.000 3021.000 1061.500 L 3021.000 1223.000 2979.643 1223.000 L 2938.287 1223.000 2859.893 1132.293 L 2781.500 1041.587 2781.245 1132.293 L 2780.989 1223.000 2739.995 1223.000 L 2699.000 1223.000 2699.000 1061.500 L 2699.000 900.000 2740.326 900.000 L 2781.653 900.000 2860.076 992.071 M3283.000 901.057 C 3332.258 905.554,3370.604 923.983,3392.648 953.752 C 3412.908 981.113,3422.040 1014.370,3422.049 1060.822 C 3422.056 1097.407,3417.157 1123.160,3405.517 1147.732 C 3399.311 1160.834,3392.878 1169.993,3382.500 1180.506 C 3360.954 1202.332,3332.856 1214.734,3290.500 1221.114 C 3284.919 1221.954,3256.870 1222.439,3197.750 1222.716 L 3113.000 1223.113 3113.000 1061.557 L 3113.000 900.000 3192.250 900.003 C 3239.603 900.005,3276.129 900.429,3283.000 901.057 M799.000 1000.000 L 799.000 1041.000 840.864 1041.000 C 864.949 1041.000,885.014 1040.569,888.114 1039.986 C 904.507 1036.900,917.175 1023.744,920.046 1006.824 C 923.737 985.081,910.195 964.579,889.201 960.124 C 885.753 959.393,869.073 959.000,841.451 959.000 L 799.000 959.000 799.000 1000.000 M1850.000 1000.000 L 1850.000 1041.000 1891.864 1041.000 C 1915.949 1041.000,1936.014 1040.569,1939.114 1039.986 C 1955.510 1036.899,1968.282 1023.597,1970.952 1006.827 C 1974.468 984.734,1961.198 964.579,1940.201 960.124 C 1936.753 959.393,1920.073 959.000,1892.451 959.000 L 1850.000 959.000 1850.000 1000.000 M3205.000 1061.511 L 3205.000 1160.212 3235.750 1159.747 C 3263.609 1159.327,3267.290 1159.071,3274.900 1157.032 C 3291.930 1152.470,3304.094 1144.971,3312.409 1133.909 C 3325.234 1116.848,3329.000 1100.413,3329.000 1061.500 C 3329.000 1037.424,3327.812 1025.029,3324.365 1013.124 C 3320.799 1000.811,3315.696 991.863,3307.500 983.555 C 3299.388 975.332,3290.886 970.472,3277.463 966.387 C 3268.678 963.714,3267.870 963.651,3236.750 963.235 L 3205.000 962.811 3205.000 1061.511 M886.831 978.616 C 888.525 978.955,891.792 980.842,894.092 982.810 C 906.294 993.256,904.085 1012.814,889.885 1020.059 C 886.339 1021.868,883.762 1022.000,852.040 1022.000 L 818.000 1022.000 818.000 1000.000 L 818.000 978.000 850.875 978.000 C 868.956 978.000,885.136 978.277,886.831 978.616 M1939.782 979.553 C 1956.869 986.691,1957.546 1011.559,1940.885 1020.059 C 1937.339 1021.868,1934.762 1022.000,1903.040 1022.000 L 1869.000 1022.000 1869.000 1000.000 L 1869.000 978.000 1902.532 978.000 C 1930.585 978.000,1936.672 978.254,1939.782 979.553 M3272.329 984.358 C 3291.076 989.690,3301.351 1000.351,3307.194 1020.535 C 3309.388 1028.113,3309.500 1030.054,3309.500 1060.500 C 3309.500 1087.930,3309.240 1093.607,3307.681 1100.254 C 3302.856 1120.822,3291.429 1133.023,3271.661 1138.714 C 3268.138 1139.728,3259.596 1140.365,3244.750 1140.721 L 3223.000 1141.242 3223.000 1061.523 L 3223.000 981.804 3244.750 982.252 C 3260.881 982.584,3268.006 983.128,3272.329 984.358 " stroke="none" fill="black" fill-rule="evenodd"/></svg>