<svg id="svg" version="1.1" width="3300" height="260" xmlns="http://www.w3.org/2000/svg"><path d="M963.000 107.500 L 963.000 200.000 967.500 200.000 L 972.000 200.000 972.000 107.500 L 972.000 15.000 967.500 15.000 L 963.000 15.000 963.000 107.500 M988.000 107.500 L 988.000 200.000 1006.500 200.000 L 1025.000 200.000 1025.000 107.500 L 1025.000 15.000 1006.500 15.000 L 988.000 15.000 988.000 107.500 M1034.000 107.500 L 1034.000 200.000 1043.500 200.000 L 1053.000 200.000 1053.000 107.500 L 1053.000 15.000 1043.500 15.000 L 1034.000 15.000 1034.000 107.500 M1062.000 107.500 L 1062.000 200.000 1066.500 200.000 L 1071.000 200.000 1071.000 107.500 L 1071.000 15.000 1066.500 15.000 L 1062.000 15.000 1062.000 107.500 M1108.000 107.500 L 1108.000 200.000 1120.500 200.000 L 1133.000 200.000 1133.000 107.500 L 1133.000 15.000 1120.500 15.000 L 1108.000 15.000 1108.000 107.500 M1163.000 107.500 L 1163.000 200.000 1167.500 200.000 L 1172.000 200.000 1172.000 107.500 L 1172.000 15.000 1167.500 15.000 L 1163.000 15.000 1163.000 107.500 M1182.000 107.500 L 1182.000 200.000 1184.500 200.000 L 1187.000 200.000 1187.000 107.500 L 1187.000 15.000 1184.500 15.000 L 1182.000 15.000 1182.000 107.500 M1211.000 107.500 L 1211.000 200.000 1215.500 200.000 L 1220.000 200.000 1220.000 107.500 L 1220.000 15.000 1215.500 15.000 L 1211.000 15.000 1211.000 107.500 M1228.000 107.500 L 1228.000 200.000 1252.000 200.000 L 1276.000 200.000 1276.000 107.500 L 1276.000 15.000 1252.000 15.000 L 1228.000 15.000 1228.000 107.500 M1294.000 107.500 L 1294.000 200.000 1298.500 200.000 L 1303.000 200.000 1303.000 107.500 L 1303.000 15.000 1298.500 15.000 L 1294.000 15.000 1294.000 107.500 M1327.000 107.500 L 1327.000 200.000 1329.500 200.000 L 1332.000 200.000 1332.000 107.500 L 1332.000 15.000 1329.500 15.000 L 1327.000 15.000 1327.000 107.500 M1342.000 107.500 L 1342.000 200.000 1346.500 200.000 L 1351.000 200.000 1351.000 107.500 L 1351.000 15.000 1346.500 15.000 L 1342.000 15.000 1342.000 107.500 M1381.000 107.500 L 1381.000 200.000 1394.000 200.000 L 1407.000 200.000 1407.000 107.500 L 1407.000 15.000 1394.000 15.000 L 1381.000 15.000 1381.000 107.500 M1443.000 107.500 L 1443.000 200.000 1447.500 200.000 L 1452.000 200.000 1452.000 107.500 L 1452.000 15.000 1447.500 15.000 L 1443.000 15.000 1443.000 107.500 M1461.000 107.500 L 1461.000 200.000 1470.500 200.000 L 1480.000 200.000 1480.000 107.500 L 1480.000 15.000 1470.500 15.000 L 1461.000 15.000 1461.000 107.500 M1492.000 107.500 L 1492.000 200.000 1516.000 200.000 L 1540.000 200.000 1540.000 107.500 L 1540.000 15.000 1516.000 15.000 L 1492.000 15.000 1492.000 107.500 M1575.000 107.500 L 1575.000 200.000 1579.500 200.000 L 1584.000 200.000 1584.000 107.500 L 1584.000 15.000 1579.500 15.000 L 1575.000 15.000 1575.000 107.500 M1591.000 107.500 L 1591.000 200.000 1593.500 200.000 L 1596.000 200.000 1596.000 107.500 L 1596.000 15.000 1593.500 15.000 L 1591.000 15.000 1591.000 107.500 M1605.000 107.500 L 1605.000 200.000 1610.000 200.000 L 1615.000 200.000 1615.000 107.500 L 1615.000 15.000 1610.000 15.000 L 1605.000 15.000 1605.000 107.500 M1622.000 107.500 L 1622.000 200.000 1645.000 200.000 L 1668.000 200.000 1668.000 107.500 L 1668.000 15.000 1645.000 15.000 L 1622.000 15.000 1622.000 107.500 M1689.000 107.500 L 1689.000 200.000 1691.500 200.000 L 1694.000 200.000 1694.000 107.500 L 1694.000 15.000 1691.500 15.000 L 1689.000 15.000 1689.000 107.500 M1700.000 107.500 L 1700.000 200.000 1702.500 200.000 L 1705.000 200.000 1705.000 107.500 L 1705.000 15.000 1702.500 15.000 L 1700.000 15.000 1700.000 107.500 M1724.000 107.500 L 1724.000 200.000 1729.000 200.000 L 1734.000 200.000 1734.000 107.500 L 1734.000 15.000 1729.000 15.000 L 1724.000 15.000 1724.000 107.500 M1750.000 107.500 L 1750.000 200.000 1768.500 200.000 L 1787.000 200.000 1787.000 107.500 L 1787.000 15.000 1768.500 15.000 L 1750.000 15.000 1750.000 107.500 M1832.000 107.500 L 1832.000 200.000 1841.500 200.000 L 1851.000 200.000 1851.000 107.500 L 1851.000 15.000 1841.500 15.000 L 1832.000 15.000 1832.000 107.500 M1860.000 107.500 L 1860.000 200.000 1864.500 200.000 L 1869.000 200.000 1869.000 107.500 L 1869.000 15.000 1864.500 15.000 L 1860.000 15.000 1860.000 107.500 M1882.000 107.500 L 1882.000 200.000 1892.000 200.000 L 1902.000 200.000 1902.000 107.500 L 1902.000 15.000 1892.000 15.000 L 1882.000 15.000 1882.000 107.500 M1929.000 107.500 L 1929.000 200.000 1934.000 200.000 L 1939.000 200.000 1939.000 107.500 L 1939.000 15.000 1934.000 15.000 L 1929.000 15.000 1929.000 107.500 M1958.000 107.500 L 1958.000 200.000 1960.500 200.000 L 1963.000 200.000 1963.000 107.500 L 1963.000 15.000 1960.500 15.000 L 1958.000 15.000 1958.000 107.500 M1969.000 107.500 L 1969.000 200.000 1971.500 200.000 L 1974.000 200.000 1974.000 107.500 L 1974.000 15.000 1971.500 15.000 L 1969.000 15.000 1969.000 107.500 M1995.000 107.500 L 1995.000 200.000 2018.000 200.000 L 2041.000 200.000 2041.000 107.500 L 2041.000 15.000 2018.000 15.000 L 1995.000 15.000 1995.000 107.500 M2048.000 107.500 L 2048.000 200.000 2053.000 200.000 L 2058.000 200.000 2058.000 107.500 L 2058.000 15.000 2053.000 15.000 L 2048.000 15.000 2048.000 107.500 M2068.000 107.500 C 2068.000 199.333,2068.014 200.000,2070.000 200.000 C 2071.986 200.000,2072.000 199.333,2072.000 107.500 C 2072.000 15.667,2071.986 15.000,2070.000 15.000 C 2068.014 15.000,2068.000 15.667,2068.000 107.500 M2079.000 107.500 L 2079.000 200.000 2083.500 200.000 L 2088.000 200.000 2088.000 107.500 L 2088.000 15.000 2083.500 15.000 L 2079.000 15.000 2079.000 107.500 M2144.000 107.500 L 2144.000 200.000 2148.500 200.000 L 2153.000 200.000 2153.000 107.500 L 2153.000 15.000 2148.500 15.000 L 2144.000 15.000 2144.000 107.500 M2163.000 107.500 L 2163.000 200.000 2165.500 200.000 L 2168.000 200.000 2168.000 107.500 L 2168.000 15.000 2165.500 15.000 L 2163.000 15.000 2163.000 107.500 M2187.000 107.500 C 2187.000 199.333,2187.014 200.000,2189.000 200.000 C 2190.986 200.000,2191.000 199.333,2191.000 107.500 C 2191.000 15.667,2190.986 15.000,2189.000 15.000 C 2187.014 15.000,2187.000 15.667,2187.000 107.500 M2198.000 107.500 L 2198.000 200.000 2202.500 200.000 L 2207.000 200.000 2207.000 107.500 L 2207.000 15.000 2202.500 15.000 L 2198.000 15.000 2198.000 107.500 M2245.000 107.500 L 2245.000 200.000 2249.500 200.000 L 2254.000 200.000 2254.000 107.500 L 2254.000 15.000 2249.500 15.000 L 2245.000 15.000 2245.000 107.500 M2266.000 107.500 L 2266.000 200.000 2276.500 200.000 L 2287.000 200.000 2287.000 107.500 L 2287.000 15.000 2276.500 15.000 L 2266.000 15.000 2266.000 107.500 M2297.000 107.500 L 2297.000 200.000 2317.000 200.000 L 2337.000 200.000 2337.000 107.500 L 2337.000 15.000 2317.000 15.000 L 2297.000 15.000 2297.000 107.500 M140.000 131.000 L 140.000 194.000 187.500 194.000 L 235.000 194.000 235.000 169.223 L 235.000 144.446 227.998 137.498 L 220.997 130.550 227.998 123.502 L 235.000 116.453 235.000 92.226 L 235.000 68.000 187.500 68.000 L 140.000 68.000 140.000 131.000 M245.000 131.000 L 245.000 194.000 292.500 194.000 L 340.000 194.000 340.000 131.000 L 340.000 68.000 324.000 68.000 L 308.000 68.000 308.000 116.500 L 308.000 165.000 292.500 165.000 L 277.000 165.000 277.000 116.500 L 277.000 68.000 261.000 68.000 L 245.000 68.000 245.000 131.000 M412.000 116.500 L 412.000 165.000 396.000 165.000 L 380.000 165.000 380.000 154.500 L 380.000 144.000 364.500 144.000 L 349.000 144.000 349.000 169.000 L 349.000 194.000 396.500 194.000 L 444.000 194.000 444.000 131.000 L 444.000 68.000 428.000 68.000 L 412.000 68.000 412.000 116.500 M453.000 131.000 L 453.000 194.000 469.000 194.000 L 485.000 194.000 485.000 131.000 L 485.000 68.000 469.000 68.000 L 453.000 68.000 453.000 131.000 M495.000 131.000 L 495.000 194.000 511.000 194.000 L 527.000 194.000 527.000 169.000 L 527.000 144.000 542.500 144.000 L 558.000 144.000 558.000 169.000 L 558.000 194.000 574.000 194.000 L 590.000 194.000 590.000 131.000 L 590.000 68.000 574.000 68.000 L 558.000 68.000 558.000 92.000 L 558.000 116.000 542.500 116.000 L 527.000 116.000 527.000 92.000 L 527.000 68.000 511.000 68.000 L 495.000 68.000 495.000 131.000 M2710.000 131.000 L 2710.000 194.000 2757.500 194.000 L 2805.000 194.000 2805.000 169.223 L 2805.000 144.446 2797.998 137.498 L 2790.997 130.550 2797.998 123.502 L 2805.000 116.453 2805.000 92.226 L 2805.000 68.000 2757.500 68.000 L 2710.000 68.000 2710.000 131.000 M2815.000 131.000 L 2815.000 194.000 2862.500 194.000 L 2910.000 194.000 2910.000 131.000 L 2910.000 68.000 2894.000 68.000 L 2878.000 68.000 2878.000 116.500 L 2878.000 165.000 2862.500 165.000 L 2847.000 165.000 2847.000 116.500 L 2847.000 68.000 2831.000 68.000 L 2815.000 68.000 2815.000 131.000 M2982.000 116.500 L 2982.000 165.000 2966.000 165.000 L 2950.000 165.000 2950.000 154.500 L 2950.000 144.000 2934.500 144.000 L 2919.000 144.000 2919.000 169.000 L 2919.000 194.000 2966.500 194.000 L 3014.000 194.000 3014.000 131.000 L 3014.000 68.000 2998.000 68.000 L 2982.000 68.000 2982.000 116.500 M3024.000 131.000 L 3024.000 194.000 3039.500 194.000 L 3055.000 194.000 3055.000 131.000 L 3055.000 68.000 3039.500 68.000 L 3024.000 68.000 3024.000 131.000 M3065.000 131.000 L 3065.000 194.000 3081.000 194.000 L 3097.000 194.000 3097.000 169.000 L 3097.000 144.000 3112.500 144.000 L 3128.000 144.000 3128.000 169.000 L 3128.000 194.000 3144.000 194.000 L 3160.000 194.000 3160.000 131.000 L 3160.000 68.000 3144.000 68.000 L 3128.000 68.000 3128.000 92.000 L 3128.000 116.000 3112.500 116.000 L 3097.000 116.000 3097.000 92.000 L 3097.000 68.000 3081.000 68.000 L 3065.000 68.000 3065.000 131.000 M203.000 106.000 L 203.000 116.000 187.500 116.000 L 172.000 116.000 172.000 106.000 L 172.000 96.000 187.500 96.000 L 203.000 96.000 203.000 106.000 M2773.000 106.000 L 2773.000 116.000 2757.500 116.000 L 2742.000 116.000 2742.000 106.000 L 2742.000 96.000 2757.500 96.000 L 2773.000 96.000 2773.000 106.000 M203.000 154.500 L 203.000 165.000 187.500 165.000 L 172.000 165.000 172.000 154.500 L 172.000 144.000 187.500 144.000 L 203.000 144.000 203.000 154.500 M2773.000 154.500 L 2773.000 165.000 2757.500 165.000 L 2742.000 165.000 2742.000 154.500 L 2742.000 144.000 2757.500 144.000 L 2773.000 144.000 2773.000 154.500 M1865.255 220.185 C 1861.027 221.318,1859.004 224.565,1858.304 231.341 C 1857.882 235.432,1857.387 236.702,1856.369 236.311 C 1855.369 235.928,1855.000 233.640,1855.000 227.830 L 1855.000 219.873 1851.822 220.187 C 1849.083 220.457,1848.050 221.467,1844.351 227.500 C 1841.990 231.350,1839.872 234.950,1839.644 235.500 C 1839.416 236.050,1838.516 235.600,1837.643 234.500 C 1836.770 233.400,1836.327 231.825,1836.657 231.000 C 1838.330 226.819,1838.164 224.804,1835.952 222.449 C 1831.724 217.949,1822.837 219.841,1821.761 225.471 C 1821.367 227.533,1821.669 228.000,1823.398 228.000 C 1824.565 228.000,1826.099 227.072,1826.807 225.937 C 1828.523 223.189,1832.387 223.706,1832.818 226.740 C 1833.047 228.347,1832.411 229.311,1830.568 230.151 C 1827.360 231.613,1827.162 234.742,1830.250 235.180 C 1832.012 235.431,1832.500 236.150,1832.500 238.500 C 1832.500 241.049,1832.075 241.549,1829.676 241.824 C 1827.507 242.072,1826.725 241.666,1826.309 240.074 C 1825.742 237.907,1821.000 237.006,1821.000 239.066 C 1821.000 240.569,1823.089 244.360,1824.400 245.235 C 1828.009 247.645,1838.000 244.860,1838.000 241.443 C 1838.000 240.346,1839.438 240.000,1844.000 240.000 L 1850.000 240.000 1850.000 243.000 C 1850.000 245.533,1850.389 246.000,1852.500 246.000 C 1854.611 246.000,1855.000 245.533,1855.000 243.000 C 1855.000 241.078,1855.509 240.000,1856.417 240.000 C 1857.196 240.000,1858.060 239.438,1858.338 238.750 C 1858.661 237.949,1858.870 238.080,1858.921 239.115 C 1858.964 240.003,1859.933 241.916,1861.073 243.365 C 1862.745 245.491,1863.986 246.000,1867.500 246.000 C 1871.014 246.000,1872.255 245.491,1873.927 243.365 C 1879.552 236.214,1872.611 225.926,1864.934 230.035 C 1862.733 231.213,1862.512 230.413,1863.975 226.565 C 1865.069 223.688,1868.058 223.160,1870.000 225.500 C 1871.773 227.636,1875.000 227.413,1875.000 225.155 C 1875.000 221.350,1870.146 218.875,1865.255 220.185 M974.736 221.250 C 969.310 225.370,969.908 243.216,975.545 245.379 C 976.435 245.720,978.669 246.000,980.509 246.000 C 984.353 246.000,988.000 242.282,988.000 238.365 C 988.000 237.064,988.450 236.000,989.000 236.000 C 989.550 236.000,990.000 237.064,990.000 238.365 C 990.000 242.282,993.647 246.000,997.491 246.000 C 999.331 246.000,1001.565 245.720,1002.455 245.379 C 1008.223 243.166,1008.620 224.008,1002.961 220.979 C 1001.955 220.441,999.560 220.000,997.638 220.000 C 993.643 220.000,990.000 223.642,990.000 227.635 C 990.000 228.936,989.550 230.000,989.000 230.000 C 988.450 230.000,988.000 228.936,988.000 227.635 C 988.000 223.522,984.364 220.000,980.119 220.000 C 978.064 220.000,975.642 220.563,974.736 221.250 M1015.279 221.925 C 1014.617 222.984,1013.051 223.997,1011.798 224.175 C 1010.545 224.354,1009.370 225.287,1009.187 226.250 C 1008.929 227.605,1009.537 228.000,1011.888 228.000 L 1014.922 228.000 1015.211 236.750 C 1015.495 245.340,1015.546 245.500,1018.000 245.500 L 1020.500 245.500 1020.780 232.750 C 1021.059 220.048,1021.051 220.000,1018.770 220.000 C 1017.511 220.000,1015.940 220.866,1015.279 221.925 M1029.174 222.314 C 1026.103 225.584,1026.269 229.000,1029.500 229.000 C 1031.346 229.000,1032.000 228.469,1032.000 226.969 C 1032.000 224.524,1034.653 223.292,1036.886 224.698 C 1040.221 226.798,1039.331 229.219,1033.105 234.980 C 1028.550 239.195,1027.000 241.311,1027.000 243.315 L 1027.000 246.000 1035.500 246.000 C 1043.900 246.000,1044.000 245.971,1044.000 243.500 C 1044.000 241.154,1043.680 241.000,1038.795 241.000 L 1033.590 241.000 1038.795 236.190 C 1043.004 232.299,1044.000 230.760,1044.000 228.144 C 1044.000 220.925,1034.127 217.043,1029.174 222.314 M1153.000 222.500 C 1153.000 224.889,1153.267 225.000,1159.000 225.000 C 1162.300 225.000,1165.000 225.235,1165.000 225.521 C 1165.000 225.808,1163.893 227.721,1162.539 229.771 C 1159.826 233.881,1157.000 241.205,1157.000 244.126 C 1157.000 245.423,1157.719 246.000,1159.336 246.000 C 1161.352 246.000,1161.907 245.143,1163.389 239.750 C 1164.333 236.313,1166.689 231.096,1168.624 228.158 C 1173.538 220.697,1172.974 220.000,1162.031 220.000 C 1153.065 220.000,1153.000 220.018,1153.000 222.500 M1176.595 227.838 C 1174.068 232.149,1172.000 236.649,1172.000 237.838 C 1172.000 239.766,1172.542 240.000,1177.000 240.000 C 1181.889 240.000,1182.000 240.067,1182.000 243.000 C 1182.000 245.533,1182.389 246.000,1184.500 246.000 C 1186.611 246.000,1187.000 245.533,1187.000 243.000 C 1187.000 240.667,1187.444 240.000,1189.000 240.000 C 1190.100 240.000,1191.000 240.605,1191.000 241.345 C 1191.000 245.925,1202.109 247.891,1206.000 244.000 C 1208.327 241.673,1208.658 236.283,1206.644 233.528 C 1205.545 232.025,1205.524 231.218,1206.534 229.273 C 1209.191 224.150,1205.484 219.707,1198.952 220.188 C 1195.660 220.429,1194.229 221.133,1192.613 223.305 C 1190.671 225.917,1190.634 226.298,1192.082 228.820 C 1193.490 231.273,1193.488 231.767,1192.068 234.049 C 1191.130 235.556,1189.797 236.424,1188.750 236.211 C 1187.261 235.907,1187.000 234.673,1187.000 227.927 L 1187.000 220.000 1184.095 220.000 C 1181.526 220.000,1180.658 220.907,1176.595 227.838 M1212.000 222.000 C 1210.900 223.100,1210.000 224.413,1210.000 224.918 C 1210.000 225.423,1209.727 226.548,1209.393 227.418 C 1208.299 230.269,1213.502 229.388,1214.818 226.500 C 1216.183 223.505,1219.501 223.199,1220.965 225.934 C 1222.498 228.798,1222.487 228.818,1216.040 234.888 C 1212.757 237.979,1209.788 241.735,1209.431 243.250 L 1208.783 246.000 1217.892 246.000 C 1226.941 246.000,1227.000 245.984,1227.000 243.500 C 1227.000 241.127,1226.708 240.998,1221.250 240.968 L 1215.500 240.937 1218.482 238.718 C 1225.761 233.303,1226.455 232.372,1226.455 227.999 C 1226.455 224.790,1225.898 223.336,1224.116 221.893 C 1220.946 219.326,1214.618 219.382,1212.000 222.000 M1230.455 222.455 C 1228.657 224.252,1228.000 225.993,1228.000 228.955 C 1228.000 234.579,1230.838 237.321,1236.137 236.816 C 1239.570 236.488,1240.044 236.689,1239.791 238.368 C 1239.348 241.301,1236.435 242.752,1234.017 241.243 C 1231.766 239.837,1228.000 239.576,1228.000 240.826 C 1228.000 241.280,1229.042 242.630,1230.314 243.826 C 1232.590 245.964,1237.122 246.658,1240.455 245.379 C 1242.424 244.623,1244.962 239.942,1245.105 236.800 C 1245.183 235.087,1245.506 235.453,1246.371 238.237 C 1248.108 243.824,1250.402 246.000,1254.556 246.000 C 1259.382 246.000,1261.578 244.650,1262.895 240.872 C 1265.172 234.338,1264.037 225.180,1260.512 221.655 C 1257.807 218.950,1251.549 219.486,1249.073 222.635 C 1247.933 224.084,1247.000 226.082,1247.000 227.076 C 1247.000 228.069,1246.550 229.160,1246.000 229.500 C 1245.439 229.847,1245.000 229.059,1245.000 227.705 C 1245.000 220.958,1235.412 217.497,1230.455 222.455 M1272.279 221.925 C 1271.617 222.984,1270.051 223.997,1268.798 224.175 C 1267.545 224.354,1266.370 225.287,1266.187 226.250 C 1265.928 227.609,1266.539 228.000,1268.927 228.000 L 1272.000 228.000 1272.000 237.000 C 1272.000 245.933,1272.019 246.000,1274.500 246.000 L 1277.000 246.000 1277.000 233.000 C 1277.000 221.259,1276.830 220.000,1275.241 220.000 C 1274.273 220.000,1272.940 220.866,1272.279 221.925 M1453.189 222.039 C 1450.326 224.705,1450.225 229.000,1453.025 229.000 C 1454.264 229.000,1455.418 228.031,1456.000 226.500 C 1457.157 223.457,1460.491 223.179,1462.000 226.000 C 1463.382 228.583,1462.163 230.875,1457.527 234.411 C 1453.718 237.317,1451.620 240.119,1450.537 243.750 C 1449.875 245.967,1449.997 246.000,1458.933 246.000 C 1467.938 246.000,1468.000 245.983,1468.000 243.500 C 1468.000 241.127,1467.708 240.998,1462.250 240.968 L 1456.500 240.937 1459.500 238.743 C 1468.469 232.184,1470.311 227.220,1465.545 222.455 C 1462.383 219.292,1456.354 219.090,1453.189 222.039 M1469.000 222.500 C 1469.000 224.896,1469.256 225.000,1475.155 225.000 C 1480.989 225.000,1481.226 225.093,1479.702 226.777 C 1477.649 229.046,1473.385 238.518,1472.512 242.750 C 1471.894 245.745,1472.042 246.000,1474.401 246.000 C 1476.380 246.000,1477.100 245.375,1477.571 243.250 C 1478.948 237.027,1480.346 233.686,1483.587 228.871 C 1489.094 220.687,1488.662 220.000,1478.000 220.000 C 1469.067 220.000,1469.000 220.019,1469.000 222.500 M1491.750 227.902 C 1489.138 232.219,1487.000 236.708,1487.000 237.876 C 1487.000 239.754,1487.571 240.000,1491.934 240.000 C 1496.572 240.000,1496.886 240.164,1497.184 242.750 C 1497.407 244.688,1498.143 245.592,1499.678 245.810 C 1501.414 246.057,1501.921 245.551,1502.178 243.310 C 1502.492 240.574,1502.677 240.492,1509.250 240.204 L 1516.000 239.909 1516.000 242.954 C 1516.000 245.536,1516.381 246.000,1518.500 246.000 C 1520.611 246.000,1521.000 245.533,1521.000 243.000 C 1521.000 241.000,1521.500 240.000,1522.500 240.000 C 1523.333 240.000,1524.000 239.111,1524.000 238.000 C 1524.000 236.889,1523.333 236.000,1522.500 236.000 C 1521.292 236.000,1521.000 234.444,1521.000 228.000 L 1521.000 220.000 1518.055 220.000 C 1515.440 220.000,1514.573 220.896,1510.315 228.000 C 1507.226 233.155,1504.895 236.000,1503.761 236.000 C 1502.227 236.000,1502.000 234.971,1502.000 228.000 L 1502.000 220.000 1499.250 220.026 C 1496.897 220.048,1495.815 221.184,1491.750 227.902 M1531.732 222.000 C 1530.790 223.100,1529.115 224.000,1528.010 224.000 C 1526.667 224.000,1526.000 224.663,1526.000 226.000 C 1526.000 227.556,1526.667 228.000,1529.000 228.000 L 1532.000 228.000 1532.000 237.000 C 1532.000 245.933,1532.019 246.000,1534.500 246.000 L 1537.000 246.000 1537.000 233.000 C 1537.000 221.208,1536.835 220.000,1535.222 220.000 C 1534.244 220.000,1532.674 220.900,1531.732 222.000 M1546.795 221.206 C 1541.596 225.153,1541.770 242.201,1547.039 245.021 C 1549.821 246.510,1555.667 246.190,1557.402 244.455 C 1561.405 240.453,1561.835 228.003,1558.144 223.000 C 1556.008 220.105,1549.583 219.089,1546.795 221.206 M1564.000 222.000 C 1561.159 224.841,1561.360 228.000,1564.383 228.000 C 1565.956 228.000,1566.952 227.293,1567.310 225.921 C 1568.138 222.755,1572.406 223.692,1572.805 227.128 C 1573.050 229.247,1572.602 229.883,1570.488 230.414 C 1567.290 231.216,1567.450 234.347,1570.713 234.813 C 1575.110 235.442,1574.356 242.000,1569.886 242.000 C 1568.858 242.000,1567.455 241.100,1566.768 240.000 C 1566.081 238.900,1564.472 238.000,1563.192 238.000 C 1561.243 238.000,1560.976 238.365,1561.551 240.250 C 1562.856 244.533,1565.033 246.000,1570.082 246.000 C 1574.047 246.000,1575.206 245.554,1576.927 243.365 C 1579.433 240.179,1579.594 236.313,1577.324 233.805 C 1576.038 232.385,1575.922 231.678,1576.824 230.776 C 1578.862 228.738,1578.243 223.284,1575.777 221.557 C 1572.592 219.325,1566.443 219.557,1564.000 222.000 M1750.795 221.206 C 1745.596 225.153,1745.770 242.201,1751.039 245.021 C 1753.821 246.510,1759.667 246.190,1761.402 244.455 C 1765.405 240.453,1765.835 228.003,1762.144 223.000 C 1760.008 220.105,1753.583 219.089,1750.795 221.206 M1767.534 224.250 C 1767.182 226.588,1766.656 229.738,1766.367 231.251 C 1765.713 234.669,1768.039 235.852,1771.633 233.929 C 1775.969 231.608,1780.106 236.758,1776.954 240.555 C 1775.389 242.441,1772.094 242.409,1771.362 240.500 C 1771.040 239.661,1769.552 239.000,1767.987 239.000 C 1765.666 239.000,1765.278 239.347,1765.718 241.031 C 1766.497 244.010,1769.921 246.000,1774.268 246.000 C 1781.932 246.000,1785.708 237.713,1780.856 231.544 C 1779.054 229.253,1778.095 228.876,1774.856 229.185 C 1771.403 229.514,1771.000 229.315,1771.000 227.276 C 1771.000 225.184,1771.444 225.000,1776.500 225.000 C 1781.700 225.000,1782.000 224.864,1782.000 222.500 C 1782.000 220.074,1781.794 220.000,1775.088 220.000 L 1768.176 220.000 1767.534 224.250 M1786.455 222.455 C 1783.320 225.589,1783.195 230.706,1786.161 234.477 C 1788.069 236.904,1788.827 237.167,1792.661 236.735 C 1795.047 236.466,1797.000 236.386,1797.000 236.558 C 1797.000 236.729,1796.561 238.024,1796.025 239.435 C 1795.333 241.254,1794.315 242.000,1792.525 242.000 C 1791.136 242.000,1790.000 241.550,1790.000 241.000 C 1790.000 240.450,1788.875 240.000,1787.500 240.000 C 1784.543 240.000,1784.234 241.997,1786.829 244.345 C 1788.911 246.229,1794.157 246.521,1797.150 244.920 C 1798.261 244.325,1799.806 242.315,1800.585 240.452 C 1803.384 233.752,1801.555 223.438,1797.150 221.080 C 1793.669 219.217,1789.105 219.804,1786.455 222.455 M1805.455 222.455 C 1802.210 225.700,1802.174 229.000,1805.383 229.000 C 1806.924 229.000,1807.951 228.294,1808.288 227.005 C 1808.959 224.440,1811.607 223.429,1813.513 225.011 C 1816.164 227.211,1815.112 229.581,1809.000 235.181 C 1804.546 239.260,1803.000 241.363,1803.000 243.338 L 1803.000 246.000 1811.500 246.000 C 1819.900 246.000,1820.000 245.971,1820.000 243.500 C 1820.000 241.154,1819.677 240.998,1814.750 240.976 L 1809.500 240.951 1814.750 236.386 C 1819.378 232.361,1820.000 231.365,1820.000 227.983 C 1820.000 225.028,1819.394 223.668,1817.365 222.073 C 1813.707 219.195,1808.548 219.361,1805.455 222.455 M2046.112 222.585 C 2043.629 225.742,2043.514 226.862,2045.400 229.554 C 2046.600 231.267,2046.600 231.826,2045.400 233.468 C 2043.381 236.229,2043.622 242.348,2045.829 244.345 C 2048.511 246.772,2056.435 246.565,2059.000 244.000 C 2061.328 241.672,2061.658 236.282,2059.642 233.525 C 2058.486 231.944,2058.521 231.254,2059.878 228.889 C 2061.376 226.280,2061.346 225.939,2059.386 223.305 C 2057.722 221.069,2056.379 220.439,2052.761 220.200 C 2048.844 219.941,2047.936 220.266,2046.112 222.585 M2062.000 222.500 C 2062.000 224.885,2062.273 225.000,2067.909 225.000 L 2073.818 225.000 2069.909 232.554 C 2065.285 241.490,2064.769 246.000,2068.372 246.000 C 2070.357 246.000,2070.846 245.362,2071.369 242.093 C 2071.713 239.945,2073.470 235.332,2075.274 231.843 L 2078.554 225.500 2085.975 225.202 C 2093.104 224.916,2093.331 224.976,2091.745 226.729 C 2089.656 229.038,2085.393 238.480,2084.512 242.750 C 2083.894 245.745,2084.042 246.000,2086.401 246.000 C 2088.380 246.000,2089.100 245.375,2089.571 243.250 C 2090.948 237.027,2092.346 233.686,2095.587 228.871 C 2101.637 219.881,2101.840 220.000,2080.500 220.000 L 2062.000 220.000 2062.000 222.500 M2103.750 227.902 C 2101.137 232.219,2099.000 236.708,2099.000 237.876 C 2099.000 239.754,2099.571 240.000,2103.934 240.000 C 2108.572 240.000,2108.886 240.164,2109.184 242.750 C 2109.410 244.719,2110.139 245.591,2111.750 245.820 C 2113.589 246.081,2114.000 245.663,2114.000 243.538 C 2114.000 240.747,2117.057 238.670,2117.815 240.945 C 2119.620 246.361,2128.808 247.963,2132.926 243.579 C 2135.433 240.910,2135.959 235.660,2134.071 232.133 C 2132.799 229.756,2129.182 228.541,2125.482 229.248 C 2122.984 229.726,2122.332 228.598,2123.785 226.314 C 2124.199 225.662,2126.780 224.987,2129.519 224.814 C 2133.729 224.549,2134.500 224.190,2134.500 222.500 C 2134.500 220.715,2133.736 220.469,2127.392 220.209 L 2120.283 219.918 2119.642 224.599 C 2118.232 234.883,2119.147 236.799,2124.017 233.757 C 2126.988 231.902,2129.500 233.895,2129.500 238.109 C 2129.500 241.067,2129.148 241.541,2126.744 241.817 C 2124.947 242.024,2123.779 241.589,2123.387 240.567 C 2123.033 239.644,2121.597 239.000,2119.893 239.000 C 2117.988 239.000,2117.000 238.488,2117.000 237.500 C 2117.000 236.675,2116.325 236.000,2115.500 236.000 C 2114.292 236.000,2114.000 234.444,2114.000 228.000 L 2114.000 220.000 2111.250 220.026 C 2108.897 220.048,2107.815 221.184,2103.750 227.902 M2143.732 222.000 C 2142.790 223.100,2141.115 224.000,2140.010 224.000 C 2138.667 224.000,2138.000 224.663,2138.000 226.000 C 2138.000 227.556,2138.667 228.000,2141.000 228.000 L 2144.000 228.000 2144.000 237.000 C 2144.000 245.933,2144.019 246.000,2146.500 246.000 L 2149.000 246.000 2149.000 233.000 C 2149.000 221.208,2148.835 220.000,2147.222 220.000 C 2146.244 220.000,2144.674 220.900,2143.732 222.000 M2158.795 221.206 C 2153.596 225.153,2153.770 242.201,2159.039 245.021 C 2161.821 246.510,2167.667 246.190,2169.402 244.455 C 2173.405 240.453,2173.835 228.003,2170.144 223.000 C 2168.008 220.105,2161.583 219.089,2158.795 221.206 M2257.000 222.500 C 2257.000 224.887,2257.269 225.000,2262.959 225.000 L 2268.917 225.000 2265.801 230.014 C 2262.769 234.891,2259.795 243.738,2260.679 245.250 C 2261.400 246.481,2265.033 246.099,2265.434 244.750 C 2265.638 244.063,2266.377 241.291,2267.077 238.591 C 2267.776 235.892,2269.845 231.459,2271.674 228.741 C 2277.088 220.697,2276.635 220.000,2266.000 220.000 C 2257.067 220.000,2257.000 220.019,2257.000 222.500 M2278.174 222.314 C 2275.103 225.584,2275.269 229.000,2278.500 229.000 C 2280.304 229.000,2281.000 228.462,2281.000 227.067 C 2281.000 224.695,2284.563 223.393,2286.548 225.040 C 2289.163 227.210,2288.090 229.602,2282.000 235.181 C 2277.546 239.260,2276.000 241.363,2276.000 243.338 L 2276.000 246.000 2284.500 246.000 C 2292.900 246.000,2293.000 245.971,2293.000 243.500 C 2293.000 241.154,2292.680 241.000,2287.795 241.000 L 2282.590 241.000 2287.795 236.190 C 2293.698 230.734,2294.516 227.197,2290.927 222.635 C 2288.114 219.058,2281.393 218.889,2278.174 222.314 M2296.661 220.750 C 2296.409 221.162,2295.880 224.537,2295.485 228.250 C 2294.822 234.485,2294.913 235.000,2296.684 235.000 C 2297.738 235.000,2299.088 234.512,2299.685 233.915 C 2300.281 233.319,2301.834 232.981,2303.135 233.165 C 2305.172 233.454,2305.500 234.055,2305.500 237.500 C 2305.500 241.122,2305.240 241.530,2302.744 241.817 C 2300.947 242.024,2299.779 241.589,2299.387 240.567 C 2298.619 238.564,2294.000 238.473,2294.000 240.461 C 2294.000 243.197,2298.178 246.000,2302.254 246.000 C 2307.625 246.000,2309.741 244.596,2311.074 240.146 C 2313.180 233.119,2308.277 227.710,2301.374 229.442 C 2299.215 229.984,2298.859 229.811,2299.374 228.469 C 2299.718 227.571,2300.000 226.447,2300.000 225.970 C 2300.000 225.494,2302.363 224.969,2305.250 224.802 C 2309.824 224.539,2310.541 224.210,2310.820 222.250 C 2311.125 220.100,2310.827 220.000,2304.129 220.000 C 2300.273 220.000,2296.912 220.338,2296.661 220.750 M2314.507 224.750 C 2314.168 227.363,2313.679 230.522,2313.421 231.772 C 2312.816 234.694,2315.290 235.718,2318.633 233.929 C 2322.969 231.608,2327.106 236.758,2323.954 240.555 C 2322.389 242.441,2319.094 242.409,2318.362 240.500 C 2318.040 239.661,2316.552 239.000,2314.987 239.000 C 2312.666 239.000,2312.278 239.347,2312.718 241.031 C 2313.518 244.088,2316.954 246.000,2321.650 246.000 C 2325.001 246.000,2326.275 245.465,2327.927 243.365 C 2332.854 237.102,2328.887 228.327,2321.518 229.188 C 2318.342 229.558,2317.947 229.364,2318.206 227.554 C 2318.453 225.827,2319.335 225.452,2323.750 225.198 C 2328.571 224.920,2329.000 224.696,2329.000 222.448 C 2329.000 220.086,2328.756 220.000,2322.061 220.000 L 2315.123 220.000 2314.507 224.750 M981.800 225.200 C 983.042 226.442,983.477 237.594,982.393 240.418 C 981.550 242.614,978.284 242.399,977.035 240.066 C 976.466 239.002,976.000 235.822,976.000 233.000 C 976.000 225.358,978.541 221.941,981.800 225.200 M1000.965 225.934 C 1002.435 228.681,1002.249 238.278,1000.684 240.418 C 999.960 241.408,998.498 242.051,997.434 241.848 C 995.765 241.529,995.459 240.473,995.204 234.147 C 994.907 226.782,995.835 224.000,998.587 224.000 C 999.326 224.000,1000.395 224.870,1000.965 225.934 M1201.895 225.373 C 1203.550 227.368,1202.161 230.000,1199.452 230.000 C 1196.635 230.000,1195.654 228.666,1196.503 225.991 C 1197.230 223.700,1200.222 223.357,1201.895 225.373 M1238.950 225.440 C 1239.607 226.231,1239.999 228.144,1239.822 229.690 C 1239.549 232.074,1239.045 232.500,1236.500 232.500 C 1233.955 232.500,1233.451 232.074,1233.178 229.690 C 1232.836 226.707,1234.417 224.000,1236.500 224.000 C 1237.190 224.000,1238.293 224.648,1238.950 225.440 M1258.025 226.565 C 1259.285 229.881,1259.273 236.153,1257.998 239.504 C 1256.491 243.468,1252.817 242.578,1251.786 238.000 C 1251.054 234.752,1251.599 226.468,1252.656 224.750 C 1253.736 222.996,1257.100 224.133,1258.025 226.565 M1554.586 226.250 C 1555.478 229.035,1555.450 239.463,1554.546 240.925 C 1553.467 242.671,1550.153 242.154,1549.035 240.066 C 1547.728 237.623,1547.694 229.935,1548.975 226.565 C 1550.205 223.330,1553.590 223.140,1554.586 226.250 M1758.358 225.750 C 1759.591 230.130,1759.851 233.806,1759.190 237.500 C 1758.633 240.607,1757.974 241.571,1756.238 241.819 C 1754.591 242.055,1753.740 241.446,1753.002 239.504 C 1751.727 236.153,1751.715 229.881,1752.975 226.565 C 1754.101 223.604,1757.604 223.073,1758.358 225.750 M1796.068 226.126 C 1796.894 227.670,1796.909 228.904,1796.124 230.626 C 1794.281 234.673,1789.000 233.096,1789.000 228.500 C 1789.000 224.051,1794.049 222.355,1796.068 226.126 M2055.362 225.500 C 2056.295 227.932,2054.958 230.000,2052.452 230.000 C 2049.635 230.000,2048.654 228.666,2049.503 225.991 C 2050.255 223.620,2054.503 223.264,2055.362 225.500 M2166.586 226.250 C 2167.478 229.035,2167.450 239.463,2166.546 240.925 C 2165.467 242.671,2162.153 242.154,2161.035 240.066 C 2159.728 237.623,2159.694 229.935,2160.975 226.565 C 2162.205 223.330,2165.590 223.140,2166.586 226.250 M1182.000 231.000 C 1182.000 235.910,1181.945 236.000,1178.942 236.000 L 1175.885 236.000 1178.692 231.001 C 1180.237 228.252,1181.612 226.002,1181.750 226.001 C 1181.888 226.000,1182.000 228.250,1182.000 231.000 M1497.000 231.000 C 1497.000 235.889,1496.933 236.000,1494.000 236.000 L 1491.001 236.000 1493.750 231.014 C 1495.263 228.272,1496.612 226.022,1496.750 226.014 C 1496.888 226.006,1497.000 228.250,1497.000 231.000 M1516.000 231.000 C 1516.000 235.889,1515.933 236.000,1513.000 236.000 C 1511.350 236.000,1510.000 235.832,1510.000 235.626 C 1510.000 234.914,1515.173 226.000,1515.585 226.000 C 1515.813 226.000,1516.000 228.250,1516.000 231.000 M1850.000 231.000 C 1850.000 235.889,1849.933 236.000,1847.000 236.000 C 1845.350 236.000,1844.000 235.743,1844.000 235.428 C 1844.000 234.610,1849.109 226.000,1849.595 226.000 C 1849.818 226.000,1850.000 228.250,1850.000 231.000 M2108.654 235.679 C 2108.395 235.938,2107.053 236.004,2105.672 235.825 L 2103.162 235.500 2105.831 231.000 L 2108.500 226.500 2108.813 230.854 C 2108.985 233.249,2108.913 235.420,2108.654 235.679 M1869.800 234.200 C 1870.460 234.860,1871.000 236.345,1871.000 237.500 C 1871.000 242.096,1865.719 243.673,1863.876 239.626 C 1861.818 235.110,1866.459 230.859,1869.800 234.200 M1201.954 235.445 C 1202.614 236.240,1203.006 237.927,1202.827 239.195 C 1202.568 241.017,1201.871 241.500,1199.500 241.500 C 1197.129 241.500,1196.432 241.017,1196.173 239.195 C 1195.815 236.669,1197.525 234.000,1199.500 234.000 C 1200.190 234.000,1201.295 234.650,1201.954 235.445 M2054.954 235.445 C 2055.614 236.240,2056.006 237.927,2055.827 239.195 C 2055.568 241.017,2054.871 241.500,2052.500 241.500 C 2050.129 241.500,2049.432 241.017,2049.173 239.195 C 2048.815 236.669,2050.525 234.000,2052.500 234.000 C 2053.190 234.000,2054.295 234.650,2054.954 235.445 " stroke="none" fill="black" fill-rule="evenodd"/></svg>