<svg id="svg" version="1.1" width="3508" height="1325" xmlns="http://www.w3.org/2000/svg"><path d="M691.000 75.050 C 664.560 76.966,635.611 84.617,614.412 95.292 C 594.274 105.434,572.205 124.748,560.589 142.399 C 546.555 163.722,537.862 189.175,533.914 220.500 C 532.414 232.401,532.375 267.924,533.849 280.500 C 538.774 322.531,552.248 353.854,575.924 378.312 C 586.500 389.238,594.796 395.753,607.177 402.857 C 638.846 421.029,676.825 429.011,725.421 427.707 C 785.340 426.100,827.929 410.043,859.000 377.343 C 881.072 354.115,893.680 326.422,899.677 288.000 C 902.221 271.702,902.221 230.298,899.677 214.000 C 893.845 176.635,881.034 148.028,860.222 125.894 C 823.576 86.922,765.982 69.618,691.000 75.050 M160.000 250.966 L 160.000 422.000 278.276 422.000 C 353.355 422.000,399.647 421.623,405.026 420.969 C 417.938 419.398,428.473 416.358,439.613 410.989 C 477.369 392.790,495.279 356.745,488.615 312.369 C 485.246 289.935,476.135 273.236,461.005 261.764 C 453.202 255.847,440.981 249.840,431.731 247.375 C 428.015 246.385,425.109 245.174,425.272 244.683 C 425.436 244.192,429.245 242.331,433.738 240.546 C 460.590 229.879,475.579 211.417,480.397 183.074 C 485.676 152.025,477.603 126.262,456.184 105.798 C 446.981 97.006,437.719 91.221,425.943 86.911 C 407.903 80.308,415.648 80.664,281.750 80.281 L 160.000 79.932 160.000 250.966 M931.435 85.250 C 933.335 88.138,963.940 135.275,999.445 190.000 L 1064.000 289.500 1064.000 355.750 L 1064.000 422.000 1119.000 422.000 L 1174.000 422.000 1174.000 355.450 L 1174.000 288.900 1240.500 184.978 C 1277.075 127.820,1307.000 80.817,1307.000 80.527 C 1307.000 80.237,1280.112 80.019,1247.250 80.042 L 1187.500 80.084 1154.859 136.756 C 1136.906 167.925,1121.774 193.575,1121.232 193.756 C 1120.690 193.937,1105.454 168.425,1087.374 137.063 L 1054.500 80.041 991.240 80.021 L 927.980 80.000 931.435 85.250 M1348.000 251.000 L 1348.000 422.000 1402.992 422.000 L 1457.985 422.000 1458.242 360.750 L 1458.500 299.500 1530.250 299.243 L 1602.000 298.987 1602.000 260.000 L 1602.000 221.013 1530.250 220.757 L 1458.500 220.500 1458.235 191.250 L 1457.970 162.000 1541.485 162.000 L 1625.000 162.000 1625.000 121.000 L 1625.000 80.000 1486.500 80.000 L 1348.000 80.000 1348.000 251.000 M1680.000 251.000 L 1680.000 422.000 1735.000 422.000 L 1790.000 422.000 1790.000 359.480 L 1790.000 296.959 1810.623 297.230 L 1831.246 297.500 1861.373 359.717 L 1891.500 421.934 1953.285 421.967 C 2011.815 421.998,2015.022 421.908,2014.158 420.250 C 2009.235 410.811,1944.989 290.006,1942.429 285.376 L 1939.043 279.251 1948.492 274.683 C 1966.615 265.921,1979.030 255.407,1988.758 240.582 C 1998.825 225.240,2003.815 209.478,2004.720 190.169 C 2005.674 169.817,2002.292 153.622,1993.305 135.500 C 1985.663 120.091,1975.975 109.139,1961.356 99.389 C 1946.511 89.487,1928.401 83.288,1907.789 81.053 C 1901.597 80.381,1858.575 80.000,1789.039 80.000 L 1680.000 80.000 1680.000 251.000 M2072.000 251.000 L 2072.000 422.000 2127.000 422.000 L 2182.000 422.000 2182.000 251.000 L 2182.000 80.000 2127.000 80.000 L 2072.000 80.000 2072.000 251.000 M2261.000 251.000 L 2261.000 422.000 2411.000 422.000 L 2561.000 422.000 2561.000 381.000 L 2561.000 340.000 2466.000 340.000 L 2371.000 340.000 2371.000 314.000 L 2371.000 288.000 2450.500 288.000 L 2530.000 288.000 2530.000 248.500 L 2530.000 209.000 2450.500 209.000 L 2371.000 209.000 2371.000 185.500 L 2371.000 162.000 2464.000 162.000 L 2557.000 162.000 2557.000 121.000 L 2557.000 80.000 2409.000 80.000 L 2261.000 80.000 2261.000 251.000 M2620.000 251.000 L 2620.000 422.000 2670.500 422.000 L 2721.000 422.000 2721.000 339.500 C 2721.000 294.125,2721.338 257.019,2721.750 257.043 C 2722.162 257.066,2754.450 294.162,2793.500 339.478 L 2864.500 421.870 2912.750 421.935 L 2961.000 422.000 2961.000 251.000 L 2961.000 80.000 2910.506 80.000 L 2860.011 80.000 2859.756 163.911 L 2859.500 247.821 2788.000 163.923 L 2716.500 80.024 2668.250 80.012 L 2620.000 80.000 2620.000 251.000 M3035.000 250.986 L 3035.000 422.108 3124.750 421.731 C 3220.737 421.328,3219.392 421.392,3244.125 416.031 C 3281.750 407.876,3312.460 389.466,3331.752 363.500 C 3337.661 355.547,3346.582 338.870,3350.467 328.515 C 3365.898 287.381,3366.722 224.806,3352.429 179.500 C 3348.778 167.928,3339.098 148.750,3332.238 139.500 C 3308.981 108.139,3276.766 90.975,3225.789 82.784 C 3213.097 80.745,3208.513 80.631,3123.750 80.257 L 3035.000 79.865 3035.000 250.986 M352.965 156.488 C 359.397 158.757,364.575 163.431,367.674 169.767 C 370.092 174.709,370.454 176.625,370.447 184.475 C 370.438 194.659,368.345 200.501,362.671 206.175 C 355.884 212.962,355.948 212.954,310.750 212.978 L 270.000 213.000 270.000 184.000 L 270.000 155.000 309.374 155.000 C 341.670 155.000,349.506 155.267,352.965 156.488 M739.500 158.508 C 763.805 165.110,780.932 183.964,787.182 211.000 C 789.185 219.667,789.379 223.174,789.392 251.000 C 789.406 278.838,789.216 282.329,787.220 291.000 C 783.861 305.593,777.506 317.560,768.130 326.947 C 759.515 335.573,752.398 339.748,740.465 343.177 C 733.700 345.120,730.164 345.465,717.000 345.465 C 703.836 345.465,700.300 345.120,693.535 343.177 C 681.906 339.836,674.463 335.527,666.500 327.530 C 655.186 316.167,649.688 304.780,646.447 286.001 C 645.126 278.348,644.900 271.133,645.223 247.054 C 645.687 212.590,646.396 208.234,654.160 192.121 C 658.271 183.590,660.439 180.470,666.331 174.602 C 675.931 165.041,688.248 159.092,703.500 156.649 C 709.690 155.658,733.539 156.889,739.500 158.508 M1873.501 160.086 C 1894.071 167.782,1899.753 195.805,1883.990 211.818 C 1875.075 220.875,1874.326 221.000,1828.962 221.000 L 1790.000 221.000 1790.000 189.500 L 1790.000 158.000 1828.962 158.000 C 1866.014 158.000,1868.198 158.102,1873.501 160.086 M3197.500 163.395 C 3222.695 167.261,3238.544 180.568,3245.859 204.000 C 3249.620 216.044,3250.209 223.928,3249.750 256.000 C 3249.259 290.291,3248.815 293.180,3241.759 307.985 C 3236.495 319.030,3228.537 327.179,3218.000 332.315 C 3204.972 338.664,3201.479 339.225,3171.750 339.745 L 3145.000 340.213 3145.000 251.106 L 3145.000 162.000 3166.750 162.007 C 3180.201 162.011,3191.934 162.541,3197.500 163.395 M361.193 285.176 C 366.849 286.870,373.316 292.992,376.021 299.212 C 377.855 303.429,378.323 306.324,378.331 313.500 C 378.346 327.009,374.117 335.034,364.354 340.021 L 359.500 342.500 314.750 342.798 L 270.000 343.096 270.000 313.548 L 270.000 284.000 313.634 284.000 C 344.185 284.000,358.445 284.353,361.193 285.176 M689.000 463.627 C 656.228 467.506,636.298 472.632,615.073 482.641 C 585.588 496.544,560.789 519.534,545.687 546.966 C 529.883 575.673,521.809 615.763,523.327 658.000 C 525.787 726.483,548.420 773.074,594.028 803.545 C 626.029 824.925,665.410 834.998,717.000 834.998 C 768.711 834.998,807.870 824.939,840.359 803.310 C 851.635 795.803,868.315 780.231,876.409 769.656 C 892.007 749.274,902.627 723.427,908.111 692.500 C 910.783 677.430,911.865 638.045,910.081 620.773 C 906.639 587.457,896.661 558.093,880.855 534.771 C 872.691 522.724,853.312 503.306,841.867 495.705 C 823.303 483.377,804.673 475.284,782.733 470.019 C 760.642 464.717,751.868 463.789,721.000 463.489 C 705.325 463.337,690.925 463.399,689.000 463.627 M150.462 469.250 C 150.201 469.938,150.102 551.275,150.243 650.000 L 150.500 829.500 266.500 829.785 C 391.684 830.093,406.260 829.694,422.316 825.523 C 453.250 817.485,478.147 797.442,490.555 770.587 C 497.430 755.706,498.508 749.817,498.435 727.500 C 498.375 709.108,498.156 706.706,495.712 697.629 C 489.411 674.230,476.931 657.641,456.775 645.868 L 449.814 641.803 456.195 637.523 C 464.407 632.014,475.714 619.891,479.813 612.200 C 488.412 596.066,491.502 581.048,490.714 559.223 C 490.100 542.217,488.757 536.372,482.503 523.500 C 467.110 491.814,435.242 471.959,395.000 468.983 C 388.125 468.474,330.398 468.045,266.719 468.029 C 174.992 468.006,150.838 468.260,150.462 469.250 M912.000 469.137 C 912.000 469.763,944.175 519.924,983.500 580.608 L 1055.000 690.942 1055.000 760.471 L 1055.000 830.000 1119.000 830.000 L 1183.000 830.000 1183.000 760.068 L 1183.000 690.136 1252.993 580.667 C 1291.489 520.460,1323.263 470.479,1323.600 469.600 C 1324.159 468.143,1317.917 468.000,1253.675 468.000 L 1183.136 468.000 1181.249 470.750 C 1180.211 472.262,1166.361 496.113,1150.472 523.750 C 1134.582 551.388,1121.338 573.997,1121.041 573.994 C 1120.743 573.991,1108.153 552.504,1093.063 526.244 C 1077.972 499.985,1064.140 476.137,1062.325 473.250 L 1059.025 468.000 985.512 468.000 C 931.260 468.000,912.000 468.298,912.000 469.137 M1339.462 469.250 C 1339.201 469.938,1339.102 551.275,1339.243 650.000 L 1339.500 829.500 1403.500 829.500 L 1467.500 829.500 1467.758 768.250 L 1468.015 707.000 1539.508 707.000 L 1611.000 707.000 1611.000 658.000 L 1611.000 609.000 1539.500 609.000 L 1468.000 609.000 1468.000 589.000 L 1468.000 569.000 1551.000 569.000 L 1634.000 569.000 1634.000 518.500 L 1634.000 468.000 1486.969 468.000 C 1370.264 468.000,1339.839 468.258,1339.462 469.250 M1671.489 469.181 C 1671.213 469.906,1671.102 551.275,1671.243 650.000 L 1671.500 829.500 1735.500 829.500 L 1799.500 829.500 1799.758 767.250 L 1800.015 705.000 1812.758 705.017 L 1825.500 705.033 1855.891 767.517 L 1886.281 830.000 1958.257 830.000 C 2026.323 830.000,2030.207 829.905,2029.750 828.250 C 2029.485 827.288,2011.920 793.893,1990.717 754.040 L 1952.167 681.579 1959.569 677.540 C 1996.948 657.140,2017.892 616.793,2014.014 572.657 C 2009.298 518.982,1974.144 481.500,1918.500 470.816 C 1907.778 468.758,1904.523 468.694,1789.745 468.283 C 1692.871 467.936,1671.901 468.095,1671.489 469.181 M2063.465 469.243 C 2063.202 469.934,2063.102 551.275,2063.243 650.000 L 2063.500 829.500 2127.500 829.500 L 2191.500 829.500 2191.500 649.000 L 2191.500 468.500 2127.721 468.243 C 2077.229 468.039,2063.843 468.247,2063.465 469.243 M2252.000 649.003 L 2252.000 830.006 2410.750 829.753 L 2569.500 829.500 2569.759 779.250 L 2570.018 729.000 2475.009 729.000 L 2380.000 729.000 2380.000 712.000 L 2380.000 695.000 2460.000 695.000 L 2540.000 695.000 2540.000 646.500 L 2540.000 598.000 2460.000 598.000 L 2380.000 598.000 2380.000 583.500 L 2380.000 569.000 2473.000 569.000 L 2566.000 569.000 2566.000 518.500 L 2566.000 468.000 2409.000 468.000 L 2252.000 468.000 2252.000 649.003 M2611.000 649.008 L 2611.000 830.016 2670.750 829.758 L 2730.500 829.500 2731.000 754.793 L 2731.500 680.085 2796.391 755.051 L 2861.282 830.017 2915.891 829.758 L 2970.500 829.500 2970.500 649.000 L 2970.500 468.500 2910.756 468.242 L 2851.012 467.984 2850.756 544.461 L 2850.500 620.937 2787.314 546.719 C 2752.562 505.898,2723.182 471.488,2722.025 470.250 L 2719.922 468.000 2665.461 468.000 L 2611.000 468.000 2611.000 649.008 M3025.462 469.250 C 3025.201 469.938,3025.102 551.275,3025.243 650.000 L 3025.500 829.500 3116.000 829.466 C 3213.278 829.429,3217.241 829.256,3243.260 823.920 C 3308.690 810.499,3350.773 770.767,3365.507 708.500 C 3370.177 688.767,3371.411 676.329,3371.411 649.000 C 3371.411 621.297,3370.133 608.678,3365.338 589.000 C 3350.632 528.656,3311.916 490.512,3250.681 476.036 C 3220.855 468.985,3202.965 468.031,3100.219 468.013 C 3041.704 468.003,3025.836 468.265,3025.462 469.250 M734.318 482.038 C 795.783 485.762,839.511 506.993,865.974 545.962 C 884.605 573.397,894.565 615.690,892.595 659.000 C 890.325 708.890,876.886 744.317,850.083 771.063 C 822.183 798.903,785.371 813.126,733.574 816.077 C 689.136 818.608,650.023 812.017,619.730 796.893 C 577.942 776.031,553.325 740.423,544.448 688.000 C 541.917 673.055,541.388 636.790,543.442 619.069 C 548.153 578.427,562.957 545.954,586.788 523.988 C 615.436 497.582,652.651 484.203,704.500 481.671 C 707.800 481.510,712.075 481.297,714.000 481.199 C 715.925 481.100,725.068 481.478,734.318 482.038 M409.000 489.395 C 438.598 496.430,460.486 514.753,469.059 539.671 C 475.638 558.793,472.881 586.152,462.610 603.677 C 455.079 616.527,439.121 627.966,422.250 632.608 L 416.000 634.328 416.000 642.625 L 416.000 650.923 420.000 651.961 C 422.200 652.533,425.913 653.495,428.250 654.100 C 446.434 658.804,463.904 671.909,471.807 686.773 C 473.625 690.194,476.272 697.382,477.689 702.746 C 479.881 711.047,480.268 714.660,480.288 727.000 C 480.316 744.413,478.824 751.628,472.535 764.500 C 460.538 789.054,437.344 804.855,406.500 809.486 C 398.057 810.754,378.791 810.989,282.750 810.994 L 169.000 811.000 169.000 648.961 L 169.000 486.922 285.250 487.267 C 392.580 487.586,402.075 487.749,409.000 489.395 M1081.832 544.240 L 1114.500 600.979 1121.028 600.990 L 1127.557 601.000 1160.404 544.000 L 1193.251 487.000 1241.625 487.000 C 1268.231 487.000,1290.000 487.246,1290.000 487.546 C 1290.000 487.847,1262.582 530.982,1229.072 583.403 C 1195.562 635.824,1167.214 680.241,1166.076 682.107 C 1164.043 685.442,1164.007 686.571,1164.004 748.250 L 1164.000 811.000 1118.500 811.000 L 1073.000 811.000 1073.000 747.608 L 1073.000 684.216 1009.903 586.938 C 975.200 533.436,946.576 489.058,946.293 488.321 C 945.867 487.211,954.610 487.026,997.472 487.241 L 1049.164 487.500 1081.832 544.240 M1616.000 519.000 L 1616.000 551.000 1532.500 551.000 L 1449.000 551.000 1449.000 589.500 L 1449.000 628.000 1520.500 628.000 L 1592.000 628.000 1592.000 658.000 L 1592.000 688.000 1520.500 688.000 L 1449.000 688.000 1449.000 749.500 L 1449.000 811.000 1403.500 811.000 L 1358.000 811.000 1358.000 649.000 L 1358.000 487.000 1487.000 487.000 L 1616.000 487.000 1616.000 519.000 M1904.500 488.034 C 1924.354 489.897,1941.735 495.499,1955.500 504.470 C 1963.810 509.887,1977.746 524.225,1982.269 532.011 C 1986.980 540.122,1991.536 551.816,1993.662 561.257 C 1996.252 572.762,1995.986 595.272,1993.132 605.908 C 1988.884 621.746,1982.054 633.979,1971.103 645.365 C 1961.247 655.612,1951.638 661.695,1934.500 668.539 C 1930.100 670.296,1926.604 672.219,1926.732 672.813 C 1926.943 673.797,1990.326 793.529,1997.105 805.750 L 2000.017 811.000 1948.759 810.972 L 1897.500 810.943 1867.347 748.722 L 1837.195 686.500 1809.097 686.234 L 1781.000 685.969 1781.000 748.484 L 1781.000 811.000 1735.500 811.000 L 1690.000 811.000 1690.000 649.000 L 1690.000 487.000 1791.750 487.001 C 1853.930 487.001,1897.778 487.403,1904.500 488.034 M2173.000 649.000 L 2173.000 811.000 2127.500 811.000 L 2082.000 811.000 2082.000 649.000 L 2082.000 487.000 2127.500 487.000 L 2173.000 487.000 2173.000 649.000 M2548.000 519.000 L 2548.000 551.000 2455.000 551.000 L 2362.000 551.000 2362.000 584.000 L 2362.000 617.000 2441.500 617.000 L 2521.000 617.000 2521.000 646.500 L 2521.000 676.000 2441.500 676.000 L 2362.000 676.000 2362.000 712.000 L 2362.000 748.000 2456.500 748.000 L 2551.000 748.000 2551.000 779.500 L 2551.000 811.000 2410.500 811.000 L 2270.000 811.000 2270.000 649.667 C 2270.000 560.933,2270.300 488.033,2270.667 487.667 C 2271.033 487.300,2333.583 487.000,2409.667 487.000 L 2548.000 487.000 2548.000 519.000 M2790.176 578.825 L 2868.500 670.649 2869.000 579.075 L 2869.500 487.500 2910.750 487.239 L 2952.000 486.978 2952.000 648.989 L 2952.000 811.000 2910.750 810.994 L 2869.500 810.988 2791.000 720.259 L 2712.500 629.530 2712.245 720.265 L 2711.989 811.000 2670.995 811.000 L 2630.000 811.000 2630.000 649.000 L 2630.000 487.000 2670.926 487.000 L 2711.853 487.000 2790.176 578.825 M3217.000 488.923 C 3300.734 499.130,3343.183 541.056,3351.951 622.211 C 3355.035 650.753,3352.025 689.749,3344.945 713.000 C 3337.848 736.304,3328.212 753.063,3312.961 768.626 C 3292.093 789.921,3263.735 802.423,3222.000 808.727 C 3213.244 810.049,3197.588 810.381,3127.750 810.727 L 3044.000 811.141 3044.000 648.994 L 3044.000 486.847 3125.750 487.306 C 3178.706 487.603,3210.846 488.173,3217.000 488.923 M260.484 544.181 C 260.204 544.911,260.093 562.381,260.238 583.004 L 260.500 620.500 306.500 620.468 C 351.683 620.437,352.599 620.397,358.080 618.210 C 365.594 615.212,372.396 608.496,376.331 600.189 C 379.318 593.883,379.500 592.841,379.499 582.000 C 379.498 571.575,379.244 569.957,376.777 564.691 C 373.133 556.910,364.801 548.859,357.297 545.868 C 351.592 543.595,350.778 543.552,306.246 543.207 C 269.342 542.921,260.899 543.100,260.484 544.181 M703.000 545.637 C 675.874 549.598,657.107 562.690,645.972 585.421 C 637.245 603.236,636.714 606.464,636.245 644.591 C 635.912 671.748,636.125 679.342,637.436 686.938 C 640.710 705.909,649.049 722.204,661.394 733.752 C 676.747 748.114,695.216 753.859,722.395 752.726 C 746.108 751.738,760.373 745.862,775.164 730.991 C 782.641 723.473,784.513 720.856,788.830 711.890 C 797.766 693.330,799.405 681.863,798.748 642.500 C 798.312 616.365,798.107 613.834,795.668 604.500 C 787.125 571.798,764.456 550.527,733.356 546.031 C 726.854 545.091,708.383 544.851,703.000 545.637 M1781.000 588.000 L 1781.000 629.000 1820.250 628.967 C 1862.118 628.932,1869.222 628.451,1878.227 625.042 C 1885.353 622.344,1894.347 613.736,1898.226 605.901 C 1902.994 596.270,1903.586 581.125,1899.570 571.513 C 1895.260 561.198,1885.423 552.167,1874.945 548.906 C 1869.314 547.153,1865.290 547.000,1824.911 547.000 L 1781.000 547.000 1781.000 588.000 M3135.245 649.167 L 3135.500 747.500 3165.000 747.349 C 3199.260 747.173,3207.125 746.002,3221.905 738.879 C 3238.527 730.868,3250.914 714.760,3256.033 694.500 C 3261.313 673.603,3261.298 624.172,3256.006 603.500 C 3249.471 577.974,3233.499 561.469,3208.000 553.892 C 3201.069 551.832,3198.015 551.632,3167.745 551.249 L 3134.990 550.834 3135.245 649.167 M351.599 563.905 C 353.853 564.929,356.778 567.282,358.099 569.133 C 360.236 572.130,360.500 573.563,360.500 582.177 C 360.500 592.679,359.582 594.982,353.616 599.438 C 350.967 601.418,349.421 601.511,314.928 601.786 L 279.000 602.072 279.000 582.036 L 279.000 562.000 313.250 562.022 C 344.488 562.042,347.860 562.208,351.599 563.905 M736.775 565.573 C 752.357 569.406,764.688 579.443,771.905 594.167 C 779.212 609.074,779.500 611.153,779.500 649.000 C 779.500 686.793,779.205 688.940,771.976 703.690 C 764.774 718.386,754.556 727.014,738.662 731.819 C 727.685 735.137,708.581 735.269,696.647 732.109 C 673.405 725.954,659.716 708.968,655.458 681.000 C 653.505 668.169,653.505 629.831,655.458 617.000 C 660.173 586.031,676.461 568.454,704.531 564.045 C 712.553 562.785,728.516 563.542,736.775 565.573 M1873.537 568.515 C 1880.617 572.895,1884.365 580.262,1883.728 588.545 C 1883.006 597.928,1878.642 604.386,1870.500 608.121 C 1866.878 609.782,1863.354 609.958,1833.250 609.978 L 1800.000 610.000 1800.000 587.440 L 1800.000 564.880 1834.331 565.190 L 1868.662 565.500 1873.537 568.515 M3201.500 571.444 C 3222.046 577.037,3233.650 589.303,3238.681 610.746 C 3241.348 622.114,3241.372 675.789,3238.715 687.102 C 3234.616 704.556,3226.067 716.221,3212.747 722.538 C 3202.655 727.324,3198.387 728.014,3174.750 728.682 L 3154.000 729.267 3154.000 649.000 L 3154.000 568.733 3174.750 569.272 C 3189.366 569.651,3197.274 570.293,3201.500 571.444 M260.667 672.667 C 260.300 673.033,260.000 690.603,260.000 711.710 L 260.000 750.086 310.773 749.793 L 361.546 749.500 368.231 746.208 C 382.520 739.171,389.128 725.781,387.666 706.824 C 386.237 688.296,374.782 675.551,357.285 673.021 C 349.757 671.932,261.724 671.610,260.667 672.667 M359.980 693.250 C 366.937 696.805,368.442 699.650,368.847 710.012 C 369.147 717.662,368.897 719.405,367.030 722.691 C 362.410 730.819,364.500 730.465,319.250 730.783 L 279.000 731.065 279.000 711.033 L 279.000 691.000 317.288 691.000 C 355.023 691.000,355.640 691.033,359.980 693.250 M696.500 875.594 C 657.891 879.507,637.765 884.332,615.000 895.133 C 572.502 915.296,544.998 948.031,531.512 994.500 C 521.676 1028.389,520.444 1077.638,528.471 1116.000 C 539.031 1166.470,567.620 1204.334,611.500 1225.967 C 632.661 1236.399,651.279 1241.829,679.000 1245.655 C 694.658 1247.815,735.506 1248.121,751.000 1246.194 C 787.611 1241.640,815.981 1231.926,840.465 1215.561 C 880.185 1189.011,902.678 1149.460,909.574 1094.038 C 911.449 1078.965,911.420 1045.076,909.517 1028.809 C 901.108 956.926,862.077 907.512,797.181 886.592 C 774.022 879.127,753.333 876.048,723.000 875.555 C 710.625 875.353,698.700 875.371,696.500 875.594 M150.000 1061.506 L 150.000 1242.078 278.750 1241.719 C 418.114 1241.330,410.167 1241.634,428.500 1235.988 C 465.545 1224.579,492.185 1194.949,498.042 1158.639 C 499.837 1147.514,498.793 1121.707,496.146 1111.758 C 491.314 1093.596,485.736 1083.700,473.455 1071.500 C 466.892 1064.980,462.253 1061.368,456.618 1058.392 L 448.840 1054.284 453.199 1051.729 C 469.842 1041.976,482.602 1024.335,488.085 1003.500 C 490.805 993.161,491.848 968.993,490.020 958.635 C 484.366 926.590,459.211 898.378,426.576 887.480 C 408.142 881.324,416.202 881.659,277.250 881.281 L 150.000 880.935 150.000 1061.506 M912.585 883.750 C 921.528 897.298,1053.196 1100.497,1053.976 1101.954 C 1054.646 1103.208,1055.000 1127.706,1055.000 1172.934 L 1055.000 1242.000 1119.000 1242.000 L 1183.000 1242.000 1183.017 1172.250 L 1183.034 1102.500 1253.517 992.298 C 1292.283 931.686,1324.000 881.849,1324.000 881.548 C 1324.000 881.246,1292.133 881.000,1253.184 881.000 L 1182.367 881.000 1152.057 933.500 C 1135.386 962.375,1121.433 986.000,1121.049 986.000 C 1120.666 986.000,1106.724 962.375,1090.066 933.500 L 1059.781 881.000 985.275 881.000 L 910.770 881.000 912.585 883.750 M1339.000 1061.500 L 1339.000 1242.000 1403.500 1242.000 L 1468.000 1242.000 1468.000 1180.500 L 1468.000 1119.000 1539.500 1119.000 L 1611.000 1119.000 1611.000 1070.500 L 1611.000 1022.000 1539.500 1022.000 L 1468.000 1022.000 1468.000 1002.000 L 1468.000 982.000 1551.000 982.000 L 1634.000 982.000 1634.000 931.500 L 1634.000 881.000 1486.500 881.000 L 1339.000 881.000 1339.000 1061.500 M1671.000 1061.500 L 1671.000 1242.000 1735.500 1242.000 L 1800.000 1242.000 1800.000 1179.500 L 1800.000 1117.000 1812.750 1117.042 L 1825.500 1117.084 1855.630 1179.292 L 1885.760 1241.500 1958.281 1241.757 L 2030.801 1242.013 1995.330 1175.257 C 1975.820 1138.540,1958.108 1105.236,1955.969 1101.247 L 1952.079 1093.993 1957.290 1091.358 C 1979.956 1079.895,1998.284 1059.080,2007.670 1034.144 C 2020.035 1001.293,2015.166 960.288,1995.340 930.302 C 1982.284 910.555,1958.851 894.159,1932.977 886.665 C 1913.960 881.157,1909.869 881.000,1785.408 881.000 L 1671.000 881.000 1671.000 1061.500 M2063.000 1061.500 L 2063.000 1242.000 2127.500 1242.000 L 2192.000 1242.000 2192.000 1061.500 L 2192.000 881.000 2127.500 881.000 L 2063.000 881.000 2063.000 1061.500 M2252.000 1061.500 L 2252.000 1242.000 2411.000 1242.000 L 2570.000 1242.000 2570.000 1191.500 L 2570.000 1141.000 2475.000 1141.000 L 2380.000 1141.000 2380.000 1124.506 L 2380.000 1108.012 2459.750 1107.756 L 2539.500 1107.500 2539.500 1059.000 L 2539.500 1010.500 2459.750 1010.244 L 2380.000 1009.988 2380.000 995.994 L 2380.000 982.000 2473.000 982.000 L 2566.000 982.000 2566.000 931.500 L 2566.000 881.000 2409.000 881.000 L 2252.000 881.000 2252.000 1061.500 M2611.000 1061.500 L 2611.000 1242.000 2670.994 1242.000 L 2730.987 1242.000 2731.244 1167.188 L 2731.500 1092.376 2796.000 1167.132 L 2860.500 1241.887 2915.750 1241.944 L 2971.000 1242.000 2971.000 1061.500 L 2971.000 881.000 2911.006 881.000 L 2851.012 881.000 2850.756 957.089 L 2850.500 1033.177 2785.608 957.089 L 2720.717 881.000 2665.858 881.000 L 2611.000 881.000 2611.000 1061.500 M3025.000 1061.489 L 3025.000 1242.121 3118.250 1241.728 C 3198.793 1241.389,3213.067 1241.107,3223.000 1239.660 C 3270.009 1232.815,3300.745 1219.222,3326.139 1194.047 C 3355.479 1164.960,3369.783 1126.281,3371.645 1071.000 C 3373.404 1018.755,3362.771 976.017,3340.222 944.700 C 3332.766 934.344,3316.667 918.969,3305.584 911.621 C 3289.098 900.690,3269.355 892.621,3246.903 887.638 C 3219.396 881.534,3222.722 881.700,3119.750 881.261 L 3025.000 880.857 3025.000 1061.489 M756.000 896.477 C 772.639 899.085,780.747 900.931,792.000 904.670 C 815.736 912.557,833.315 923.218,850.139 939.931 C 872.723 962.365,885.047 989.022,890.624 1027.500 C 893.016 1044.009,893.022 1078.928,890.634 1095.500 C 882.879 1149.323,859.902 1184.363,817.000 1207.793 C 773.221 1231.703,695.371 1236.155,640.650 1217.879 C 594.013 1202.303,563.814 1171.317,550.014 1124.881 C 543.962 1104.519,542.532 1092.400,542.532 1061.500 C 542.532 1031.129,543.939 1018.786,549.648 999.088 C 561.185 959.274,585.610 929.928,621.313 912.982 C 640.549 903.852,660.942 898.323,686.000 895.444 C 701.548 893.658,741.807 894.252,756.000 896.477 M414.000 902.798 C 418.125 904.048,426.162 907.368,431.859 910.175 C 460.371 924.225,475.889 953.390,472.072 985.754 C 468.473 1016.267,452.874 1035.155,423.500 1044.564 L 416.500 1046.807 416.215 1055.158 L 415.929 1063.510 425.015 1065.680 C 443.994 1070.214,460.477 1080.996,468.701 1094.256 C 473.466 1101.938,474.730 1104.748,477.091 1112.901 C 483.406 1134.705,481.084 1162.263,471.480 1179.500 C 461.628 1197.180,445.627 1210.231,425.145 1217.291 C 408.431 1223.051,411.492 1222.927,285.250 1222.965 L 169.000 1223.000 169.000 1061.476 L 169.000 899.953 287.750 900.239 L 406.500 900.526 414.000 902.798 M1082.088 957.000 L 1114.713 1013.500 1121.071 1013.500 L 1127.428 1013.500 1158.964 958.913 C 1176.309 928.890,1191.175 903.342,1192.000 902.140 L 1193.500 899.954 1241.773 900.227 L 1290.046 900.500 1227.049 999.000 L 1164.053 1097.500 1164.026 1160.250 L 1164.000 1223.000 1118.500 1223.000 L 1073.000 1223.000 1073.000 1159.866 L 1073.000 1096.733 1009.500 998.820 C 974.575 944.967,946.000 900.699,946.000 900.444 C 946.000 900.190,969.279 900.099,997.732 900.241 L 1049.463 900.500 1082.088 957.000 M1616.000 931.500 L 1616.000 963.000 1532.488 963.000 L 1448.977 963.000 1449.238 1001.750 L 1449.500 1040.500 1520.750 1040.757 L 1592.000 1041.013 1592.000 1070.507 L 1592.000 1100.000 1520.500 1100.000 L 1449.000 1100.000 1449.000 1161.500 L 1449.000 1223.000 1403.500 1223.000 L 1358.000 1223.000 1358.000 1061.500 L 1358.000 900.000 1487.000 900.000 L 1616.000 900.000 1616.000 931.500 M1924.500 903.286 C 1936.626 906.569,1952.040 914.072,1961.500 921.297 C 1988.818 942.160,2001.988 982.855,1993.001 1018.638 C 1991.915 1022.962,1988.801 1031.000,1986.081 1036.500 C 1975.444 1058.011,1959.931 1071.237,1933.300 1081.502 L 1926.100 1084.277 1928.177 1088.388 C 1929.320 1090.650,1945.722 1121.615,1964.627 1157.199 C 1983.532 1192.784,1999.000 1222.146,1999.000 1222.449 C 1999.000 1222.752,1976.162 1222.999,1948.250 1222.998 L 1897.500 1222.997 1868.517 1163.380 C 1852.577 1130.591,1838.746 1102.467,1837.782 1100.882 L 1836.029 1098.000 1808.515 1098.000 L 1781.000 1098.000 1781.000 1160.500 L 1781.000 1223.000 1735.500 1223.000 L 1690.000 1223.000 1690.000 1061.467 L 1690.000 899.934 1802.250 900.256 L 1914.500 900.578 1924.500 903.286 M2173.000 1061.500 L 2173.000 1223.000 2127.500 1223.000 L 2082.000 1223.000 2082.000 1061.500 L 2082.000 900.000 2127.500 900.000 L 2173.000 900.000 2173.000 1061.500 M2548.000 931.500 L 2548.000 963.000 2455.000 963.000 L 2362.000 963.000 2362.000 996.000 L 2362.000 1029.000 2441.500 1029.000 L 2521.000 1029.000 2521.000 1059.000 L 2521.000 1089.000 2441.500 1089.000 L 2362.000 1089.000 2362.000 1124.500 L 2362.000 1160.000 2456.500 1160.000 L 2551.000 1160.000 2551.000 1191.500 L 2551.000 1223.000 2410.500 1223.000 L 2270.000 1223.000 2270.000 1061.500 L 2270.000 900.000 2409.000 900.000 L 2548.000 900.000 2548.000 931.500 M2790.500 991.596 L 2868.500 1083.188 2868.755 991.594 L 2869.010 900.000 2910.505 900.000 L 2952.000 900.000 2952.000 1061.500 L 2952.000 1223.000 2910.553 1223.000 L 2869.106 1223.000 2790.803 1132.387 L 2712.500 1041.774 2712.245 1132.387 L 2711.989 1223.000 2670.995 1223.000 L 2630.000 1223.000 2630.000 1061.500 L 2630.000 900.000 2671.250 900.002 L 2712.500 900.003 2790.500 991.596 M3227.000 902.419 C 3291.237 913.212,3328.651 943.124,3344.679 996.500 C 3355.859 1033.735,3355.854 1089.532,3344.667 1126.500 C 3327.248 1184.059,3283.284 1215.456,3211.000 1221.959 C 3204.277 1222.563,3167.204 1222.995,3121.750 1222.997 L 3044.000 1223.000 3044.000 1061.444 L 3044.000 899.889 3130.250 900.272 C 3206.864 900.612,3217.673 900.852,3227.000 902.419 M260.000 994.454 L 260.000 1033.000 305.322 1033.000 C 344.954 1033.000,351.262 1032.791,355.572 1031.336 C 371.601 1025.923,379.975 1013.113,379.977 994.000 C 379.978 986.498,378.506 979.812,375.625 974.242 C 372.989 969.144,365.179 961.974,359.220 959.181 L 353.500 956.500 306.750 956.204 L 260.000 955.908 260.000 994.454 M702.000 957.972 C 668.692 962.339,645.273 985.309,638.065 1020.682 C 636.250 1029.588,636.000 1034.439,636.000 1060.776 C 636.000 1093.182,636.816 1101.286,641.449 1114.871 C 650.170 1140.442,667.844 1156.769,693.791 1163.223 C 706.281 1166.330,727.825 1166.303,740.460 1163.164 C 772.611 1155.176,792.580 1130.981,797.956 1093.500 C 799.542 1082.448,799.245 1038.201,797.508 1026.680 C 794.480 1006.590,786.897 990.870,774.015 977.980 C 760.587 964.542,744.315 958.200,721.500 957.512 C 714.350 957.296,705.575 957.503,702.000 957.972 M1781.000 1000.000 L 1781.000 1041.000 1822.864 1041.000 C 1846.983 1041.000,1867.010 1040.570,1870.114 1039.985 C 1884.624 1037.250,1897.076 1025.573,1900.993 1011.027 C 1902.555 1005.224,1902.483 993.357,1900.851 987.846 C 1898.011 978.258,1889.474 967.796,1881.000 963.520 C 1872.786 959.375,1868.015 959.000,1823.451 959.000 L 1781.000 959.000 1781.000 1000.000 M3135.245 1061.165 L 3135.500 1159.500 3160.000 1159.800 C 3188.596 1160.150,3199.840 1159.095,3212.582 1154.870 C 3235.830 1147.161,3249.797 1131.409,3256.414 1105.435 C 3261.356 1086.036,3261.100 1035.644,3255.958 1015.663 C 3249.174 989.301,3233.156 973.168,3206.500 965.849 C 3199.233 963.854,3195.590 963.615,3166.745 963.242 L 3134.990 962.830 3135.245 1061.165 M353.010 977.250 C 359.055 981.364,360.463 984.271,360.846 993.423 C 361.136 1000.350,360.844 1002.385,359.056 1005.890 C 354.884 1014.067,355.297 1013.992,314.750 1013.996 L 279.000 1014.000 279.000 994.500 L 279.000 975.000 314.352 975.000 C 349.367 975.000,349.736 975.021,353.010 977.250 M733.506 977.470 C 757.274 982.017,772.692 998.273,778.113 1024.500 C 780.864 1037.806,780.837 1085.318,778.071 1098.720 C 772.798 1124.271,756.767 1140.958,733.023 1145.612 C 723.151 1147.547,704.988 1147.049,696.131 1144.602 C 680.974 1140.413,669.127 1130.418,662.232 1116.000 C 655.287 1101.479,654.500 1095.933,654.500 1061.500 C 654.500 1035.817,654.767 1030.349,656.356 1023.500 C 659.627 1009.398,665.992 997.815,675.359 988.913 C 679.925 984.574,691.436 979.166,699.500 977.572 C 708.889 975.716,724.100 975.670,733.506 977.470 M1871.509 979.865 C 1876.737 982.240,1881.625 987.896,1883.066 993.237 C 1885.198 1001.141,1882.459 1011.455,1876.834 1016.702 C 1871.406 1021.765,1869.487 1022.000,1833.532 1022.000 L 1800.000 1022.000 1800.000 1000.000 L 1800.000 978.000 1833.750 978.022 C 1864.232 978.042,1867.888 978.220,1871.509 979.865 M3198.792 983.560 C 3220.306 987.915,3233.707 1001.014,3238.630 1022.500 C 3241.056 1033.092,3241.698 1079.961,3239.606 1093.760 C 3235.959 1117.806,3225.584 1131.090,3205.244 1137.753 C 3198.178 1140.068,3195.597 1140.332,3175.750 1140.766 L 3154.000 1141.242 3154.000 1061.621 L 3154.000 982.000 3172.542 982.000 C 3185.381 982.000,3193.455 982.480,3198.792 983.560 M260.000 1123.491 L 260.000 1162.069 311.750 1161.784 L 363.500 1161.500 368.540 1158.839 C 374.243 1155.829,380.900 1149.076,383.834 1143.325 C 388.645 1133.895,389.146 1117.744,384.973 1106.635 C 383.402 1102.451,381.125 1099.125,377.028 1095.028 C 367.259 1085.259,369.520 1085.593,310.750 1085.229 L 260.000 1084.914 260.000 1123.491 M361.613 1105.906 C 366.418 1108.836,369.003 1115.206,368.984 1124.066 C 368.962 1133.589,366.479 1138.497,360.034 1141.750 C 355.643 1143.967,355.007 1144.000,317.288 1144.000 L 279.000 1144.000 279.000 1124.000 L 279.000 1104.000 318.750 1104.004 C 356.028 1104.007,358.694 1104.126,361.613 1105.906 " stroke="none" fill="black" fill-rule="evenodd"/></svg>