<svg id="svg" version="1.1" width="3508" height="1325" xmlns="http://www.w3.org/2000/svg"><path d="M2031.242 75.073 C 2005.629 77.041,1977.042 84.601,1956.960 94.716 C 1940.148 103.185,1931.879 109.109,1918.892 121.988 C 1903.167 137.582,1895.077 149.904,1886.714 171.000 C 1877.231 194.921,1873.624 216.965,1873.624 251.000 C 1873.624 276.588,1875.013 289.926,1879.664 309.000 C 1898.557 386.480,1960.583 428.000,2057.433 428.000 C 2118.867 428.000,2164.881 412.191,2197.038 380.037 C 2221.875 355.201,2235.191 325.891,2241.122 283.000 C 2242.827 270.665,2242.841 231.489,2241.145 219.000 C 2233.514 162.829,2210.456 125.081,2168.518 100.104 C 2134.086 79.596,2086.142 70.854,2031.242 75.073 M526.000 251.000 L 526.000 422.000 576.569 422.000 L 627.137 422.000 626.717 341.750 C 626.375 276.553,625.982 258.311,624.623 244.500 C 622.795 225.938,619.303 196.885,618.449 193.152 C 618.076 191.519,618.304 190.935,619.199 191.233 C 619.966 191.489,633.216 237.964,652.083 306.581 L 683.681 421.500 726.945 421.500 L 770.209 421.500 801.674 306.014 C 818.979 242.497,833.332 190.334,833.569 190.097 C 834.997 188.670,834.889 192.693,833.072 208.637 C 827.996 253.182,827.040 276.573,827.018 356.750 L 827.000 422.000 881.500 422.000 L 936.000 422.000 936.000 251.000 L 936.000 80.000 861.208 80.000 L 786.415 80.000 761.086 177.750 C 747.155 231.513,735.343 275.946,734.837 276.492 C 734.233 277.142,733.673 277.078,733.208 276.306 C 732.819 275.659,721.025 231.226,707.000 177.566 L 681.500 80.004 603.750 80.002 L 526.000 80.000 526.000 251.000 M970.869 81.743 C 971.391 82.709,1001.774 129.625,1038.389 186.000 L 1104.960 288.500 1104.980 355.250 L 1105.000 422.000 1160.000 422.000 L 1215.000 422.000 1215.000 355.876 L 1215.000 289.753 1280.657 187.126 C 1316.769 130.682,1346.970 83.487,1347.772 82.250 L 1349.230 80.000 1289.272 80.000 L 1229.314 80.000 1196.407 136.985 C 1178.308 168.328,1163.050 193.835,1162.500 193.669 C 1161.950 193.503,1146.806 167.972,1128.848 136.934 L 1096.195 80.500 1033.058 80.243 C 973.089 79.998,969.969 80.073,970.869 81.743 M1556.000 251.000 L 1556.000 422.000 1698.500 422.000 L 1841.000 422.000 1841.000 378.500 L 1841.000 335.000 1753.500 335.000 L 1666.000 335.000 1666.000 207.500 L 1666.000 80.000 1611.000 80.000 L 1556.000 80.000 1556.000 251.000 M2274.000 80.288 C 2274.000 80.723,2392.812 415.938,2394.140 419.250 L 2395.243 422.000 2458.955 422.000 L 2522.668 422.000 2582.834 251.663 C 2615.925 157.977,2643.000 81.027,2643.000 80.663 C 2643.000 80.298,2617.836 80.000,2587.080 80.000 L 2531.161 80.000 2529.604 84.750 C 2528.748 87.362,2513.177 138.747,2495.003 198.937 C 2476.828 259.128,2461.743 308.591,2461.479 308.854 C 2461.216 309.118,2460.698 309.032,2460.329 308.663 C 2459.961 308.294,2444.278 256.806,2425.479 194.246 L 2391.298 80.500 2332.649 80.242 C 2300.392 80.100,2274.000 80.121,2274.000 80.288 M2689.000 251.000 L 2689.000 422.000 2839.000 422.000 L 2989.000 422.000 2989.000 381.000 L 2989.000 340.000 2894.000 340.000 L 2799.000 340.000 2799.000 314.000 L 2799.000 288.000 2878.500 288.000 L 2958.000 288.000 2958.000 248.500 L 2958.000 209.000 2878.500 209.000 L 2799.000 209.000 2799.000 185.500 L 2799.000 162.000 2892.000 162.000 L 2985.000 162.000 2985.000 121.000 L 2985.000 80.000 2837.000 80.000 L 2689.000 80.000 2689.000 251.000 M2072.000 157.041 C 2102.554 161.864,2122.334 181.786,2128.415 213.860 C 2130.876 226.842,2130.661 277.211,2128.092 289.500 C 2125.536 301.727,2122.722 308.753,2116.882 317.484 C 2108.140 330.555,2096.745 338.822,2081.500 343.152 C 2074.763 345.065,2071.053 345.428,2058.000 345.450 C 2044.751 345.472,2041.338 345.142,2034.500 343.173 C 2011.261 336.483,1995.895 320.131,1988.762 294.500 C 1986.650 286.913,1986.536 284.669,1986.551 251.000 C 1986.566 217.528,1986.693 215.043,1988.770 207.500 C 1993.607 189.930,2004.837 173.666,2017.302 166.179 C 2023.746 162.308,2034.466 158.399,2042.121 157.127 C 2049.687 155.871,2064.317 155.828,2072.000 157.041 M2022.268 464.474 C 1996.128 467.592,1971.854 474.510,1952.173 484.451 C 1902.638 509.471,1874.500 551.686,1865.823 614.000 C 1864.049 626.739,1864.060 672.438,1865.839 684.500 C 1866.570 689.450,1868.291 698.622,1869.664 704.883 C 1886.274 780.624,1941.628 825.735,2028.139 834.034 C 2044.871 835.639,2086.754 834.789,2101.000 832.555 C 2146.751 825.381,2180.373 809.190,2206.690 781.663 C 2229.629 757.668,2243.348 727.754,2249.643 688.000 C 2251.081 678.916,2251.464 670.722,2251.464 649.000 C 2251.464 618.770,2250.366 608.393,2244.934 587.272 C 2236.873 555.929,2222.605 531.096,2200.795 510.451 C 2175.857 486.846,2142.616 471.856,2101.000 465.452 C 2085.786 463.110,2038.608 462.524,2022.268 464.474 M517.000 649.000 L 517.000 830.000 576.500 830.000 L 636.000 830.000 636.000 756.833 C 636.000 716.592,636.202 683.869,636.449 684.116 C 636.697 684.363,645.490 715.826,655.989 754.033 C 666.489 792.240,675.547 824.962,676.118 826.750 L 677.155 830.000 727.037 830.000 L 776.920 830.000 778.029 826.250 C 778.639 824.188,787.849 790.550,798.497 751.500 L 817.856 680.500 817.928 755.257 L 818.000 830.015 881.750 829.757 L 945.500 829.500 945.500 649.000 L 945.500 468.500 862.788 468.244 C 784.764 468.003,780.027 468.088,779.202 469.744 C 778.721 470.710,768.466 509.612,756.414 556.193 C 744.361 602.774,734.237 640.574,733.915 640.193 C 733.593 639.812,723.524 601.925,711.540 556.000 C 699.555 510.075,689.367 471.488,688.900 470.250 L 688.050 468.000 602.525 468.000 L 517.000 468.000 517.000 649.000 M953.295 469.327 C 953.578 470.063,985.799 520.033,1024.898 580.370 L 1095.986 690.075 1096.243 759.787 L 1096.500 829.500 1160.500 829.500 L 1224.500 829.500 1225.000 759.000 L 1225.500 688.500 1295.750 578.690 C 1334.388 518.295,1366.000 468.683,1366.000 468.440 C 1366.000 468.198,1334.097 468.000,1295.104 468.000 L 1224.208 468.000 1193.854 520.653 C 1177.159 549.612,1163.080 573.285,1162.566 573.259 C 1162.053 573.233,1148.057 549.652,1131.465 520.856 L 1101.297 468.500 1027.039 468.244 C 965.319 468.030,952.868 468.213,953.295 469.327 M1546.465 469.243 C 1546.202 469.934,1546.102 551.275,1546.243 650.000 L 1546.500 829.500 1698.500 829.500 L 1850.500 829.500 1850.500 776.500 L 1850.500 723.500 1762.754 723.245 L 1675.008 722.989 1674.754 595.745 L 1674.500 468.500 1610.721 468.243 C 1560.229 468.039,1546.843 468.247,1546.465 469.243 M2261.368 470.250 C 2261.690 471.488,2290.439 552.825,2325.255 651.000 L 2388.557 829.500 2458.863 829.500 L 2529.169 829.500 2592.575 650.000 C 2627.448 551.275,2655.985 469.938,2655.990 469.250 C 2655.998 468.263,2642.159 468.000,2590.101 468.000 L 2524.202 468.000 2522.299 474.250 C 2521.253 477.688,2507.145 524.480,2490.948 578.233 C 2474.752 631.986,2461.257 675.973,2460.960 675.983 C 2460.663 675.992,2447.201 632.013,2431.045 578.250 C 2414.889 524.487,2400.824 477.688,2399.788 474.250 L 2397.906 468.000 2329.344 468.000 L 2260.783 468.000 2261.368 470.250 M2680.000 648.997 L 2680.000 830.000 2839.000 830.000 L 2998.000 830.000 2998.000 779.505 L 2998.000 729.010 2903.250 728.755 L 2808.500 728.500 2808.500 712.000 L 2808.500 695.500 2888.250 695.244 L 2968.000 694.988 2968.000 646.494 L 2968.000 598.000 2887.973 598.000 L 2807.945 598.000 2808.223 583.750 L 2808.500 569.500 2901.759 569.245 L 2995.018 568.990 2994.759 518.745 L 2994.500 468.500 2837.250 468.247 L 2680.000 467.994 2680.000 648.997 M2075.000 482.037 C 2115.423 484.555,2144.823 493.274,2170.500 510.358 C 2205.375 533.561,2225.161 567.976,2231.525 616.500 C 2235.156 644.185,2233.265 681.174,2226.976 705.500 C 2211.503 765.348,2170.070 801.545,2103.842 813.071 C 2087.164 815.974,2059.136 817.268,2039.628 816.038 C 1989.992 812.906,1954.857 799.677,1927.447 773.800 C 1897.078 745.130,1882.959 705.689,1882.900 649.365 C 1882.840 592.855,1896.994 552.962,1927.188 524.538 C 1954.436 498.889,1990.850 485.058,2039.000 482.072 C 2057.481 480.926,2057.170 480.926,2075.000 482.037 M699.621 584.000 C 713.527 637.075,725.164 681.530,725.481 682.790 C 726.032 684.975,726.435 685.067,734.254 684.790 L 742.450 684.500 768.018 586.000 L 793.585 487.500 860.293 487.243 L 927.000 486.986 927.000 648.993 L 927.000 811.000 881.922 811.000 L 836.844 811.000 837.261 731.250 C 837.703 646.712,837.660 647.636,843.332 598.750 L 845.623 579.000 835.879 579.000 C 827.468 579.000,826.062 579.239,825.602 580.750 C 825.309 581.712,811.308 633.125,794.489 695.000 C 777.669 756.875,763.673 808.288,763.386 809.250 C 762.903 810.875,760.289 811.000,726.933 811.000 C 707.170 811.000,690.989 810.888,690.975 810.750 C 690.961 810.612,676.642 758.525,659.155 695.000 L 627.361 579.500 617.680 579.214 C 609.549 578.973,608.000 579.171,608.000 580.452 C 608.000 581.290,609.111 590.644,610.469 601.238 C 616.867 651.158,617.988 673.369,617.995 750.250 L 618.000 811.000 577.000 811.000 L 536.000 811.000 536.000 648.993 L 536.000 486.986 605.169 487.243 L 674.339 487.500 699.621 584.000 M1123.158 543.763 L 1155.815 600.500 1162.614 600.500 L 1169.413 600.500 1201.561 544.695 C 1219.243 514.003,1234.139 488.461,1234.664 487.936 C 1235.252 487.348,1254.146 487.080,1283.775 487.240 L 1331.931 487.500 1268.967 586.000 L 1206.004 684.500 1206.002 747.750 L 1206.000 811.000 1160.500 811.000 L 1115.000 811.000 1115.000 747.969 L 1115.000 684.938 1051.676 587.219 C 1016.847 533.474,988.021 488.938,987.617 488.250 C 987.033 487.257,997.516 487.003,1038.691 487.013 L 1090.500 487.026 1123.158 543.763 M1656.000 614.500 L 1656.000 742.000 1744.000 742.000 L 1832.000 742.000 1832.000 776.500 L 1832.000 811.000 1698.500 811.000 L 1565.000 811.000 1565.000 649.000 L 1565.000 487.000 1610.500 487.000 L 1656.000 487.000 1656.000 614.500 M2416.144 593.500 C 2433.629 651.800,2449.089 703.212,2450.500 707.750 L 2453.065 716.000 2460.994 716.000 L 2468.923 716.000 2469.954 712.250 C 2470.522 710.188,2486.014 658.775,2504.383 598.000 L 2537.780 487.500 2583.890 487.240 C 2609.250 487.097,2630.000 487.199,2630.000 487.466 C 2630.000 487.823,2523.247 790.321,2516.791 808.258 L 2515.799 811.016 2458.717 810.758 L 2401.635 810.500 2344.341 649.000 C 2312.829 560.175,2287.036 487.383,2287.023 487.240 C 2287.010 487.098,2308.904 487.098,2335.676 487.240 L 2384.353 487.500 2416.144 593.500 M2976.000 519.000 L 2976.000 551.000 2883.000 551.000 L 2790.000 551.000 2790.000 584.000 L 2790.000 617.000 2869.500 617.000 L 2949.000 617.000 2949.000 646.500 L 2949.000 676.000 2869.500 676.000 L 2790.000 676.000 2790.000 712.000 L 2790.000 748.000 2884.500 748.000 L 2979.000 748.000 2979.000 779.500 L 2979.000 811.000 2839.000 811.000 L 2699.000 811.000 2699.000 649.000 L 2699.000 487.000 2837.500 487.000 L 2976.000 487.000 2976.000 519.000 M2040.999 545.987 C 2032.005 547.424,2020.400 551.534,2013.112 555.864 C 2002.941 561.907,1992.333 573.675,1986.657 585.213 C 1978.534 601.726,1976.024 616.881,1976.009 649.500 C 1975.990 692.715,1982.014 713.107,2000.368 731.949 C 2015.397 747.378,2034.562 753.772,2062.500 752.678 C 2085.837 751.765,2100.053 746.384,2114.375 733.042 C 2128.082 720.272,2136.337 701.969,2138.973 678.500 C 2140.267 666.976,2140.263 632.329,2138.966 620.000 C 2135.025 582.549,2115.522 557.012,2083.973 547.995 C 2075.521 545.579,2050.784 544.423,2040.999 545.987 M2071.000 564.399 C 2091.691 567.788,2104.929 577.451,2113.414 595.361 C 2120.049 609.366,2120.500 612.778,2120.500 649.000 C 2120.500 685.801,2120.075 688.827,2112.812 703.741 C 2105.665 718.416,2094.240 727.841,2078.353 732.168 C 2066.871 735.296,2047.700 735.109,2036.338 731.758 C 2021.120 727.270,2010.906 718.962,2003.664 705.180 C 1996.744 692.012,1995.763 686.123,1995.247 654.679 C 1994.648 618.180,1996.128 607.458,2003.830 592.500 C 2015.382 570.065,2040.760 559.448,2071.000 564.399 M2031.000 876.061 C 1981.097 880.465,1942.465 896.301,1913.369 924.282 C 1888.007 948.671,1872.835 980.378,1866.370 1022.500 C 1863.766 1039.462,1863.734 1083.458,1866.313 1100.000 C 1872.688 1140.898,1886.068 1170.351,1909.321 1194.674 C 1936.745 1223.361,1973.406 1239.966,2023.000 1246.165 C 2038.620 1248.117,2080.343 1247.829,2096.000 1245.661 C 2162.566 1236.442,2207.698 1207.130,2232.654 1156.905 C 2241.610 1138.882,2247.622 1116.965,2250.595 1091.500 C 2252.809 1072.538,2252.080 1036.809,2249.126 1019.500 C 2241.507 974.851,2223.900 941.705,2195.112 917.815 C 2168.354 895.610,2137.872 883.085,2097.000 877.503 C 2083.097 875.604,2045.485 874.782,2031.000 876.061 M517.000 1061.500 L 517.000 1242.000 576.494 1242.000 L 635.987 1242.000 636.244 1168.750 L 636.500 1095.500 656.568 1168.500 L 676.636 1241.500 726.959 1241.500 L 777.283 1241.500 797.391 1167.727 L 817.500 1093.955 817.756 1167.977 L 818.013 1242.000 882.006 1242.000 L 946.000 1242.000 946.000 1061.500 L 946.000 881.000 862.617 881.000 L 779.233 881.000 778.639 883.250 C 778.313 884.487,768.266 923.183,756.313 969.240 C 744.360 1015.297,734.282 1052.647,733.918 1052.240 C 733.326 1051.578,689.000 883.239,689.000 881.653 C 689.000 881.294,650.300 881.000,603.000 881.000 L 517.000 881.000 517.000 1061.500 M953.000 881.460 C 953.000 881.714,985.175 931.510,1024.500 992.119 L 1096.000 1102.317 1096.000 1172.158 L 1096.000 1242.000 1160.500 1242.000 L 1225.000 1242.000 1225.000 1171.966 L 1225.000 1101.933 1294.808 992.716 C 1333.202 932.647,1364.956 882.934,1365.371 882.243 C 1365.975 881.238,1351.866 881.038,1294.876 881.243 L 1223.627 881.500 1193.442 933.788 C 1176.840 962.547,1163.071 986.262,1162.845 986.488 C 1162.619 986.715,1148.723 963.087,1131.967 933.981 L 1101.500 881.062 1027.250 881.031 C 986.413 881.014,953.000 881.207,953.000 881.460 M1546.000 1061.500 L 1546.000 1242.000 1698.500 1242.000 L 1851.000 1242.000 1851.000 1189.000 L 1851.000 1136.000 1763.000 1136.000 L 1675.000 1136.000 1675.000 1008.500 L 1675.000 881.000 1610.500 881.000 L 1546.000 881.000 1546.000 1061.500 M2261.175 882.377 C 2261.354 883.142,2290.075 964.370,2325.000 1062.883 L 2388.500 1241.999 2458.921 1241.749 L 2529.342 1241.500 2592.620 1062.500 C 2627.423 964.050,2655.921 882.938,2655.949 882.250 C 2655.989 881.262,2642.168 881.000,2590.040 881.000 L 2524.080 881.000 2522.163 887.250 C 2521.108 890.688,2507.082 937.150,2490.994 990.500 C 2474.906 1043.850,2461.463 1087.812,2461.121 1088.194 C 2460.780 1088.576,2446.489 1042.226,2429.364 985.194 L 2398.228 881.500 2329.540 881.243 C 2271.301 881.025,2260.900 881.198,2261.175 882.377 M2680.000 1061.500 L 2680.000 1242.000 2839.000 1242.000 L 2998.000 1242.000 2998.000 1191.500 L 2998.000 1141.000 2903.000 1141.000 L 2808.000 1141.000 2808.000 1124.506 L 2808.000 1108.012 2887.750 1107.756 L 2967.500 1107.500 2967.760 1058.750 L 2968.019 1010.000 2888.010 1010.000 L 2808.000 1010.000 2808.000 996.005 L 2808.000 982.010 2901.250 981.755 L 2994.500 981.500 2994.759 931.250 L 2995.018 881.000 2837.509 881.000 L 2680.000 881.000 2680.000 1061.500 M2087.006 895.474 C 2116.718 898.979,2131.897 903.022,2152.613 912.949 C 2167.743 920.200,2177.076 926.486,2188.180 936.905 C 2211.984 959.240,2226.264 989.504,2231.569 1028.855 C 2233.677 1044.493,2233.686 1078.606,2231.585 1094.000 C 2225.163 1141.070,2206.189 1175.157,2173.599 1198.173 C 2160.586 1207.363,2138.564 1217.381,2122.500 1221.417 C 2068.069 1235.092,2002.166 1230.170,1960.656 1209.329 C 1915.401 1186.607,1890.457 1147.799,1883.958 1090.000 C 1883.371 1084.775,1882.890 1071.950,1882.890 1061.500 C 1882.890 1040.753,1883.908 1029.094,1887.126 1013.000 C 1900.826 944.465,1948.069 904.641,2026.500 895.514 C 2041.923 893.719,2071.963 893.699,2087.006 895.474 M700.196 998.500 C 714.344 1052.400,725.938 1096.612,725.960 1096.750 C 725.982 1096.888,729.712 1096.999,734.250 1096.998 L 742.500 1096.996 767.999 998.498 L 793.497 900.000 860.249 900.000 L 927.000 900.000 927.000 1061.500 L 927.000 1223.000 881.922 1223.000 L 836.844 1223.000 837.277 1143.250 C 837.733 1059.078,837.943 1054.563,843.466 1009.952 C 844.310 1003.136,845.000 996.084,845.000 994.280 L 845.000 991.000 835.567 991.000 C 827.446 991.000,826.063 991.243,825.621 992.750 C 825.339 993.712,811.781 1043.550,795.492 1103.500 C 779.204 1163.450,765.196 1214.868,764.364 1217.762 L 762.851 1223.025 726.796 1222.762 L 690.742 1222.500 659.121 1107.258 L 627.500 992.016 617.750 992.008 C 611.992 992.003,608.000 992.404,608.000 992.988 C 608.000 993.531,609.111 1002.644,610.469 1013.238 C 616.815 1062.755,617.985 1086.009,617.994 1162.750 L 618.000 1223.000 577.000 1223.000 L 536.000 1223.000 536.000 1061.493 L 536.000 899.986 605.236 900.243 L 674.472 900.500 700.196 998.500 M1120.549 951.750 C 1136.950 980.212,1151.855 1005.862,1153.672 1008.750 L 1156.975 1014.000 1162.838 1014.000 L 1168.702 1014.000 1201.596 957.000 L 1234.491 900.000 1283.368 900.000 C 1322.334 900.000,1332.043 900.253,1331.249 901.250 C 1330.701 901.938,1302.296 946.269,1268.126 999.765 L 1206.000 1097.029 1206.000 1160.015 L 1206.000 1223.000 1160.500 1223.000 L 1115.000 1223.000 1115.000 1160.211 L 1115.000 1097.422 1053.438 1002.461 C 1019.579 950.232,990.772 905.813,989.424 903.750 L 986.972 900.000 1038.850 900.000 L 1090.728 900.000 1120.549 951.750 M1656.000 1027.000 L 1656.000 1154.000 1744.000 1154.000 L 1832.000 1154.000 1832.000 1188.500 L 1832.000 1223.000 1698.500 1223.000 L 1565.000 1223.000 1565.000 1061.500 L 1565.000 900.000 1610.500 900.000 L 1656.000 900.000 1656.000 1027.000 M2417.491 1010.500 C 2435.678 1071.000,2451.126 1122.412,2451.819 1124.750 L 2453.080 1129.000 2460.481 1129.000 C 2464.926 1129.000,2468.162 1128.546,2468.584 1127.864 C 2468.970 1127.240,2484.663 1075.827,2503.458 1013.614 L 2537.630 900.500 2583.815 900.240 C 2609.217 900.097,2629.999 900.097,2629.998 900.240 C 2629.997 900.383,2604.402 972.950,2573.120 1061.500 L 2516.244 1222.500 2458.872 1222.741 L 2401.500 1222.982 2349.000 1074.788 C 2320.125 993.282,2294.386 920.607,2291.803 913.288 L 2287.105 899.981 2335.764 900.241 L 2384.424 900.500 2417.491 1010.500 M2976.000 931.500 L 2976.000 963.000 2883.000 963.000 L 2790.000 963.000 2790.000 996.000 L 2790.000 1029.000 2869.500 1029.000 L 2949.000 1029.000 2949.000 1059.000 L 2949.000 1089.000 2869.500 1089.000 L 2790.000 1089.000 2790.000 1124.500 L 2790.000 1160.000 2884.500 1160.000 L 2979.000 1160.000 2979.000 1191.500 L 2979.000 1223.000 2839.000 1223.000 L 2699.000 1223.000 2699.000 1061.500 L 2699.000 900.000 2837.500 900.000 L 2976.000 900.000 2976.000 931.500 M2042.925 957.909 C 2016.092 961.711,1995.562 977.140,1984.693 1001.671 C 1978.347 1015.994,1976.067 1031.470,1976.027 1060.500 C 1975.983 1092.115,1978.492 1108.172,1985.872 1123.500 C 1995.957 1144.446,2010.745 1156.841,2032.635 1162.695 C 2046.188 1166.320,2067.900 1166.541,2081.352 1163.193 C 2110.199 1156.011,2129.788 1134.983,2137.081 1103.368 C 2139.627 1092.330,2140.869 1050.684,2139.149 1034.000 C 2136.983 1012.992,2131.177 997.607,2120.223 983.847 C 2110.578 971.733,2098.419 964.102,2082.000 959.859 C 2073.590 957.686,2052.077 956.612,2042.925 957.909 M2074.662 977.493 C 2096.767 981.705,2112.959 998.382,2118.705 1022.854 C 2120.229 1029.344,2120.500 1035.186,2120.500 1061.500 C 2120.500 1096.960,2119.759 1102.255,2112.876 1116.009 C 2105.772 1130.201,2095.856 1138.916,2081.244 1143.810 C 2074.289 1146.139,2071.971 1146.404,2058.500 1146.413 C 2042.374 1146.424,2035.050 1145.095,2026.071 1140.527 C 2012.361 1133.553,2002.796 1120.554,1997.763 1102.055 C 1995.996 1095.561,1995.643 1090.684,1995.250 1067.326 C 1994.954 1049.804,1995.203 1037.066,1995.948 1031.462 C 1999.960 1001.314,2015.542 982.544,2040.713 977.538 C 2049.932 975.704,2065.167 975.684,2074.662 977.493 " stroke="none" fill="black" fill-rule="evenodd"/></svg>