<svg xmlns="http://www.w3.org/2000/svg" xmlns:xlink="http://www.w3.org/1999/xlink" width="399" zoomAndPan="magnify" viewBox="0 0 299.25 299.249989" height="399" preserveAspectRatio="xMidYMid meet" version="1.0"><defs><clipPath id="894e970068"><path d="M 0 39.492188 L 297 39.492188 L 297 198 L 0 198 Z M 0 39.492188 " clip-rule="nonzero"/></clipPath><clipPath id="662fac5183"><path d="M 70 39.492188 L 225 39.492188 L 225 101 L 70 101 Z M 70 39.492188 " clip-rule="nonzero"/></clipPath></defs><g clip-path="url(#894e970068)"><path fill="#000000" d="M 247.960938 197.933594 C 246.808594 197.941406 245.78125 197.117188 245.550781 195.945312 C 245.289062 194.609375 246.15625 193.316406 247.484375 193.054688 C 263.054688 189.992188 277.949219 184.5 291.773438 176.699219 C 286.707031 151.140625 280.183594 124.800781 271.851562 96.25 C 267.957031 82.871094 263.800781 70.03125 255.84375 59.902344 C 248.585938 50.660156 228.320312 45.4375 223.40625 44.898438 C 205.171875 65.417969 176.589844 78.347656 148.515625 78.726562 C 119.734375 79.066406 91.324219 66.5625 72.136719 45.160156 C 64.460938 47.382812 45.496094 53.683594 38.90625 63.15625 C 31.082031 74.425781 27.617188 88.21875 24.253906 101.558594 L 24.128906 102.058594 C 17.953125 126.691406 11.578125 152.148438 6.007812 177.105469 C 18.34375 184.59375 32.441406 189.152344 46.886719 190.324219 C 48.238281 190.429688 49.246094 191.617188 49.136719 192.96875 C 49.023438 194.324219 47.871094 195.324219 46.488281 195.230469 C 30.679688 193.953125 15.265625 188.808594 1.914062 180.359375 C 1.039062 179.808594 0.601562 178.761719 0.824219 177.746094 C 6.5 152.171875 13.039062 126.085938 19.359375 100.859375 L 19.488281 100.359375 C 22.953125 86.589844 26.535156 72.355469 34.875 60.339844 C 42.65625 49.144531 63.640625 42.382812 72.304688 39.992188 C 73.210938 39.746094 74.1875 40.035156 74.808594 40.753906 C 93.066406 61.792969 120.601562 74.125 148.453125 73.800781 C 175.570312 73.441406 203.160156 60.792969 220.464844 40.789062 C 220.878906 40.3125 221.460938 40.015625 222.09375 39.953125 C 226.449219 39.527344 250.742188 45.445312 259.707031 56.855469 C 268.210938 67.679688 272.535156 81.019531 276.574219 94.875 C 285.128906 124.214844 291.789062 151.234375 296.9375 177.492188 C 297.136719 178.523438 296.660156 179.566406 295.753906 180.089844 C 281.027344 188.625 265.105469 194.609375 248.429688 197.886719 C 248.277344 197.917969 248.117188 197.933594 247.960938 197.933594 " fill-opacity="1" fill-rule="nonzero"/></g><path fill="#000000" d="M 149.761719 257.609375 C 113.929688 257.609375 78.164062 251.300781 45.03125 238.699219 C 44.039062 238.320312 43.402344 237.359375 43.445312 236.304688 C 43.960938 221.925781 44.230469 207.277344 44.230469 192.777344 C 44.246094 161.804688 43.140625 130.871094 40.851562 98.210938 C 40.757812 96.859375 41.773438 95.683594 43.132812 95.589844 C 44.523438 95.496094 45.660156 96.511719 45.75 97.875 C 48.054688 130.648438 49.160156 161.6875 49.144531 192.777344 C 49.144531 206.742188 48.902344 220.84375 48.417969 234.714844 C 111.332031 258.175781 183.648438 258.691406 247.433594 236.152344 C 246.417969 222.6875 245.765625 209.035156 245.503906 195.523438 C 244.914062 164.550781 246.265625 133.417969 249.527344 102.984375 C 249.675781 101.628906 250.867188 100.644531 252.234375 100.796875 C 253.585938 100.9375 254.558594 102.152344 254.414062 103.503906 C 251.171875 133.738281 249.828125 164.667969 250.421875 195.425781 C 250.6875 209.472656 251.386719 223.671875 252.480469 237.644531 C 252.5625 238.746094 251.902344 239.773438 250.859375 240.152344 C 218.605469 251.792969 184.148438 257.609375 149.761719 257.609375 " fill-opacity="1" fill-rule="nonzero"/><g clip-path="url(#662fac5183)"><path fill="#000000" d="M 149.613281 100.976562 C 117.746094 100.976562 81.628906 83.3125 70.585938 43.015625 C 70.230469 41.707031 71 40.351562 72.304688 39.992188 C 73.609375 39.628906 74.960938 40.40625 75.324219 41.714844 C 85.976562 80.566406 121.617188 96.988281 152.148438 96.011719 C 178.402344 95.183594 211.890625 80.519531 219.910156 41.90625 C 220.1875 40.574219 221.476562 39.714844 222.820312 40 C 224.152344 40.273438 225.003906 41.574219 224.726562 42.90625 C 217.644531 76.996094 189.226562 99.765625 152.300781 100.9375 C 151.410156 100.960938 150.511719 100.976562 149.613281 100.976562 " fill-opacity="1" fill-rule="nonzero"/></g></svg>