<svg id="svg" version="1.1" width="100" height="100" xmlns="http://www.w3.org/2000/svg"><path d="M29.632 19.250 C 28.268 20.488,22.161 31.952,16.060 44.727 C 1.719 74.757,2.476 72.567,5.419 75.510 C 8.281 78.372,12.682 79.677,14.905 78.323 C 15.782 77.789,17.987 74.572,19.805 71.176 L 23.110 65.000 34.305 65.003 L 45.500 65.005 49.000 71.753 C 52.910 79.290,55.297 80.449,60.919 77.542 C 66.451 74.681,66.109 73.322,52.968 45.901 C 46.272 31.930,39.891 19.712,38.786 18.750 C 36.049 16.365,32.604 16.553,29.632 19.250 M73.679 37.802 C 71.810 39.867,62.714 58.861,62.686 60.759 C 62.675 61.452,63.716 64.258,64.998 66.996 C 67.213 71.724,67.385 71.861,68.444 69.736 C 69.449 67.721,70.295 67.500,77.021 67.500 L 84.483 67.500 86.553 71.500 C 88.769 75.781,91.442 76.904,94.948 75.028 C 96.077 74.424,97.000 73.320,97.000 72.576 C 97.000 70.575,81.093 37.679,79.696 36.791 C 77.695 35.519,75.396 35.905,73.679 37.802 M34.789 52.806 C 32.033 52.974,29.573 52.907,29.322 52.656 C 29.071 52.404,30.077 49.808,31.558 46.886 L 34.250 41.573 37.024 47.037 L 39.799 52.500 34.789 52.806 M78.839 55.547 C 80.411 58.996,80.409 59.000,77.000 59.000 C 75.350 59.000,74.000 58.796,74.000 58.547 C 74.000 57.422,76.391 53.000,77.000 53.000 C 77.373 53.000,78.201 54.146,78.839 55.547 " stroke="none" fill="black" fill-rule="evenodd"/></svg>