<svg id="svg" version="1.1" width="100" height="100" xmlns="http://www.w3.org/2000/svg"><path d="M46.619 5.003 C 38.488 7.526,35.746 14.991,39.527 24.313 C 40.053 25.609,38.470 24.968,33.976 22.063 C 27.013 17.563,22.362 16.837,19.655 19.829 C 18.745 20.835,18.000 22.820,18.000 24.240 C 18.000 27.069,19.276 28.279,31.461 37.000 L 39.146 42.500 38.481 54.000 C 38.116 60.325,36.930 69.325,35.847 74.000 C 33.364 84.711,33.290 87.267,35.372 90.446 C 36.532 92.215,37.939 93.000,39.952 93.000 C 44.853 93.000,45.740 91.371,50.847 73.000 C 51.636 70.162,51.837 71.636,51.910 80.795 C 51.994 91.395,52.151 92.242,54.455 94.545 C 57.503 97.593,59.159 97.628,62.547 94.713 C 64.881 92.705,65.318 91.334,66.128 83.463 C 67.030 74.714,66.624 43.290,65.596 42.263 C 65.312 41.979,68.351 37.866,72.349 33.123 C 76.347 28.380,80.379 23.387,81.309 22.027 C 86.848 13.929,77.021 5.400,70.621 12.750 C 62.905 21.611,62.840 21.670,63.542 19.152 C 64.423 15.994,61.472 8.539,58.594 6.654 C 55.524 4.642,50.164 3.903,46.619 5.003 M55.568 7.464 C 62.638 10.418,63.651 20.983,57.341 25.946 C 53.265 29.153,46.903 28.749,43.203 25.049 C 41.580 23.426,40.000 20.838,39.692 19.299 C 38.881 15.242,41.837 9.831,46.000 7.752 C 50.255 5.626,51.108 5.600,55.568 7.464 M79.965 13.934 C 81.953 17.649,80.937 19.754,72.004 30.441 C 67.056 36.360,63.249 41.593,63.544 42.071 C 64.446 43.531,64.973 69.893,64.311 80.452 C 63.773 89.025,63.368 90.723,61.389 92.702 C 58.676 95.415,57.682 95.539,55.571 93.429 C 54.311 92.169,54.000 89.394,54.000 79.429 C 54.000 68.054,53.845 67.000,52.171 67.000 C 50.701 67.000,49.788 69.014,47.522 77.250 C 44.040 89.906,43.494 91.000,40.665 91.000 C 35.512 91.000,34.869 86.987,37.909 73.789 C 38.958 69.230,40.132 60.302,40.516 53.948 L 41.215 42.396 37.502 39.135 C 35.459 37.342,30.686 33.812,26.894 31.291 C 21.210 27.511,20.000 26.234,20.000 24.014 C 20.000 22.145,20.731 20.988,22.391 20.232 C 25.406 18.858,29.600 20.841,39.617 28.377 C 46.496 33.553,46.906 33.715,51.893 33.236 L 57.051 32.741 65.276 22.376 C 72.082 13.798,73.968 12.010,76.215 12.006 C 77.880 12.002,79.330 12.748,79.965 13.934 M56.195 30.124 C 54.806 31.370,47.356 31.734,45.843 30.629 C 44.635 29.746,45.671 29.500,50.594 29.500 C 54.056 29.500,56.577 29.781,56.195 30.124 " stroke="none" fill="black" fill-rule="evenodd"/></svg>