<svg xmlns="http://www.w3.org/2000/svg" xmlns:xlink="http://www.w3.org/1999/xlink" width="78" zoomAndPan="magnify" viewBox="0 0 58.5 19.5" height="26" preserveAspectRatio="xMidYMid meet" version="1.0"><defs><clipPath id="e2164df922"><path d="M 22.96875 5.484375 L 35.402344 5.484375 L 35.402344 14.992188 L 22.96875 14.992188 Z M 22.96875 5.484375 " clip-rule="nonzero"/></clipPath></defs><g clip-path="url(#e2164df922)"><path fill="#000000" d="M 26.796875 13.234375 C 26.796875 13.714844 26.796875 14.171875 26.796875 14.625 C 26.808594 14.738281 26.769531 14.832031 26.679688 14.902344 C 26.589844 14.972656 26.488281 14.992188 26.378906 14.960938 C 26.292969 14.925781 26.214844 14.875 26.152344 14.808594 C 25.636719 14.308594 25.121094 13.804688 24.605469 13.304688 L 23.105469 11.847656 C 23.015625 11.785156 22.972656 11.699219 22.972656 11.589844 C 22.972656 11.480469 23.015625 11.394531 23.105469 11.328125 C 24.125 10.335938 25.148438 9.34375 26.167969 8.347656 C 26.28125 8.203125 26.425781 8.164062 26.597656 8.230469 C 26.761719 8.304688 26.828125 8.429688 26.800781 8.605469 C 26.800781 8.992188 26.800781 9.378906 26.800781 9.769531 L 26.800781 9.941406 L 31.75 9.941406 C 31.804688 9.941406 31.859375 9.941406 31.914062 9.941406 C 32.007812 9.9375 32.085938 9.972656 32.148438 10.039062 C 32.214844 10.105469 32.242188 10.183594 32.234375 10.273438 C 32.234375 10.570312 32.234375 10.875 32.234375 11.140625 L 34.53125 8.941406 L 32.234375 6.710938 L 32.234375 7.5 C 32.234375 7.832031 32.125 7.941406 31.777344 7.941406 C 30.945312 7.941406 30.117188 7.941406 29.285156 7.941406 C 29.191406 7.941406 29.097656 7.925781 29.011719 7.886719 C 28.867188 7.816406 28.816406 7.703125 28.863281 7.550781 C 28.886719 7.40625 28.972656 7.324219 29.121094 7.304688 C 29.183594 7.296875 29.246094 7.292969 29.308594 7.292969 L 31.554688 7.292969 L 31.554688 7.121094 C 31.554688 6.722656 31.554688 6.324219 31.554688 5.925781 C 31.515625 5.746094 31.582031 5.617188 31.761719 5.546875 C 31.941406 5.476562 32.078125 5.523438 32.183594 5.679688 C 33.210938 6.679688 34.242188 7.679688 35.269531 8.679688 C 35.359375 8.746094 35.402344 8.832031 35.402344 8.941406 C 35.402344 9.046875 35.359375 9.136719 35.269531 9.203125 C 34.238281 10.199219 33.210938 11.199219 32.183594 12.199219 C 32.074219 12.332031 31.941406 12.363281 31.78125 12.296875 C 31.621094 12.230469 31.554688 12.113281 31.578125 11.949219 C 31.578125 11.546875 31.578125 11.148438 31.578125 10.75 L 31.578125 10.59375 L 26.609375 10.59375 C 26.246094 10.59375 26.128906 10.484375 26.128906 10.132812 L 26.128906 9.375 L 23.835938 11.601562 C 24.585938 12.328125 25.351562 13.070312 26.121094 13.820312 C 26.125 13.792969 26.125 13.761719 26.121094 13.730469 C 26.121094 13.46875 26.121094 13.207031 26.121094 12.945312 C 26.109375 12.84375 26.140625 12.753906 26.214844 12.679688 C 26.289062 12.605469 26.378906 12.574219 26.484375 12.582031 C 27.371094 12.582031 28.253906 12.582031 29.140625 12.582031 C 29.242188 12.574219 29.328125 12.601562 29.402344 12.667969 C 29.472656 12.734375 29.511719 12.816406 29.507812 12.910156 C 29.507812 13.007812 29.46875 13.089844 29.394531 13.152344 C 29.320312 13.21875 29.230469 13.242188 29.132812 13.230469 C 28.421875 13.230469 27.710938 13.230469 27 13.230469 Z M 26.796875 13.234375 " fill-opacity="1" fill-rule="nonzero"/></g><path fill="#000000" d="M 18.445312 8.863281 C 18.644531 8.710938 18.785156 8.519531 18.859375 8.277344 C 18.9375 8.039062 18.9375 7.800781 18.859375 7.5625 C 18.78125 7.324219 18.644531 7.128906 18.441406 6.980469 C 18.238281 6.832031 18.011719 6.753906 17.761719 6.75 L 13.007812 6.570312 C 12.957031 6.566406 12.921875 6.539062 12.902344 6.492188 L 11.261719 2.054688 C 11.175781 1.824219 11.035156 1.636719 10.832031 1.496094 C 10.628906 1.355469 10.40625 1.285156 10.160156 1.285156 C 9.914062 1.285156 9.691406 1.355469 9.488281 1.496094 C 9.285156 1.636719 9.144531 1.824219 9.058594 2.054688 L 7.421875 6.507812 C 7.402344 6.554688 7.367188 6.582031 7.316406 6.585938 L 2.5625 6.765625 C 2.3125 6.769531 2.085938 6.847656 1.882812 6.996094 C 1.683594 7.144531 1.542969 7.339844 1.464844 7.578125 C 1.390625 7.816406 1.390625 8.054688 1.464844 8.292969 C 1.542969 8.535156 1.679688 8.726562 1.882812 8.878906 L 5.609375 11.808594 C 5.652344 11.839844 5.667969 11.882812 5.652344 11.9375 L 4.371094 16.484375 C 4.324219 16.660156 4.320312 16.835938 4.355469 17.011719 C 4.390625 17.191406 4.464844 17.351562 4.574219 17.496094 C 4.683594 17.640625 4.820312 17.75 4.984375 17.832031 C 5.144531 17.914062 5.316406 17.953125 5.5 17.957031 C 5.738281 17.957031 5.957031 17.890625 6.152344 17.753906 L 10.09375 15.113281 C 10.136719 15.085938 10.183594 15.085938 10.226562 15.113281 L 14.164062 17.753906 C 14.371094 17.894531 14.59375 17.960938 14.84375 17.957031 C 15.089844 17.953125 15.3125 17.878906 15.511719 17.734375 C 15.710938 17.589844 15.851562 17.402344 15.933594 17.167969 C 16.011719 16.933594 16.019531 16.699219 15.949219 16.460938 L 14.65625 11.898438 C 14.644531 11.847656 14.65625 11.804688 14.699219 11.773438 Z M 10.167969 14.058594 C 9.929688 14.058594 9.710938 14.125 9.511719 14.257812 L 5.566406 16.898438 C 5.523438 16.933594 5.476562 16.933594 5.429688 16.902344 C 5.382812 16.867188 5.367188 16.824219 5.386719 16.769531 L 6.683594 12.203125 C 6.75 11.976562 6.75 11.75 6.679688 11.527344 C 6.609375 11.300781 6.480469 11.113281 6.296875 10.964844 L 2.546875 8.03125 C 2.5 8 2.484375 7.957031 2.503906 7.902344 C 2.519531 7.847656 2.558594 7.820312 2.617188 7.820312 L 7.367188 7.640625 C 7.605469 7.628906 7.816406 7.550781 8.007812 7.410156 C 8.195312 7.269531 8.328125 7.089844 8.410156 6.867188 L 10.046875 2.414062 C 10.0625 2.355469 10.097656 2.328125 10.15625 2.335938 Z M 10.167969 14.058594 " fill-opacity="1" fill-rule="nonzero"/><path fill="#000000" d="M 39.570312 8.863281 C 39.367188 8.710938 39.230469 8.519531 39.152344 8.277344 C 39.074219 8.039062 39.078125 7.800781 39.152344 7.5625 C 39.230469 7.324219 39.371094 7.128906 39.570312 6.980469 C 39.773438 6.832031 40 6.753906 40.25 6.75 L 45.003906 6.570312 C 45.054688 6.566406 45.089844 6.539062 45.109375 6.492188 L 46.75 2.054688 C 46.835938 1.824219 46.980469 1.636719 47.179688 1.496094 C 47.382812 1.355469 47.605469 1.285156 47.851562 1.285156 C 48.097656 1.285156 48.324219 1.355469 48.523438 1.496094 C 48.726562 1.636719 48.867188 1.824219 48.953125 2.054688 L 50.589844 6.507812 C 50.609375 6.554688 50.644531 6.582031 50.695312 6.585938 L 55.449219 6.765625 C 55.699219 6.769531 55.925781 6.847656 56.128906 6.996094 C 56.328125 7.144531 56.46875 7.339844 56.546875 7.578125 C 56.625 7.816406 56.625 8.054688 56.546875 8.292969 C 56.472656 8.535156 56.332031 8.726562 56.128906 8.878906 L 52.402344 11.808594 C 52.359375 11.839844 52.34375 11.882812 52.359375 11.9375 L 53.644531 16.484375 C 53.6875 16.660156 53.695312 16.835938 53.65625 17.011719 C 53.621094 17.191406 53.546875 17.351562 53.4375 17.496094 C 53.328125 17.640625 53.191406 17.75 53.027344 17.832031 C 52.867188 17.914062 52.695312 17.953125 52.511719 17.957031 C 52.273438 17.957031 52.054688 17.890625 51.859375 17.753906 L 47.917969 15.113281 C 47.875 15.085938 47.832031 15.085938 47.785156 15.113281 L 43.847656 17.753906 C 43.640625 17.894531 43.417969 17.960938 43.171875 17.957031 C 42.921875 17.953125 42.699219 17.878906 42.5 17.734375 C 42.300781 17.589844 42.160156 17.402344 42.078125 17.167969 C 42 16.933594 41.992188 16.699219 42.0625 16.460938 L 43.355469 11.898438 C 43.371094 11.847656 43.355469 11.804688 43.3125 11.773438 Z M 47.84375 14.058594 C 48.082031 14.058594 48.300781 14.125 48.5 14.257812 L 52.445312 16.898438 C 52.492188 16.933594 52.535156 16.933594 52.582031 16.902344 C 52.628906 16.867188 52.644531 16.824219 52.625 16.769531 L 51.332031 12.203125 C 51.261719 11.976562 51.265625 11.75 51.335938 11.527344 C 51.40625 11.300781 51.53125 11.113281 51.714844 10.964844 L 55.464844 8.03125 C 55.511719 8 55.527344 7.957031 55.507812 7.902344 C 55.492188 7.847656 55.453125 7.820312 55.398438 7.820312 L 50.644531 7.640625 C 50.40625 7.628906 50.195312 7.550781 50.007812 7.410156 C 49.816406 7.269531 49.683594 7.089844 49.601562 6.867188 L 47.964844 2.414062 C 47.953125 2.355469 47.914062 2.328125 47.855469 2.335938 Z M 47.84375 14.058594 " fill-opacity="1" fill-rule="nonzero"/></svg>