<svg xmlns="http://www.w3.org/2000/svg" xmlns:xlink="http://www.w3.org/1999/xlink" width="100" zoomAndPan="magnify" viewBox="0 0 75 74.999997" height="100" preserveAspectRatio="xMidYMid meet" version="1.0"><defs><g/></defs><path stroke-linecap="butt" transform="matrix(0.807639, 0, 0, 0.807639, 9.731094, -13.727448)" fill="none" stroke-linejoin="miter" d="M 41.603902 33.799455 L 65.874103 83.94078 C 66.899468 85.972164 67.41215 87.500539 67.41215 88.525904 C 67.41215 90.692713 65.670964 92.637038 62.188592 94.363714 C 60.152371 95.389079 58.551447 95.901762 57.380983 95.901762 C 56.210519 95.901762 55.252867 95.630911 54.508026 95.089208 C 53.763185 94.547506 53.221483 93.976784 52.882919 93.377042 C 52.563702 92.7773 52.099385 91.877687 51.499643 90.678203 L 46.82746 80.975927 L 21.923662 80.975927 L 17.246642 90.678203 C 16.6469 91.877687 16.177747 92.74828 15.84402 93.289983 C 15.519966 93.831685 14.987937 94.387897 14.243096 94.953783 C 13.493418 95.524505 12.535766 95.809866 11.365302 95.809866 C 10.194838 95.809866 8.593914 95.30202 6.56253 94.276655 C 3.080158 92.608018 1.338972 90.692713 1.338972 88.525904 C 1.338972 87.500539 1.851654 85.972164 2.872183 83.94078 L 27.142383 33.712396 C 27.800165 32.324283 28.806184 31.211859 30.150766 30.375122 C 31.495349 29.543222 32.922154 29.127272 34.431182 29.127272 C 37.66205 29.127272 40.056181 30.684666 41.603902 33.799455 Z M 34.339286 55.370817 L 28.39507 67.680036 L 40.356052 67.680036 Z M 34.339286 55.370817 " stroke="#000000" stroke-width="16.40456" stroke-opacity="1" stroke-miterlimit="4"/><g fill="#a6a6a6" fill-opacity="1"><g transform="translate(9.731094, 62.998264)"><g><path d="M 33.609375 -49.4375 L 53.21875 -8.921875 C 54.03125 -7.273438 54.4375 -6.046875 54.4375 -5.234375 C 54.4375 -3.484375 53.035156 -1.910156 50.234375 -0.515625 C 48.585938 0.304688 47.289062 0.71875 46.34375 0.71875 C 45.40625 0.71875 44.632812 0.5 44.03125 0.0625 C 43.425781 -0.363281 42.988281 -0.816406 42.71875 -1.296875 C 42.457031 -1.785156 42.082031 -2.515625 41.59375 -3.484375 L 37.828125 -11.328125 L 17.71875 -11.328125 L 13.9375 -3.484375 C 13.457031 -2.515625 13.082031 -1.8125 12.8125 -1.375 C 12.539062 -0.9375 12.101562 -0.488281 11.5 -0.03125 C 10.894531 0.425781 10.117188 0.65625 9.171875 0.65625 C 8.234375 0.65625 6.941406 0.242188 5.296875 -0.578125 C 2.492188 -1.929688 1.09375 -3.484375 1.09375 -5.234375 C 1.09375 -6.046875 1.503906 -7.273438 2.328125 -8.921875 L 21.921875 -49.515625 C 22.453125 -50.617188 23.257812 -51.507812 24.34375 -52.1875 C 25.4375 -52.875 26.585938 -53.21875 27.796875 -53.21875 C 30.410156 -53.21875 32.347656 -51.957031 33.609375 -49.4375 Z M 27.734375 -32.015625 L 22.9375 -22.0625 L 32.59375 -22.0625 Z M 27.734375 -32.015625 "/></g></g></g></svg>