<svg xmlns="http://www.w3.org/2000/svg" xmlns:xlink="http://www.w3.org/1999/xlink" width="100" zoomAndPan="magnify" viewBox="0 0 75 74.999997" height="100" preserveAspectRatio="xMidYMid meet" version="1.0"><defs><g/></defs><g fill="#545454" fill-opacity="0.7294"><g transform="translate(9.660283, 69.665967)"><g><path d="M 38.9375 -57.265625 L 61.640625 -10.34375 C 62.597656 -8.4375 63.078125 -7.007812 63.078125 -6.0625 C 63.078125 -4.039062 61.445312 -2.21875 58.1875 -0.59375 C 56.28125 0.363281 54.78125 0.84375 53.6875 0.84375 C 52.59375 0.84375 51.695312 0.585938 51 0.078125 C 50.300781 -0.421875 49.796875 -0.953125 49.484375 -1.515625 C 49.179688 -2.078125 48.75 -2.914062 48.1875 -4.03125 L 43.8125 -13.125 L 20.515625 -13.125 L 16.140625 -4.03125 C 15.585938 -2.914062 15.15625 -2.101562 14.84375 -1.59375 C 14.53125 -1.09375 14.023438 -0.578125 13.328125 -0.046875 C 12.628906 0.484375 11.734375 0.75 10.640625 0.75 C 9.546875 0.75 8.046875 0.273438 6.140625 -0.671875 C 2.890625 -2.242188 1.265625 -4.039062 1.265625 -6.0625 C 1.265625 -7.007812 1.738281 -8.4375 2.6875 -10.34375 L 25.390625 -57.359375 C 26.015625 -58.640625 26.957031 -59.671875 28.21875 -60.453125 C 29.476562 -61.242188 30.804688 -61.640625 32.203125 -61.640625 C 35.234375 -61.640625 37.476562 -60.179688 38.9375 -57.265625 Z M 32.125 -37.078125 L 26.578125 -25.5625 L 37.765625 -25.5625 Z M 32.125 -37.078125 "/></g></g></g><g fill="#000000" fill-opacity="1"><g transform="translate(0.466438, 64.569736)"><g><path d="M 38.9375 -57.265625 L 61.640625 -10.34375 C 62.597656 -8.4375 63.078125 -7.007812 63.078125 -6.0625 C 63.078125 -4.039062 61.445312 -2.21875 58.1875 -0.59375 C 56.28125 0.363281 54.78125 0.84375 53.6875 0.84375 C 52.59375 0.84375 51.695312 0.585938 51 0.078125 C 50.300781 -0.421875 49.796875 -0.953125 49.484375 -1.515625 C 49.179688 -2.078125 48.75 -2.914062 48.1875 -4.03125 L 43.8125 -13.125 L 20.515625 -13.125 L 16.140625 -4.03125 C 15.585938 -2.914062 15.15625 -2.101562 14.84375 -1.59375 C 14.53125 -1.09375 14.023438 -0.578125 13.328125 -0.046875 C 12.628906 0.484375 11.734375 0.75 10.640625 0.75 C 9.546875 0.75 8.046875 0.273438 6.140625 -0.671875 C 2.890625 -2.242188 1.265625 -4.039062 1.265625 -6.0625 C 1.265625 -7.007812 1.738281 -8.4375 2.6875 -10.34375 L 25.390625 -57.359375 C 26.015625 -58.640625 26.957031 -59.671875 28.21875 -60.453125 C 29.476562 -61.242188 30.804688 -61.640625 32.203125 -61.640625 C 35.234375 -61.640625 37.476562 -60.179688 38.9375 -57.265625 Z M 32.125 -37.078125 L 26.578125 -25.5625 L 37.765625 -25.5625 Z M 32.125 -37.078125 "/></g></g></g></svg>