<svg id="svg" version="1.1" width="598" height="591" xmlns="http://www.w3.org/2000/svg"><path d="M187.852 15.930 C 177.333 16.404,174.851 16.821,173.102 18.405 C 170.326 20.921,170.448 23.863,173.500 28.000 C 175.988 31.373,176.000 31.493,176.000 53.380 C 176.000 73.938,175.871 75.509,174.015 77.484 C 171.313 80.360,170.517 85.016,172.313 87.440 C 173.522 89.072,175.554 89.497,185.125 90.120 C 201.980 91.217,219.531 91.140,226.433 89.938 C 240.060 87.565,247.000 80.559,247.000 69.174 C 247.000 62.384,244.203 57.128,238.861 53.881 C 230.900 49.043,231.075 49.426,235.165 45.773 C 239.870 41.571,241.000 39.198,241.000 33.516 C 241.000 24.422,235.571 18.863,224.370 16.490 C 217.393 15.012,210.528 14.907,187.852 15.930 M357.415 17.500 C 354.467 22.024,352.933 36.137,354.974 39.951 C 356.230 42.299,360.166 43.267,363.423 42.029 C 364.832 41.494,367.363 38.815,369.047 36.078 C 372.113 31.096,375.363 28.963,377.156 30.756 C 377.723 31.323,377.987 40.695,377.805 53.870 L 377.500 76.030 374.669 78.285 C 372.367 80.119,371.901 81.185,372.169 83.997 C 372.692 89.467,374.965 90.087,393.341 89.772 C 408.625 89.510,409.248 89.417,411.091 87.139 C 413.749 83.852,413.495 82.265,409.750 78.768 L 406.500 75.733 406.500 53.117 C 406.500 30.582,406.508 30.499,408.698 30.187 C 410.406 29.944,411.708 31.097,414.532 35.351 C 416.532 38.363,419.398 41.336,420.900 41.959 C 424.653 43.513,428.745 41.862,429.602 38.449 C 430.661 34.232,429.401 23.480,427.372 19.414 L 425.500 15.664 392.109 15.582 C 359.773 15.503,358.677 15.563,357.415 17.500 M266.500 16.687 C 265.400 16.978,263.938 17.672,263.250 18.230 C 261.225 19.874,261.777 25.134,264.250 27.764 C 266.381 30.031,266.529 31.195,267.053 49.828 C 267.546 67.374,267.851 70.053,269.869 74.618 C 274.679 85.494,282.993 90.175,298.620 90.808 C 311.272 91.320,318.317 89.515,324.114 84.278 C 332.065 77.095,334.000 69.804,334.000 47.028 C 334.000 31.554,334.063 31.078,336.500 28.182 C 341.483 22.260,338.684 17.060,330.066 16.232 C 323.940 15.644,318.552 16.591,316.532 18.611 C 314.321 20.822,314.649 24.998,317.250 27.763 C 319.352 29.998,319.522 31.187,319.829 45.828 C 320.192 63.188,319.373 67.775,315.341 70.946 C 312.177 73.435,305.243 73.694,300.967 71.483 C 295.716 68.768,295.000 65.882,295.000 47.444 C 295.000 31.137,295.052 30.727,297.500 27.818 C 300.496 24.257,300.644 22.018,298.091 18.861 C 296.264 16.602,295.581 16.493,282.341 16.330 C 274.728 16.236,267.600 16.397,266.500 16.687 M518.000 25.965 C 513.875 31.444,510.192 35.944,509.817 35.964 C 509.441 35.984,504.285 34.218,498.360 32.040 C 492.435 29.862,487.424 28.243,487.224 28.443 C 487.024 28.643,489.866 33.321,493.540 38.839 L 500.220 48.872 492.660 58.653 C 488.503 64.033,485.213 68.546,485.349 68.682 C 485.485 68.819,490.933 67.346,497.455 65.409 C 504.087 63.439,509.574 62.292,509.906 62.805 C 510.233 63.309,513.425 68.143,517.000 73.547 L 523.500 83.372 524.000 70.440 L 524.500 57.507 536.215 54.102 C 542.659 52.229,547.756 50.415,547.544 50.071 C 547.331 49.727,542.113 47.658,535.949 45.473 L 524.740 41.500 525.374 28.750 C 525.723 21.738,525.894 16.000,525.754 16.001 C 525.614 16.001,522.125 20.485,518.000 25.965 M212.363 31.506 C 217.766 36.909,213.810 47.820,206.808 46.827 C 204.687 46.526,204.476 45.942,204.201 39.599 C 204.036 35.804,204.135 32.091,204.419 31.349 C 205.118 29.528,210.492 29.634,212.363 31.506 M103.887 38.634 C 99.274 42.316,95.041 45.673,94.481 46.095 C 93.919 46.518,88.994 43.998,83.512 40.483 C 78.040 36.975,73.365 34.302,73.123 34.544 C 72.881 34.786,74.626 39.941,77.000 46.000 C 79.374 52.059,81.133 57.170,80.908 57.358 C 80.684 57.545,76.450 60.970,71.500 64.969 C 66.550 68.968,62.275 72.463,62.000 72.736 C 61.725 73.009,67.286 73.068,74.358 72.866 L 87.215 72.500 91.358 83.177 C 93.636 89.049,95.757 94.107,96.072 94.415 C 96.386 94.724,97.893 90.100,99.420 84.139 C 100.946 78.178,102.489 72.828,102.848 72.249 C 103.207 71.670,109.125 70.815,116.000 70.348 L 128.500 69.500 117.723 62.624 C 109.899 57.633,107.071 55.303,107.403 54.124 C 110.449 43.334,113.035 32.702,112.697 32.364 C 112.464 32.131,108.500 34.953,103.887 38.634 M216.211 58.012 C 218.789 61.196,218.615 68.948,215.888 72.415 C 214.055 74.746,213.164 75.061,209.138 74.800 L 204.500 74.500 204.207 66.084 C 204.046 61.455,204.166 57.009,204.475 56.206 C 205.360 53.899,213.951 55.221,216.211 58.012 M276.169 110.918 C 267.508 111.406,265.609 111.814,264.419 113.441 C 262.346 116.276,262.673 119.169,265.500 123.000 C 267.985 126.368,268.000 126.518,268.000 148.000 C 268.000 169.482,267.985 169.632,265.500 173.000 C 262.673 176.831,262.346 179.724,264.419 182.559 C 265.696 184.306,267.794 184.592,285.383 185.415 C 301.646 186.176,306.235 186.072,312.714 184.792 C 326.968 181.977,335.848 176.083,340.689 166.224 C 343.276 160.957,343.500 159.582,343.500 149.000 C 343.500 138.412,343.269 137.000,340.591 131.200 C 337.031 123.491,330.088 116.925,322.488 114.081 C 311.946 110.137,302.031 109.460,276.169 110.918 M366.000 115.000 C 363.433 117.567,363.454 121.342,366.054 124.859 C 368.081 127.601,368.087 127.830,366.542 143.068 C 363.975 168.374,363.243 172.196,360.458 174.790 C 358.758 176.374,358.000 178.153,358.000 180.557 C 358.000 183.519,358.480 184.243,361.250 185.458 C 367.157 188.049,394.042 191.305,405.369 190.801 C 414.219 190.407,416.574 189.914,422.085 187.298 C 433.169 182.038,438.838 174.335,441.074 161.496 C 445.122 138.250,433.221 121.608,409.000 116.644 C 403.376 115.492,375.868 113.000,368.767 113.000 C 368.345 113.000,367.100 113.900,366.000 115.000 M191.143 117.076 C 184.408 118.400,183.702 119.394,184.462 126.490 C 185.029 131.787,184.437 135.282,179.906 153.397 C 175.641 170.441,174.090 175.099,171.349 179.084 C 167.476 184.714,167.130 188.130,170.129 191.129 C 172.000 193.000,172.987 193.182,178.276 192.629 C 181.585 192.283,185.373 192.000,186.692 192.000 C 189.889 192.000,194.000 187.751,194.000 184.447 C 194.000 182.798,192.870 180.747,191.000 179.000 C 185.196 173.578,187.306 171.716,200.537 170.586 C 212.084 169.600,214.416 171.113,210.000 176.727 C 206.425 181.272,207.876 186.409,213.277 188.327 C 216.118 189.336,245.218 186.017,247.750 184.395 C 251.481 182.005,250.826 176.734,246.235 172.210 C 243.695 169.707,241.200 165.429,238.569 159.063 C 234.114 148.284,225.312 130.772,220.799 123.708 C 219.115 121.072,216.469 118.260,214.918 117.458 C 211.787 115.838,198.522 115.625,191.143 117.076 M307.287 127.011 C 311.446 130.283,313.512 137.193,313.414 147.500 C 313.263 163.262,309.869 170.000,302.081 170.000 C 299.139 170.000,297.794 169.484,297.035 168.066 C 295.509 165.213,295.656 127.744,297.200 126.200 C 299.054 124.346,304.450 124.780,307.287 127.011 M464.381 128.541 C 462.473 131.453,462.941 132.860,468.077 139.653 C 470.106 142.337,472.427 147.819,474.640 155.153 C 480.405 174.263,480.207 185.253,474.015 189.831 C 471.676 191.560,471.000 192.833,471.000 195.507 C 471.000 200.273,473.034 201.314,488.729 204.584 C 499.384 206.804,502.443 207.119,504.452 206.204 C 507.886 204.639,508.743 200.535,506.503 196.376 C 504.942 193.477,504.859 192.327,505.854 187.371 C 506.482 184.247,508.077 179.397,509.399 176.595 C 512.406 170.222,528.261 152.259,533.447 149.350 C 537.903 146.850,539.373 144.749,538.528 142.087 C 537.796 139.781,534.651 138.469,525.151 136.505 C 519.066 135.247,517.346 135.207,515.151 136.274 C 512.681 137.475,512.522 137.947,512.828 143.186 C 513.105 147.947,512.740 149.436,510.445 152.904 C 506.371 159.060,504.497 158.214,502.570 149.350 C 501.999 146.724,502.394 145.621,504.943 142.718 C 508.570 138.586,508.835 135.592,505.750 133.575 C 502.926 131.728,476.167 126.000,470.365 126.000 C 466.843 126.000,465.739 126.469,464.381 128.541 M102.000 130.107 C 92.014 131.692,67.532 138.227,65.750 139.782 C 62.880 142.288,63.479 147.493,66.919 149.942 C 70.138 152.234,71.383 156.524,76.449 182.788 C 78.793 194.941,78.884 196.324,77.506 198.988 C 74.441 204.916,76.701 210.000,82.401 210.000 C 88.895 210.000,117.084 204.570,124.456 201.899 C 144.155 194.762,152.979 181.157,150.012 162.500 C 147.186 144.737,137.685 133.735,122.370 130.490 C 114.786 128.884,110.245 128.798,102.000 130.107 M406.967 132.813 C 411.104 136.950,412.532 144.907,411.018 155.375 C 409.036 169.074,405.062 175.400,398.436 175.400 C 391.606 175.400,391.462 174.676,393.855 152.447 C 395.022 141.604,396.487 132.118,397.111 131.366 C 399.051 129.028,403.893 129.739,406.967 132.813 M203.367 149.347 C 208.017 158.782,207.661 159.478,197.750 160.339 C 191.017 160.923,191.000 160.918,191.000 158.357 C 191.000 154.902,193.915 143.820,195.247 142.207 C 197.345 139.669,199.556 141.613,203.367 149.347 M111.854 148.008 C 115.570 151.724,118.707 159.881,120.043 169.306 C 121.611 180.359,119.443 187.039,113.670 188.944 C 109.850 190.205,107.453 189.612,106.504 187.173 C 106.145 186.253,104.116 177.200,101.995 167.056 C 97.562 145.865,97.659 145.000,104.458 145.000 C 108.003 145.000,109.424 145.578,111.854 148.008 M345.332 176.274 C 329.904 184.345,318.945 192.795,308.918 204.355 L 300.816 213.695 289.658 202.345 L 278.500 190.994 272.200 190.997 C 264.711 191.001,260.664 189.186,258.400 184.807 L 256.767 181.649 255.486 184.696 C 254.781 186.372,253.251 188.411,252.086 189.227 C 250.043 190.658,250.252 190.876,257.984 195.369 C 262.393 197.931,266.000 200.444,266.000 200.954 C 266.000 203.221,263.678 202.875,259.474 199.982 C 256.975 198.263,252.684 195.865,249.939 194.653 C 245.025 192.485,244.719 192.472,230.407 193.824 C 213.232 195.447,209.794 194.994,205.321 190.521 C 202.428 187.628,202.000 186.543,202.000 182.100 C 202.000 177.637,201.746 177.000,199.965 177.000 C 198.263 177.000,198.099 177.316,198.965 178.934 C 199.534 179.998,200.000 182.280,200.000 184.006 C 200.000 185.731,200.719 187.862,201.599 188.742 C 203.064 190.207,202.959 190.462,200.349 191.792 C 198.782 192.590,196.600 194.055,195.500 195.047 C 194.400 196.040,192.150 197.171,190.500 197.562 C 188.850 197.952,186.198 198.998,184.608 199.886 C 182.399 201.119,181.611 201.205,181.274 200.250 C 181.002 199.477,178.938 199.000,175.867 199.000 C 170.763 199.000,165.540 197.020,164.713 194.771 C 164.110 193.132,156.356 200.504,150.406 208.371 C 144.481 216.207,137.475 230.658,134.830 240.500 C 131.758 251.934,131.715 273.906,134.742 286.065 C 142.341 316.588,158.373 342.853,189.667 376.048 C 215.301 403.240,233.609 418.415,283.008 453.414 L 299.175 464.869 327.838 444.310 C 371.867 412.727,382.547 404.136,400.543 385.825 C 430.004 355.848,445.047 335.872,456.889 311.000 C 471.241 280.856,472.628 252.165,461.047 224.951 C 456.237 213.648,451.272 206.233,442.207 196.820 L 433.849 188.140 429.317 191.014 C 426.824 192.595,423.537 194.162,422.012 194.497 C 420.228 194.889,419.286 195.711,419.370 196.803 C 419.460 197.979,418.886 198.392,417.500 198.148 C 416.400 197.954,409.650 197.647,402.500 197.465 C 388.508 197.109,359.883 192.977,357.456 190.963 C 356.655 190.299,356.000 190.192,356.000 190.726 C 356.000 191.259,354.136 192.537,351.857 193.565 C 349.578 194.592,345.272 197.143,342.288 199.233 C 337.080 202.882,335.000 203.287,335.000 200.653 C 335.000 199.226,346.550 191.401,350.889 189.889 L 353.840 188.860 352.331 185.250 C 350.911 181.850,350.971 178.799,352.537 174.750 C 353.470 172.337,352.441 172.555,345.332 176.274 M434.567 209.661 C 441.646 218.162,443.366 221.034,442.123 222.277 C 440.810 223.590,441.310 224.064,432.571 213.234 C 428.903 208.688,426.176 204.524,426.512 203.981 C 427.463 202.442,430.109 204.309,434.567 209.661 M174.000 207.142 C 174.000 207.770,172.063 210.583,169.695 213.392 C 167.327 216.201,164.372 219.963,163.127 221.750 C 160.872 224.989,157.975 226.125,158.028 223.750 C 158.062 222.218,162.579 216.169,168.038 210.344 C 172.105 206.005,174.000 204.987,174.000 207.142 M281.917 214.687 C 288.647 221.992,290.666 226.000,287.615 226.000 C 286.853 226.000,285.525 224.924,284.664 223.610 C 283.803 222.295,280.565 218.484,277.470 215.141 C 272.489 209.760,271.304 207.000,273.976 207.000 C 274.447 207.000,278.021 210.459,281.917 214.687 M328.000 209.019 C 328.000 210.163,314.314 226.314,312.904 226.833 C 310.127 227.857,312.853 222.513,318.558 215.750 C 324.456 208.759,328.000 206.233,328.000 209.019 M450.605 238.506 C 453.431 247.542,454.014 253.500,452.073 253.500 C 451.139 253.500,450.048 251.084,448.911 246.500 C 447.956 242.650,446.685 238.233,446.087 236.685 C 444.518 232.623,444.724 230.800,446.709 231.182 C 447.849 231.402,449.145 233.838,450.605 238.506 M155.361 233.776 C 155.625 234.203,154.974 237.119,153.915 240.256 C 152.856 243.394,151.648 248.332,151.231 251.231 C 150.705 254.886,150.017 256.500,148.986 256.500 C 146.770 256.500,147.280 247.674,149.960 239.620 C 151.949 233.642,153.945 231.483,155.361 233.776 M297.341 236.000 C 299.498 239.652,300.466 239.744,302.592 236.500 C 304.278 233.926,307.000 233.100,307.000 235.162 C 307.000 236.828,300.969 246.000,299.874 246.000 C 298.556 246.000,293.000 236.950,293.000 234.804 C 293.000 232.016,295.373 232.669,297.341 236.000 M453.840 265.984 C 454.027 267.265,453.423 272.517,452.498 277.656 C 451.234 284.672,450.432 287.000,449.276 287.000 C 448.027 287.000,447.863 286.199,448.406 282.750 C 448.774 280.413,449.318 275.575,449.616 272.000 C 449.913 268.425,450.347 264.900,450.579 264.167 C 451.226 262.123,453.458 263.367,453.840 265.984 M149.776 269.577 C 149.928 271.185,150.742 276.051,151.585 280.391 C 152.572 285.469,152.773 288.627,152.152 289.248 C 151.530 289.870,150.802 289.498,150.109 288.204 C 148.631 285.442,145.740 268.230,146.537 266.940 C 147.680 265.091,149.492 266.567,149.776 269.577 M41.358 277.500 C 42.274 281.207,44.216 303.995,43.723 305.253 C 43.454 305.939,37.557 308.963,30.617 311.973 C 23.678 314.983,18.000 317.688,18.000 317.983 C 18.000 318.279,24.412 319.866,32.250 321.510 L 46.500 324.500 48.000 338.673 C 48.825 346.468,49.737 353.079,50.026 353.365 C 50.315 353.651,53.690 348.296,57.526 341.466 C 62.060 333.391,65.084 329.038,66.170 329.023 C 67.088 329.010,73.128 330.143,79.590 331.541 C 86.053 332.938,91.890 333.950,92.562 333.791 C 93.233 333.631,89.556 328.806,84.391 323.070 C 79.226 317.333,75.000 312.236,75.000 311.742 C 75.000 311.249,78.167 305.423,82.039 298.795 C 85.910 292.167,88.916 286.583,88.720 286.386 C 88.523 286.190,82.382 288.734,75.073 292.041 L 61.785 298.054 55.642 291.277 C 44.069 278.508,40.837 275.390,41.358 277.500 M447.498 295.997 C 448.244 297.204,438.370 318.000,437.050 318.000 C 434.574 318.000,435.190 315.019,439.649 305.432 C 444.172 295.707,445.977 293.536,447.498 295.997 M161.925 308.537 C 166.899 318.720,167.510 321.517,164.513 320.367 C 162.578 319.624,153.685 301.264,154.381 299.450 C 155.497 296.541,156.879 298.206,161.925 308.537 M523.646 316.394 L 518.935 324.788 510.268 322.894 C 505.501 321.852,500.976 321.000,500.211 321.000 C 499.446 321.000,501.833 324.367,505.516 328.481 L 512.212 335.963 509.229 341.231 C 507.589 344.129,505.227 348.220,503.982 350.323 L 501.717 354.145 505.522 352.555 C 507.614 351.681,511.937 349.794,515.127 348.363 L 520.927 345.759 525.971 351.278 C 528.745 354.313,531.938 357.854,533.067 359.148 L 535.119 361.500 534.587 357.000 C 534.294 354.525,533.771 349.790,533.424 346.478 L 532.793 340.455 541.810 336.478 C 546.769 334.290,550.614 332.275,550.354 332.000 C 550.094 331.725,545.746 330.600,540.691 329.500 L 531.500 327.500 530.600 317.750 C 530.106 312.387,529.399 308.000,529.029 308.000 C 528.660 308.000,526.238 311.777,523.646 316.394 M431.000 326.456 C 431.000 327.971,425.519 336.218,420.731 341.908 C 418.967 344.005,417.402 344.984,416.420 344.608 C 415.178 344.131,415.688 342.897,419.047 338.258 C 421.340 335.091,424.352 330.813,425.741 328.750 C 428.293 324.960,431.000 323.779,431.000 326.456 M177.112 333.750 C 179.408 336.913,182.405 340.711,183.773 342.190 C 186.130 344.740,186.313 348.000,184.100 348.000 C 182.873 348.000,170.050 330.922,170.022 329.250 C 169.971 326.333,173.227 328.400,177.112 333.750 M411.000 353.010 C 411.000 354.399,397.012 369.423,395.345 369.823 C 392.519 370.502,394.249 367.544,401.142 359.910 C 407.658 352.695,411.000 350.355,411.000 353.010 M200.957 362.020 C 206.227 367.857,208.014 370.511,207.521 371.770 C 206.975 373.165,205.317 371.854,198.957 365.000 C 194.619 360.325,191.054 355.938,191.035 355.250 C 190.953 352.312,194.179 354.514,200.957 362.020 M388.000 376.772 C 388.000 377.197,384.193 381.331,379.541 385.960 C 372.556 392.908,370.963 394.066,370.401 392.602 C 369.891 391.274,371.570 388.967,377.085 383.414 C 383.486 376.970,388.000 374.223,388.000 376.772 M226.750 388.448 C 231.841 393.281,233.318 396.051,230.750 395.951 C 230.063 395.925,225.950 392.588,221.610 388.537 C 215.686 383.006,213.887 380.736,214.390 379.427 C 215.128 377.504,215.537 377.802,226.750 388.448 M363.707 400.620 C 364.081 401.742,347.732 416.000,346.072 416.000 C 343.221 416.000,345.752 412.502,353.250 406.078 C 361.115 399.340,362.959 398.377,363.707 400.620 M249.011 408.750 C 256.502 415.084,258.660 418.037,255.750 417.972 C 254.215 417.938,238.812 404.985,238.243 403.250 C 237.266 400.271,241.600 402.484,249.011 408.750 M338.000 422.033 C 338.000 423.287,321.023 436.000,319.348 436.000 C 316.035 436.000,318.684 432.849,327.156 426.710 C 335.562 420.619,338.000 419.568,338.000 422.033 M274.621 429.206 C 282.243 434.851,284.842 438.000,281.879 438.000 C 280.045 438.000,264.000 425.700,264.000 424.294 C 264.000 421.939,266.154 422.935,274.621 429.206 M311.000 442.420 C 311.000 443.200,308.457 445.395,305.348 447.296 L 299.696 450.753 296.427 448.825 C 291.943 446.179,290.399 444.201,291.758 442.842 C 292.522 442.078,293.850 442.547,296.372 444.470 L 299.912 447.170 304.206 444.130 C 308.939 440.778,311.000 440.259,311.000 442.420 M549.158 498.356 C 545.121 503.660,541.653 508.000,541.454 508.000 C 541.254 508.000,536.045 506.200,529.878 504.000 C 523.712 501.801,518.532 500.135,518.367 500.299 C 518.203 500.464,521.195 505.132,525.016 510.673 L 531.963 520.748 524.374 530.433 C 520.200 535.760,516.946 540.262,517.143 540.438 C 517.339 540.613,522.656 539.268,528.957 537.447 C 535.258 535.627,540.700 534.314,541.049 534.531 C 541.399 534.747,544.567 539.293,548.088 544.634 L 554.491 554.344 555.188 550.422 C 555.571 548.265,555.911 542.664,555.942 537.976 L 556.000 529.452 568.012 526.038 C 574.619 524.160,579.681 522.324,579.262 521.957 C 578.843 521.590,573.676 519.594,567.779 517.523 L 557.058 513.756 556.779 501.234 L 556.500 488.712 549.158 498.356 M77.562 519.250 C 77.356 519.938,76.663 524.544,76.023 529.487 C 75.382 534.431,74.740 538.594,74.594 538.739 C 74.449 538.884,70.318 539.712,65.415 540.578 C 60.512 541.444,55.825 542.383,55.000 542.665 C 54.105 542.971,57.425 545.159,63.226 548.086 C 72.407 552.720,72.926 553.149,72.497 555.747 C 71.587 561.255,70.000 572.913,70.000 574.083 C 70.000 574.742,73.491 571.559,77.757 567.009 L 85.514 558.736 94.861 563.430 C 100.002 566.012,104.414 567.919,104.666 567.667 C 104.918 567.416,103.071 563.413,100.562 558.773 C 98.053 554.132,96.000 549.708,96.000 548.941 C 96.000 548.174,99.251 544.274,103.225 540.274 C 107.199 536.273,109.786 533.000,108.975 533.000 C 108.164 533.000,103.973 533.675,99.662 534.500 C 95.351 535.325,91.009 536.000,90.013 536.000 C 88.744 536.000,86.812 533.309,83.554 527.000 C 80.998 522.050,78.688 518.000,78.422 518.000 C 78.155 518.000,77.768 518.563,77.562 519.250 " stroke="none" fill="black" fill-rule="evenodd"/></svg>