<svg id="svg" version="1.1" width="598" height="591" xmlns="http://www.w3.org/2000/svg"><path d="M128.629 272.750 C 130.964 290.134,135.204 304.170,142.287 317.958 C 153.969 340.701,169.832 361.497,195.972 388.337 L 207.500 400.175 195.941 399.463 C 182.842 398.657,179.255 399.673,176.517 404.967 C 174.352 409.153,174.566 416.178,176.949 419.208 C 178.850 421.624,178.861 422.170,177.396 441.012 C 176.013 458.817,175.705 460.562,173.487 463.198 C 169.115 468.394,169.026 476.858,173.302 480.749 C 177.375 484.456,179.823 485.003,199.191 486.529 C 209.811 487.365,222.040 488.754,226.366 489.614 C 236.447 491.620,239.911 490.947,244.252 486.143 C 251.087 478.577,253.298 460.139,248.040 454.543 C 242.108 448.228,233.941 449.154,226.060 457.035 C 223.329 459.766,220.174 462.000,219.048 462.000 C 216.585 462.000,216.517 459.718,218.352 438.750 C 219.405 426.719,219.816 424.817,221.640 423.540 C 222.786 422.737,224.270 420.762,224.937 419.152 L 226.150 416.223 240.450 427.200 L 254.750 438.176 255.192 448.898 C 255.578 458.267,256.025 460.456,258.731 466.240 C 266.151 482.095,279.429 490.567,298.684 491.731 C 310.102 492.421,318.215 490.936,327.662 486.428 C 336.321 482.295,344.252 474.066,347.999 465.328 C 350.235 460.111,350.502 458.104,350.544 446.186 L 350.591 432.871 353.666 430.464 C 356.558 428.201,356.833 428.160,358.266 429.779 C 359.104 430.725,361.451 435.536,363.481 440.470 C 369.736 455.669,380.308 476.057,384.274 480.568 C 389.090 486.047,393.099 487.351,403.461 486.807 C 413.352 486.288,417.291 484.323,421.218 477.951 C 424.282 472.980,429.505 456.121,434.061 436.500 C 435.897 428.590,438.003 422.130,439.439 420.000 C 440.738 418.075,442.096 415.501,442.458 414.281 C 443.093 412.136,443.219 412.179,446.203 415.579 C 449.075 418.850,449.515 420.436,452.505 438.298 C 455.693 457.341,455.704 457.529,453.860 460.985 C 452.837 462.902,452.000 465.255,452.000 466.215 C 452.000 469.383,455.205 476.039,457.260 477.139 C 462.596 479.995,465.293 479.967,483.421 476.866 C 493.364 475.166,505.775 473.458,511.000 473.072 C 521.873 472.269,525.642 470.800,528.227 466.361 C 530.698 462.116,531.532 451.881,530.006 444.529 C 529.077 440.053,527.925 437.725,525.384 435.184 C 522.364 432.164,521.511 431.837,517.480 432.158 C 513.061 432.510,512.939 432.440,511.986 429.009 C 510.690 424.344,510.732 424.000,512.599 424.000 C 515.800 424.000,521.126 420.657,522.665 417.681 C 526.522 410.222,520.986 390.401,513.827 386.036 C 509.624 383.473,505.325 383.470,496.497 386.023 C 492.649 387.136,481.176 389.402,471.003 391.059 C 450.873 394.337,446.320 395.930,444.014 400.500 C 443.181 402.150,442.408 403.667,442.295 403.872 C 442.182 404.076,440.702 402.856,439.006 401.160 C 435.260 397.414,431.132 396.532,421.706 397.460 C 413.173 398.301,409.035 399.868,406.356 403.275 C 404.398 405.763,404.348 405.771,401.938 403.933 C 400.597 402.910,397.629 401.787,395.343 401.437 L 391.186 400.801 405.485 386.150 C 427.083 364.021,435.670 353.679,447.959 335.000 C 461.102 315.021,469.300 294.514,471.844 275.250 C 472.593 269.575,472.502 269.000,470.854 269.000 C 468.928 269.000,468.898 269.091,467.032 280.500 C 462.114 310.572,440.507 345.048,402.000 384.264 L 385.500 401.068 375.164 402.018 C 369.479 402.541,363.158 403.419,361.116 403.969 C 353.129 406.119,348.866 415.016,352.414 422.128 C 354.018 425.343,353.999 425.493,351.783 427.197 C 350.528 428.163,349.204 428.851,348.843 428.726 C 348.481 428.602,346.231 425.601,343.843 422.057 C 336.072 410.529,323.484 404.200,306.500 403.282 C 285.372 402.141,267.677 411.041,259.864 426.740 C 258.014 430.458,256.416 433.659,256.314 433.853 C 255.722 434.975,227.518 412.078,225.207 408.599 C 223.616 406.204,220.762 403.669,218.341 402.500 C 213.483 400.155,205.818 393.089,190.148 376.510 C 163.203 348.002,146.077 322.267,138.235 298.500 C 135.585 290.468,134.592 286.010,132.501 272.750 C 132.059 269.947,131.432 269.000,130.018 269.000 C 128.409 269.000,128.201 269.561,128.629 272.750 M85.421 386.419 C 79.791 388.871,77.412 397.539,80.537 404.216 C 81.975 407.290,81.851 408.704,78.602 426.294 C 75.458 443.313,74.845 445.413,72.114 448.523 C 67.385 453.909,66.873 460.812,70.866 465.352 C 73.775 468.660,77.928 470.094,91.747 472.562 C 107.359 475.350,111.208 474.919,115.427 469.904 C 118.428 466.338,118.986 458.852,116.514 455.323 C 115.175 453.412,115.377 451.283,118.550 433.868 C 121.459 417.901,122.480 414.096,124.414 412.017 C 127.740 408.442,129.002 405.625,128.985 401.816 C 128.949 393.622,124.851 390.845,107.841 387.484 C 93.802 384.711,89.781 384.520,85.421 386.419 M510.928 391.750 C 513.474 393.823,518.006 405.734,517.985 410.295 C 517.965 414.337,517.145 415.614,513.738 416.909 C 510.191 418.258,508.521 417.559,502.506 412.203 L 497.513 407.756 491.077 408.357 C 487.538 408.688,484.225 409.375,483.715 409.885 C 483.145 410.455,483.253 413.571,483.994 417.963 C 485.070 424.341,485.425 425.080,487.291 424.806 C 488.734 424.595,489.661 423.415,490.281 421.000 C 490.776 419.075,491.645 416.938,492.213 416.250 C 493.719 414.426,498.452 414.723,500.190 416.750 C 503.397 420.491,507.361 433.905,506.374 437.677 C 505.829 439.763,502.219 442.000,499.397 442.000 C 498.566 442.000,496.614 440.606,495.059 438.903 C 492.563 436.170,491.968 435.947,489.997 437.002 C 487.937 438.104,487.816 438.660,488.442 444.192 C 488.815 447.489,489.548 451.311,490.071 452.686 C 490.969 455.048,491.307 455.147,496.260 454.497 C 503.135 453.595,505.469 451.981,508.474 446.052 C 512.448 438.208,517.716 435.820,521.595 440.103 C 523.114 441.780,523.569 444.086,523.843 451.495 C 524.048 457.041,523.741 461.616,523.081 462.848 C 521.725 465.382,516.301 466.983,509.000 467.006 C 505.975 467.015,495.625 468.363,486.000 470.000 C 476.375 471.637,467.185 472.982,465.579 472.988 C 459.595 473.012,457.286 467.711,460.736 461.870 C 462.415 459.027,462.354 458.228,458.859 437.391 C 455.406 416.799,455.110 415.708,452.124 412.628 C 447.967 408.339,447.808 403.666,451.750 401.633 C 453.262 400.853,463.050 398.826,473.500 397.128 C 483.950 395.430,495.425 393.166,499.000 392.097 C 507.216 389.640,508.297 389.608,510.928 391.750 M103.035 393.051 C 117.375 395.617,120.758 396.680,122.008 399.014 C 123.652 402.086,123.164 403.821,119.594 407.607 C 115.974 411.444,115.452 413.475,110.286 443.808 C 108.619 453.596,108.617 454.268,110.265 457.139 C 113.612 462.971,111.307 468.000,105.285 468.000 C 99.767 468.000,79.784 463.998,77.250 462.386 C 73.899 460.253,74.203 455.137,77.892 451.604 C 79.482 450.080,81.082 447.408,81.446 445.667 C 83.935 433.782,88.000 410.028,88.000 407.369 C 88.000 405.605,87.243 402.843,86.317 401.230 C 84.878 398.721,84.820 397.850,85.916 395.203 C 87.017 392.544,87.976 391.779,91.035 391.116 C 91.330 391.052,96.730 391.923,103.035 393.051 M431.713 404.050 C 435.145 405.246,437.383 409.219,436.388 412.352 C 436.018 413.519,434.684 416.055,433.424 417.987 C 432.057 420.084,429.527 428.153,427.149 438.000 C 421.488 461.443,417.352 473.801,414.070 477.084 C 411.881 479.273,410.053 479.942,404.698 480.516 C 396.732 481.369,394.129 480.821,390.119 477.447 C 386.846 474.692,376.347 454.702,368.950 437.140 C 366.522 431.376,363.361 425.623,361.825 424.173 C 360.306 422.739,358.532 420.285,357.884 418.719 C 356.878 416.291,356.993 415.486,358.670 413.240 C 361.147 409.922,363.123 409.413,379.042 407.996 C 392.734 406.777,398.205 407.485,399.412 410.630 C 400.439 413.308,400.051 417.002,398.406 420.181 C 396.321 424.213,397.148 429.691,401.108 438.068 C 404.370 444.969,406.616 448.000,408.470 448.000 C 411.408 448.000,416.722 428.817,415.348 423.169 C 414.991 421.701,413.417 419.022,411.850 417.215 C 408.791 413.690,408.411 411.970,410.023 408.957 C 411.527 406.147,414.760 404.740,421.500 403.964 C 424.800 403.584,427.770 403.212,428.101 403.137 C 428.431 403.062,430.057 403.472,431.713 404.050 M209.854 407.038 C 220.400 408.433,222.783 412.828,216.500 419.297 C 214.575 421.279,213.000 423.690,213.000 424.656 C 213.000 425.621,212.296 435.154,211.435 445.840 C 210.342 459.412,210.186 465.586,210.920 466.320 C 211.498 466.898,214.683 467.566,217.998 467.806 L 224.025 468.242 229.486 462.559 C 234.458 457.384,235.281 456.904,238.692 457.188 C 244.306 457.656,245.772 460.862,244.301 469.453 C 243.680 473.080,242.304 477.725,241.245 479.774 C 239.611 482.933,238.749 483.548,235.577 483.815 C 233.519 483.989,229.525 483.635,226.700 483.029 C 222.140 482.051,189.218 479.000,183.227 479.000 C 181.952 479.000,179.761 477.852,178.359 476.450 C 175.358 473.449,175.741 469.896,179.432 466.475 C 182.033 464.065,182.325 462.244,184.143 437.131 C 185.322 420.840,185.317 420.742,183.018 416.532 C 180.316 411.586,180.815 407.424,184.280 406.003 C 186.565 405.067,198.643 405.556,209.854 407.038 M311.994 410.069 C 333.565 413.568,346.035 428.718,344.794 449.915 C 343.384 473.978,322.120 489.087,295.282 485.095 C 276.907 482.362,265.439 472.172,261.998 455.521 C 256.060 426.779,280.127 404.899,311.994 410.069 M296.003 424.750 C 294.703 431.762,293.583 437.599,293.515 437.721 C 293.447 437.843,287.341 438.676,279.946 439.572 C 272.551 440.469,266.406 441.289,266.291 441.394 C 266.175 441.499,270.717 444.164,276.382 447.316 C 291.756 455.870,290.458 453.474,287.522 467.890 C 286.135 474.702,285.000 480.703,285.000 481.227 C 285.000 481.750,289.433 478.088,294.850 473.089 C 300.268 468.090,305.038 464.000,305.451 464.000 C 305.864 464.000,311.360 466.919,317.664 470.487 C 330.732 477.883,330.399 478.403,322.886 462.355 L 317.917 451.739 327.500 442.745 C 332.771 437.798,336.868 433.535,336.605 433.271 C 336.097 432.763,315.740 434.789,312.717 435.649 C 311.266 436.061,309.886 433.910,305.292 424.078 C 302.188 417.435,299.360 412.000,299.008 412.000 C 298.655 412.000,297.303 417.738,296.003 424.750 M407.800 422.200 C 409.090 423.490,409.248 429.928,408.089 434.000 C 407.383 436.482,407.369 436.485,406.223 434.380 C 402.343 427.255,403.548 417.948,407.800 422.200 M304.487 434.557 L 307.273 441.114 315.188 440.423 L 323.102 439.733 317.438 445.176 L 311.773 450.619 314.257 455.560 C 319.125 465.242,319.001 465.474,311.313 461.071 L 304.500 457.168 298.626 462.834 L 292.751 468.500 293.391 464.500 C 293.743 462.300,294.303 458.640,294.636 456.366 L 295.240 452.232 288.370 448.366 L 281.500 444.500 289.500 443.500 L 297.500 442.500 298.948 435.250 C 299.744 431.262,300.689 428.000,301.048 428.000 C 301.407 428.000,302.954 430.951,304.487 434.557 M178.445 499.025 C 176.765 499.537,174.290 501.127,172.945 502.559 C 169.596 506.124,169.499 514.097,172.750 518.654 C 174.901 521.670,175.000 522.677,175.000 541.590 C 175.000 560.254,174.882 561.496,172.918 563.587 C 167.897 568.932,170.018 579.285,176.827 582.673 C 179.910 584.207,182.996 584.500,196.045 584.500 C 209.412 584.500,211.981 584.244,214.376 582.674 C 217.072 580.907,217.278 580.907,220.830 582.674 C 223.910 584.206,227.001 584.500,240.045 584.500 C 256.852 584.500,259.040 583.920,262.569 578.534 C 264.894 574.987,264.640 567.358,262.083 563.899 C 260.135 561.263,260.000 559.781,260.000 540.948 C 260.000 522.330,260.150 520.624,262.000 518.273 C 266.004 513.182,264.009 502.947,258.431 499.965 C 254.173 497.688,223.377 497.865,219.836 500.187 C 217.423 501.769,217.116 501.769,214.882 500.187 C 212.930 498.804,209.704 498.463,197.000 498.297 C 188.475 498.186,180.125 498.513,178.445 499.025 M275.415 499.377 C 267.923 502.747,265.704 511.337,270.500 518.405 C 272.953 522.020,273.000 522.450,273.000 541.410 C 273.000 559.613,272.877 560.887,270.869 563.440 C 267.999 567.088,267.318 573.780,269.406 577.817 C 272.135 583.095,275.916 584.384,289.974 584.826 C 306.127 585.334,312.074 584.081,315.628 579.421 C 317.904 576.437,318.187 575.271,317.792 570.509 C 317.503 567.019,316.642 564.262,315.419 562.911 C 313.663 560.970,313.500 559.108,313.500 541.000 C 313.500 522.892,313.663 521.030,315.419 519.089 C 316.631 517.750,317.502 514.990,317.784 511.595 C 318.201 506.560,318.006 505.977,314.693 502.360 L 311.157 498.500 294.829 498.245 C 282.599 498.054,277.726 498.338,275.415 499.377 M337.476 499.396 C 331.758 501.887,330.391 509.168,334.505 515.222 L 337.010 518.909 332.493 539.586 C 328.528 557.738,327.613 560.677,325.002 563.650 C 321.248 567.926,320.433 571.163,321.888 576.021 C 322.675 578.647,324.142 580.543,326.530 582.019 C 329.657 583.951,331.157 584.141,340.909 583.838 C 352.846 583.467,354.980 582.534,357.523 576.567 L 358.773 573.635 360.890 577.784 C 365.274 586.377,373.306 586.158,377.839 577.322 L 379.662 573.769 380.949 576.876 C 383.201 582.313,387.687 584.178,399.905 584.757 C 405.828 585.038,413.764 584.937,417.539 584.533 C 423.477 583.897,424.847 583.353,427.701 580.499 C 430.565 577.635,431.000 576.531,431.000 572.135 C 431.000 567.968,430.484 566.482,428.092 563.757 C 425.409 560.702,424.918 558.817,421.762 539.472 L 418.341 518.500 420.671 515.673 C 425.516 509.793,422.663 501.111,415.205 499.040 C 409.165 497.363,392.367 497.732,388.367 499.630 C 384.297 501.562,383.481 502.937,382.657 509.253 C 382.316 511.867,381.075 515.893,379.898 518.199 C 377.906 522.105,377.666 522.264,376.400 520.533 C 374.931 518.523,372.882 513.039,371.045 506.202 C 369.208 499.360,366.032 498.000,352.000 498.043 C 344.757 498.065,339.381 498.566,337.476 499.396 M209.665 505.063 C 211.202 505.647,212.799 506.659,213.214 507.313 C 214.633 509.544,214.002 513.369,211.833 515.678 C 209.272 518.404,208.127 527.501,209.923 530.857 C 210.892 532.667,211.965 533.000,216.835 533.000 C 220.006 533.000,223.140 532.460,223.800 531.800 C 224.466 531.134,225.000 527.937,225.000 524.614 C 225.000 519.852,224.557 518.158,222.833 516.323 C 220.223 513.544,219.995 508.576,222.369 506.202 C 223.736 504.835,226.432 504.430,236.063 504.144 C 249.374 503.749,254.188 504.330,256.468 506.611 C 258.679 508.822,258.351 512.997,255.750 515.766 C 253.552 518.106,253.500 518.692,253.500 541.000 C 253.500 563.308,253.552 563.894,255.750 566.234 C 258.735 569.411,258.748 574.362,255.777 576.443 C 254.017 577.676,250.577 578.000,239.232 578.000 C 225.358 578.000,224.832 577.923,222.455 575.545 C 219.375 572.466,219.382 571.226,222.500 567.000 C 224.573 564.190,224.997 562.493,224.985 557.056 C 224.976 553.450,224.574 549.876,224.091 549.113 C 223.608 548.351,220.967 547.511,218.223 547.247 C 214.018 546.843,212.882 547.118,211.007 548.993 C 209.065 550.935,208.833 552.030,209.186 557.577 C 209.492 562.385,210.128 564.508,211.795 566.282 C 214.736 569.412,214.727 574.377,211.777 576.443 C 210.017 577.676,206.577 578.000,195.232 578.000 C 181.358 578.000,180.832 577.923,178.455 575.545 C 175.375 572.466,175.382 571.226,178.500 567.000 C 180.992 563.622,181.000 563.541,181.000 541.120 C 181.000 520.483,180.845 518.459,179.115 516.564 C 178.078 515.429,176.963 513.600,176.637 512.500 C 175.797 509.667,178.071 505.710,181.008 504.893 C 185.024 503.775,206.615 503.903,209.665 505.063 M307.857 505.100 C 309.893 505.810,311.232 507.077,311.633 508.674 C 312.224 511.027,311.822 512.212,308.475 518.000 C 307.341 519.962,307.026 525.032,307.015 541.556 C 307.000 562.456,307.019 562.637,309.500 566.000 C 312.520 570.093,312.681 573.319,310.000 576.000 C 308.178 577.822,306.667 578.000,293.000 578.000 C 279.333 578.000,277.822 577.822,276.000 576.000 C 273.355 573.355,273.478 571.049,276.500 566.595 C 278.977 562.945,279.000 562.713,279.000 541.150 C 279.000 519.508,278.986 519.370,276.500 516.000 C 272.703 510.853,273.625 506.686,279.000 504.709 C 281.792 503.683,304.680 503.992,307.857 505.100 M363.181 505.250 C 364.041 505.938,365.269 508.680,365.910 511.344 C 366.552 514.008,369.344 520.707,372.116 526.231 C 376.302 534.572,377.372 536.038,378.437 534.887 C 381.214 531.883,389.000 513.290,389.000 509.662 C 389.000 506.598,389.448 505.780,391.565 504.975 C 394.414 503.892,409.148 503.821,412.905 504.872 C 416.011 505.741,417.834 508.529,416.495 510.360 C 411.286 517.479,411.426 515.073,414.935 537.274 C 418.863 562.131,419.348 564.039,422.489 566.989 C 425.681 569.989,425.813 574.317,422.777 576.443 C 421.017 577.677,417.575 578.000,406.212 578.000 C 392.380 578.000,388.593 577.338,386.765 574.600 C 385.382 572.529,386.001 569.688,388.568 566.321 L 391.137 562.954 389.568 555.370 C 388.706 551.199,388.000 547.572,388.000 547.310 C 388.000 547.048,387.497 547.001,386.882 547.206 C 386.267 547.411,382.329 554.293,378.132 562.500 C 373.934 570.706,369.956 577.582,369.291 577.780 C 368.580 577.991,364.765 571.515,360.035 562.070 C 355.609 553.231,351.558 546.000,351.033 546.000 C 350.114 546.000,349.514 547.795,346.918 558.313 C 345.753 563.037,345.789 563.187,348.865 566.361 C 352.628 570.243,352.985 574.196,349.777 576.443 C 346.568 578.691,332.344 578.621,329.829 576.345 C 327.383 574.132,327.512 569.751,330.093 567.416 C 331.244 566.375,332.620 564.711,333.150 563.719 C 334.401 561.383,343.000 522.350,343.000 519.012 C 343.000 517.611,341.849 514.771,340.443 512.701 C 337.703 508.670,337.845 505.457,340.797 504.680 C 344.838 503.617,361.674 504.045,363.181 505.250 M218.813 523.827 C 219.045 526.172,218.719 527.000,217.563 527.000 C 216.436 527.000,216.000 526.000,216.000 523.417 C 216.000 518.898,218.361 519.243,218.813 523.827 M219.000 558.000 C 219.000 560.889,218.583 562.000,217.500 562.000 C 216.417 562.000,216.000 560.889,216.000 558.000 C 216.000 555.111,216.417 554.000,217.500 554.000 C 218.583 554.000,219.000 555.111,219.000 558.000 " stroke="none" fill="black" fill-rule="evenodd"/></svg>