<svg id="svg" version="1.1" width="345" height="341" xmlns="http://www.w3.org/2000/svg"><path d="M0.750 62.750 C 0.613 97.263,0.542 130.225,0.594 136.000 C 0.950 175.670,24.843 217.506,75.147 266.542 C 88.823 279.874,99.851 289.006,123.000 306.169 C 143.278 321.204,170.014 340.000,171.121 340.000 C 172.282 340.000,209.207 313.589,235.568 293.904 C 252.154 281.519,260.037 274.786,272.619 262.257 C 320.618 214.459,343.590 174.282,344.318 136.861 C 344.418 131.713,344.387 98.813,344.250 63.750 L 344.000 0.000 172.500 0.000 L 1.000 0.000 0.750 62.750 " stroke="none" fill="black" fill-rule="evenodd"/></svg>