<svg id="svg" version="1.1" width="628" height="154" xmlns="http://www.w3.org/2000/svg"><path d="M610.578 9.641 C 608.440 11.093,605.298 13.899,603.596 15.876 C 596.530 24.081,584.546 36.521,583.440 36.799 C 582.787 36.964,581.950 36.312,581.581 35.351 C 580.550 32.665,570.879 19.035,567.403 15.371 C 563.940 11.720,561.015 11.712,558.469 15.347 C 555.138 20.103,556.491 23.934,566.492 38.064 C 572.777 46.943,573.001 47.469,573.024 53.379 C 573.049 59.874,573.407 61.597,577.521 75.000 C 578.956 79.675,580.839 88.675,581.706 95.000 C 584.463 115.123,588.059 120.088,592.205 109.500 C 594.008 104.896,594.070 103.708,592.981 94.500 C 592.330 89.000,590.976 80.000,589.970 74.500 C 586.744 56.848,586.701 56.266,588.418 53.813 C 589.288 52.571,590.000 50.179,590.000 48.496 C 590.000 45.191,593.507 41.391,609.402 27.469 C 620.767 17.515,623.075 13.075,619.000 9.000 C 616.386 6.386,615.239 6.473,610.578 9.641 M62.500 13.842 C 60.850 14.850,58.849 16.464,58.053 17.428 C 57.256 18.392,53.656 21.267,50.053 23.817 C 46.449 26.367,42.952 29.138,42.282 29.976 C 40.818 31.807,40.606 37.639,41.973 38.483 C 42.508 38.814,43.425 40.865,44.011 43.042 C 45.230 47.569,47.636 48.297,48.606 44.432 C 48.975 42.964,51.873 39.737,55.375 36.895 C 58.744 34.162,63.233 30.529,65.350 28.822 C 72.634 22.951,74.938 16.471,70.777 13.557 C 67.896 11.539,66.170 11.598,62.500 13.842 M331.142 16.618 C 326.045 18.763,319.255 20.663,313.741 21.486 C 305.273 22.751,304.534 22.718,302.099 20.966 C 299.809 19.317,298.923 19.231,294.647 20.239 C 286.289 22.211,286.067 23.355,290.506 41.589 L 294.284 57.112 292.142 58.613 C 289.023 60.797,289.211 66.253,292.479 68.394 C 293.843 69.288,295.652 71.360,296.500 73.000 C 298.357 76.591,300.956 90.660,300.982 97.261 C 300.992 99.879,301.873 103.929,302.940 106.261 C 304.007 108.592,305.382 112.441,305.996 114.813 C 306.823 118.014,307.548 119.042,308.805 118.802 C 310.052 118.565,310.638 117.109,311.022 113.301 C 311.309 110.453,311.836 107.831,312.193 107.474 C 313.384 106.282,329.465 101.027,332.000 101.001 C 336.020 100.959,354.160 95.355,355.106 93.863 C 356.513 91.642,356.124 88.418,354.250 86.783 C 351.945 84.771,343.237 85.125,327.500 87.870 C 320.900 89.022,315.004 89.972,314.398 89.982 C 313.719 89.993,313.040 86.441,312.633 80.750 C 312.268 75.662,311.699 70.488,311.369 69.251 C 310.873 67.397,311.357 66.753,314.120 65.592 C 316.309 64.671,318.061 64.497,319.170 65.091 C 320.104 65.591,322.614 66.000,324.747 66.000 C 327.676 66.000,329.268 65.326,331.249 63.250 C 339.063 55.059,335.323 48.170,324.537 50.886 C 322.104 51.499,318.964 52.000,317.557 52.000 C 315.169 52.000,315.000 51.683,315.000 47.188 C 315.000 43.088,315.407 42.082,317.750 40.385 C 320.328 38.518,328.602 34.000,329.443 34.000 C 329.653 34.000,330.128 35.798,330.499 37.995 C 330.870 40.192,331.653 42.286,332.239 42.648 C 333.751 43.582,336.000 40.122,336.000 36.861 C 336.000 35.020,337.662 32.107,341.000 28.096 C 346.694 21.253,347.529 17.184,343.777 14.557 C 340.872 12.522,340.877 12.521,331.142 16.618 M433.957 20.750 C 431.902 23.331,431.821 24.052,432.634 32.500 C 433.110 37.450,433.500 54.564,433.500 70.532 L 433.500 99.564 436.865 103.821 C 440.060 107.864,440.345 108.004,442.488 106.600 C 448.929 102.380,471.284 100.227,474.050 103.561 C 474.763 104.419,475.549 107.577,475.798 110.579 C 476.047 113.581,476.664 116.292,477.169 116.605 C 478.923 117.688,481.000 114.735,481.022 111.128 C 481.034 109.132,481.934 105.538,483.022 103.141 C 485.300 98.120,485.546 94.129,483.731 91.646 C 482.135 89.464,481.319 89.432,465.500 90.936 C 458.350 91.616,450.700 92.021,448.500 91.836 L 444.500 91.500 444.447 58.500 C 444.409 34.307,444.059 24.705,443.135 22.520 C 440.885 17.199,437.329 16.513,433.957 20.750 M497.022 20.477 C 494.769 22.875,494.724 23.263,495.598 32.727 C 496.094 38.102,496.500 55.338,496.500 71.030 L 496.500 99.559 499.865 103.819 C 503.037 107.833,503.358 107.995,505.443 106.629 C 509.782 103.786,518.301 102.000,527.521 102.000 C 536.364 102.000,536.719 102.088,537.839 104.547 C 538.478 105.948,539.000 109.071,539.000 111.488 C 539.000 113.905,539.470 116.172,540.044 116.527 C 541.909 117.680,543.999 114.843,544.022 111.128 C 544.034 109.132,544.934 105.538,546.022 103.141 C 548.450 97.791,548.547 93.689,546.299 91.442 C 544.888 90.031,543.386 89.843,537.509 90.340 C 516.266 92.135,508.474 92.277,507.359 90.886 C 506.581 89.917,506.496 86.491,507.075 79.500 C 509.051 55.635,507.456 21.727,504.240 19.250 C 501.790 17.362,499.598 17.734,497.022 20.477 M91.557 24.223 C 90.401 25.872,89.997 29.029,89.989 36.473 C 89.983 41.988,88.839 54.600,87.448 64.500 C 83.601 91.870,83.518 93.168,85.395 96.797 C 86.296 98.539,87.312 101.995,87.652 104.476 C 88.333 109.443,90.139 112.650,91.709 111.680 C 92.266 111.335,92.954 108.159,93.238 104.621 C 93.522 101.083,94.485 97.146,95.377 95.872 C 96.494 94.277,97.007 91.364,97.021 86.527 C 97.032 82.662,97.693 74.100,98.490 67.500 C 99.286 60.900,99.966 54.375,100.001 53.000 C 100.060 50.637,100.141 50.602,101.468 52.354 C 102.241 53.374,104.960 60.574,107.511 68.354 C 113.814 87.582,117.159 92.591,121.977 90.012 C 124.927 88.433,126.081 85.625,128.542 74.029 C 129.772 68.238,131.336 61.475,132.018 59.000 L 133.258 54.500 135.196 59.000 C 136.262 61.475,138.649 72.346,140.501 83.159 C 143.937 103.218,145.019 106.554,148.435 107.638 C 150.806 108.391,154.000 104.855,154.000 101.478 C 154.000 97.266,149.073 67.603,147.076 59.799 C 143.676 46.504,136.412 34.000,132.088 34.000 C 128.241 34.000,126.824 36.624,123.420 50.049 C 121.544 57.447,119.747 64.175,119.426 65.000 C 119.098 65.842,117.147 61.408,114.977 54.892 C 110.734 42.149,105.436 30.571,101.462 25.361 C 98.339 21.267,93.978 20.765,91.557 24.223 M214.500 25.000 C 212.903 26.774,212.537 28.457,212.684 33.359 C 212.929 41.558,215.917 68.577,217.081 73.124 C 217.592 75.117,218.405 81.677,218.890 87.703 C 219.374 93.729,220.272 99.524,220.885 100.580 C 221.498 101.636,222.451 103.770,223.002 105.323 C 224.444 109.378,227.406 108.557,227.806 103.992 C 227.974 102.071,228.874 99.914,229.806 99.198 C 231.237 98.098,231.468 96.232,231.292 87.198 C 231.177 81.314,230.806 74.967,230.467 73.094 C 229.854 69.704,229.889 69.723,238.175 77.360 C 247.306 85.775,256.166 95.690,261.585 103.558 C 265.067 108.614,265.086 108.702,266.117 124.568 C 267.354 143.589,268.280 148.000,271.039 148.000 C 272.935 148.000,273.000 147.170,273.000 123.135 C 273.000 99.784,273.122 98.115,275.000 95.727 C 279.265 90.305,278.270 88.468,262.166 72.036 L 247.331 56.900 250.052 54.963 C 254.925 51.493,257.277 42.511,254.936 36.315 C 251.920 28.331,243.812 24.544,227.477 23.489 C 216.952 22.809,216.418 22.871,214.500 25.000 M387.304 26.956 C 382.618 29.813,380.750 33.150,381.525 37.279 C 382.055 40.108,380.834 44.105,374.700 59.612 C 365.001 84.133,364.166 87.458,366.342 92.898 C 367.316 95.332,368.000 99.841,368.000 103.829 C 368.000 111.199,369.688 115.286,371.720 112.838 C 372.333 112.099,373.296 107.361,373.860 102.309 C 374.424 97.256,375.586 91.767,376.443 90.111 C 377.299 88.455,378.000 86.393,378.000 85.531 C 378.000 84.354,378.629 84.120,380.513 84.593 C 382.640 85.127,383.182 84.777,384.040 82.316 C 384.886 79.889,386.201 79.011,391.997 77.001 C 403.280 73.089,402.333 72.059,415.671 102.750 C 416.735 105.200,419.663 103.944,421.816 100.114 C 423.017 97.976,424.000 95.655,424.000 94.956 C 424.000 94.256,422.155 89.678,419.899 84.782 C 416.107 76.548,415.919 75.747,417.399 74.111 C 420.654 70.514,418.844 65.000,414.409 65.000 C 411.265 65.000,398.797 39.707,398.553 32.836 C 398.462 30.270,397.795 27.458,397.071 26.586 C 395.290 24.439,391.176 24.595,387.304 26.956 M11.626 31.517 C 10.733 32.410,9.741 34.184,9.421 35.461 C 8.692 38.362,11.350 52.790,14.471 62.874 C 15.769 67.068,17.811 76.575,19.010 84.000 C 20.525 93.391,21.845 98.487,23.344 100.743 C 24.530 102.527,25.819 103.989,26.210 103.993 C 26.600 103.997,28.062 102.767,29.460 101.260 C 32.616 97.856,32.622 96.264,29.544 78.201 C 28.204 70.337,26.600 58.412,25.980 51.701 C 24.526 35.981,22.268 30.648,16.874 30.197 C 14.530 30.001,12.675 30.468,11.626 31.517 M240.532 37.449 C 243.407 38.650,244.000 39.416,244.000 41.926 C 244.000 44.077,243.253 45.443,241.422 46.643 C 238.048 48.854,228.684 51.953,227.844 51.137 C 227.483 50.787,227.033 47.601,226.844 44.058 C 226.516 37.913,226.615 37.583,229.000 36.908 C 233.120 35.741,236.864 35.916,240.532 37.449 M309.662 52.250 C 309.385 52.938,309.158 52.375,309.158 51.000 C 309.158 49.625,309.385 49.063,309.662 49.750 C 309.940 50.438,309.940 51.563,309.662 52.250 M394.918 59.368 C 396.063 61.220,397.000 63.020,397.000 63.368 C 397.000 63.716,395.145 64.000,392.878 64.000 C 389.721 64.000,388.986 63.707,389.740 62.750 C 390.281 62.063,391.020 60.263,391.381 58.750 C 391.742 57.237,392.218 56.000,392.437 56.000 C 392.657 56.000,393.774 57.516,394.918 59.368 " stroke="none" fill="black" fill-rule="evenodd"/></svg>