<svg id="svg" version="1.1" width="2800" height="2800" xmlns="http://www.w3.org/2000/svg"><path d="M0.000 1400.000 L 0.000 2800.000 815.000 2800.000 L 1630.000 2800.000 1630.000 1400.000 L 1630.000 0.000 815.000 0.000 L 0.000 0.000 0.000 1400.000 M1730.000 675.000 L 1730.000 1350.000 2265.000 1350.000 L 2800.000 1350.000 2800.000 675.000 L 2800.000 0.000 2265.000 0.000 L 1730.000 0.000 1730.000 675.000 M1600.000 1400.000 L 1600.000 2770.000 815.000 2770.000 L 30.000 2770.000 30.000 1400.000 L 30.000 30.000 815.000 30.000 L 1600.000 30.000 1600.000 1400.000 M2770.000 675.000 L 2770.000 1320.000 2265.000 1320.000 L 1760.000 1320.000 1760.000 675.000 L 1760.000 30.000 2265.000 30.000 L 2770.000 30.000 2770.000 675.000 M1730.000 2125.000 L 1730.000 2800.000 2265.000 2800.000 L 2800.000 2800.000 2800.000 2125.000 L 2800.000 1450.000 2265.000 1450.000 L 1730.000 1450.000 1730.000 2125.000 M2770.000 2125.000 L 2770.000 2770.000 2265.000 2770.000 L 1760.000 2770.000 1760.000 2125.000 L 1760.000 1480.000 2265.000 1480.000 L 2770.000 1480.000 2770.000 2125.000 " stroke="none" fill="black" fill-rule="evenodd"/></svg>