<svg id="svg" version="1.1" width="1508" height="92" xmlns="http://www.w3.org/2000/svg"><path d="M411.000 46.000 L 411.000 92.000 413.500 92.000 L 416.000 92.000 416.000 46.000 L 416.000 0.000 413.500 0.000 L 411.000 0.000 411.000 46.000 M424.000 46.000 L 424.000 92.000 433.000 92.000 L 442.000 92.000 442.000 46.000 L 442.000 0.000 433.000 0.000 L 424.000 0.000 424.000 46.000 M447.000 46.000 L 447.000 92.000 451.500 92.000 L 456.000 92.000 456.000 46.000 L 456.000 0.000 451.500 0.000 L 447.000 0.000 447.000 46.000 M460.000 46.000 L 460.000 92.000 462.500 92.000 L 465.000 92.000 465.000 46.000 L 465.000 0.000 462.500 0.000 L 460.000 0.000 460.000 46.000 M483.000 46.000 L 483.000 92.000 489.500 92.000 L 496.000 92.000 496.000 46.000 L 496.000 0.000 489.500 0.000 L 483.000 0.000 483.000 46.000 M511.000 46.000 L 511.000 92.000 513.500 92.000 L 516.000 92.000 516.000 46.000 L 516.000 0.000 513.500 0.000 L 511.000 0.000 511.000 46.000 M521.000 46.000 C 521.000 76.000,521.348 92.000,522.000 92.000 C 522.652 92.000,523.000 76.000,523.000 46.000 C 523.000 16.000,522.652 0.000,522.000 0.000 C 521.348 0.000,521.000 16.000,521.000 46.000 M535.000 46.000 L 535.000 92.000 537.500 92.000 L 540.000 92.000 540.000 46.000 L 540.000 0.000 537.500 0.000 L 535.000 0.000 535.000 46.000 M544.000 46.000 L 544.000 92.000 555.500 92.000 L 567.000 92.000 567.000 46.000 L 567.000 0.000 555.500 0.000 L 544.000 0.000 544.000 46.000 M576.000 46.000 L 576.000 92.000 578.500 92.000 L 581.000 92.000 581.000 46.000 L 581.000 0.000 578.500 0.000 L 576.000 0.000 576.000 46.000 M593.000 46.000 C 593.000 76.000,593.348 92.000,594.000 92.000 C 594.652 92.000,595.000 76.000,595.000 46.000 C 595.000 16.000,594.652 0.000,594.000 0.000 C 593.348 0.000,593.000 16.000,593.000 46.000 M600.000 46.000 L 600.000 92.000 602.500 92.000 L 605.000 92.000 605.000 46.000 L 605.000 0.000 602.500 0.000 L 600.000 0.000 600.000 46.000 M620.000 46.000 L 620.000 92.000 626.500 92.000 L 633.000 92.000 633.000 46.000 L 633.000 0.000 626.500 0.000 L 620.000 0.000 620.000 46.000 M651.000 46.000 C 651.000 91.333,651.029 92.000,653.000 92.000 C 654.971 92.000,655.000 91.333,655.000 46.000 C 655.000 0.667,654.971 0.000,653.000 0.000 C 651.029 0.000,651.000 0.667,651.000 46.000 M660.000 46.000 L 660.000 92.000 664.500 92.000 L 669.000 92.000 669.000 46.000 L 669.000 0.000 664.500 0.000 L 660.000 0.000 660.000 46.000 M675.000 46.000 L 675.000 92.000 687.000 92.000 L 699.000 92.000 699.000 46.000 L 699.000 0.000 687.000 0.000 L 675.000 0.000 675.000 46.000 M717.000 46.000 C 717.000 91.333,717.029 92.000,719.000 92.000 C 720.971 92.000,721.000 91.333,721.000 46.000 C 721.000 0.667,720.971 0.000,719.000 0.000 C 717.029 0.000,717.000 0.667,717.000 46.000 M725.000 46.000 C 725.000 76.000,725.348 92.000,726.000 92.000 C 726.652 92.000,727.000 76.000,727.000 46.000 C 727.000 16.000,726.652 0.000,726.000 0.000 C 725.348 0.000,725.000 16.000,725.000 46.000 M732.000 46.000 L 732.000 92.000 734.500 92.000 L 737.000 92.000 737.000 46.000 L 737.000 0.000 734.500 0.000 L 732.000 0.000 732.000 46.000 M740.000 46.000 L 740.000 92.000 751.500 92.000 L 763.000 92.000 763.000 46.000 L 763.000 0.000 751.500 0.000 L 740.000 0.000 740.000 46.000 M774.000 46.000 C 774.000 76.000,774.348 92.000,775.000 92.000 C 775.652 92.000,776.000 76.000,776.000 46.000 C 776.000 16.000,775.652 0.000,775.000 0.000 C 774.348 0.000,774.000 16.000,774.000 46.000 M779.000 46.000 C 779.000 86.222,779.188 92.000,780.500 92.000 C 781.812 92.000,782.000 86.222,782.000 46.000 C 782.000 5.778,781.812 0.000,780.500 0.000 C 779.188 0.000,779.000 5.778,779.000 46.000 M791.000 46.000 L 791.000 92.000 793.500 92.000 L 796.000 92.000 796.000 46.000 L 796.000 0.000 793.500 0.000 L 791.000 0.000 791.000 46.000 M804.000 46.000 L 804.000 92.000 813.500 92.000 L 823.000 92.000 823.000 46.000 L 823.000 0.000 813.500 0.000 L 804.000 0.000 804.000 46.000 M845.000 46.000 L 845.000 92.000 850.000 92.000 L 855.000 92.000 855.000 46.000 L 855.000 0.000 850.000 0.000 L 845.000 0.000 845.000 46.000 M859.000 46.000 L 859.000 92.000 861.500 92.000 L 864.000 92.000 864.000 46.000 L 864.000 0.000 861.500 0.000 L 859.000 0.000 859.000 46.000 M870.000 46.000 L 870.000 92.000 875.000 92.000 L 880.000 92.000 880.000 46.000 L 880.000 0.000 875.000 0.000 L 870.000 0.000 870.000 46.000 M894.000 46.000 C 894.000 91.333,894.029 92.000,896.000 92.000 C 897.971 92.000,898.000 91.333,898.000 46.000 C 898.000 0.667,897.971 0.000,896.000 0.000 C 894.029 0.000,894.000 0.667,894.000 46.000 M908.000 46.000 C 908.000 76.000,908.348 92.000,909.000 92.000 C 909.652 92.000,910.000 76.000,910.000 46.000 C 910.000 16.000,909.652 0.000,909.000 0.000 C 908.348 0.000,908.000 16.000,908.000 46.000 M914.000 46.000 C 914.000 76.000,914.348 92.000,915.000 92.000 C 915.652 92.000,916.000 76.000,916.000 46.000 C 916.000 16.000,915.652 0.000,915.000 0.000 C 914.348 0.000,914.000 16.000,914.000 46.000 M927.000 46.000 L 927.000 92.000 938.000 92.000 L 949.000 92.000 949.000 46.000 L 949.000 0.000 938.000 0.000 L 927.000 0.000 927.000 46.000 M953.000 46.000 L 953.000 92.000 955.500 92.000 L 958.000 92.000 958.000 46.000 L 958.000 0.000 955.500 0.000 L 953.000 0.000 953.000 46.000 M963.000 46.000 C 963.000 76.000,963.348 92.000,964.000 92.000 C 964.652 92.000,965.000 76.000,965.000 46.000 C 965.000 16.000,964.652 0.000,964.000 0.000 C 963.348 0.000,963.000 16.000,963.000 46.000 M968.000 46.000 L 968.000 92.000 970.500 92.000 L 973.000 92.000 973.000 46.000 L 973.000 0.000 970.500 0.000 L 968.000 0.000 968.000 46.000 M1001.000 46.000 L 1001.000 92.000 1003.500 92.000 L 1006.000 92.000 1006.000 46.000 L 1006.000 0.000 1003.500 0.000 L 1001.000 0.000 1001.000 46.000 M1010.000 46.000 C 1010.000 86.222,1010.188 92.000,1011.500 92.000 C 1012.812 92.000,1013.000 86.222,1013.000 46.000 C 1013.000 5.778,1012.812 0.000,1011.500 0.000 C 1010.188 0.000,1010.000 5.778,1010.000 46.000 M1022.000 46.000 C 1022.000 86.222,1022.188 92.000,1023.500 92.000 C 1024.812 92.000,1025.000 86.222,1025.000 46.000 C 1025.000 5.778,1024.812 0.000,1023.500 0.000 C 1022.188 0.000,1022.000 5.778,1022.000 46.000 M1028.000 46.000 L 1028.000 92.000 1030.500 92.000 L 1033.000 92.000 1033.000 46.000 L 1033.000 0.000 1030.500 0.000 L 1028.000 0.000 1028.000 46.000 M1051.000 46.000 L 1051.000 92.000 1053.500 92.000 L 1056.000 92.000 1056.000 46.000 L 1056.000 0.000 1053.500 0.000 L 1051.000 0.000 1051.000 46.000 M1062.000 46.000 L 1062.000 92.000 1067.000 92.000 L 1072.000 92.000 1072.000 46.000 L 1072.000 0.000 1067.000 0.000 L 1062.000 0.000 1062.000 46.000 M1077.000 46.000 L 1077.000 92.000 1087.000 92.000 L 1097.000 92.000 1097.000 46.000 L 1097.000 0.000 1087.000 0.000 L 1077.000 0.000 1077.000 46.000 M1.000 45.500 L 1.000 81.000 28.000 81.000 L 55.000 81.000 55.000 67.203 L 55.000 53.406 50.995 49.495 L 46.991 45.585 50.995 41.505 L 55.000 37.424 55.000 23.712 L 55.000 10.000 28.000 10.000 L 1.000 10.000 1.000 45.500 M61.000 45.500 L 61.000 81.000 88.500 81.000 L 116.000 81.000 116.000 45.500 L 116.000 10.000 106.500 10.000 L 97.000 10.000 97.000 37.500 L 97.000 65.000 88.000 65.000 L 79.000 65.000 79.000 37.500 L 79.000 10.000 70.000 10.000 L 61.000 10.000 61.000 45.500 M157.000 37.500 L 157.000 65.000 148.000 65.000 L 139.000 65.000 139.000 59.000 L 139.000 53.000 130.000 53.000 L 121.000 53.000 121.000 67.000 L 121.000 81.000 148.000 81.000 L 175.000 81.000 175.000 45.500 L 175.000 10.000 166.000 10.000 L 157.000 10.000 157.000 37.500 M181.000 45.500 L 181.000 81.000 190.000 81.000 L 199.000 81.000 199.000 45.500 L 199.000 10.000 190.000 10.000 L 181.000 10.000 181.000 45.500 M205.000 45.500 L 205.000 81.000 214.000 81.000 L 223.000 81.000 223.000 67.000 L 223.000 53.000 232.000 53.000 L 241.000 53.000 241.000 67.000 L 241.000 81.000 250.000 81.000 L 259.000 81.000 259.000 45.500 L 259.000 10.000 250.000 10.000 L 241.000 10.000 241.000 23.500 L 241.000 37.000 232.000 37.000 L 223.000 37.000 223.000 23.500 L 223.000 10.000 214.000 10.000 L 205.000 10.000 205.000 45.500 M1249.000 45.500 L 1249.000 81.000 1276.000 81.000 L 1303.000 81.000 1303.000 67.203 L 1303.000 53.406 1298.995 49.495 L 1294.991 45.585 1298.995 41.505 L 1303.000 37.424 1303.000 23.712 L 1303.000 10.000 1276.000 10.000 L 1249.000 10.000 1249.000 45.500 M1309.000 45.500 L 1309.000 81.000 1336.500 81.000 L 1364.000 81.000 1364.000 45.500 L 1364.000 10.000 1354.500 10.000 L 1345.000 10.000 1345.000 37.500 L 1345.000 65.000 1336.000 65.000 L 1327.000 65.000 1327.000 37.500 L 1327.000 10.000 1318.000 10.000 L 1309.000 10.000 1309.000 45.500 M1405.000 37.500 L 1405.000 65.000 1396.000 65.000 L 1387.000 65.000 1387.000 59.000 L 1387.000 53.000 1378.000 53.000 L 1369.000 53.000 1369.000 67.000 L 1369.000 81.000 1396.000 81.000 L 1423.000 81.000 1423.000 45.500 L 1423.000 10.000 1414.000 10.000 L 1405.000 10.000 1405.000 37.500 M1429.000 45.500 L 1429.000 81.000 1438.000 81.000 L 1447.000 81.000 1447.000 45.500 L 1447.000 10.000 1438.000 10.000 L 1429.000 10.000 1429.000 45.500 M1453.000 45.500 L 1453.000 81.000 1462.000 81.000 L 1471.000 81.000 1471.000 67.000 L 1471.000 53.000 1480.000 53.000 L 1489.000 53.000 1489.000 67.000 L 1489.000 81.000 1498.000 81.000 L 1507.000 81.000 1507.000 45.500 L 1507.000 10.000 1498.000 10.000 L 1489.000 10.000 1489.000 23.500 L 1489.000 37.000 1480.000 37.000 L 1471.000 37.000 1471.000 23.500 L 1471.000 10.000 1462.000 10.000 L 1453.000 10.000 1453.000 45.500 M37.000 31.500 L 37.000 37.000 28.000 37.000 L 19.000 37.000 19.000 31.500 L 19.000 26.000 28.000 26.000 L 37.000 26.000 37.000 31.500 M1285.000 31.500 L 1285.000 37.000 1276.000 37.000 L 1267.000 37.000 1267.000 31.500 L 1267.000 26.000 1276.000 26.000 L 1285.000 26.000 1285.000 31.500 M37.000 59.000 L 37.000 65.000 28.000 65.000 L 19.000 65.000 19.000 59.000 L 19.000 53.000 28.000 53.000 L 37.000 53.000 37.000 59.000 M1285.000 59.000 L 1285.000 65.000 1276.000 65.000 L 1267.000 65.000 1267.000 59.000 L 1267.000 53.000 1276.000 53.000 L 1285.000 53.000 1285.000 59.000 " stroke="none" fill="black" fill-rule="evenodd"/></svg>