<svg id="svg" version="1.1" width="1704" height="604" xmlns="http://www.w3.org/2000/svg"><path d="M313.399 4.456 C 270.447 11.129,246.601 36.905,243.050 80.500 C 240.199 115.485,249.762 143.778,270.141 160.658 C 301.011 186.228,367.161 186.493,398.590 161.174 C 410.877 151.275,419.874 136.630,424.192 119.500 C 426.155 111.713,426.461 107.939,426.461 91.500 C 426.461 75.114,426.151 71.262,424.207 63.500 C 415.663 29.390,391.220 8.976,353.000 4.032 C 342.818 2.715,323.260 2.924,313.399 4.456 M56.000 91.500 L 56.000 177.000 116.750 176.983 C 165.032 176.969,178.859 176.677,184.122 175.562 C 198.795 172.452,211.303 162.915,217.291 150.274 C 220.348 143.820,220.500 142.933,220.500 131.500 C 220.500 118.152,219.574 114.032,214.778 106.035 C 210.788 99.382,203.612 93.770,195.250 90.765 C 191.813 89.529,189.000 88.282,189.000 87.994 C 189.000 87.705,191.168 86.700,193.817 85.759 C 209.428 80.214,217.683 66.160,216.827 46.585 C 216.479 38.639,215.959 36.359,213.227 30.809 C 207.463 19.102,194.609 9.581,181.109 7.021 C 177.824 6.398,152.400 6.000,115.864 6.000 L 56.000 6.000 56.000 91.500 M441.000 6.511 C 441.000 6.793,456.075 30.278,474.500 58.701 L 508.000 110.379 508.000 143.689 L 508.000 177.000 535.500 177.000 L 563.000 177.000 563.000 143.859 L 563.000 110.718 591.194 66.609 C 606.701 42.349,621.783 18.781,624.710 14.235 L 630.031 5.971 599.898 6.235 L 569.765 6.500 553.970 33.863 C 545.283 48.912,537.762 61.638,537.257 62.143 C 536.700 62.700,529.888 51.852,519.920 34.533 L 503.500 6.005 472.250 6.002 C 455.063 6.001,441.000 6.230,441.000 6.511 M650.000 91.500 L 650.000 177.000 677.500 177.000 L 705.000 177.000 705.000 146.500 L 705.000 116.000 741.000 116.000 L 777.000 116.000 777.000 96.000 L 777.000 76.000 741.000 76.000 L 705.000 76.000 705.000 61.500 L 705.000 47.000 747.000 47.000 L 789.000 47.000 789.000 26.500 L 789.000 6.000 719.500 6.000 L 650.000 6.000 650.000 91.500 M816.000 91.500 L 816.000 177.000 843.500 177.000 L 871.000 177.000 871.000 146.000 L 871.000 115.000 881.334 115.000 L 891.667 115.000 906.792 146.000 L 921.917 177.000 952.459 177.000 C 969.256 177.000,983.000 176.772,983.000 176.494 C 983.000 176.216,974.623 160.218,964.385 140.943 C 954.146 121.668,945.934 105.763,946.135 105.598 C 946.336 105.434,949.258 103.848,952.629 102.075 C 969.114 93.402,978.325 77.366,978.202 57.550 C 978.073 36.917,968.471 21.273,950.500 12.422 C 937.892 6.212,935.766 6.037,872.750 6.017 L 816.000 6.000 816.000 91.500 M1012.000 91.500 L 1012.000 177.000 1039.500 177.000 L 1067.000 177.000 1067.000 91.500 L 1067.000 6.000 1039.500 6.000 L 1012.000 6.000 1012.000 91.500 M1106.000 91.500 L 1106.000 177.000 1181.000 177.000 L 1256.000 177.000 1256.000 156.500 L 1256.000 136.000 1208.500 136.000 L 1161.000 136.000 1161.000 123.000 L 1161.000 110.000 1201.000 110.000 L 1241.000 110.000 1241.000 90.511 L 1241.000 71.023 1201.250 70.761 L 1161.500 70.500 1161.218 58.750 L 1160.937 47.000 1207.468 47.000 L 1254.000 47.000 1254.000 26.500 L 1254.000 6.000 1180.000 6.000 L 1106.000 6.000 1106.000 91.500 M1286.000 91.482 L 1286.000 177.000 1311.000 177.000 L 1336.000 177.000 1336.000 135.917 C 1336.000 111.581,1336.372 94.969,1336.912 95.167 C 1337.414 95.350,1353.674 113.838,1373.044 136.250 L 1408.264 177.000 1432.132 177.000 L 1456.000 177.000 1456.000 91.500 L 1456.000 6.000 1431.011 6.000 L 1406.022 6.000 1405.761 47.934 L 1405.500 89.869 1369.966 48.184 L 1334.433 6.500 1310.216 6.232 L 1286.000 5.964 1286.000 91.482 M1493.000 91.500 L 1493.000 177.000 1534.750 176.997 C 1588.551 176.994,1599.891 175.629,1617.446 167.042 C 1632.888 159.490,1643.296 148.457,1649.853 132.691 C 1655.089 120.101,1656.513 110.805,1656.395 90.000 C 1656.301 73.494,1656.011 70.452,1653.709 61.776 C 1645.359 30.310,1624.552 12.843,1589.000 7.452 C 1581.848 6.368,1568.811 6.010,1536.250 6.006 L 1493.000 6.000 1493.000 91.500 M155.283 45.264 C 159.715 48.172,161.467 51.779,161.467 58.000 C 161.467 64.222,159.715 67.829,155.283 70.736 C 152.934 72.277,149.994 72.500,132.047 72.500 L 111.500 72.500 111.223 57.677 L 110.946 42.855 131.770 43.177 C 149.627 43.454,152.978 43.751,155.283 45.264 M351.174 47.222 C 360.752 51.607,366.429 58.872,369.505 70.680 C 371.585 78.666,371.550 104.468,369.448 112.540 C 365.277 128.557,354.759 137.391,338.360 138.648 C 319.508 140.094,306.081 131.715,301.027 115.353 C 299.322 109.832,299.000 106.041,299.000 91.500 C 299.000 76.959,299.322 73.168,301.027 67.647 C 304.465 56.517,312.514 48.233,322.672 45.369 C 330.324 43.212,344.416 44.128,351.174 47.222 M915.010 47.250 C 920.402 50.920,922.266 54.202,922.347 60.172 C 922.435 66.584,920.052 71.171,915.000 74.319 C 911.707 76.371,910.317 76.500,891.500 76.500 L 871.500 76.500 871.225 60.750 L 870.949 45.000 891.327 45.000 C 910.813 45.000,911.849 45.098,915.010 47.250 M1583.000 50.130 C 1596.494 56.442,1600.949 66.583,1600.983 91.066 C 1601.010 110.899,1598.351 120.503,1590.839 127.699 C 1584.468 133.802,1579.227 135.315,1562.750 135.807 L 1548.000 136.248 1548.000 91.515 L 1548.000 46.782 1562.750 47.170 C 1576.044 47.519,1578.043 47.811,1583.000 50.130 M159.033 109.517 C 162.993 111.565,165.376 116.442,165.376 122.500 C 165.376 125.281,164.620 128.935,163.671 130.733 C 160.584 136.587,158.597 137.000,133.550 137.000 L 111.000 137.000 111.000 122.500 L 111.000 108.000 133.550 108.000 C 151.750 108.000,156.665 108.293,159.033 109.517 M323.000 198.529 C 322.175 198.692,317.450 199.370,312.500 200.035 C 302.184 201.422,288.136 205.801,279.716 210.255 C 272.288 214.185,261.777 223.023,255.989 230.208 C 249.727 237.981,244.508 248.987,241.295 261.197 C 238.786 270.732,238.582 272.990,238.562 291.500 C 238.542 310.184,238.722 312.183,241.295 321.890 C 245.390 337.332,251.618 348.663,261.470 358.595 C 273.665 370.890,287.153 377.840,307.206 382.163 C 321.532 385.252,346.715 385.200,361.923 382.050 C 385.988 377.066,403.332 366.583,415.944 349.399 C 431.748 327.866,436.564 286.525,426.824 256.000 C 416.613 223.997,391.328 204.480,353.687 199.545 C 343.343 198.189,327.388 197.661,323.000 198.529 M51.757 202.250 C 51.125 203.979,51.034 378.068,51.664 380.309 C 52.149 382.034,55.174 382.103,117.336 381.808 L 182.500 381.498 190.328 378.730 C 216.817 369.363,229.557 347.744,224.889 320.082 C 222.745 307.375,215.448 296.277,205.343 290.355 L 201.031 287.828 205.725 284.593 C 217.965 276.158,224.557 256.243,220.884 238.799 C 217.111 220.882,202.393 207.073,182.303 202.602 C 176.130 201.228,166.353 201.000,113.660 201.000 C 65.413 201.000,52.116 201.269,51.757 202.250 M432.163 201.821 C 432.348 202.285,448.250 226.928,467.500 256.583 L 502.500 310.500 503.000 346.000 L 503.500 381.500 535.750 381.764 L 568.000 382.028 568.000 346.740 L 568.000 311.451 603.000 256.756 C 622.250 226.674,638.000 201.822,638.000 201.531 C 638.000 201.239,622.138 201.002,602.750 201.004 L 567.500 201.008 553.102 226.015 C 545.184 239.769,538.209 251.689,537.602 252.506 C 536.719 253.695,533.496 248.780,521.366 227.745 L 506.232 201.500 469.029 201.238 C 448.567 201.093,431.977 201.356,432.163 201.821 M646.000 291.500 L 646.000 382.000 678.000 382.000 L 710.000 382.000 710.000 351.000 L 710.000 320.000 746.000 320.000 L 782.000 320.000 782.000 296.013 L 782.000 272.025 746.250 271.763 L 710.500 271.500 710.500 261.500 L 710.500 251.500 751.750 251.239 L 793.000 250.978 793.000 225.989 L 793.000 201.000 719.500 201.000 L 646.000 201.000 646.000 291.500 M811.757 201.682 C 811.512 202.132,811.354 242.775,811.406 292.000 L 811.500 381.500 843.750 381.764 L 876.000 382.028 876.000 350.514 L 876.000 319.000 882.307 319.000 L 888.615 319.000 903.706 350.250 L 918.797 381.500 954.898 381.762 C 974.754 381.907,991.000 381.843,991.000 381.621 C 991.000 381.400,982.199 364.640,971.442 344.378 C 960.685 324.116,952.336 307.388,952.888 307.204 C 953.440 307.020,956.519 305.171,959.731 303.096 C 974.125 293.792,982.961 276.835,982.988 258.460 C 983.027 231.913,967.239 211.142,941.500 203.878 C 933.672 201.668,932.193 201.612,872.851 201.241 C 839.495 201.033,812.002 201.231,811.757 201.682 M1007.461 202.250 C 1007.198 202.938,1007.100 243.550,1007.242 292.500 L 1007.500 381.500 1039.750 381.764 L 1072.000 382.028 1072.000 291.514 L 1072.000 201.000 1039.969 201.000 C 1015.264 201.000,1007.828 201.286,1007.461 202.250 M1102.000 291.500 L 1102.000 382.000 1181.500 382.000 L 1261.000 382.000 1261.000 356.500 L 1261.000 331.000 1213.460 331.000 L 1165.919 331.000 1166.210 322.750 L 1166.500 314.500 1206.250 314.239 L 1246.000 313.977 1246.000 289.989 L 1246.000 266.000 1205.956 266.000 L 1165.912 266.000 1166.206 258.750 L 1166.500 251.500 1212.750 251.240 L 1259.000 250.980 1259.000 225.990 L 1259.000 201.000 1180.500 201.000 L 1102.000 201.000 1102.000 291.500 M1281.000 291.500 L 1281.000 382.000 1310.988 382.000 L 1340.976 382.000 1341.238 344.450 L 1341.500 306.900 1373.971 344.450 L 1406.441 382.000 1433.721 382.000 L 1461.000 382.000 1461.000 291.500 L 1461.000 201.000 1431.012 201.000 L 1401.024 201.000 1400.762 238.976 L 1400.500 276.952 1368.176 238.976 L 1335.852 201.000 1308.426 201.000 L 1281.000 201.000 1281.000 291.500 M1488.703 202.333 C 1487.820 204.632,1488.018 379.429,1488.905 380.855 C 1490.214 382.960,1581.116 381.846,1593.000 379.579 C 1631.178 372.297,1653.053 351.289,1659.399 315.812 C 1664.090 289.583,1661.293 262.408,1651.955 243.500 C 1640.057 219.409,1620.073 206.922,1586.334 202.499 C 1570.570 200.433,1489.485 200.294,1488.703 202.333 M365.187 210.933 C 369.759 212.088,377.775 215.112,383.000 217.654 C 391.017 221.553,393.827 223.620,401.000 230.887 C 410.676 240.692,415.660 249.455,419.030 262.593 C 423.261 279.089,423.289 303.853,419.093 320.175 C 415.684 333.437,410.605 342.387,401.000 352.059 C 388.649 364.496,377.057 370.028,355.947 373.558 C 341.133 376.035,317.123 375.169,303.790 371.678 C 273.313 363.697,254.986 344.277,248.887 313.500 C 246.953 303.742,247.200 276.707,249.307 267.385 C 256.230 236.762,274.506 218.139,304.791 210.846 C 321.447 206.835,349.118 206.875,365.187 210.933 M185.155 212.807 C 192.951 215.401,202.374 222.008,206.209 227.571 C 210.702 234.088,212.269 239.660,212.234 249.000 C 212.195 259.436,209.469 267.451,203.905 273.487 C 200.202 277.504,192.267 282.142,186.709 283.537 C 184.294 284.143,184.000 284.679,184.000 288.481 C 184.000 292.630,184.100 292.761,187.750 293.367 C 189.813 293.709,193.813 295.073,196.640 296.397 C 207.807 301.630,213.995 310.542,215.882 324.109 C 219.039 346.801,207.834 363.629,185.068 370.388 C 180.339 371.792,171.972 372.000,120.318 372.000 L 61.000 372.000 61.000 290.929 L 61.000 209.858 119.750 210.226 C 177.221 210.585,178.645 210.641,185.155 212.807 M501.761 212.750 C 502.805 214.262,510.332 227.110,518.487 241.301 L 533.316 267.102 536.907 266.801 C 540.493 266.500,540.519 266.463,556.639 238.500 L 572.781 210.500 597.004 210.232 C 616.244 210.019,621.126 210.225,620.735 211.232 C 620.464 211.929,606.238 234.427,589.121 261.226 L 558.000 309.953 558.000 340.976 L 558.000 372.000 535.500 372.000 L 513.000 372.000 512.992 340.750 L 512.985 309.500 481.094 260.315 C 463.554 233.264,449.457 210.876,449.768 210.565 C 450.079 210.254,461.478 210.000,475.099 210.000 L 499.864 210.000 501.761 212.750 M784.000 226.000 L 784.000 242.000 742.500 242.000 L 701.000 242.000 701.000 261.500 L 701.000 281.000 736.500 281.000 L 772.000 281.000 772.000 296.000 L 772.000 311.000 736.500 311.000 L 701.000 311.000 701.000 341.500 L 701.000 372.000 678.000 372.000 L 655.000 372.000 655.000 291.667 C 655.000 247.483,655.300 211.033,655.667 210.667 C 656.033 210.300,685.058 210.000,720.167 210.000 L 784.000 210.000 784.000 226.000 M926.824 211.030 C 943.198 212.710,952.887 216.895,961.349 225.942 C 978.016 243.760,977.750 273.415,960.772 290.343 C 955.836 295.264,951.990 297.614,942.670 301.406 L 938.840 302.965 942.801 310.232 C 951.059 325.384,975.000 370.888,975.000 371.432 C 975.000 371.744,963.638 371.999,949.750 371.999 L 924.500 371.997 909.512 340.999 L 894.524 310.000 880.262 310.000 L 866.000 310.000 866.000 341.000 L 866.000 372.000 843.500 372.000 L 821.000 372.000 821.000 291.000 L 821.000 210.000 868.894 210.000 C 895.236 210.000,921.304 210.463,926.824 211.030 M1062.000 291.000 L 1062.000 372.000 1039.500 372.000 L 1017.000 372.000 1017.000 291.000 L 1017.000 210.000 1039.500 210.000 L 1062.000 210.000 1062.000 291.000 M1249.775 226.250 L 1250.051 242.000 1203.525 242.000 L 1157.000 242.000 1157.000 258.500 L 1157.000 275.000 1196.500 275.000 L 1236.000 275.000 1236.000 290.000 L 1236.000 305.000 1196.500 305.000 L 1157.000 305.000 1157.000 322.500 L 1157.000 340.000 1204.000 340.000 L 1251.000 340.000 1251.000 356.000 L 1251.000 372.000 1181.000 372.000 L 1111.000 372.000 1111.000 291.667 C 1111.000 247.483,1111.303 211.030,1111.674 210.660 C 1112.044 210.289,1143.206 210.102,1180.924 210.243 L 1249.500 210.500 1249.775 226.250 M1333.878 213.250 C 1335.488 215.037,1353.269 235.775,1373.392 259.333 L 1409.980 302.166 1410.240 256.333 L 1410.500 210.500 1431.000 210.500 L 1451.500 210.500 1451.756 291.250 L 1452.012 372.000 1431.051 372.000 L 1410.090 372.000 1371.295 327.212 L 1332.500 282.423 1332.240 327.212 L 1331.980 372.000 1311.490 372.000 L 1291.000 372.000 1291.000 291.000 L 1291.000 210.000 1310.976 210.000 L 1330.951 210.000 1333.878 213.250 M1576.500 210.989 C 1593.676 212.165,1603.702 214.603,1615.740 220.529 C 1628.805 226.960,1637.213 235.369,1643.323 248.115 C 1650.507 263.101,1651.479 268.265,1651.490 291.500 C 1651.499 309.292,1651.245 312.438,1649.190 320.000 C 1642.566 344.378,1628.314 359.593,1605.315 366.840 C 1599.917 368.541,1591.980 370.398,1587.678 370.966 C 1583.375 371.535,1561.438 372.000,1538.928 372.000 L 1498.000 372.000 1498.000 291.000 L 1498.000 210.000 1530.250 210.015 C 1547.987 210.023,1568.800 210.461,1576.500 210.989 M106.000 258.000 L 106.000 277.000 129.599 277.000 C 156.400 277.000,158.256 276.592,162.814 269.704 C 166.759 263.744,167.169 253.671,163.709 247.767 C 162.263 245.299,159.505 242.528,157.212 241.239 C 153.398 239.096,152.216 239.000,129.614 239.000 L 106.000 239.000 106.000 258.000 M325.780 240.030 C 310.249 242.647,299.008 254.029,295.471 270.720 C 293.757 278.809,293.531 302.065,295.084 310.566 C 297.471 323.638,306.007 335.343,316.783 340.321 C 320.865 342.207,323.253 342.500,334.521 342.500 C 347.225 342.500,347.705 342.420,354.229 339.208 C 370.551 331.173,377.209 314.301,375.622 285.000 C 374.678 267.581,371.762 259.037,363.820 250.421 C 355.585 241.486,340.918 237.480,325.780 240.030 M866.667 240.667 C 866.300 241.033,866.000 250.258,866.000 261.167 L 866.000 281.000 889.040 281.000 C 909.934 281.000,912.437 280.818,915.914 279.044 C 930.856 271.421,930.719 249.433,915.686 242.434 C 910.710 240.117,909.626 240.019,888.917 240.010 C 877.046 240.004,867.033 240.300,866.667 240.667 M1543.667 242.667 C 1543.300 243.033,1543.000 265.125,1543.000 291.760 L 1543.000 340.187 1561.750 339.814 C 1578.823 339.473,1580.972 339.229,1585.779 337.084 C 1592.494 334.088,1599.213 326.702,1602.047 319.202 C 1606.622 307.097,1606.803 277.524,1602.385 264.118 C 1600.058 257.057,1592.730 248.990,1586.021 246.105 C 1583.261 244.917,1577.739 243.522,1573.751 243.004 C 1565.370 241.915,1544.650 241.683,1543.667 242.667 M154.411 251.077 C 158.614 256.071,157.507 264.537,152.343 266.890 C 150.863 267.564,143.248 268.000,132.953 268.000 L 116.000 268.000 116.000 258.000 L 116.000 248.000 133.911 248.000 L 151.822 248.000 154.411 251.077 M348.438 251.063 C 355.567 253.730,361.056 259.983,363.916 268.693 C 365.683 274.077,366.000 277.520,366.000 291.339 C 366.000 309.701,364.978 314.815,359.741 322.651 C 354.888 329.912,347.982 333.283,336.860 333.818 C 322.427 334.513,312.934 329.723,307.502 319.004 C 301.709 307.572,301.545 275.874,307.220 264.500 C 310.759 257.407,316.868 252.102,323.994 249.934 C 329.346 248.306,342.721 248.924,348.438 251.063 M912.634 250.938 C 915.581 252.869,918.001 257.254,917.996 260.654 C 917.991 264.464,914.602 269.821,911.434 271.025 C 910.024 271.561,901.474 272.000,892.435 272.000 L 876.000 272.000 876.000 260.401 L 876.000 248.802 893.250 249.171 C 905.824 249.440,911.078 249.919,912.634 250.938 M1578.150 253.440 C 1585.090 255.831,1589.769 259.829,1592.704 265.877 C 1595.281 271.187,1595.454 272.441,1595.820 288.414 C 1596.298 309.247,1594.907 315.975,1588.741 322.665 C 1583.003 328.890,1576.604 331.000,1563.462 331.000 L 1553.000 331.000 1553.000 290.853 L 1553.000 250.705 1563.595 251.390 C 1569.423 251.767,1575.972 252.689,1578.150 253.440 M106.468 304.222 C 106.184 304.962,106.075 313.652,106.226 323.534 L 106.500 341.500 129.000 341.798 C 156.289 342.159,158.972 341.842,163.691 337.698 C 168.308 333.645,170.000 329.507,169.998 322.282 C 169.997 315.255,167.896 310.759,162.659 306.571 L 158.819 303.500 132.902 303.188 C 111.896 302.936,106.887 303.132,106.468 304.222 M158.698 315.433 C 160.850 317.937,161.150 319.084,160.748 323.267 C 160.438 326.494,159.539 328.907,158.113 330.333 C 156.062 332.387,154.902 332.517,135.974 332.825 L 116.000 333.150 116.000 322.500 L 116.000 311.850 136.088 312.175 L 156.177 312.500 158.698 315.433 M323.000 405.529 C 322.175 405.692,317.450 406.370,312.500 407.035 C 302.184 408.422,288.136 412.801,279.716 417.255 C 272.288 421.185,261.777 430.023,255.989 437.208 C 249.727 444.981,244.508 455.987,241.295 468.197 C 238.786 477.732,238.582 479.990,238.562 498.500 C 238.542 517.184,238.722 519.183,241.295 528.890 C 245.390 544.332,251.618 555.663,261.470 565.595 C 273.665 577.890,287.153 584.840,307.206 589.163 C 321.532 592.252,346.715 592.200,361.923 589.050 C 385.988 584.066,403.332 573.583,415.944 556.399 C 431.748 534.866,436.564 493.525,426.824 463.000 C 416.613 430.997,391.328 411.480,353.687 406.545 C 343.343 405.189,327.388 404.661,323.000 405.529 M51.757 409.250 C 51.125 410.979,51.034 585.068,51.664 587.309 C 52.149 589.034,55.174 589.103,117.336 588.808 L 182.500 588.498 190.328 585.730 C 216.817 576.363,229.557 554.744,224.889 527.082 C 222.745 514.375,215.448 503.277,205.343 497.355 L 201.031 494.828 205.725 491.593 C 217.965 483.158,224.557 463.243,220.884 445.799 C 217.111 427.882,202.393 414.073,182.303 409.602 C 176.130 408.228,166.353 408.000,113.660 408.000 C 65.413 408.000,52.116 408.269,51.757 409.250 M432.163 408.821 C 432.348 409.285,448.250 433.928,467.500 463.583 L 502.500 517.500 503.000 553.000 L 503.500 588.500 535.750 588.764 L 568.000 589.028 568.000 553.740 L 568.000 518.451 603.000 463.756 C 622.250 433.674,638.000 408.822,638.000 408.531 C 638.000 408.239,622.138 408.002,602.750 408.004 L 567.500 408.008 553.102 433.015 C 545.184 446.769,538.209 458.689,537.602 459.506 C 536.719 460.695,533.496 455.780,521.366 434.745 L 506.232 408.500 469.029 408.238 C 448.567 408.093,431.977 408.356,432.163 408.821 M646.000 498.500 L 646.000 589.000 678.000 589.000 L 710.000 589.000 710.000 558.000 L 710.000 527.000 746.000 527.000 L 782.000 527.000 782.000 503.013 L 782.000 479.025 746.250 478.763 L 710.500 478.500 710.500 468.500 L 710.500 458.500 751.750 458.239 L 793.000 457.978 793.000 432.989 L 793.000 408.000 719.500 408.000 L 646.000 408.000 646.000 498.500 M811.757 408.682 C 811.512 409.132,811.354 449.775,811.406 499.000 L 811.500 588.500 843.750 588.764 L 876.000 589.028 876.000 557.514 L 876.000 526.000 882.307 526.000 L 888.615 526.000 903.706 557.250 L 918.797 588.500 954.898 588.762 C 974.754 588.907,991.000 588.843,991.000 588.621 C 991.000 588.400,982.199 571.640,971.442 551.378 C 960.685 531.116,952.336 514.388,952.888 514.204 C 953.440 514.020,956.519 512.171,959.731 510.096 C 974.125 500.792,982.961 483.835,982.988 465.460 C 983.027 438.913,967.239 418.142,941.500 410.878 C 933.672 408.668,932.193 408.612,872.851 408.241 C 839.495 408.033,812.002 408.231,811.757 408.682 M1007.461 409.250 C 1007.198 409.938,1007.100 450.550,1007.242 499.500 L 1007.500 588.500 1039.750 588.764 L 1072.000 589.028 1072.000 498.514 L 1072.000 408.000 1039.969 408.000 C 1015.264 408.000,1007.828 408.286,1007.461 409.250 M1102.000 498.500 L 1102.000 589.000 1181.500 589.000 L 1261.000 589.000 1261.000 563.500 L 1261.000 538.000 1213.460 538.000 L 1165.919 538.000 1166.210 529.750 L 1166.500 521.500 1206.250 521.239 L 1246.000 520.977 1246.000 496.989 L 1246.000 473.000 1205.956 473.000 L 1165.912 473.000 1166.206 465.750 L 1166.500 458.500 1212.750 458.240 L 1259.000 457.980 1259.000 432.990 L 1259.000 408.000 1180.500 408.000 L 1102.000 408.000 1102.000 498.500 M1281.000 498.500 L 1281.000 589.000 1310.988 589.000 L 1340.976 589.000 1341.238 551.450 L 1341.500 513.900 1373.971 551.450 L 1406.441 589.000 1433.721 589.000 L 1461.000 589.000 1461.000 498.500 L 1461.000 408.000 1431.012 408.000 L 1401.024 408.000 1400.762 445.976 L 1400.500 483.952 1368.176 445.976 L 1335.852 408.000 1308.426 408.000 L 1281.000 408.000 1281.000 498.500 M1488.703 409.333 C 1487.820 411.632,1488.018 586.429,1488.905 587.855 C 1490.214 589.960,1581.116 588.846,1593.000 586.579 C 1631.178 579.297,1653.053 558.289,1659.399 522.812 C 1664.090 496.583,1661.293 469.408,1651.955 450.500 C 1640.057 426.409,1620.073 413.922,1586.334 409.499 C 1570.570 407.433,1489.485 407.294,1488.703 409.333 M365.187 417.933 C 369.759 419.088,377.775 422.112,383.000 424.654 C 391.017 428.553,393.827 430.620,401.000 437.887 C 410.676 447.692,415.660 456.455,419.030 469.593 C 423.261 486.089,423.289 510.853,419.093 527.175 C 415.684 540.437,410.605 549.387,401.000 559.059 C 388.649 571.496,377.057 577.028,355.947 580.558 C 341.133 583.035,317.123 582.169,303.790 578.678 C 273.313 570.697,254.986 551.277,248.887 520.500 C 246.953 510.742,247.200 483.707,249.307 474.385 C 256.230 443.762,274.506 425.139,304.791 417.846 C 321.447 413.835,349.118 413.875,365.187 417.933 M185.155 419.807 C 192.951 422.401,202.374 429.008,206.209 434.571 C 210.702 441.088,212.269 446.660,212.234 456.000 C 212.195 466.436,209.469 474.451,203.905 480.487 C 200.202 484.504,192.267 489.142,186.709 490.537 C 184.294 491.143,184.000 491.679,184.000 495.481 C 184.000 499.630,184.100 499.761,187.750 500.367 C 189.813 500.709,193.813 502.073,196.640 503.397 C 207.807 508.630,213.995 517.542,215.882 531.109 C 219.039 553.801,207.834 570.629,185.068 577.388 C 180.339 578.792,171.972 579.000,120.318 579.000 L 61.000 579.000 61.000 497.929 L 61.000 416.858 119.750 417.226 C 177.221 417.585,178.645 417.641,185.155 419.807 M501.761 419.750 C 502.805 421.262,510.332 434.110,518.487 448.301 L 533.316 474.102 536.907 473.801 C 540.493 473.500,540.519 473.463,556.639 445.500 L 572.781 417.500 597.004 417.232 C 616.244 417.019,621.126 417.225,620.735 418.232 C 620.464 418.929,606.238 441.427,589.121 468.226 L 558.000 516.953 558.000 547.976 L 558.000 579.000 535.500 579.000 L 513.000 579.000 512.992 547.750 L 512.985 516.500 481.094 467.315 C 463.554 440.264,449.457 417.876,449.768 417.565 C 450.079 417.254,461.478 417.000,475.099 417.000 L 499.864 417.000 501.761 419.750 M784.000 433.000 L 784.000 449.000 742.500 449.000 L 701.000 449.000 701.000 468.500 L 701.000 488.000 736.500 488.000 L 772.000 488.000 772.000 503.000 L 772.000 518.000 736.500 518.000 L 701.000 518.000 701.000 548.500 L 701.000 579.000 678.000 579.000 L 655.000 579.000 655.000 498.667 C 655.000 454.483,655.300 418.033,655.667 417.667 C 656.033 417.300,685.058 417.000,720.167 417.000 L 784.000 417.000 784.000 433.000 M926.824 418.030 C 943.198 419.710,952.887 423.895,961.349 432.942 C 978.016 450.760,977.750 480.415,960.772 497.343 C 955.836 502.264,951.990 504.614,942.670 508.406 L 938.840 509.965 942.801 517.232 C 951.059 532.384,975.000 577.888,975.000 578.432 C 975.000 578.744,963.638 578.999,949.750 578.999 L 924.500 578.997 909.512 547.999 L 894.524 517.000 880.262 517.000 L 866.000 517.000 866.000 548.000 L 866.000 579.000 843.500 579.000 L 821.000 579.000 821.000 498.000 L 821.000 417.000 868.894 417.000 C 895.236 417.000,921.304 417.463,926.824 418.030 M1062.000 498.000 L 1062.000 579.000 1039.500 579.000 L 1017.000 579.000 1017.000 498.000 L 1017.000 417.000 1039.500 417.000 L 1062.000 417.000 1062.000 498.000 M1249.775 433.250 L 1250.051 449.000 1203.525 449.000 L 1157.000 449.000 1157.000 465.500 L 1157.000 482.000 1196.500 482.000 L 1236.000 482.000 1236.000 497.000 L 1236.000 512.000 1196.500 512.000 L 1157.000 512.000 1157.000 529.500 L 1157.000 547.000 1204.000 547.000 L 1251.000 547.000 1251.000 563.000 L 1251.000 579.000 1181.000 579.000 L 1111.000 579.000 1111.000 498.667 C 1111.000 454.483,1111.303 418.030,1111.674 417.660 C 1112.044 417.289,1143.206 417.102,1180.924 417.243 L 1249.500 417.500 1249.775 433.250 M1333.878 420.250 C 1335.488 422.038,1353.269 442.775,1373.392 466.333 L 1409.980 509.166 1410.240 463.333 L 1410.500 417.500 1431.000 417.500 L 1451.500 417.500 1451.756 498.250 L 1452.012 579.000 1431.051 579.000 L 1410.090 579.000 1371.295 534.212 L 1332.500 489.423 1332.240 534.212 L 1331.980 579.000 1311.490 579.000 L 1291.000 579.000 1291.000 498.000 L 1291.000 417.000 1310.976 417.000 L 1330.951 417.000 1333.878 420.250 M1576.500 417.989 C 1593.676 419.165,1603.702 421.603,1615.740 427.529 C 1628.805 433.960,1637.213 442.369,1643.323 455.115 C 1650.507 470.101,1651.479 475.265,1651.490 498.500 C 1651.499 516.292,1651.245 519.438,1649.190 527.000 C 1642.566 551.378,1628.314 566.593,1605.315 573.840 C 1599.917 575.541,1591.980 577.398,1587.678 577.966 C 1583.375 578.535,1561.438 579.000,1538.928 579.000 L 1498.000 579.000 1498.000 498.000 L 1498.000 417.000 1530.250 417.015 C 1547.987 417.023,1568.800 417.461,1576.500 417.989 M106.000 465.000 L 106.000 484.000 129.599 484.000 C 156.400 484.000,158.256 483.592,162.814 476.704 C 166.759 470.744,167.169 460.671,163.709 454.767 C 162.263 452.299,159.505 449.528,157.212 448.239 C 153.398 446.096,152.216 446.000,129.614 446.000 L 106.000 446.000 106.000 465.000 M325.780 447.030 C 310.249 449.647,299.008 461.029,295.471 477.720 C 293.757 485.809,293.531 509.065,295.084 517.566 C 297.471 530.638,306.007 542.343,316.783 547.321 C 320.865 549.207,323.253 549.500,334.521 549.500 C 347.225 549.500,347.705 549.420,354.229 546.208 C 370.551 538.173,377.209 521.301,375.622 492.000 C 374.678 474.581,371.762 466.037,363.820 457.421 C 355.585 448.486,340.918 444.480,325.780 447.030 M866.667 447.667 C 866.300 448.033,866.000 457.258,866.000 468.167 L 866.000 488.000 889.040 488.000 C 909.934 488.000,912.437 487.818,915.914 486.044 C 930.856 478.421,930.719 456.433,915.686 449.434 C 910.710 447.117,909.626 447.019,888.917 447.010 C 877.046 447.004,867.033 447.300,866.667 447.667 M1543.667 449.667 C 1543.300 450.033,1543.000 472.125,1543.000 498.760 L 1543.000 547.187 1561.750 546.814 C 1578.823 546.473,1580.972 546.229,1585.779 544.084 C 1592.494 541.088,1599.213 533.702,1602.047 526.202 C 1606.622 514.097,1606.803 484.524,1602.385 471.118 C 1600.058 464.057,1592.730 455.990,1586.021 453.105 C 1583.261 451.917,1577.739 450.522,1573.751 450.004 C 1565.370 448.915,1544.650 448.683,1543.667 449.667 M154.411 458.077 C 158.614 463.071,157.507 471.537,152.343 473.890 C 150.863 474.564,143.248 475.000,132.953 475.000 L 116.000 475.000 116.000 465.000 L 116.000 455.000 133.911 455.000 L 151.822 455.000 154.411 458.077 M348.438 458.063 C 355.567 460.730,361.056 466.983,363.916 475.693 C 365.683 481.077,366.000 484.520,366.000 498.339 C 366.000 516.701,364.978 521.815,359.741 529.651 C 354.888 536.912,347.982 540.283,336.860 540.818 C 322.427 541.513,312.934 536.723,307.502 526.004 C 301.709 514.572,301.545 482.874,307.220 471.500 C 310.759 464.407,316.868 459.102,323.994 456.934 C 329.346 455.306,342.721 455.924,348.438 458.063 M912.634 457.938 C 915.581 459.869,918.001 464.254,917.996 467.654 C 917.991 471.464,914.602 476.821,911.434 478.025 C 910.024 478.561,901.474 479.000,892.435 479.000 L 876.000 479.000 876.000 467.401 L 876.000 455.802 893.250 456.171 C 905.824 456.440,911.078 456.919,912.634 457.938 M1578.150 460.440 C 1585.090 462.831,1589.769 466.829,1592.704 472.877 C 1595.281 478.187,1595.454 479.441,1595.820 495.414 C 1596.298 516.247,1594.907 522.975,1588.741 529.665 C 1583.003 535.890,1576.604 538.000,1563.462 538.000 L 1553.000 538.000 1553.000 497.853 L 1553.000 457.705 1563.595 458.390 C 1569.423 458.767,1575.972 459.689,1578.150 460.440 M106.468 511.222 C 106.184 511.962,106.075 520.652,106.226 530.534 L 106.500 548.500 129.000 548.798 C 156.289 549.159,158.972 548.842,163.691 544.698 C 168.308 540.645,170.000 536.507,169.998 529.282 C 169.997 522.255,167.896 517.759,162.659 513.571 L 158.819 510.500 132.902 510.188 C 111.896 509.936,106.887 510.132,106.468 511.222 M158.698 522.433 C 160.850 524.937,161.150 526.084,160.748 530.267 C 160.438 533.494,159.539 535.907,158.113 537.333 C 156.062 539.387,154.902 539.517,135.974 539.825 L 116.000 540.150 116.000 529.500 L 116.000 518.850 136.088 519.175 L 156.177 519.500 158.698 522.433 " stroke="none" fill="black" fill-rule="evenodd"/></svg>