<svg id="svg" version="1.1" width="1704" height="604" xmlns="http://www.w3.org/2000/svg"><path d="M202.500 6.448 C 154.668 13.925,129.845 46.777,132.282 99.380 C 133.440 124.394,139.608 141.436,152.786 156.037 C 166.701 171.455,189.144 180.356,217.500 181.704 C 239.385 182.745,258.676 179.274,274.916 171.374 C 282.889 167.496,285.733 165.392,293.477 157.647 C 300.002 151.121,303.664 146.483,306.254 141.463 C 317.744 119.195,320.065 84.838,311.825 59.000 C 300.505 23.502,269.613 4.758,223.000 5.105 C 216.125 5.156,206.900 5.761,202.500 6.448 M1254.520 6.050 C 1223.810 10.854,1202.654 24.825,1191.522 47.655 C 1184.122 62.829,1180.820 84.459,1182.816 104.672 C 1184.331 120.008,1186.248 127.471,1191.505 138.500 C 1198.804 153.813,1208.630 163.760,1224.211 171.606 C 1251.318 185.257,1295.717 185.493,1323.500 172.133 C 1344.753 161.913,1357.259 146.430,1363.694 122.371 C 1366.090 113.412,1366.337 110.790,1366.359 94.000 C 1366.378 80.162,1365.962 73.675,1364.707 68.257 C 1357.006 34.991,1336.743 15.309,1302.040 7.389 C 1294.134 5.584,1263.091 4.710,1254.520 6.050 M346.000 93.500 L 346.000 179.000 371.489 179.000 L 396.978 179.000 397.239 137.775 L 397.500 96.551 433.000 137.720 L 468.500 178.889 492.750 178.945 L 517.000 179.000 517.000 93.500 L 517.000 8.000 491.511 8.000 L 466.022 8.000 465.761 49.628 L 465.500 91.255 430.048 49.628 L 394.596 8.000 370.298 8.000 L 346.000 8.000 346.000 93.500 M553.000 93.500 L 553.000 179.000 624.500 179.000 L 696.000 179.000 696.000 157.000 L 696.000 135.000 652.000 135.000 L 608.000 135.000 608.000 71.500 L 608.000 8.000 580.500 8.000 L 553.000 8.000 553.000 93.500 M704.568 10.736 C 705.568 12.256,720.924 35.906,738.693 63.291 L 771.000 113.082 771.000 146.041 L 771.000 179.000 798.500 179.000 L 826.000 179.000 826.000 145.505 L 826.000 112.010 857.164 63.255 C 874.304 36.440,889.199 13.038,890.263 11.250 L 892.198 8.000 862.349 8.002 L 832.500 8.005 816.080 36.533 C 806.502 53.175,799.291 64.691,798.772 64.172 C 798.283 63.683,790.781 50.957,782.101 35.892 L 766.319 8.500 734.535 8.236 L 702.751 7.972 704.568 10.736 M980.000 8.489 C 980.000 8.757,995.075 32.233,1013.500 60.656 L 1047.000 112.335 1047.000 145.667 L 1047.000 179.000 1074.500 179.000 L 1102.000 179.000 1102.000 145.879 L 1102.000 112.759 1130.193 68.629 C 1145.700 44.358,1160.782 20.781,1163.709 16.235 L 1169.031 7.971 1138.898 8.235 L 1108.765 8.500 1092.970 35.863 C 1084.283 50.912,1076.770 63.630,1076.275 64.125 C 1075.742 64.658,1068.681 53.400,1058.954 36.512 L 1042.533 8.000 1011.267 8.000 C 994.070 8.000,980.000 8.220,980.000 8.489 M1396.240 65.750 C 1396.617 120.794,1396.735 123.858,1398.750 131.144 C 1404.100 150.487,1414.662 163.315,1432.693 172.368 C 1456.415 184.279,1500.243 185.188,1526.384 174.310 C 1546.120 166.098,1559.267 151.208,1564.635 130.985 C 1566.146 125.292,1566.403 117.382,1566.737 66.250 L 1567.117 8.000 1539.559 8.000 L 1512.000 8.000 1512.000 60.790 C 1512.000 119.360,1511.819 121.335,1505.650 129.927 C 1503.430 133.019,1500.467 135.472,1496.504 137.500 C 1491.253 140.187,1489.688 140.500,1481.500 140.500 C 1473.302 140.500,1471.747 140.188,1466.429 137.478 C 1460.119 134.261,1455.247 128.423,1452.825 121.177 C 1451.931 118.502,1451.502 102.578,1451.250 62.750 L 1450.905 8.000 1423.375 8.000 L 1395.844 8.000 1396.240 65.750 M240.176 48.750 C 254.543 55.117,260.938 68.900,260.938 93.500 C 260.938 113.121,257.075 125.243,248.384 132.893 C 241.865 138.631,235.651 140.514,223.500 140.434 C 211.114 140.352,205.254 138.117,198.505 130.901 C 190.441 122.281,187.989 113.436,188.017 93.066 C 188.027 85.857,188.666 77.522,189.514 73.515 C 192.235 60.671,200.375 51.197,211.863 47.504 C 218.586 45.342,234.019 46.022,240.176 48.750 M1290.513 48.898 C 1300.237 53.189,1307.062 62.077,1309.511 73.636 C 1311.239 81.791,1311.461 103.129,1309.907 111.566 C 1307.510 124.574,1299.389 134.964,1288.720 138.674 C 1281.646 141.134,1267.377 141.143,1260.329 138.691 C 1245.299 133.462,1238.062 118.775,1238.062 93.500 C 1238.062 66.295,1246.273 51.430,1263.734 47.025 C 1270.239 45.385,1284.871 46.408,1290.513 48.898 M204.500 200.495 C 169.706 205.466,145.560 222.626,134.660 250.129 C 126.663 270.310,125.158 300.410,130.989 323.585 C 137.064 347.731,153.621 367.095,176.465 376.770 C 204.457 388.625,247.203 388.284,273.673 375.996 C 297.154 365.095,310.587 349.040,317.742 323.322 C 320.323 314.043,320.474 312.340,320.459 292.500 C 320.445 274.234,320.164 270.448,318.297 263.416 C 313.648 245.905,306.702 233.628,295.529 223.176 C 283.841 212.243,268.063 204.743,249.702 201.393 C 237.742 199.212,216.448 198.788,204.500 200.495 M1257.661 200.062 C 1231.306 203.716,1214.072 211.700,1199.738 226.895 C 1184.745 242.788,1178.000 263.145,1178.000 292.500 C 1178.000 321.113,1184.667 341.885,1198.723 357.067 C 1216.668 376.450,1241.129 385.371,1276.000 385.252 C 1318.813 385.106,1348.996 368.546,1363.085 337.474 C 1371.981 317.852,1374.056 285.527,1367.977 261.249 C 1364.173 246.056,1353.985 229.588,1342.542 220.138 C 1331.734 211.213,1316.300 204.380,1300.500 201.526 C 1289.525 199.544,1266.960 198.773,1257.661 200.062 M342.000 292.515 L 342.000 383.030 371.750 382.765 L 401.500 382.500 402.000 345.530 L 402.500 308.560 434.783 345.780 L 467.066 383.000 494.033 383.000 L 521.000 383.000 521.000 292.500 L 521.000 202.000 491.512 202.000 L 462.024 202.000 461.762 240.216 L 461.500 278.431 429.000 240.243 L 396.500 202.055 369.250 202.028 L 342.000 202.000 342.000 292.515 M549.000 292.500 L 549.000 383.000 625.000 383.000 L 701.000 383.000 701.000 356.511 L 701.000 330.021 657.250 329.761 L 613.500 329.500 613.243 265.750 L 612.985 202.000 580.993 202.000 L 549.000 202.000 549.000 292.500 M695.343 203.451 C 695.649 204.248,711.672 229.192,730.950 258.880 L 766.000 312.859 766.000 347.929 L 766.000 383.000 798.000 383.000 L 830.000 383.000 830.000 348.158 L 830.000 313.315 865.460 257.908 L 900.921 202.500 865.710 202.236 C 836.403 202.015,830.327 202.207,829.470 203.376 C 828.903 204.149,821.928 216.083,813.970 229.897 C 802.342 250.078,799.283 254.718,798.398 253.517 C 797.791 252.695,790.816 240.769,782.898 227.015 L 768.500 202.008 731.643 202.004 C 699.849 202.001,694.862 202.199,695.343 203.451 M971.000 202.568 C 971.000 202.880,986.975 227.742,1006.500 257.816 L 1042.000 312.496 1042.000 347.762 L 1042.000 383.028 1074.250 382.764 L 1106.500 382.500 1106.763 347.286 L 1107.026 312.072 1142.013 257.423 C 1161.256 227.366,1177.000 202.600,1177.000 202.387 C 1177.000 202.174,1161.087 202.000,1141.639 202.000 L 1106.277 202.000 1090.989 228.551 C 1082.581 243.154,1075.388 254.741,1075.005 254.301 C 1074.622 253.860,1067.657 241.912,1059.526 227.750 L 1044.743 202.000 1007.872 202.000 C 987.592 202.000,971.000 202.255,971.000 202.568 M1392.201 264.250 L 1392.500 326.500 1395.806 336.000 C 1406.173 365.786,1429.692 381.441,1469.750 385.218 C 1489.682 387.098,1511.710 384.236,1528.021 377.648 C 1547.513 369.774,1560.968 355.507,1567.771 335.500 L 1570.492 327.500 1570.788 264.750 L 1571.084 202.000 1539.042 202.000 L 1507.000 202.000 1507.000 257.841 C 1507.000 318.347,1506.908 319.498,1501.526 326.554 C 1496.950 332.554,1491.937 334.494,1481.000 334.497 C 1472.321 334.500,1471.134 334.262,1467.260 331.744 C 1462.148 328.421,1458.458 323.080,1457.074 317.000 C 1456.442 314.228,1456.040 291.283,1456.024 257.250 L 1456.000 202.000 1423.951 202.000 L 1391.902 202.000 1392.201 264.250 M254.301 211.877 C 278.380 217.650,295.657 231.453,304.780 252.206 C 309.865 263.775,311.458 273.386,311.458 292.500 C 311.458 308.125,311.150 311.687,309.123 319.500 C 301.790 347.762,284.211 365.126,255.339 372.626 C 241.775 376.149,217.895 377.039,203.138 374.572 C 182.277 371.083,170.339 365.383,158.000 353.018 C 148.358 343.356,143.675 335.090,139.790 320.877 C 137.759 313.447,137.500 310.238,137.500 292.500 C 137.500 270.242,138.835 262.704,145.142 249.355 C 156.511 225.292,180.627 211.110,213.500 209.154 C 228.205 208.280,243.576 209.305,254.301 211.877 M1300.646 210.875 C 1324.421 215.652,1343.673 229.363,1352.866 248.065 C 1360.100 262.783,1361.374 269.437,1361.374 292.500 C 1361.374 315.556,1360.099 322.218,1352.876 336.913 C 1347.916 347.007,1337.122 358.428,1327.048 364.245 C 1313.615 372.001,1295.737 376.000,1274.500 376.000 C 1259.301 376.000,1247.131 374.162,1235.239 370.072 C 1223.815 366.143,1216.825 361.764,1207.990 353.000 C 1194.716 339.835,1188.382 323.144,1187.307 298.500 C 1186.403 277.767,1189.016 262.862,1196.141 248.109 C 1203.952 231.936,1220.365 218.711,1239.500 213.173 C 1256.423 208.276,1282.779 207.285,1300.646 210.875 M431.204 257.074 L 470.500 303.148 470.760 257.074 L 471.020 211.000 491.510 211.000 L 512.000 211.000 512.000 292.000 L 512.000 373.000 491.250 372.989 L 470.500 372.978 431.500 327.884 L 392.500 282.791 392.240 327.896 L 391.980 373.000 371.490 373.000 L 351.000 373.000 351.000 292.667 C 351.000 248.483,351.300 212.033,351.667 211.667 C 352.033 211.300,361.238 211.000,372.121 211.000 L 391.908 211.000 431.204 257.074 M603.757 275.250 L 604.015 339.000 648.007 339.000 L 692.000 339.000 692.000 356.000 L 692.000 373.000 625.000 373.000 L 558.000 373.000 558.000 292.667 C 558.000 248.483,558.308 212.025,558.685 211.648 C 559.062 211.271,569.300 211.084,581.435 211.231 L 603.500 211.500 603.757 275.250 M779.361 239.500 C 795.481 267.463,795.507 267.500,799.093 267.801 L 802.684 268.102 817.513 242.301 C 825.668 228.110,833.195 215.262,834.239 213.750 L 836.136 211.000 859.568 211.000 C 875.430 211.000,883.000 211.343,883.000 212.062 C 883.000 212.646,869.050 234.965,852.000 261.660 L 821.000 310.197 821.000 341.599 L 821.000 373.000 798.000 373.000 L 775.000 373.000 775.000 341.378 L 775.000 309.755 743.963 261.863 C 726.893 235.522,712.666 213.294,712.349 212.468 C 711.844 211.151,714.953 210.999,737.496 211.233 L 763.219 211.500 779.361 239.500 M1055.598 239.500 L 1071.776 267.500 1075.496 267.500 L 1079.215 267.500 1095.420 239.500 L 1111.624 211.500 1135.812 211.232 C 1149.115 211.085,1160.000 211.177,1160.000 211.436 C 1160.000 211.696,1145.831 234.092,1128.513 261.204 L 1097.026 310.500 1097.013 341.750 L 1097.000 373.000 1074.500 373.000 L 1052.000 373.000 1052.000 341.966 L 1052.000 310.932 1020.000 261.547 C 1002.400 234.384,988.000 211.892,988.000 211.564 C 988.000 211.235,999.569 211.086,1013.710 211.233 L 1039.420 211.500 1055.598 239.500 M1447.000 265.500 L 1447.500 319.500 1450.304 325.500 C 1453.723 332.814,1457.898 337.326,1464.500 340.839 C 1469.079 343.276,1470.468 343.500,1481.000 343.500 C 1490.983 343.500,1493.198 343.185,1497.788 341.111 C 1503.782 338.402,1510.154 331.815,1513.374 325.000 C 1515.440 320.627,1515.514 318.959,1516.000 266.000 L 1516.500 211.500 1539.250 211.231 L 1562.000 210.962 1562.000 264.523 C 1562.000 324.999,1561.753 327.711,1554.990 341.608 C 1547.725 356.536,1533.189 367.374,1513.239 372.740 C 1504.211 375.169,1501.930 375.365,1482.000 375.428 C 1462.613 375.489,1459.615 375.267,1451.500 373.170 C 1437.423 369.534,1426.773 363.842,1418.500 355.531 C 1410.587 347.583,1407.155 341.828,1403.870 330.997 C 1401.644 323.661,1401.588 322.325,1401.243 268.615 C 1401.048 238.428,1401.129 213.107,1401.421 212.346 C 1401.856 211.213,1405.995 211.010,1424.226 211.231 L 1446.500 211.500 1447.000 265.500 M215.000 241.134 C 200.299 243.541,190.194 253.205,185.502 269.344 C 184.109 274.138,183.888 278.494,184.214 294.814 C 184.566 312.459,184.845 315.106,186.910 320.344 C 190.392 329.175,196.363 335.867,204.450 340.000 C 211.246 343.473,211.398 343.500,224.399 343.500 C 236.703 343.500,237.845 343.331,243.164 340.719 C 253.262 335.760,260.286 326.677,263.467 314.465 C 265.438 306.900,265.524 278.963,263.601 271.000 C 259.520 254.098,248.623 243.635,232.321 240.965 C 225.587 239.862,222.591 239.891,215.000 241.134 M1265.012 241.083 C 1250.230 243.693,1239.737 254.037,1235.420 270.256 C 1233.691 276.749,1233.500 305.563,1235.134 313.201 C 1237.818 325.743,1245.479 335.991,1255.780 340.819 C 1261.065 343.296,1262.488 343.500,1274.500 343.500 C 1286.499 343.500,1287.939 343.294,1293.196 340.830 C 1303.622 335.943,1311.385 325.628,1314.075 313.088 C 1315.752 305.266,1314.775 272.764,1312.669 266.343 C 1309.078 255.392,1299.686 245.725,1289.603 242.599 C 1282.968 240.543,1271.927 239.862,1265.012 241.083 M240.000 252.919 C 245.461 255.679,250.814 262.160,253.479 269.242 C 255.172 273.739,255.461 277.033,255.479 292.000 C 255.505 313.785,254.220 318.765,246.537 326.655 C 240.062 333.305,233.498 335.445,221.591 334.788 C 208.256 334.052,201.274 329.361,195.780 317.445 C 193.647 312.819,193.500 311.207,193.500 292.479 L 193.500 272.458 196.694 265.969 C 202.859 253.447,209.593 249.787,225.500 250.313 C 233.468 250.577,236.415 251.107,240.000 252.919 M1285.888 251.085 C 1294.862 253.773,1301.717 261.498,1304.539 272.099 C 1306.427 279.192,1306.495 305.553,1304.644 312.500 C 1300.645 327.507,1290.606 335.000,1274.500 335.000 C 1257.733 335.000,1247.642 326.762,1244.125 310.201 C 1242.439 302.259,1242.694 279.595,1244.550 272.470 C 1247.333 261.785,1253.523 254.463,1262.500 251.236 C 1266.465 249.811,1281.316 249.715,1285.888 251.085 M204.500 406.495 C 169.706 411.466,145.560 428.626,134.660 456.129 C 126.663 476.310,125.158 506.410,130.989 529.585 C 137.064 553.731,153.621 573.095,176.465 582.770 C 204.457 594.625,247.203 594.284,273.673 581.996 C 297.154 571.095,310.587 555.040,317.742 529.322 C 320.323 520.043,320.474 518.340,320.459 498.500 C 320.445 480.234,320.164 476.448,318.297 469.416 C 313.648 451.905,306.702 439.628,295.529 429.176 C 283.841 418.243,268.063 410.743,249.702 407.393 C 237.742 405.212,216.448 404.788,204.500 406.495 M1257.661 406.062 C 1231.306 409.716,1214.072 417.700,1199.738 432.895 C 1184.745 448.788,1178.000 469.145,1178.000 498.500 C 1178.000 527.113,1184.667 547.885,1198.723 563.067 C 1216.668 582.450,1241.129 591.371,1276.000 591.252 C 1318.813 591.106,1348.996 574.546,1363.085 543.474 C 1371.981 523.852,1374.056 491.527,1367.977 467.249 C 1364.173 452.056,1353.985 435.588,1342.542 426.138 C 1331.734 417.213,1316.300 410.380,1300.500 407.526 C 1289.525 405.544,1266.960 404.773,1257.661 406.062 M342.000 498.515 L 342.000 589.030 371.750 588.765 L 401.500 588.500 402.000 551.530 L 402.500 514.560 434.783 551.780 L 467.066 589.000 494.033 589.000 L 521.000 589.000 521.000 498.500 L 521.000 408.000 491.512 408.000 L 462.024 408.000 461.762 446.216 L 461.500 484.431 429.000 446.243 L 396.500 408.055 369.250 408.028 L 342.000 408.000 342.000 498.515 M549.000 498.500 L 549.000 589.000 625.000 589.000 L 701.000 589.000 701.000 562.511 L 701.000 536.021 657.250 535.761 L 613.500 535.500 613.243 471.750 L 612.985 408.000 580.993 408.000 L 549.000 408.000 549.000 498.500 M695.343 409.451 C 695.649 410.248,711.672 435.192,730.950 464.880 L 766.000 518.859 766.000 553.929 L 766.000 589.000 798.000 589.000 L 830.000 589.000 830.000 554.158 L 830.000 519.315 865.460 463.908 L 900.921 408.500 865.710 408.236 C 836.403 408.015,830.327 408.207,829.470 409.376 C 828.903 410.149,821.928 422.083,813.970 435.897 C 802.342 456.078,799.283 460.718,798.398 459.517 C 797.791 458.695,790.816 446.769,782.898 433.015 L 768.500 408.008 731.643 408.004 C 699.849 408.001,694.862 408.199,695.343 409.451 M971.000 408.568 C 971.000 408.880,986.975 433.742,1006.500 463.816 L 1042.000 518.496 1042.000 553.762 L 1042.000 589.028 1074.250 588.764 L 1106.500 588.500 1106.763 553.286 L 1107.026 518.072 1142.013 463.423 C 1161.256 433.366,1177.000 408.600,1177.000 408.387 C 1177.000 408.174,1161.087 408.000,1141.639 408.000 L 1106.277 408.000 1090.989 434.551 C 1082.581 449.154,1075.388 460.741,1075.005 460.301 C 1074.622 459.860,1067.657 447.913,1059.526 433.750 L 1044.743 408.000 1007.872 408.000 C 987.592 408.000,971.000 408.255,971.000 408.568 M1392.201 470.250 L 1392.500 532.500 1395.806 542.000 C 1406.173 571.786,1429.692 587.441,1469.750 591.218 C 1489.682 593.098,1511.710 590.236,1528.021 583.648 C 1547.513 575.774,1560.968 561.507,1567.771 541.500 L 1570.492 533.500 1570.788 470.750 L 1571.084 408.000 1539.042 408.000 L 1507.000 408.000 1507.000 463.841 C 1507.000 524.347,1506.908 525.498,1501.526 532.554 C 1496.950 538.554,1491.937 540.494,1481.000 540.497 C 1472.321 540.500,1471.134 540.262,1467.260 537.744 C 1462.148 534.421,1458.458 529.080,1457.074 523.000 C 1456.442 520.228,1456.040 497.283,1456.024 463.250 L 1456.000 408.000 1423.951 408.000 L 1391.902 408.000 1392.201 470.250 M254.301 417.877 C 278.380 423.650,295.657 437.453,304.780 458.206 C 309.865 469.775,311.458 479.386,311.458 498.500 C 311.458 514.125,311.150 517.687,309.123 525.500 C 301.790 553.762,284.211 571.126,255.339 578.626 C 241.775 582.149,217.895 583.039,203.138 580.572 C 182.277 577.083,170.339 571.383,158.000 559.018 C 148.358 549.356,143.675 541.090,139.790 526.877 C 137.759 519.447,137.500 516.238,137.500 498.500 C 137.500 476.242,138.835 468.704,145.142 455.355 C 156.511 431.292,180.627 417.110,213.500 415.154 C 228.205 414.280,243.576 415.305,254.301 417.877 M1300.646 416.875 C 1324.421 421.652,1343.673 435.363,1352.866 454.065 C 1360.100 468.783,1361.374 475.437,1361.374 498.500 C 1361.374 521.556,1360.099 528.218,1352.876 542.913 C 1347.916 553.007,1337.122 564.428,1327.048 570.245 C 1313.615 578.001,1295.737 582.000,1274.500 582.000 C 1259.301 582.000,1247.131 580.162,1235.239 576.072 C 1223.815 572.143,1216.825 567.764,1207.990 559.000 C 1194.716 545.835,1188.382 529.144,1187.307 504.500 C 1186.403 483.767,1189.016 468.862,1196.141 454.109 C 1203.952 437.936,1220.365 424.711,1239.500 419.173 C 1256.423 414.276,1282.779 413.285,1300.646 416.875 M431.204 463.074 L 470.500 509.148 470.760 463.074 L 471.020 417.000 491.510 417.000 L 512.000 417.000 512.000 498.000 L 512.000 579.000 491.250 578.989 L 470.500 578.978 431.500 533.884 L 392.500 488.791 392.240 533.896 L 391.980 579.000 371.490 579.000 L 351.000 579.000 351.000 498.667 C 351.000 454.483,351.300 418.033,351.667 417.667 C 352.033 417.300,361.238 417.000,372.121 417.000 L 391.908 417.000 431.204 463.074 M603.757 481.250 L 604.015 545.000 648.007 545.000 L 692.000 545.000 692.000 562.000 L 692.000 579.000 625.000 579.000 L 558.000 579.000 558.000 498.667 C 558.000 454.483,558.308 418.025,558.685 417.648 C 559.062 417.271,569.300 417.084,581.435 417.231 L 603.500 417.500 603.757 481.250 M779.361 445.500 C 795.481 473.463,795.507 473.500,799.093 473.801 L 802.684 474.102 817.513 448.301 C 825.668 434.110,833.195 421.262,834.239 419.750 L 836.136 417.000 859.568 417.000 C 875.430 417.000,883.000 417.343,883.000 418.062 C 883.000 418.646,869.050 440.965,852.000 467.660 L 821.000 516.197 821.000 547.599 L 821.000 579.000 798.000 579.000 L 775.000 579.000 775.000 547.378 L 775.000 515.755 743.963 467.863 C 726.893 441.522,712.666 419.294,712.349 418.468 C 711.844 417.151,714.953 416.999,737.496 417.233 L 763.219 417.500 779.361 445.500 M1055.598 445.500 L 1071.776 473.500 1075.496 473.500 L 1079.215 473.500 1095.420 445.500 L 1111.624 417.500 1135.812 417.232 C 1149.115 417.085,1160.000 417.177,1160.000 417.436 C 1160.000 417.696,1145.831 440.092,1128.513 467.204 L 1097.026 516.500 1097.013 547.750 L 1097.000 579.000 1074.500 579.000 L 1052.000 579.000 1052.000 547.966 L 1052.000 516.932 1020.000 467.547 C 1002.400 440.384,988.000 417.892,988.000 417.564 C 988.000 417.235,999.569 417.086,1013.710 417.233 L 1039.420 417.500 1055.598 445.500 M1447.000 471.500 L 1447.500 525.500 1450.304 531.500 C 1453.723 538.814,1457.898 543.326,1464.500 546.839 C 1469.079 549.276,1470.468 549.500,1481.000 549.500 C 1490.983 549.500,1493.198 549.185,1497.788 547.111 C 1503.782 544.402,1510.154 537.815,1513.374 531.000 C 1515.440 526.627,1515.514 524.959,1516.000 472.000 L 1516.500 417.500 1539.250 417.231 L 1562.000 416.962 1562.000 470.523 C 1562.000 530.999,1561.753 533.711,1554.990 547.608 C 1547.725 562.536,1533.189 573.374,1513.239 578.740 C 1504.211 581.169,1501.930 581.365,1482.000 581.428 C 1462.613 581.489,1459.615 581.267,1451.500 579.170 C 1437.423 575.534,1426.773 569.842,1418.500 561.531 C 1410.587 553.583,1407.155 547.828,1403.870 536.997 C 1401.644 529.661,1401.588 528.325,1401.243 474.615 C 1401.048 444.428,1401.129 419.107,1401.421 418.346 C 1401.856 417.213,1405.995 417.010,1424.226 417.231 L 1446.500 417.500 1447.000 471.500 M215.000 447.134 C 200.299 449.541,190.194 459.205,185.502 475.344 C 184.109 480.138,183.888 484.494,184.214 500.814 C 184.566 518.459,184.845 521.106,186.910 526.344 C 190.392 535.175,196.363 541.867,204.450 546.000 C 211.246 549.473,211.398 549.500,224.399 549.500 C 236.703 549.500,237.845 549.331,243.164 546.719 C 253.262 541.760,260.286 532.677,263.467 520.465 C 265.438 512.900,265.524 484.963,263.601 477.000 C 259.520 460.098,248.623 449.635,232.321 446.965 C 225.587 445.862,222.591 445.891,215.000 447.134 M1265.012 447.083 C 1250.230 449.693,1239.737 460.037,1235.420 476.256 C 1233.691 482.749,1233.500 511.563,1235.134 519.201 C 1237.818 531.743,1245.479 541.991,1255.780 546.819 C 1261.065 549.296,1262.488 549.500,1274.500 549.500 C 1286.499 549.500,1287.939 549.294,1293.196 546.830 C 1303.622 541.943,1311.385 531.628,1314.075 519.088 C 1315.752 511.266,1314.775 478.764,1312.669 472.343 C 1309.078 461.392,1299.686 451.725,1289.603 448.599 C 1282.968 446.543,1271.927 445.862,1265.012 447.083 M240.000 458.919 C 245.461 461.679,250.814 468.160,253.479 475.242 C 255.172 479.739,255.461 483.033,255.479 498.000 C 255.505 519.785,254.220 524.765,246.537 532.655 C 240.062 539.305,233.498 541.445,221.591 540.788 C 208.256 540.052,201.274 535.361,195.780 523.445 C 193.647 518.819,193.500 517.207,193.500 498.479 L 193.500 478.458 196.694 471.969 C 202.859 459.447,209.593 455.787,225.500 456.313 C 233.468 456.577,236.415 457.107,240.000 458.919 M1285.888 457.085 C 1294.862 459.773,1301.717 467.498,1304.539 478.099 C 1306.427 485.192,1306.495 511.553,1304.644 518.500 C 1300.645 533.507,1290.606 541.000,1274.500 541.000 C 1257.733 541.000,1247.642 532.762,1244.125 516.201 C 1242.439 508.259,1242.694 485.595,1244.550 478.470 C 1247.333 467.785,1253.523 460.463,1262.500 457.236 C 1266.465 455.811,1281.316 455.715,1285.888 457.085 " stroke="none" fill="black" fill-rule="evenodd"/></svg>