<svg id="svg" version="1.1" width="1704" height="604" xmlns="http://www.w3.org/2000/svg"><path d="M85.399 6.456 C 62.115 10.073,42.630 20.477,31.407 35.284 C 18.101 52.840,12.270 77.555,14.795 105.686 C 18.262 144.311,34.147 167.268,64.000 176.797 C 76.144 180.673,82.083 181.444,99.500 181.402 C 123.728 181.343,138.877 177.351,153.752 167.103 L 160.834 162.224 163.449 170.612 L 166.065 179.000 180.542 179.000 L 195.019 179.000 194.760 131.250 L 194.500 83.500 149.000 83.500 L 103.500 83.500 103.226 100.750 L 102.953 118.000 122.476 118.000 C 141.436 118.000,142.000 118.059,142.000 120.032 C 142.000 126.325,135.861 133.321,126.500 137.696 C 121.035 140.250,119.519 140.495,109.500 140.447 C 93.242 140.368,83.615 136.173,77.093 126.326 C 72.690 119.680,71.051 113.272,70.355 100.000 C 68.826 70.796,75.315 55.389,91.921 48.803 C 96.505 46.985,99.551 46.582,109.000 46.545 C 119.560 46.504,120.990 46.729,126.500 49.307 C 129.800 50.850,133.794 53.325,135.376 54.807 C 138.624 57.848,141.945 64.367,141.978 67.767 L 142.000 70.033 168.205 69.767 L 194.410 69.500 194.126 64.156 C 193.421 50.893,187.911 38.959,177.913 29.037 C 165.294 16.515,148.744 9.245,125.500 6.013 C 115.999 4.692,95.283 4.921,85.399 6.456 M231.000 93.500 L 231.000 179.000 258.500 179.000 L 286.000 179.000 286.000 93.500 L 286.000 8.000 258.500 8.000 L 231.000 8.000 231.000 93.500 M325.000 93.500 L 325.000 179.000 352.500 179.000 L 380.000 179.000 380.000 147.966 L 380.000 116.932 390.663 117.216 L 401.326 117.500 416.116 148.000 L 430.906 178.500 461.970 178.764 L 493.033 179.029 490.112 173.764 C 483.320 161.525,454.979 107.693,455.228 107.505 C 455.378 107.391,458.407 105.769,461.960 103.899 C 475.703 96.668,484.686 83.782,487.162 67.750 C 490.574 45.654,479.093 23.351,459.492 13.996 C 447.371 8.211,445.112 8.036,382.250 8.017 L 325.000 8.000 325.000 93.500 M519.000 93.500 L 519.000 179.000 590.500 179.000 L 662.000 179.000 662.000 157.000 L 662.000 135.000 618.000 135.000 L 574.000 135.000 574.000 71.500 L 574.000 8.000 546.500 8.000 L 519.000 8.000 519.000 93.500 M685.000 93.500 L 685.000 179.000 712.500 179.000 L 740.000 179.000 740.000 148.513 L 740.000 118.025 775.750 117.763 L 811.500 117.500 811.500 98.000 L 811.500 78.500 775.750 78.237 L 740.000 77.975 740.000 63.487 L 740.000 49.000 781.500 49.000 L 823.000 49.000 823.000 28.500 L 823.000 8.000 754.000 8.000 L 685.000 8.000 685.000 93.500 M851.000 93.500 L 851.000 179.000 878.500 179.000 L 906.000 179.000 906.000 148.000 L 906.000 117.000 916.250 117.044 L 926.500 117.087 941.454 148.044 L 956.409 179.000 987.260 179.000 L 1018.112 179.000 1011.601 166.750 C 1008.020 160.013,999.466 143.925,992.592 131.000 L 980.094 107.500 986.736 104.141 C 1022.222 86.194,1021.478 32.154,985.500 14.424 C 972.895 8.212,970.770 8.037,907.750 8.017 L 851.000 8.000 851.000 93.500 M1047.000 93.500 L 1047.000 179.000 1074.500 179.000 L 1102.000 179.000 1102.000 93.500 L 1102.000 8.000 1074.500 8.000 L 1047.000 8.000 1047.000 93.500 M1141.000 93.500 L 1141.000 179.000 1216.000 179.000 L 1291.000 179.000 1291.000 158.500 L 1291.000 138.000 1243.500 138.000 L 1196.000 138.000 1196.000 125.000 L 1196.000 112.000 1236.000 112.000 L 1276.000 112.000 1276.000 92.511 L 1276.000 73.023 1236.250 72.761 L 1196.500 72.500 1196.218 60.750 L 1195.937 49.000 1242.468 49.000 L 1289.000 49.000 1289.000 28.500 L 1289.000 8.000 1215.000 8.000 L 1141.000 8.000 1141.000 93.500 M1321.000 93.500 L 1321.000 179.000 1345.989 179.000 L 1370.978 179.000 1371.239 137.639 L 1371.500 96.277 1407.289 137.639 L 1443.079 179.000 1467.039 179.000 L 1491.000 179.000 1491.000 93.500 L 1491.000 8.000 1466.000 8.000 L 1441.000 8.000 1441.000 49.500 C 1441.000 72.325,1440.662 90.997,1440.250 90.994 C 1439.838 90.991,1423.593 72.316,1404.152 49.494 L 1368.804 8.000 1344.902 8.000 L 1321.000 8.000 1321.000 93.500 M1528.000 93.500 L 1528.000 179.000 1569.776 179.000 C 1623.524 179.000,1634.601 177.644,1653.000 168.809 C 1664.477 163.298,1676.866 151.097,1682.254 140.000 C 1692.906 118.062,1694.946 86.304,1687.382 60.193 C 1678.986 31.208,1658.308 14.654,1624.000 9.452 C 1616.848 8.368,1603.811 8.010,1571.250 8.006 L 1528.000 8.000 1528.000 93.500 M424.114 49.184 C 428.418 51.603,432.014 57.723,431.978 62.566 C 431.943 67.228,428.455 73.752,424.808 75.976 C 421.772 77.827,419.794 77.993,400.750 77.996 L 380.000 78.000 380.000 62.500 L 380.000 47.000 400.114 47.000 C 418.940 47.000,420.476 47.140,424.114 49.184 M948.619 48.623 C 953.482 50.931,956.291 55.355,956.736 61.408 C 957.195 67.647,954.951 72.491,950.102 75.730 C 946.847 77.904,945.846 78.000,926.352 78.000 L 906.000 78.000 906.000 62.500 L 906.000 47.000 925.599 47.000 C 941.610 47.000,945.824 47.297,948.619 48.623 M1617.500 51.842 C 1631.766 58.281,1636.873 71.384,1635.686 98.500 C 1635.049 113.079,1633.424 119.735,1629.018 125.817 C 1622.503 134.811,1613.635 137.959,1594.750 137.984 L 1583.000 138.000 1583.000 93.391 L 1583.000 48.782 1597.750 49.184 C 1610.372 49.527,1613.221 49.911,1617.500 51.842 M87.854 200.522 C 47.154 206.075,22.409 226.657,12.859 262.901 C 9.970 273.866,9.159 301.849,11.334 315.509 C 14.629 336.197,21.284 350.372,33.445 362.600 C 47.195 376.427,63.792 383.055,89.851 385.126 C 112.887 386.957,132.013 383.408,149.593 374.040 L 158.686 369.194 160.598 375.847 L 162.510 382.500 180.755 382.773 L 199.000 383.045 199.000 330.523 L 199.000 278.000 149.000 278.000 L 99.000 278.000 99.000 300.000 L 99.000 322.000 117.500 322.000 C 128.139 322.000,136.000 322.392,136.000 322.923 C 136.000 324.710,129.471 330.347,125.011 332.412 C 121.342 334.110,118.541 334.500,110.000 334.500 C 96.843 334.500,90.630 332.463,84.068 326.000 C 77.392 319.424,75.851 314.418,75.252 297.364 C 74.341 271.450,78.512 259.844,91.000 253.543 C 96.584 250.726,101.285 249.841,110.423 249.889 C 126.259 249.972,137.000 257.655,137.000 268.901 L 137.000 273.000 168.147 273.000 L 199.294 273.000 198.712 263.750 C 197.689 247.472,192.429 236.094,180.540 224.438 C 166.129 210.309,146.469 202.352,120.302 200.056 C 105.669 198.772,100.093 198.852,87.854 200.522 M226.461 203.250 C 226.198 203.938,226.100 244.550,226.242 293.500 L 226.500 382.500 258.750 382.764 L 291.000 383.028 291.000 292.514 L 291.000 202.000 258.969 202.000 C 234.264 202.000,226.828 202.286,226.461 203.250 M321.000 292.437 L 321.000 383.000 353.000 383.000 L 385.000 383.000 385.000 351.454 L 385.000 319.909 391.522 320.204 L 398.044 320.500 413.202 351.750 L 428.360 383.000 464.180 383.000 C 483.881 383.000,499.991 382.663,499.981 382.250 C 499.970 381.837,491.233 365.086,480.566 345.025 L 461.170 308.551 466.987 305.273 C 482.343 296.619,492.000 278.987,492.000 259.605 C 492.000 232.038,476.901 212.178,450.314 204.775 C 442.759 202.671,440.487 202.587,381.750 202.237 L 321.000 201.874 321.000 292.437 M514.000 292.486 L 514.000 383.000 590.000 383.000 L 666.000 383.000 666.000 356.500 L 666.000 330.000 622.507 330.000 L 579.015 330.000 578.757 266.250 L 578.500 202.500 546.250 202.236 L 514.000 201.972 514.000 292.486 M680.000 292.514 L 680.000 383.028 712.250 382.764 L 744.500 382.500 744.764 351.750 L 745.029 321.000 780.514 321.000 L 816.000 321.000 816.000 297.000 L 816.000 273.000 780.500 273.000 L 745.000 273.000 745.000 262.500 L 745.000 252.000 786.500 252.000 L 828.000 252.000 828.000 227.000 L 828.000 202.000 754.000 202.000 L 680.000 202.000 680.000 292.514 M846.000 292.500 L 846.000 383.000 878.000 383.000 L 910.000 383.000 910.000 351.454 L 910.000 319.909 916.682 320.204 L 923.365 320.500 938.432 351.742 L 953.500 382.984 989.250 382.992 C 1010.623 382.997,1025.000 382.626,1025.000 382.070 C 1025.000 381.559,1016.450 365.055,1006.000 345.395 C 995.550 325.735,987.009 309.391,987.020 309.075 C 987.031 308.759,989.315 307.150,992.095 305.500 C 1015.881 291.385,1024.448 259.647,1011.547 233.430 C 1002.922 215.900,987.580 205.885,965.026 203.061 C 959.971 202.428,934.252 202.000,901.276 202.000 L 846.000 202.000 846.000 292.500 M1042.000 292.500 L 1042.000 383.028 1074.250 382.764 L 1106.500 382.500 1106.500 292.500 L 1106.500 202.500 1074.250 202.236 L 1042.000 201.972 1042.000 292.500 M1136.503 203.250 C 1136.265 203.938,1136.166 244.550,1136.285 293.500 L 1136.500 382.500 1216.000 382.500 L 1295.500 382.500 1295.500 357.500 L 1295.500 332.500 1248.250 332.240 L 1201.000 331.980 1201.000 323.490 L 1201.000 315.000 1240.500 315.000 L 1280.000 315.000 1280.000 291.000 L 1280.000 267.000 1240.500 267.000 L 1201.000 267.000 1201.000 259.500 L 1201.000 252.000 1247.500 252.000 L 1294.000 252.000 1294.000 227.000 L 1294.000 202.000 1215.469 202.000 C 1153.542 202.000,1136.846 202.264,1136.503 203.250 M1316.000 292.500 L 1316.000 383.000 1345.988 383.000 L 1375.976 383.000 1376.238 345.608 L 1376.500 308.216 1408.894 345.608 L 1441.288 383.000 1468.644 383.000 L 1496.000 383.000 1496.000 292.500 L 1496.000 202.000 1466.012 202.000 L 1436.024 202.000 1435.762 240.094 L 1435.500 278.187 1403.066 240.094 L 1370.632 202.000 1343.316 202.000 L 1316.000 202.000 1316.000 292.500 M1523.000 292.507 L 1523.000 383.150 1571.750 382.712 C 1624.855 382.234,1628.918 381.869,1645.761 376.073 C 1656.634 372.332,1663.836 367.952,1672.439 359.851 C 1688.721 344.518,1695.993 323.726,1695.992 292.500 C 1695.992 264.370,1690.285 245.086,1677.543 230.159 C 1665.820 216.425,1651.350 208.823,1628.500 204.392 C 1620.917 202.922,1611.901 202.586,1571.250 202.255 L 1523.000 201.863 1523.000 292.507 M136.000 211.532 C 151.045 214.909,163.784 221.352,174.110 230.808 C 180.860 236.989,187.537 249.424,188.845 258.250 L 189.697 264.000 168.099 263.996 L 146.500 263.993 144.618 259.416 C 139.156 246.135,120.708 238.265,101.351 240.957 C 83.515 243.438,71.890 253.464,67.432 270.209 C 65.701 276.714,65.489 305.475,67.116 313.201 C 69.792 325.910,78.516 336.677,89.753 341.142 C 94.752 343.128,97.321 343.430,109.500 343.462 C 122.752 343.498,123.794 343.355,129.000 340.784 C 140.239 335.234,145.201 328.874,146.577 318.250 L 147.258 313.000 127.629 313.000 L 108.000 313.000 108.000 300.000 L 108.000 287.000 149.000 287.000 L 190.000 287.000 190.000 330.000 L 190.000 373.000 179.713 373.000 L 169.425 373.000 166.162 363.045 L 162.899 353.089 156.700 358.105 C 142.374 369.695,126.578 374.922,103.500 375.711 C 57.890 377.269,32.250 360.697,22.285 323.221 C 19.951 314.440,19.691 311.614,19.603 294.000 C 19.517 276.779,19.773 273.448,21.791 265.500 C 30.542 231.037,56.121 211.631,96.000 209.201 C 110.012 208.347,125.944 209.276,136.000 211.532 M281.000 292.000 L 281.000 373.000 258.500 373.000 L 236.000 373.000 236.000 292.000 L 236.000 211.000 258.500 211.000 L 281.000 211.000 281.000 292.000 M446.907 213.374 C 469.153 219.194,483.059 236.769,482.976 258.960 C 482.901 278.807,472.336 294.230,453.754 301.614 C 451.143 302.651,449.006 303.903,449.004 304.395 C 449.000 305.256,477.717 360.036,482.740 368.750 L 485.190 373.000 459.543 373.000 L 433.896 373.000 418.776 342.000 L 403.656 311.000 389.828 311.000 L 376.000 311.000 376.000 342.000 L 376.000 373.000 353.000 373.000 L 330.000 373.000 330.000 292.667 C 330.000 248.483,330.336 211.997,330.747 211.587 C 331.157 211.176,356.020 211.033,385.997 211.269 C 432.830 211.637,441.402 211.933,446.907 213.374 M569.000 275.000 L 569.000 339.000 613.000 339.000 L 657.000 339.000 657.000 356.000 L 657.000 373.000 590.500 373.000 L 524.000 373.000 524.000 292.000 L 524.000 211.000 546.500 211.000 L 569.000 211.000 569.000 275.000 M818.775 227.250 L 819.051 243.000 777.025 243.000 L 735.000 243.000 735.000 262.500 L 735.000 282.000 771.000 282.000 L 807.000 282.000 807.000 297.000 L 807.000 312.000 771.000 312.000 L 735.000 312.000 735.000 342.500 L 735.000 373.000 712.500 373.000 L 690.000 373.000 690.000 291.993 L 690.000 210.985 754.250 211.243 L 818.500 211.500 818.775 227.250 M971.825 213.355 C 990.699 218.300,1003.422 230.881,1007.156 248.291 C 1007.758 251.101,1008.035 257.536,1007.771 262.592 C 1007.185 273.787,1003.684 282.216,996.374 290.031 C 991.637 295.096,981.981 301.250,976.750 302.539 C 975.237 302.912,974.000 303.604,974.000 304.077 C 974.000 304.550,981.360 318.788,990.356 335.718 C 999.351 352.648,1007.467 367.970,1008.390 369.767 L 1010.069 373.034 984.443 372.767 L 958.817 372.500 944.034 342.000 L 929.250 311.500 915.125 311.223 L 901.000 310.945 901.000 341.973 L 901.000 373.000 878.000 373.000 L 855.000 373.000 855.000 292.667 C 855.000 248.483,855.336 211.997,855.747 211.587 C 856.157 211.176,881.020 211.033,910.997 211.269 C 957.575 211.635,966.420 211.938,971.825 213.355 M1097.000 292.000 L 1097.000 373.000 1074.500 373.000 L 1052.000 373.000 1052.000 292.000 L 1052.000 211.000 1074.500 211.000 L 1097.000 211.000 1097.000 292.000 M1284.775 227.240 L 1285.051 242.980 1238.275 243.240 L 1191.500 243.500 1191.225 259.750 L 1190.950 276.000 1230.975 276.000 L 1271.000 276.000 1271.000 290.989 L 1271.000 305.977 1231.250 306.239 L 1191.500 306.500 1191.226 323.750 L 1190.953 341.000 1238.476 341.000 L 1286.000 341.000 1286.000 357.000 L 1286.000 373.000 1216.000 373.000 L 1146.000 373.000 1146.000 291.993 L 1146.000 210.986 1215.250 211.243 L 1284.500 211.500 1284.775 227.240 M1373.213 219.358 C 1377.221 223.954,1394.900 244.634,1412.500 265.313 L 1444.500 302.911 1445.000 257.205 L 1445.500 211.500 1465.750 211.229 L 1486.000 210.959 1486.000 291.979 L 1486.000 373.000 1465.250 372.944 L 1444.500 372.888 1407.000 329.393 C 1386.375 305.470,1368.732 285.193,1367.793 284.332 C 1366.190 282.863,1366.090 283.584,1366.155 296.134 C 1366.194 303.485,1366.175 323.788,1366.113 341.250 L 1366.000 373.000 1345.500 373.000 L 1325.000 373.000 1325.000 292.667 C 1325.000 248.483,1325.300 212.033,1325.667 211.667 C 1326.033 211.300,1335.242 211.000,1346.130 211.000 L 1365.927 211.000 1373.213 219.358 M1611.500 211.989 C 1628.830 213.176,1638.823 215.621,1650.734 221.590 C 1676.417 234.458,1688.443 260.114,1686.689 298.293 C 1684.873 337.832,1668.470 360.238,1634.443 369.659 L 1624.500 372.412 1578.750 372.770 L 1533.000 373.127 1533.000 292.064 L 1533.000 211.000 1565.250 211.015 C 1582.987 211.023,1603.800 211.461,1611.500 211.989 M376.000 261.500 L 376.000 282.000 398.435 282.000 C 411.855 282.000,422.001 281.573,423.685 280.936 C 430.663 278.300,436.143 269.816,436.142 261.650 C 436.142 255.295,435.021 252.233,431.037 247.695 C 425.885 241.827,421.718 241.000,397.322 241.000 L 376.000 241.000 376.000 261.500 M901.000 261.500 L 901.000 282.000 923.843 282.000 C 945.828 282.000,946.851 281.913,951.093 279.672 C 957.680 276.193,961.524 269.458,961.419 261.578 C 961.373 258.073,960.653 254.187,959.720 252.398 C 957.449 248.044,951.737 243.299,947.277 242.060 C 945.190 241.481,933.992 241.009,922.250 241.006 L 901.000 241.000 901.000 261.500 M1578.000 291.868 L 1578.000 341.000 1594.250 340.988 C 1611.595 340.975,1618.210 339.887,1624.474 336.016 C 1629.520 332.897,1634.735 326.115,1637.292 319.346 C 1639.307 314.010,1639.500 311.712,1639.500 293.000 C 1639.500 275.407,1639.225 271.660,1637.559 266.577 C 1633.962 255.603,1625.269 247.364,1614.766 244.974 C 1611.870 244.315,1602.412 243.542,1593.750 243.256 L 1578.000 242.736 1578.000 291.868 M418.500 250.973 C 423.903 252.223,426.989 256.174,426.995 261.850 C 426.999 265.467,426.427 266.773,423.600 269.600 L 420.200 273.000 402.600 273.000 L 385.000 273.000 385.000 262.167 C 385.000 256.208,385.300 251.033,385.667 250.667 C 386.674 249.660,413.922 249.914,418.500 250.973 M944.205 251.040 C 949.294 252.453,952.000 256.166,952.000 261.735 C 952.000 265.480,951.451 266.749,948.600 269.600 L 945.200 273.000 927.600 273.000 L 910.000 273.000 910.000 262.167 C 910.000 256.208,910.300 251.033,910.667 250.667 C 911.738 249.595,940.141 249.911,944.205 251.040 M1605.732 253.001 C 1617.536 254.535,1623.825 258.886,1628.133 268.500 C 1630.054 272.786,1630.437 275.700,1630.813 288.900 C 1631.405 309.704,1629.660 317.408,1622.690 324.752 C 1617.812 329.892,1610.765 332.000,1598.462 332.000 L 1588.000 332.000 1588.000 292.000 L 1588.000 252.000 1593.250 252.031 C 1596.138 252.048,1601.754 252.484,1605.732 253.001 M87.854 406.522 C 47.154 412.075,22.409 432.657,12.859 468.901 C 9.970 479.866,9.159 507.849,11.334 521.509 C 14.629 542.197,21.284 556.372,33.445 568.600 C 47.195 582.427,63.792 589.055,89.851 591.126 C 112.887 592.957,132.013 589.408,149.593 580.040 L 158.686 575.194 160.598 581.847 L 162.510 588.500 180.755 588.773 L 199.000 589.045 199.000 536.523 L 199.000 484.000 149.000 484.000 L 99.000 484.000 99.000 506.000 L 99.000 528.000 117.500 528.000 C 128.139 528.000,136.000 528.392,136.000 528.923 C 136.000 530.710,129.471 536.347,125.011 538.412 C 121.342 540.110,118.541 540.500,110.000 540.500 C 96.843 540.500,90.630 538.463,84.068 532.000 C 77.392 525.424,75.851 520.418,75.252 503.364 C 74.341 477.450,78.512 465.844,91.000 459.543 C 96.584 456.726,101.285 455.841,110.423 455.889 C 126.259 455.972,137.000 463.655,137.000 474.901 L 137.000 479.000 168.147 479.000 L 199.294 479.000 198.712 469.750 C 197.689 453.472,192.429 442.094,180.540 430.438 C 166.129 416.309,146.469 408.352,120.302 406.056 C 105.669 404.772,100.093 404.852,87.854 406.522 M226.461 409.250 C 226.198 409.938,226.100 450.550,226.242 499.500 L 226.500 588.500 258.750 588.764 L 291.000 589.028 291.000 498.514 L 291.000 408.000 258.969 408.000 C 234.264 408.000,226.828 408.286,226.461 409.250 M321.000 498.437 L 321.000 589.000 353.000 589.000 L 385.000 589.000 385.000 557.454 L 385.000 525.909 391.522 526.204 L 398.044 526.500 413.202 557.750 L 428.360 589.000 464.180 589.000 C 483.881 589.000,499.991 588.663,499.981 588.250 C 499.970 587.837,491.233 571.086,480.566 551.025 L 461.170 514.551 466.987 511.273 C 482.343 502.619,492.000 484.987,492.000 465.605 C 492.000 438.038,476.901 418.178,450.314 410.775 C 442.759 408.671,440.487 408.587,381.750 408.237 L 321.000 407.874 321.000 498.437 M514.000 498.486 L 514.000 589.000 590.000 589.000 L 666.000 589.000 666.000 562.500 L 666.000 536.000 622.507 536.000 L 579.015 536.000 578.757 472.250 L 578.500 408.500 546.250 408.236 L 514.000 407.972 514.000 498.486 M680.000 498.514 L 680.000 589.028 712.250 588.764 L 744.500 588.500 744.764 557.750 L 745.029 527.000 780.514 527.000 L 816.000 527.000 816.000 503.000 L 816.000 479.000 780.500 479.000 L 745.000 479.000 745.000 468.500 L 745.000 458.000 786.500 458.000 L 828.000 458.000 828.000 433.000 L 828.000 408.000 754.000 408.000 L 680.000 408.000 680.000 498.514 M846.000 498.500 L 846.000 589.000 878.000 589.000 L 910.000 589.000 910.000 557.454 L 910.000 525.909 916.682 526.204 L 923.365 526.500 938.432 557.742 L 953.500 588.984 989.250 588.992 C 1010.623 588.997,1025.000 588.626,1025.000 588.070 C 1025.000 587.559,1016.450 571.055,1006.000 551.395 C 995.550 531.735,987.009 515.391,987.020 515.075 C 987.031 514.759,989.315 513.150,992.095 511.500 C 1015.881 497.385,1024.448 465.647,1011.547 439.430 C 1002.922 421.900,987.580 411.885,965.026 409.061 C 959.971 408.428,934.252 408.000,901.276 408.000 L 846.000 408.000 846.000 498.500 M1042.000 498.500 L 1042.000 589.028 1074.250 588.764 L 1106.500 588.500 1106.500 498.500 L 1106.500 408.500 1074.250 408.236 L 1042.000 407.972 1042.000 498.500 M1136.503 409.250 C 1136.265 409.938,1136.166 450.550,1136.285 499.500 L 1136.500 588.500 1216.000 588.500 L 1295.500 588.500 1295.500 563.500 L 1295.500 538.500 1248.250 538.240 L 1201.000 537.980 1201.000 529.490 L 1201.000 521.000 1240.500 521.000 L 1280.000 521.000 1280.000 497.000 L 1280.000 473.000 1240.500 473.000 L 1201.000 473.000 1201.000 465.500 L 1201.000 458.000 1247.500 458.000 L 1294.000 458.000 1294.000 433.000 L 1294.000 408.000 1215.469 408.000 C 1153.542 408.000,1136.846 408.264,1136.503 409.250 M1316.000 498.500 L 1316.000 589.000 1345.988 589.000 L 1375.976 589.000 1376.238 551.608 L 1376.500 514.216 1408.894 551.608 L 1441.288 589.000 1468.644 589.000 L 1496.000 589.000 1496.000 498.500 L 1496.000 408.000 1466.012 408.000 L 1436.024 408.000 1435.762 446.094 L 1435.500 484.187 1403.066 446.094 L 1370.632 408.000 1343.316 408.000 L 1316.000 408.000 1316.000 498.500 M1523.000 498.507 L 1523.000 589.150 1571.750 588.712 C 1624.855 588.234,1628.918 587.869,1645.761 582.073 C 1656.634 578.332,1663.836 573.952,1672.439 565.851 C 1688.721 550.518,1695.993 529.726,1695.992 498.500 C 1695.992 470.370,1690.285 451.086,1677.543 436.159 C 1665.820 422.425,1651.350 414.823,1628.500 410.392 C 1620.917 408.922,1611.901 408.586,1571.250 408.255 L 1523.000 407.863 1523.000 498.507 M136.000 417.532 C 151.045 420.909,163.784 427.352,174.110 436.808 C 180.860 442.989,187.537 455.424,188.845 464.250 L 189.697 470.000 168.099 469.996 L 146.500 469.993 144.618 465.416 C 139.156 452.135,120.708 444.265,101.351 446.957 C 83.515 449.438,71.890 459.464,67.432 476.209 C 65.701 482.714,65.489 511.475,67.116 519.201 C 69.792 531.910,78.516 542.677,89.753 547.142 C 94.752 549.128,97.321 549.430,109.500 549.462 C 122.752 549.498,123.794 549.355,129.000 546.784 C 140.239 541.234,145.201 534.874,146.577 524.250 L 147.258 519.000 127.629 519.000 L 108.000 519.000 108.000 506.000 L 108.000 493.000 149.000 493.000 L 190.000 493.000 190.000 536.000 L 190.000 579.000 179.713 579.000 L 169.425 579.000 166.162 569.045 L 162.899 559.089 156.700 564.105 C 142.374 575.695,126.578 580.922,103.500 581.711 C 57.890 583.269,32.250 566.697,22.285 529.221 C 19.951 520.440,19.691 517.614,19.603 500.000 C 19.517 482.779,19.773 479.448,21.791 471.500 C 30.542 437.037,56.121 417.631,96.000 415.201 C 110.012 414.347,125.944 415.276,136.000 417.532 M281.000 498.000 L 281.000 579.000 258.500 579.000 L 236.000 579.000 236.000 498.000 L 236.000 417.000 258.500 417.000 L 281.000 417.000 281.000 498.000 M446.907 419.374 C 469.153 425.194,483.059 442.769,482.976 464.960 C 482.901 484.807,472.336 500.230,453.754 507.614 C 451.143 508.651,449.006 509.903,449.004 510.395 C 449.000 511.256,477.717 566.036,482.740 574.750 L 485.190 579.000 459.543 579.000 L 433.896 579.000 418.776 548.000 L 403.656 517.000 389.828 517.000 L 376.000 517.000 376.000 548.000 L 376.000 579.000 353.000 579.000 L 330.000 579.000 330.000 498.667 C 330.000 454.483,330.336 417.997,330.747 417.587 C 331.157 417.176,356.020 417.033,385.997 417.269 C 432.830 417.637,441.402 417.933,446.907 419.374 M569.000 481.000 L 569.000 545.000 613.000 545.000 L 657.000 545.000 657.000 562.000 L 657.000 579.000 590.500 579.000 L 524.000 579.000 524.000 498.000 L 524.000 417.000 546.500 417.000 L 569.000 417.000 569.000 481.000 M818.775 433.250 L 819.051 449.000 777.025 449.000 L 735.000 449.000 735.000 468.500 L 735.000 488.000 771.000 488.000 L 807.000 488.000 807.000 503.000 L 807.000 518.000 771.000 518.000 L 735.000 518.000 735.000 548.500 L 735.000 579.000 712.500 579.000 L 690.000 579.000 690.000 497.993 L 690.000 416.985 754.250 417.243 L 818.500 417.500 818.775 433.250 M971.825 419.355 C 990.699 424.300,1003.422 436.881,1007.156 454.291 C 1007.758 457.101,1008.035 463.536,1007.771 468.592 C 1007.185 479.787,1003.684 488.216,996.374 496.031 C 991.637 501.096,981.981 507.250,976.750 508.539 C 975.237 508.912,974.000 509.604,974.000 510.077 C 974.000 510.550,981.360 524.788,990.356 541.718 C 999.351 558.648,1007.467 573.970,1008.390 575.767 L 1010.069 579.034 984.443 578.767 L 958.817 578.500 944.034 548.000 L 929.250 517.500 915.125 517.223 L 901.000 516.945 901.000 547.973 L 901.000 579.000 878.000 579.000 L 855.000 579.000 855.000 498.667 C 855.000 454.483,855.336 417.997,855.747 417.587 C 856.157 417.176,881.020 417.033,910.997 417.269 C 957.575 417.635,966.420 417.938,971.825 419.355 M1097.000 498.000 L 1097.000 579.000 1074.500 579.000 L 1052.000 579.000 1052.000 498.000 L 1052.000 417.000 1074.500 417.000 L 1097.000 417.000 1097.000 498.000 M1284.775 433.240 L 1285.051 448.980 1238.275 449.240 L 1191.500 449.500 1191.225 465.750 L 1190.950 482.000 1230.975 482.000 L 1271.000 482.000 1271.000 496.989 L 1271.000 511.977 1231.250 512.239 L 1191.500 512.500 1191.226 529.750 L 1190.953 547.000 1238.476 547.000 L 1286.000 547.000 1286.000 563.000 L 1286.000 579.000 1216.000 579.000 L 1146.000 579.000 1146.000 497.993 L 1146.000 416.986 1215.250 417.243 L 1284.500 417.500 1284.775 433.240 M1373.213 425.358 C 1377.221 429.954,1394.900 450.634,1412.500 471.313 L 1444.500 508.911 1445.000 463.205 L 1445.500 417.500 1465.750 417.229 L 1486.000 416.959 1486.000 497.979 L 1486.000 579.000 1465.250 578.944 L 1444.500 578.888 1407.000 535.393 C 1386.375 511.470,1368.732 491.193,1367.793 490.332 C 1366.190 488.863,1366.090 489.584,1366.155 502.134 C 1366.194 509.485,1366.175 529.788,1366.113 547.250 L 1366.000 579.000 1345.500 579.000 L 1325.000 579.000 1325.000 498.667 C 1325.000 454.483,1325.300 418.033,1325.667 417.667 C 1326.033 417.300,1335.242 417.000,1346.130 417.000 L 1365.927 417.000 1373.213 425.358 M1611.500 417.989 C 1628.830 419.176,1638.823 421.621,1650.734 427.590 C 1676.417 440.458,1688.443 466.114,1686.689 504.293 C 1684.873 543.832,1668.470 566.238,1634.443 575.659 L 1624.500 578.412 1578.750 578.770 L 1533.000 579.127 1533.000 498.064 L 1533.000 417.000 1565.250 417.015 C 1582.987 417.023,1603.800 417.461,1611.500 417.989 M376.000 467.500 L 376.000 488.000 398.435 488.000 C 411.855 488.000,422.001 487.573,423.685 486.936 C 430.663 484.300,436.143 475.816,436.142 467.650 C 436.142 461.295,435.021 458.233,431.037 453.695 C 425.885 447.827,421.718 447.000,397.322 447.000 L 376.000 447.000 376.000 467.500 M901.000 467.500 L 901.000 488.000 923.843 488.000 C 945.828 488.000,946.851 487.913,951.093 485.672 C 957.680 482.193,961.524 475.458,961.419 467.578 C 961.373 464.073,960.653 460.187,959.720 458.398 C 957.449 454.044,951.737 449.299,947.277 448.060 C 945.190 447.481,933.992 447.009,922.250 447.006 L 901.000 447.000 901.000 467.500 M1578.000 497.868 L 1578.000 547.000 1594.250 546.988 C 1611.595 546.975,1618.210 545.887,1624.474 542.016 C 1629.520 538.897,1634.735 532.115,1637.292 525.346 C 1639.307 520.010,1639.500 517.712,1639.500 499.000 C 1639.500 481.407,1639.225 477.660,1637.559 472.577 C 1633.962 461.603,1625.269 453.364,1614.766 450.974 C 1611.870 450.315,1602.412 449.542,1593.750 449.256 L 1578.000 448.736 1578.000 497.868 M418.500 456.973 C 423.903 458.223,426.989 462.174,426.995 467.850 C 426.999 471.467,426.427 472.773,423.600 475.600 L 420.200 479.000 402.600 479.000 L 385.000 479.000 385.000 468.167 C 385.000 462.208,385.300 457.033,385.667 456.667 C 386.674 455.660,413.922 455.914,418.500 456.973 M944.205 457.040 C 949.294 458.453,952.000 462.166,952.000 467.735 C 952.000 471.480,951.451 472.749,948.600 475.600 L 945.200 479.000 927.600 479.000 L 910.000 479.000 910.000 468.167 C 910.000 462.208,910.300 457.033,910.667 456.667 C 911.738 455.595,940.141 455.911,944.205 457.040 M1605.732 459.001 C 1617.536 460.535,1623.825 464.886,1628.133 474.500 C 1630.054 478.786,1630.437 481.700,1630.813 494.900 C 1631.405 515.704,1629.660 523.408,1622.690 530.752 C 1617.812 535.892,1610.765 538.000,1598.462 538.000 L 1588.000 538.000 1588.000 498.000 L 1588.000 458.000 1593.250 458.031 C 1596.138 458.048,1601.754 458.484,1605.732 459.001 " stroke="none" fill="black" fill-rule="evenodd"/></svg>