<svg id="svg" version="1.1" width="3425" height="3297" xmlns="http://www.w3.org/2000/svg"><path d="M2483.500 320.669 C 2414.241 324.022,2353.699 337.021,2282.500 363.826 C 2245.136 377.893,2207.494 395.655,2166.251 418.680 C 2119.413 444.829,2067.566 484.474,1996.539 548.451 C 1965.703 576.227,1937.961 602.073,1865.000 670.998 C 1735.706 793.140,1662.481 848.620,1603.910 868.817 C 1575.781 878.516,1553.635 876.913,1526.398 863.204 C 1510.499 855.202,1494.625 843.566,1450.290 807.414 C 1438.766 798.017,1424.649 786.777,1418.919 782.436 C 1341.141 723.521,1261.570 691.822,1164.500 681.085 C 1135.372 677.864,1118.943 677.000,1086.774 677.000 C 1028.286 677.000,976.256 682.068,901.745 695.022 C 769.465 718.020,677.670 751.372,611.445 800.498 C 530.169 860.788,478.884 949.702,443.599 1091.500 C 437.661 1115.364,432.059 1140.962,429.485 1156.000 C 428.590 1161.225,425.441 1178.775,422.487 1195.000 C 408.210 1273.420,403.300 1320.107,404.295 1368.000 C 405.244 1413.723,411.213 1449.158,425.181 1492.000 C 442.189 1544.162,475.519 1612.649,520.325 1687.500 C 546.446 1731.138,576.895 1768.182,623.503 1813.027 C 681.011 1868.360,756.907 1930.606,930.000 2064.401 C 938.525 2070.991,957.200 2085.428,971.500 2096.483 C 1038.647 2148.396,1046.384 2153.817,1110.000 2193.526 C 1220.991 2262.807,1274.571 2300.762,1337.000 2354.327 C 1397.683 2406.395,1447.974 2459.656,1493.433 2520.000 C 1522.684 2558.829,1546.078 2594.077,1582.035 2653.500 C 1622.481 2720.341,1644.941 2754.973,1660.509 2774.500 C 1701.036 2825.336,1739.639 2848.857,1797.000 2857.665 C 1811.453 2859.884,1855.387 2860.176,1870.000 2858.149 C 1895.823 2854.567,1914.900 2848.714,1936.087 2837.870 C 1969.678 2820.678,1997.540 2793.739,2057.996 2720.000 C 2079.356 2693.947,2093.795 2676.851,2123.449 2642.500 C 2305.314 2431.828,2395.785 2321.500,2489.999 2195.500 C 2603.738 2043.385,2681.041 1920.290,2753.440 1776.000 C 2835.331 1612.792,2899.205 1445.234,3007.507 1109.522 C 3020.814 1068.274,3028.897 1041.074,3034.852 1017.500 C 3065.511 896.135,3065.177 785.303,3033.849 684.500 C 3020.528 641.640,2996.387 593.313,2969.795 556.274 C 2935.158 508.030,2888.123 462.980,2835.500 427.648 C 2792.041 398.468,2733.118 368.722,2685.838 352.095 C 2618.512 328.417,2548.396 317.527,2483.500 320.669 " stroke="none" fill="black" fill-rule="evenodd"/></svg>