<svg id="svg" version="1.1" width="3508" height="3942" xmlns="http://www.w3.org/2000/svg"><path d="M708.465 31.900 C 705.495 33.179,704.811 34.304,699.056 47.378 C 690.601 66.584,679.572 89.878,667.038 115.000 C 643.109 162.959,625.550 191.735,611.364 206.241 C 597.745 220.168,562.342 241.662,513.500 265.657 C 501.950 271.332,491.919 275.980,491.208 275.987 C 490.255 275.997,478.000 252.379,478.000 250.533 C 478.000 250.373,475.801 245.575,473.114 239.871 C 467.119 227.147,464.511 221.363,458.970 208.500 C 453.917 196.769,452.619 195.137,447.707 194.340 C 441.504 193.333,438.617 195.290,435.195 202.824 C 433.528 206.496,427.593 219.618,422.007 231.985 C 407.483 264.140,402.498 274.607,384.850 310.000 C 336.490 406.989,308.906 449.744,281.000 470.965 C 251.715 493.234,208.067 518.208,139.222 552.085 C 123.670 559.738,110.793 566.000,110.608 566.000 C 110.422 566.000,104.247 568.876,96.885 572.391 C 81.876 579.557,43.287 597.101,37.012 599.612 C 30.661 602.153,28.248 608.711,31.412 614.830 C 32.424 616.787,35.048 618.524,40.662 620.955 C 109.281 650.667,197.952 695.094,241.000 721.332 C 283.625 747.312,297.604 759.558,317.100 788.000 C 331.051 808.353,344.534 831.210,362.016 864.144 C 369.664 878.553,395.918 931.022,402.724 945.500 C 416.023 973.791,418.456 979.041,424.871 993.282 C 428.641 1001.652,432.984 1011.337,434.523 1014.804 C 437.723 1022.012,440.917 1025.006,445.385 1024.985 C 448.971 1024.968,452.917 1023.176,454.161 1021.000 C 454.632 1020.175,458.873 1010.725,463.586 1000.000 C 490.062 939.737,530.330 859.878,555.355 818.000 C 577.186 781.467,590.426 764.306,607.271 750.711 C 640.273 724.075,716.092 682.491,811.000 638.974 C 817.875 635.822,826.425 631.900,830.000 630.260 C 833.575 628.619,841.000 625.348,846.500 622.991 C 852.000 620.633,857.513 617.621,858.750 616.297 C 861.578 613.270,861.844 606.241,859.250 603.109 C 858.288 601.947,848.500 596.994,837.500 592.103 C 818.822 583.797,809.553 579.586,796.017 573.259 C 784.896 568.061,739.625 545.959,739.174 545.507 C 738.478 544.811,742.895 535.270,757.000 507.000 C 777.970 464.968,796.281 433.233,808.226 418.218 C 817.566 406.477,833.190 395.006,863.000 378.004 C 889.483 362.900,942.219 336.814,977.288 321.472 C 989.360 316.190,991.699 313.692,990.645 307.202 C 990.117 303.946,986.634 299.000,984.870 299.000 C 984.440 299.000,976.756 295.677,967.794 291.615 C 883.639 253.472,830.996 223.754,812.837 204.141 C 794.720 184.573,765.096 130.976,732.062 58.000 C 726.461 45.625,721.071 34.679,720.086 33.675 C 718.044 31.595,711.497 30.595,708.465 31.900 M715.490 72.250 C 726.392 96.963,750.744 145.775,763.508 168.500 C 769.125 178.500,783.199 200.414,788.693 207.714 C 802.862 226.540,819.097 238.821,860.361 261.928 C 874.839 270.035,916.954 291.183,939.252 301.543 C 947.365 305.312,953.665 308.709,953.252 309.091 C 952.838 309.473,946.875 312.372,940.000 315.534 C 884.577 341.022,839.589 365.514,814.859 383.660 C 791.418 400.860,773.083 428.064,739.146 496.000 C 715.238 543.861,712.840 550.096,716.043 556.081 C 717.485 558.774,763.622 581.633,808.874 602.073 L 825.248 609.469 820.374 611.614 C 791.033 624.524,720.978 658.577,691.000 674.502 C 622.951 710.651,587.235 735.772,568.020 761.000 C 551.051 783.278,531.294 815.709,509.537 857.000 C 501.967 871.366,473.581 928.412,468.734 939.000 C 467.350 942.025,464.314 948.550,461.989 953.500 C 459.665 958.450,455.311 967.900,452.314 974.500 C 449.318 981.100,446.529 986.844,446.118 987.265 C 445.707 987.685,442.065 980.710,438.025 971.765 C 410.913 911.729,373.996 839.592,352.171 804.000 C 328.226 764.949,315.318 748.584,297.000 734.047 C 269.530 712.246,228.613 688.276,162.000 654.959 C 133.122 640.516,70.659 611.000,68.971 611.000 C 68.502 611.000,67.875 610.607,67.579 610.127 C 67.282 609.647,72.768 606.647,79.769 603.460 C 109.566 589.898,126.523 581.773,160.500 564.778 C 237.672 526.178,281.521 499.760,306.271 476.955 C 336.988 448.651,381.006 371.334,442.311 238.000 L 445.759 230.500 448.521 236.500 C 450.040 239.800,453.244 246.714,455.642 251.864 C 458.039 257.013,460.000 261.354,460.000 261.510 C 460.000 261.665,463.977 270.059,468.837 280.162 C 475.898 294.839,478.219 298.779,480.384 299.765 C 486.143 302.389,487.090 302.027,528.118 281.498 C 564.921 263.083,580.859 254.214,600.000 241.497 C 623.606 225.814,634.863 213.966,651.776 187.000 C 663.932 167.620,694.246 109.106,707.065 80.279 C 710.054 73.557,712.751 68.045,713.058 68.029 C 713.364 68.013,714.459 69.912,715.490 72.250 M703.500 116.368 C 700.750 117.660,697.747 119.568,696.827 120.608 C 695.907 121.649,691.582 130.375,687.216 140.000 C 671.404 174.856,653.531 208.741,643.268 223.320 C 635.498 234.359,628.964 239.305,603.432 253.474 C 586.661 262.781,549.537 280.966,534.500 287.239 C 527.001 290.368,523.485 293.386,520.603 299.168 C 517.358 305.682,517.293 310.959,520.377 317.500 C 523.477 324.074,525.925 326.176,535.507 330.496 C 539.903 332.478,546.650 335.527,550.500 337.272 C 563.400 343.118,594.408 358.755,606.337 365.430 C 630.933 379.193,638.357 385.636,648.471 402.000 C 658.586 418.364,673.343 447.158,688.164 479.450 C 691.938 487.672,696.033 495.478,697.263 496.797 C 705.295 505.406,720.889 505.183,729.157 496.342 C 730.619 494.779,734.755 486.909,738.350 478.853 C 741.945 470.798,749.013 455.948,754.058 445.853 C 772.659 408.633,783.083 391.651,792.456 383.298 C 802.938 373.954,838.036 354.749,879.687 335.564 C 892.073 329.858,899.941 325.622,901.886 323.613 C 910.190 315.033,909.987 301.823,901.425 293.500 C 898.550 290.705,893.573 287.864,884.905 284.068 C 878.082 281.080,862.282 273.558,849.794 267.353 C 804.051 244.622,791.736 236.393,782.112 222.129 C 771.601 206.550,749.762 164.573,737.563 136.500 C 733.166 126.380,731.013 122.673,727.847 119.767 C 721.089 113.563,712.133 112.313,703.500 116.368 M2798.500 143.534 C 2704.310 148.099,2608.919 163.340,2538.000 185.155 C 2528.925 187.946,2519.270 191.108,2516.544 192.182 C 2512.859 193.633,2511.031 193.879,2509.416 193.144 C 2505.859 191.523,2498.808 182.609,2493.966 173.610 L 2489.432 165.185 2485.030 173.843 C 2479.135 185.436,2469.703 194.947,2458.250 200.850 C 2453.713 203.188,2450.000 205.298,2450.000 205.538 C 2450.000 205.778,2453.150 207.561,2457.000 209.500 C 2460.850 211.439,2464.000 213.216,2464.000 213.449 C 2464.000 213.682,2459.838 216.213,2454.750 219.072 C 2422.569 237.163,2401.972 257.303,2394.987 277.510 C 2388.454 296.409,2393.651 316.919,2409.550 334.982 C 2418.330 344.957,2425.128 350.680,2439.500 360.196 C 2505.290 403.757,2633.937 434.720,2790.000 444.554 C 2824.850 446.750,2904.745 447.544,2944.000 446.084 C 3037.373 442.613,3123.467 431.293,3195.000 413.081 C 3212.230 408.695,3234.060 402.464,3239.344 400.425 C 3242.149 399.343,3252.523 410.796,3257.820 420.823 C 3260.196 425.320,3262.311 429.000,3262.519 429.000 C 3262.728 429.000,3264.812 425.288,3267.150 420.750 C 3272.921 409.552,3282.552 399.921,3293.750 394.150 C 3298.287 391.812,3302.000 389.703,3302.000 389.463 C 3302.000 389.224,3299.007 387.519,3295.349 385.674 L 3288.697 382.321 3304.099 374.331 C 3323.273 364.384,3333.850 357.589,3345.904 347.474 C 3361.344 334.517,3371.726 319.415,3375.022 305.119 C 3377.928 292.512,3374.563 276.099,3366.450 263.303 C 3360.732 254.287,3343.077 237.425,3331.000 229.447 C 3309.746 215.407,3274.256 199.238,3241.500 188.672 C 3165.021 164.002,3071.169 148.801,2959.500 142.998 C 2933.509 141.647,2830.339 141.990,2798.500 143.534 M2969.500 148.934 C 3034.273 153.067,3080.959 158.459,3131.000 167.584 C 3196.357 179.502,3249.039 194.717,3290.272 213.584 C 3355.747 243.543,3382.257 279.205,3365.499 314.781 C 3357.819 331.084,3344.460 344.083,3319.500 359.539 C 3309.238 365.894,3285.439 378.000,3283.208 378.000 C 3281.000 378.000,3271.109 365.781,3267.136 358.145 C 3264.806 353.665,3262.719 350.000,3262.500 350.000 C 3262.281 350.000,3260.177 353.712,3257.825 358.250 C 3252.033 369.422,3242.422 379.033,3231.250 384.825 C 3226.713 387.177,3223.000 389.296,3223.000 389.535 C 3223.000 389.773,3225.545 391.255,3228.657 392.828 C 3231.768 394.401,3233.904 395.941,3233.404 396.250 C 3231.911 397.173,3205.523 404.620,3190.500 408.358 C 3130.031 423.404,3065.379 432.759,2981.500 438.601 C 2946.272 441.054,2847.227 441.628,2807.500 439.608 C 2735.149 435.931,2680.282 429.540,2622.000 418.002 C 2523.692 398.539,2452.833 370.384,2419.631 337.594 C 2405.292 323.433,2399.069 311.611,2398.233 296.947 C 2397.658 286.859,2399.263 280.177,2404.828 269.500 C 2412.492 254.794,2436.855 234.337,2461.598 221.833 L 2470.170 217.500 2475.521 223.342 C 2478.465 226.555,2482.724 232.742,2484.987 237.092 C 2487.250 241.441,2489.281 245.000,2489.500 245.000 C 2489.719 245.000,2491.812 241.287,2494.150 236.750 C 2499.921 225.552,2509.552 215.921,2520.750 210.150 C 2525.287 207.812,2529.000 205.703,2529.000 205.464 C 2529.000 205.225,2526.244 203.638,2522.877 201.938 C 2519.486 200.226,2517.143 198.471,2517.627 198.005 C 2519.013 196.669,2552.657 186.567,2574.000 181.077 C 2642.275 163.516,2726.501 152.224,2820.500 148.030 C 2845.333 146.922,2947.709 147.543,2969.500 148.934 M2643.000 294.500 L 2643.000 362.000 2693.500 362.000 L 2744.000 362.000 2744.000 335.274 L 2744.000 308.547 2736.775 301.274 L 2729.550 294.000 2736.775 286.726 L 2744.000 279.453 2744.000 253.226 L 2744.000 227.000 2693.500 227.000 L 2643.000 227.000 2643.000 294.500 M2755.000 294.500 L 2755.000 362.000 2806.000 362.000 L 2857.000 362.000 2857.000 294.500 L 2857.000 227.000 2840.000 227.000 L 2823.000 227.000 2823.000 279.000 L 2823.000 331.000 2806.000 331.000 L 2789.000 331.000 2789.000 279.000 L 2789.000 227.000 2772.000 227.000 L 2755.000 227.000 2755.000 294.500 M2934.000 279.000 L 2934.000 331.000 2917.000 331.000 L 2900.000 331.000 2900.000 320.000 L 2900.000 309.000 2883.000 309.000 L 2866.000 309.000 2866.000 335.500 L 2866.000 362.000 2917.000 362.000 L 2968.000 362.000 2968.000 294.500 L 2968.000 227.000 2951.000 227.000 L 2934.000 227.000 2934.000 279.000 M2979.000 294.500 L 2979.000 362.000 2996.000 362.000 L 3013.000 362.000 3013.000 294.500 L 3013.000 227.000 2996.000 227.000 L 2979.000 227.000 2979.000 294.500 M3023.000 294.500 L 3023.000 362.000 3040.000 362.000 L 3057.000 362.000 3057.000 335.500 L 3057.000 309.000 3074.000 309.000 L 3091.000 309.000 3091.000 335.500 L 3091.000 362.000 3108.000 362.000 L 3125.000 362.000 3125.000 294.500 L 3125.000 227.000 3108.000 227.000 L 3091.000 227.000 3091.000 253.000 L 3091.000 279.000 3074.000 279.000 L 3057.000 279.000 3057.000 253.000 L 3057.000 227.000 3040.000 227.000 L 3023.000 227.000 3023.000 294.500 M2711.000 268.500 L 2711.000 279.000 2694.000 279.000 L 2677.000 279.000 2677.000 268.500 L 2677.000 258.000 2694.000 258.000 L 2711.000 258.000 2711.000 268.500 M435.219 291.417 C 428.273 295.477,429.493 293.446,416.242 323.000 C 415.379 324.925,411.822 332.523,408.337 339.885 C 404.851 347.247,402.000 353.441,402.000 353.650 C 402.000 354.274,376.152 405.814,371.232 415.000 C 352.725 449.556,337.384 473.939,327.077 485.179 C 319.431 493.518,309.598 500.954,291.560 512.038 C 258.824 532.153,197.123 563.416,145.500 586.044 C 131.955 591.981,129.944 593.460,127.050 599.616 C 123.011 608.209,125.417 621.291,131.920 626.099 C 133.365 627.167,142.411 631.568,152.023 635.878 C 202.955 658.720,253.822 684.419,285.376 703.252 C 320.133 723.998,329.351 732.782,347.630 762.577 C 366.124 792.722,396.650 852.226,417.071 897.938 C 427.925 922.234,428.605 923.474,432.571 926.189 C 441.322 932.180,455.090 931.091,461.683 923.886 C 462.884 922.574,466.771 914.975,470.322 907.000 C 492.050 858.190,518.105 806.258,537.302 773.500 C 558.529 737.275,568.879 726.087,597.442 708.491 C 631.584 687.456,701.322 652.111,749.620 631.363 C 764.058 625.160,769.595 615.394,765.819 602.791 C 763.489 595.012,759.186 591.839,738.500 582.643 C 675.340 554.566,610.085 520.299,583.000 500.984 C 574.341 494.809,563.013 484.318,558.182 478.000 C 552.221 470.203,540.359 451.197,530.098 433.000 C 517.175 410.082,487.677 350.795,474.620 321.500 C 463.878 297.398,463.048 295.935,458.187 292.543 C 454.535 289.994,452.772 289.485,446.687 289.223 C 440.494 288.957,438.908 289.260,435.219 291.417 M2711.000 320.000 L 2711.000 331.000 2694.000 331.000 L 2677.000 331.000 2677.000 320.000 L 2677.000 309.000 2694.000 309.000 L 2711.000 309.000 2711.000 320.000 M3057.098 2918.265 C 3054.069 2919.823,3054.572 2918.881,3044.414 2942.000 C 3017.938 3002.263,2977.670 3082.122,2952.645 3124.000 C 2930.814 3160.533,2917.574 3177.694,2900.729 3191.289 C 2867.727 3217.925,2791.908 3259.509,2697.000 3303.026 C 2690.125 3306.178,2681.575 3310.100,2678.000 3311.740 C 2674.425 3313.381,2667.000 3316.652,2661.500 3319.009 C 2656.000 3321.367,2650.488 3324.379,2649.250 3325.703 C 2646.422 3328.730,2646.156 3335.759,2648.750 3338.891 C 2649.713 3340.053,2659.500 3345.006,2670.500 3349.897 C 2688.873 3358.068,2696.854 3361.690,2711.983 3368.728 C 2722.080 3373.425,2768.377 3396.044,2768.838 3396.505 C 2769.523 3397.190,2765.028 3406.884,2750.949 3435.080 C 2729.845 3477.346,2711.713 3508.775,2699.774 3523.782 C 2690.434 3535.523,2674.810 3546.994,2645.000 3563.996 C 2618.517 3579.100,2565.781 3605.186,2530.712 3620.528 C 2518.640 3625.810,2516.301 3628.308,2517.355 3634.798 C 2517.883 3638.054,2521.366 3643.000,2523.130 3643.000 C 2523.560 3643.000,2531.244 3646.323,2540.206 3650.385 C 2624.361 3688.528,2677.004 3718.246,2695.163 3737.859 C 2712.693 3756.793,2745.005 3815.216,2775.988 3884.000 C 2781.562 3896.375,2787.007 3907.400,2788.089 3908.500 C 2789.530 3909.965,2791.378 3910.500,2795.000 3910.500 C 2801.479 3910.500,2802.509 3909.328,2808.961 3894.622 C 2817.248 3875.735,2828.315 3852.348,2840.962 3827.000 C 2864.891 3779.041,2882.450 3750.265,2896.636 3735.759 C 2910.255 3721.832,2945.658 3700.338,2994.500 3676.343 C 3006.050 3670.668,3016.081 3666.020,3016.792 3666.013 C 3017.745 3666.003,3030.000 3689.621,3030.000 3691.467 C 3030.000 3691.627,3032.199 3696.425,3034.886 3702.129 C 3040.881 3714.853,3043.489 3720.637,3049.030 3733.500 C 3054.083 3745.231,3055.381 3746.863,3060.293 3747.660 C 3066.496 3748.667,3069.383 3746.710,3072.805 3739.176 C 3074.472 3735.504,3080.407 3722.382,3085.993 3710.015 C 3100.517 3677.860,3105.502 3667.393,3123.150 3632.000 C 3156.309 3565.496,3176.295 3530.609,3199.342 3499.000 C 3217.293 3474.378,3251.789 3450.441,3324.000 3412.499 C 3338.805 3404.720,3396.555 3376.000,3397.392 3376.000 C 3397.578 3376.000,3403.753 3373.124,3411.115 3369.609 C 3426.124 3362.443,3464.713 3344.899,3470.988 3342.388 C 3477.339 3339.847,3479.752 3333.289,3476.588 3327.170 C 3475.577 3325.215,3472.946 3323.471,3467.338 3321.037 C 3400.020 3291.821,3313.666 3248.693,3270.500 3222.729 C 3225.167 3195.462,3210.843 3183.094,3190.900 3154.000 C 3176.949 3133.647,3163.466 3110.790,3145.984 3077.856 C 3138.336 3063.447,3112.082 3010.978,3105.276 2996.500 C 3091.977 2968.209,3089.544 2962.959,3083.129 2948.718 C 3079.359 2940.348,3075.016 2930.663,3073.477 2927.196 C 3071.938 2923.729,3069.565 2920.017,3068.204 2918.946 C 3065.394 2916.735,3060.640 2916.443,3057.098 2918.265 M3078.800 2989.500 C 3090.709 3015.413,3124.400 3082.576,3136.989 3105.500 C 3159.040 3145.655,3180.888 3178.482,3196.457 3194.854 C 3217.902 3217.404,3265.738 3246.890,3345.998 3287.031 C 3374.910 3301.492,3437.346 3331.000,3439.029 3331.000 C 3439.498 3331.000,3440.125 3331.393,3440.421 3331.873 C 3440.718 3332.353,3435.232 3335.353,3428.231 3338.540 C 3398.225 3352.198,3381.450 3360.229,3347.834 3377.033 C 3270.815 3415.534,3226.473 3442.245,3201.729 3465.045 C 3171.012 3493.349,3126.994 3570.666,3065.689 3704.000 L 3062.241 3711.500 3059.479 3705.500 C 3057.960 3702.200,3054.756 3695.286,3052.358 3690.136 C 3049.961 3684.987,3048.000 3680.646,3048.000 3680.490 C 3048.000 3680.335,3044.023 3671.941,3039.163 3661.838 C 3032.102 3647.161,3029.781 3643.221,3027.616 3642.235 C 3021.752 3639.563,3022.042 3639.453,2981.000 3659.944 C 2943.622 3678.605,2927.369 3687.635,2908.000 3700.501 C 2878.629 3720.012,2866.083 3735.323,2840.026 3783.453 C 2828.198 3805.303,2808.371 3844.999,2800.935 3861.721 C 2797.946 3868.443,2795.249 3873.955,2794.942 3873.971 C 2794.636 3873.987,2793.541 3872.088,2792.510 3869.750 C 2784.989 3852.700,2760.627 3803.007,2751.452 3786.000 C 2742.867 3770.086,2726.880 3744.349,2719.434 3734.455 C 2705.127 3715.445,2689.018 3703.243,2647.639 3680.072 C 2633.161 3671.965,2591.046 3650.817,2568.748 3640.457 C 2560.635 3636.688,2554.335 3633.291,2554.748 3632.909 C 2555.162 3632.527,2561.125 3629.628,2568.000 3626.466 C 2623.423 3600.978,2668.411 3576.486,2693.141 3558.340 C 2716.582 3541.140,2734.917 3513.936,2768.854 3446.000 C 2792.762 3398.139,2795.160 3391.904,2791.957 3385.919 C 2790.515 3383.226,2744.378 3360.367,2699.126 3339.927 L 2682.752 3332.531 2687.626 3330.386 C 2716.967 3317.476,2787.022 3283.423,2817.000 3267.498 C 2885.049 3231.349,2920.765 3206.228,2939.980 3181.000 C 2956.949 3158.722,2976.706 3126.291,2998.463 3085.000 C 3006.112 3070.485,3034.757 3012.913,3039.014 3003.500 C 3040.258 3000.750,3043.913 2992.934,3047.138 2986.131 C 3050.362 2979.327,3053.000 2973.646,3053.000 2973.506 C 3053.000 2973.365,3055.085 2968.806,3057.632 2963.375 L 3062.265 2953.500 3065.707 2961.000 C 3067.600 2965.125,3073.492 2977.950,3078.800 2989.500 M3058.326 3012.143 C 3048.364 3013.878,3045.834 3016.679,3037.678 3035.000 C 3015.950 3083.810,2989.895 3135.742,2970.698 3168.500 C 2948.963 3205.591,2938.681 3216.434,2907.000 3235.673 C 2873.926 3255.759,2815.065 3285.589,2765.000 3307.639 C 2748.668 3314.832,2744.246 3318.478,2741.964 3326.630 C 2739.367 3335.903,2743.950 3347.063,2752.081 3351.268 C 2753.962 3352.241,2763.375 3356.580,2773.000 3360.910 C 2837.174 3389.785,2898.424 3422.064,2925.000 3441.016 C 2944.245 3454.739,2953.607 3466.598,2975.911 3505.500 C 2987.323 3525.405,3019.495 3589.614,3031.777 3617.000 C 3044.402 3645.150,3044.883 3646.017,3049.793 3649.443 C 3055.540 3653.454,3065.608 3654.266,3071.587 3651.201 C 3078.112 3647.856,3079.730 3645.781,3085.062 3633.910 C 3087.882 3627.635,3090.895 3620.925,3091.758 3619.000 C 3092.621 3617.075,3096.178 3609.477,3099.663 3602.115 C 3103.149 3594.753,3106.000 3588.559,3106.000 3588.350 C 3106.000 3587.726,3131.848 3536.186,3136.768 3527.000 C 3155.275 3492.444,3170.616 3468.061,3180.923 3456.821 C 3188.569 3448.482,3198.402 3441.046,3216.440 3429.962 C 3249.176 3409.847,3310.877 3378.584,3362.500 3355.956 C 3376.045 3350.019,3378.056 3348.540,3380.950 3342.384 C 3384.982 3333.805,3382.583 3320.706,3376.103 3315.920 C 3374.671 3314.863,3365.175 3310.256,3355.000 3305.682 C 3302.578 3282.119,3252.056 3256.494,3220.000 3237.210 C 3187.802 3217.840,3178.274 3208.606,3160.370 3179.423 C 3141.876 3149.278,3111.350 3089.774,3090.929 3044.062 C 3080.063 3019.738,3079.398 3018.528,3075.431 3015.834 C 3070.684 3012.609,3063.968 3011.160,3058.326 3012.143 M2785.000 3440.954 C 2779.088 3444.106,2776.434 3447.943,2769.650 3463.147 C 2766.055 3471.202,2758.987 3486.052,2753.942 3496.147 C 2735.349 3533.351,2724.917 3550.349,2715.558 3558.691 C 2704.234 3568.784,2674.614 3584.893,2625.515 3607.663 C 2616.723 3611.741,2608.229 3616.297,2606.639 3617.788 C 2597.901 3625.984,2597.872 3640.041,2606.575 3648.500 C 2609.450 3651.295,2614.427 3654.136,2623.095 3657.932 C 2629.918 3660.920,2645.718 3668.442,2658.206 3674.647 C 2703.949 3697.378,2716.264 3705.607,2725.888 3719.871 C 2736.399 3735.450,2758.238 3777.427,2770.437 3805.500 C 2778.132 3823.209,2783.470 3827.997,2795.500 3827.985 C 2799.916 3827.980,2808.563 3824.342,2811.173 3821.392 C 2812.093 3820.351,2816.418 3811.625,2820.784 3802.000 C 2841.609 3756.094,2862.826 3718.000,2872.660 3708.861 C 2883.273 3698.998,2938.553 3669.340,2973.500 3654.761 C 2980.999 3651.632,2984.515 3648.614,2987.397 3642.832 C 2990.642 3636.318,2990.707 3631.041,2987.623 3624.500 C 2984.522 3617.925,2982.073 3615.822,2972.493 3611.509 C 2946.216 3599.679,2918.732 3586.121,2901.638 3576.556 C 2877.069 3562.808,2869.640 3556.359,2859.529 3540.000 C 2849.414 3523.636,2834.657 3494.842,2819.836 3462.550 C 2812.520 3446.613,2810.635 3443.900,2804.790 3440.903 C 2799.833 3438.360,2789.816 3438.387,2785.000 3440.954 M557.500 3496.024 C 445.392 3501.054,338.033 3518.397,263.572 3543.506 L 250.643 3547.866 247.893 3545.683 C 243.741 3542.388,237.607 3534.242,233.302 3526.309 L 229.451 3519.213 225.560 3526.575 C 218.586 3539.770,209.638 3548.721,197.336 3554.809 C 193.301 3556.805,190.000 3558.718,190.000 3559.059 C 190.000 3559.400,191.238 3560.234,192.750 3560.913 C 194.262 3561.591,197.450 3563.279,199.833 3564.664 L 204.165 3567.181 194.333 3572.714 C 137.869 3604.486,119.345 3640.897,141.132 3677.284 C 145.809 3685.094,158.708 3698.675,168.688 3706.296 C 198.186 3728.822,250.072 3750.588,310.830 3765.926 C 376.116 3782.408,439.213 3791.760,527.500 3798.041 C 567.306 3800.873,677.905 3800.883,721.500 3798.058 C 815.473 3791.968,897.746 3778.412,968.900 3757.293 L 981.300 3753.613 987.413 3760.066 C 991.062 3763.917,995.255 3769.841,997.814 3774.759 C 1000.172 3779.292,1002.282 3783.000,1002.504 3783.000 C 1002.725 3783.000,1004.983 3778.977,1007.523 3774.061 C 1013.294 3762.887,1022.789 3753.459,1034.271 3747.500 C 1038.510 3745.300,1041.983 3743.259,1041.989 3742.965 C 1041.995 3742.670,1038.983 3740.942,1035.296 3739.123 L 1028.592 3735.818 1043.667 3728.106 C 1072.385 3713.416,1095.022 3695.760,1105.661 3679.757 C 1128.732 3645.053,1113.151 3608.517,1062.072 3577.544 C 1025.586 3555.420,973.223 3537.002,902.830 3521.533 C 847.873 3509.456,786.652 3501.733,708.000 3496.955 C 685.173 3495.568,581.900 3494.930,557.500 3496.024 M721.500 3503.415 C 777.222 3507.281,824.734 3512.706,863.000 3519.573 C 969.588 3538.700,1044.809 3566.017,1083.496 3599.648 C 1131.106 3641.035,1114.893 3687.037,1039.650 3724.050 L 1023.747 3731.873 1020.819 3729.708 C 1016.810 3726.744,1010.941 3718.914,1006.314 3710.356 L 1002.451 3703.213 998.476 3710.834 C 992.579 3722.138,982.074 3732.763,971.411 3738.209 C 966.790 3740.569,963.007 3742.744,963.005 3743.042 C 963.002 3743.340,965.570 3744.844,968.711 3746.384 C 972.851 3748.415,974.020 3749.402,972.961 3749.973 C 972.157 3750.407,965.875 3752.359,959.000 3754.312 C 889.655 3774.012,810.773 3786.498,717.500 3792.542 C 684.087 3794.706,598.348 3795.576,564.500 3794.094 C 434.440 3788.398,328.048 3770.395,247.000 3740.367 C 225.708 3732.479,195.225 3717.622,180.964 3708.184 C 142.104 3682.464,128.759 3651.896,144.212 3624.000 C 153.540 3607.161,174.569 3589.205,200.872 3575.620 L 209.736 3571.042 213.314 3574.516 C 218.329 3579.387,221.230 3583.403,225.686 3591.644 L 229.549 3598.787 233.513 3591.144 C 239.048 3580.473,250.774 3568.757,261.246 3563.436 C 265.506 3561.271,268.993 3559.245,268.996 3558.934 C 268.998 3558.622,266.319 3557.086,263.042 3555.520 C 259.765 3553.954,257.309 3552.308,257.584 3551.863 C 258.451 3550.461,287.833 3541.366,310.097 3535.609 C 373.830 3519.129,450.006 3507.964,529.000 3503.526 C 544.125 3502.676,558.525 3501.812,561.000 3501.606 C 563.475 3501.400,595.425 3501.363,632.000 3501.525 C 679.876 3501.737,704.941 3502.267,721.500 3503.415 M383.000 3648.000 L 383.000 3716.000 433.500 3716.000 L 484.000 3716.000 484.000 3689.223 L 484.000 3662.446 477.000 3655.500 C 473.150 3651.680,470.000 3648.080,470.000 3647.500 C 470.000 3646.920,473.150 3643.320,477.000 3639.500 L 484.000 3632.554 484.000 3606.277 L 484.000 3580.000 433.500 3580.000 L 383.000 3580.000 383.000 3648.000 M495.000 3648.000 L 495.000 3716.000 546.000 3716.000 L 597.000 3716.000 597.000 3648.000 L 597.000 3580.000 580.000 3580.000 L 563.000 3580.000 563.000 3632.500 L 563.000 3685.000 546.000 3685.000 L 529.000 3685.000 529.000 3632.500 L 529.000 3580.000 512.000 3580.000 L 495.000 3580.000 495.000 3648.000 M674.000 3632.500 L 674.000 3685.000 657.000 3685.000 L 640.000 3685.000 640.000 3673.476 L 640.000 3661.952 623.250 3662.226 L 606.500 3662.500 606.234 3689.250 L 605.967 3716.000 656.984 3716.000 L 708.000 3716.000 708.000 3648.000 L 708.000 3580.000 691.000 3580.000 L 674.000 3580.000 674.000 3632.500 M719.000 3648.000 L 719.000 3716.000 736.000 3716.000 L 753.000 3716.000 753.000 3648.000 L 753.000 3580.000 736.000 3580.000 L 719.000 3580.000 719.000 3648.000 M763.000 3648.000 L 763.000 3716.000 780.000 3716.000 L 797.000 3716.000 797.000 3689.500 L 797.000 3663.000 814.000 3663.000 L 831.000 3663.000 831.000 3689.500 L 831.000 3716.000 848.000 3716.000 L 865.000 3716.000 865.000 3648.000 L 865.000 3580.000 848.000 3580.000 L 831.000 3580.000 831.000 3606.000 L 831.000 3632.000 814.000 3632.000 L 797.000 3632.000 797.000 3606.000 L 797.000 3580.000 780.000 3580.000 L 763.000 3580.000 763.000 3648.000 M451.000 3621.500 L 451.000 3632.000 434.000 3632.000 L 417.000 3632.000 417.000 3621.500 L 417.000 3611.000 434.000 3611.000 L 451.000 3611.000 451.000 3621.500 M451.000 3674.000 L 451.000 3685.000 434.000 3685.000 L 417.000 3685.000 417.000 3674.000 L 417.000 3663.000 434.000 3663.000 L 451.000 3663.000 451.000 3674.000 " stroke="none" fill="black" fill-rule="evenodd"/></svg>