<svg id="svg" version="1.1" width="2260" height="2890" xmlns="http://www.w3.org/2000/svg"><path d="M155.560 2.884 L 154.068 5.768 183.784 19.740 C 200.128 27.425,221.979 37.458,232.343 42.036 C 247.073 48.543,252.129 51.275,255.503 54.555 C 263.203 62.038,263.500 63.114,263.500 83.500 C 263.500 103.881,263.201 104.963,255.516 112.433 C 252.341 115.519,247.451 118.280,236.856 122.970 C 179.232 148.480,105.298 184.851,64.500 207.758 C 43.251 219.689,20.702 233.922,6.750 244.211 L 0.000 249.189 0.000 1569.595 L 0.000 2890.000 1051.474 2890.000 L 2102.949 2890.000 2104.440 2887.116 L 2105.932 2884.232 2076.216 2870.260 C 2059.872 2862.575,2038.021 2852.542,2027.657 2847.964 C 2012.927 2841.457,2007.871 2838.725,2004.497 2835.445 C 1996.797 2827.962,1996.500 2826.886,1996.500 2806.500 C 1996.500 2786.049,1996.780 2785.052,2004.619 2777.541 C 2007.930 2774.368,2012.811 2771.604,2023.301 2766.960 C 2080.525 2741.628,2154.910 2705.033,2195.500 2682.242 C 2216.749 2670.311,2239.298 2656.078,2253.250 2645.789 L 2260.000 2640.811 2260.000 1320.405 L 2260.000 0.000 1208.526 -0.000 L 157.051 -0.000 155.560 2.884 " stroke="none" fill="black" fill-rule="evenodd"/></svg>