<svg id="svg" version="1.1" width="598" height="591" xmlns="http://www.w3.org/2000/svg"><path d="M499.000 392.097 C 495.425 393.166,483.950 395.430,473.500 397.128 C 463.050 398.826,453.262 400.853,451.750 401.633 C 447.808 403.666,447.967 408.339,452.124 412.628 C 455.110 415.708,455.406 416.799,458.859 437.391 C 462.354 458.228,462.415 459.027,460.736 461.870 C 457.286 467.711,459.595 473.012,465.579 472.988 C 467.185 472.982,476.375 471.637,486.000 470.000 C 495.625 468.363,505.975 467.015,509.000 467.006 C 516.301 466.983,521.725 465.382,523.081 462.848 C 523.741 461.616,524.048 457.041,523.843 451.495 C 523.569 444.086,523.114 441.780,521.595 440.103 C 517.716 435.820,512.448 438.208,508.474 446.052 C 505.469 451.981,503.135 453.595,496.260 454.497 C 491.307 455.147,490.969 455.048,490.071 452.686 C 489.548 451.311,488.815 447.489,488.442 444.192 C 487.816 438.660,487.937 438.104,489.997 437.002 C 491.968 435.947,492.563 436.170,495.059 438.903 C 496.614 440.606,498.566 442.000,499.397 442.000 C 502.219 442.000,505.829 439.763,506.374 437.677 C 507.361 433.905,503.397 420.491,500.190 416.750 C 498.452 414.723,493.719 414.426,492.213 416.250 C 491.645 416.938,490.776 419.075,490.281 421.000 C 489.661 423.415,488.734 424.595,487.291 424.806 C 485.425 425.080,485.070 424.341,483.994 417.963 C 483.253 413.571,483.145 410.455,483.715 409.885 C 484.225 409.375,487.538 408.688,491.077 408.357 L 497.513 407.756 502.506 412.203 C 508.521 417.559,510.191 418.258,513.738 416.909 C 517.145 415.614,517.965 414.337,517.985 410.295 C 518.006 405.734,513.474 393.823,510.928 391.750 C 508.297 389.608,507.216 389.640,499.000 392.097 M88.849 391.670 C 87.941 391.911,86.621 393.501,85.916 395.203 C 84.820 397.850,84.878 398.721,86.317 401.230 C 87.243 402.843,88.000 405.605,88.000 407.369 C 88.000 410.028,83.935 433.782,81.446 445.667 C 81.082 447.408,79.482 450.080,77.892 451.604 C 74.203 455.137,73.899 460.253,77.250 462.386 C 79.784 463.998,99.767 468.000,105.285 468.000 C 111.307 468.000,113.612 462.971,110.265 457.139 C 108.617 454.268,108.619 453.596,110.286 443.808 C 115.452 413.475,115.974 411.444,119.594 407.607 C 124.522 402.382,123.829 398.049,117.758 396.131 C 114.523 395.109,92.061 390.894,91.035 391.116 C 90.741 391.180,89.757 391.429,88.849 391.670 M421.500 403.964 C 414.760 404.740,411.527 406.147,410.023 408.957 C 408.411 411.970,408.791 413.690,411.850 417.215 C 413.417 419.022,414.991 421.701,415.348 423.169 C 416.722 428.817,411.408 448.000,408.470 448.000 C 406.616 448.000,404.370 444.969,401.108 438.068 C 397.148 429.691,396.321 424.213,398.406 420.181 C 400.051 417.002,400.439 413.308,399.412 410.630 C 398.205 407.485,392.734 406.777,379.042 407.996 C 363.123 409.413,361.147 409.922,358.670 413.240 C 356.993 415.486,356.878 416.291,357.884 418.719 C 358.532 420.285,360.306 422.739,361.825 424.173 C 363.361 425.623,366.522 431.376,368.950 437.140 C 376.347 454.702,386.846 474.692,390.119 477.447 C 394.129 480.821,396.732 481.369,404.698 480.516 C 410.053 479.942,411.881 479.273,414.070 477.084 C 417.352 473.801,421.488 461.443,427.149 438.000 C 429.527 428.153,432.057 420.084,433.424 417.987 C 436.657 413.029,437.235 410.610,435.893 407.665 C 434.902 405.489,430.079 402.686,428.101 403.137 C 427.770 403.212,424.800 403.584,421.500 403.964 M184.280 406.003 C 180.815 407.424,180.316 411.586,183.018 416.532 C 185.317 420.742,185.322 420.840,184.143 437.131 C 182.325 462.244,182.033 464.065,179.432 466.475 C 175.741 469.896,175.358 473.449,178.359 476.450 C 179.761 477.852,181.952 479.000,183.227 479.000 C 189.218 479.000,222.140 482.051,226.700 483.029 C 229.525 483.635,233.519 483.989,235.577 483.815 C 238.749 483.548,239.611 482.933,241.245 479.774 C 242.304 477.725,243.680 473.080,244.301 469.453 C 245.772 460.862,244.306 457.656,238.692 457.188 C 235.281 456.904,234.458 457.384,229.486 462.559 L 224.025 468.242 217.998 467.806 C 214.683 467.566,211.498 466.898,210.920 466.320 C 210.186 465.586,210.342 459.412,211.435 445.840 C 212.296 435.154,213.000 425.621,213.000 424.656 C 213.000 423.690,214.575 421.279,216.500 419.297 C 222.783 412.828,220.400 408.433,209.854 407.038 C 198.643 405.556,186.565 405.067,184.280 406.003 M294.000 410.035 C 279.366 412.634,268.409 420.957,263.953 432.859 C 256.638 452.397,264.458 473.404,282.032 481.423 C 294.075 486.918,311.834 486.969,323.686 481.544 C 344.391 472.064,351.538 444.744,338.386 425.349 C 330.083 413.105,311.945 406.847,294.000 410.035 M305.292 424.078 C 309.886 433.910,311.266 436.061,312.717 435.649 C 315.740 434.789,336.097 432.763,336.605 433.271 C 336.868 433.535,332.771 437.798,327.500 442.745 L 317.917 451.739 322.886 462.355 C 330.399 478.403,330.732 477.883,317.664 470.487 C 311.360 466.919,305.864 464.000,305.451 464.000 C 305.038 464.000,300.268 468.090,294.850 473.089 C 289.433 478.088,285.000 481.750,285.000 481.227 C 285.000 480.703,286.135 474.702,287.522 467.890 C 290.458 453.474,291.756 455.870,276.382 447.316 C 270.717 444.164,266.175 441.499,266.291 441.394 C 266.406 441.289,272.551 440.469,279.946 439.572 C 287.341 438.676,293.447 437.843,293.515 437.721 C 293.583 437.599,294.703 431.762,296.003 424.750 C 297.303 417.738,298.655 412.000,299.008 412.000 C 299.360 412.000,302.188 417.435,305.292 424.078 M298.948 435.250 L 297.500 442.500 289.500 443.500 L 281.500 444.500 288.370 448.366 L 295.240 452.232 294.636 456.366 C 294.303 458.640,293.743 462.300,293.391 464.500 L 292.751 468.500 298.626 462.834 L 304.500 457.168 311.313 461.071 C 319.001 465.474,319.125 465.242,314.257 455.560 L 311.773 450.619 317.438 445.176 L 323.102 439.733 315.188 440.423 L 307.273 441.114 304.487 434.557 C 302.954 430.951,301.407 428.000,301.048 428.000 C 300.689 428.000,299.744 431.262,298.948 435.250 M181.008 504.893 C 178.071 505.710,175.797 509.667,176.637 512.500 C 176.963 513.600,178.078 515.429,179.115 516.564 C 180.845 518.459,181.000 520.483,181.000 541.120 C 181.000 563.541,180.992 563.622,178.500 567.000 C 175.382 571.226,175.375 572.466,178.455 575.545 C 180.832 577.923,181.358 578.000,195.232 578.000 C 206.577 578.000,210.017 577.676,211.777 576.443 C 214.727 574.377,214.736 569.412,211.795 566.282 C 210.128 564.508,209.492 562.385,209.186 557.577 C 208.833 552.030,209.065 550.935,211.007 548.993 C 212.882 547.118,214.018 546.843,218.223 547.247 C 220.967 547.511,223.608 548.351,224.091 549.113 C 224.574 549.876,224.976 553.450,224.985 557.056 C 224.997 562.493,224.573 564.190,222.500 567.000 C 219.382 571.226,219.375 572.466,222.455 575.545 C 224.832 577.923,225.358 578.000,239.232 578.000 C 250.577 578.000,254.017 577.676,255.777 576.443 C 258.748 574.362,258.735 569.411,255.750 566.234 C 253.552 563.894,253.500 563.308,253.500 541.000 C 253.500 518.692,253.552 518.106,255.750 515.766 C 258.351 512.997,258.679 508.822,256.468 506.611 C 254.188 504.330,249.374 503.749,236.063 504.144 C 226.432 504.430,223.736 504.835,222.369 506.202 C 219.995 508.576,220.223 513.544,222.833 516.323 C 224.557 518.158,225.000 519.852,225.000 524.614 C 225.000 527.937,224.466 531.134,223.800 531.800 C 223.140 532.460,220.006 533.000,216.835 533.000 C 211.965 533.000,210.892 532.667,209.923 530.857 C 208.127 527.501,209.272 518.404,211.833 515.678 C 214.002 513.369,214.633 509.544,213.214 507.313 C 212.799 506.659,211.202 505.647,209.665 505.063 C 206.615 503.903,185.024 503.775,181.008 504.893 M279.000 504.709 C 273.625 506.686,272.703 510.853,276.500 516.000 C 278.986 519.370,279.000 519.508,279.000 541.150 C 279.000 562.713,278.977 562.945,276.500 566.595 C 273.478 571.049,273.355 573.355,276.000 576.000 C 277.822 577.822,279.333 578.000,293.000 578.000 C 306.667 578.000,308.178 577.822,310.000 576.000 C 312.681 573.319,312.520 570.093,309.500 566.000 C 307.019 562.637,307.000 562.456,307.015 541.556 C 307.026 525.032,307.341 519.962,308.475 518.000 C 311.822 512.212,312.224 511.027,311.633 508.674 C 311.232 507.077,309.893 505.810,307.857 505.100 C 304.680 503.992,281.792 503.683,279.000 504.709 M340.797 504.680 C 337.845 505.457,337.703 508.670,340.443 512.701 C 341.849 514.771,343.000 517.611,343.000 519.012 C 343.000 522.350,334.401 561.383,333.150 563.719 C 332.620 564.711,331.244 566.375,330.093 567.416 C 327.512 569.751,327.383 574.132,329.829 576.345 C 332.344 578.621,346.568 578.691,349.777 576.443 C 352.985 574.196,352.628 570.243,348.865 566.361 C 345.789 563.187,345.753 563.037,346.918 558.313 C 349.514 547.795,350.114 546.000,351.033 546.000 C 351.558 546.000,355.609 553.231,360.035 562.070 C 364.765 571.515,368.580 577.991,369.291 577.780 C 369.956 577.582,373.934 570.706,378.132 562.500 C 382.329 554.293,386.267 547.411,386.882 547.206 C 387.497 547.001,388.000 547.048,388.000 547.310 C 388.000 547.572,388.706 551.199,389.568 555.370 L 391.137 562.954 388.568 566.321 C 386.001 569.688,385.382 572.529,386.765 574.600 C 388.593 577.338,392.380 578.000,406.212 578.000 C 417.575 578.000,421.017 577.677,422.777 576.443 C 425.813 574.317,425.681 569.989,422.489 566.989 C 419.348 564.039,418.863 562.131,414.935 537.274 C 411.426 515.073,411.286 517.479,416.495 510.360 C 417.834 508.529,416.011 505.741,412.905 504.872 C 409.148 503.821,394.414 503.892,391.565 504.975 C 389.448 505.780,389.000 506.598,389.000 509.662 C 389.000 513.290,381.214 531.883,378.437 534.887 C 377.372 536.038,376.302 534.572,372.116 526.231 C 369.344 520.707,366.552 514.008,365.910 511.344 C 365.269 508.680,364.041 505.938,363.181 505.250 C 361.674 504.045,344.838 503.617,340.797 504.680 " stroke="none" fill="black" fill-rule="evenodd"/></svg>